<?xml version="1.0" encoding="UTF-8" standalone="no"?>
<svg
   xmlns:dc="http://purl.org/dc/elements/1.1/"
   xmlns:cc="http://creativecommons.org/ns#"
   xmlns:rdf="http://www.w3.org/1999/02/22-rdf-syntax-ns#"
   xmlns:svg="http://www.w3.org/2000/svg"
   xmlns="http://www.w3.org/2000/svg"
   viewBox="0 0 3300 2200"
   height="2200"
   width="3300"
   xml:space="preserve"
   id="svg2"
   version="1.1"><metadata
     id="metadata8"><rdf:RDF><cc:Work
         rdf:about=""><dc:format>image/svg+xml</dc:format><dc:type
           rdf:resource="http://purl.org/dc/dcmitype/StillImage" /></cc:Work></rdf:RDF></metadata><defs
     id="defs6" /><g
     transform="matrix(1.3333333,0,0,-1.3333333,0,2200)"
     id="g10"><g
       transform="scale(0.1)"
       id="g12"><g
         transform="scale(1.5184)"
         id="g14"><path
           id="path16"
           style="fill:#ffffff;fill-opacity:0;fill-rule:nonzero;stroke:none"
           d="M 16300,0 H 0 V 10866.7 H 16300 V 0" /></g><g
         transform="scale(1.45915)"
         id="g18"><path
           id="path20"
           style="fill:#c9daf0;fill-opacity:1;fill-rule:nonzero;stroke:none"
           d="m 14240.2,1314.33 c 0,0 2059.8,1809.28 1670.1,3201.03 -389.7,1391.75 -1081.6,1449.38 -918.5,2700 167,1280.41 -97.5,3166.24 -3910.9,3027.04 C 8577.34,10151 8721.94,9845.77 7657.21,9887.52 6376.6,9937.74 4776.31,10555.6 3440.23,9915.35 2104.15,9275.15 2772.19,6408.14 2104.15,5907.11 1436.11,5406.08 879.412,6046.29 795.911,4069.98 712.402,2093.69 2187.66,1314.33 2187.66,1314.33 H 14240.2" /></g><path
         id="path22"
         style="fill:#acc3e3;fill-opacity:1;fill-rule:nonzero;stroke:none"
         d="m 5088.74,8418.03 h 5157.56 v 273.848 H 5088.74 Z" /><g
         transform="scale(1.29875)"
         id="g24"><path
           id="path26"
           style="fill:#acc3e3;fill-opacity:1;fill-rule:nonzero;stroke:none"
           d="m 16300,9513.7 c 0,-462.57 -375.1,-837.57 -837.6,-837.57 -462.6,0 -837.5,375 -837.5,837.57 0,462.58 374.9,837.6 837.5,837.6 462.5,0 837.6,-375.02 837.6,-837.6" /></g><g
         transform="scale(1.23294)"
         id="g28"><path
           id="path30"
           style="fill:#ffffff;fill-opacity:1;fill-rule:nonzero;stroke:none"
           d="m 16300,9998.44 -422.2,285.26 c -5.6,3.7 -7,11.4 -3.3,17 3.8,5.6 11.5,7.1 17,3.3 l 384,-259.4 v 554.2 c 0,6.8 5.4,12.3 12.3,12.3 6.7,0 12.2,-5.5 12.2,-12.3 v -600.36" /></g><g
         transform="scale(1.23294)"
         id="g32"><path
           id="path34"
           style="fill:#ffffff;fill-opacity:1;fill-rule:nonzero;stroke:none"
           d="m 16287.8,10739 c -6.9,0 -12.3,5.5 -12.3,12.3 v 70.8 c 0,6.8 5.4,12.2 12.3,12.2 6.7,0 12.2,-5.4 12.2,-12.2 v -70.8 c 0,-6.8 -5.5,-12.3 -12.2,-12.3" /></g><g
         transform="scale(1.194)"
         id="g36"><path
           id="path38"
           style="fill:#ffffff;fill-opacity:1;fill-rule:nonzero;stroke:none"
           d="m 16286.1,10868.6 c -3.2,0 -6.4,1.2 -9,3.7 l -51.6,51.7 c -5,4.9 -5,13 0,17.9 4.9,4.9 12.9,4.9 17.9,0 l 51.7,-51.7 c 4.9,-5 4.9,-13 0,-17.9 -2.5,-2.5 -5.7,-3.7 -9,-3.7" /></g><g
         transform="scale(1.17774)"
         id="g40"><path
           id="path42"
           style="fill:#ffffff;fill-opacity:1;fill-rule:nonzero;stroke:none"
           d="m 16287.2,10478.4 h -74.1 c -7.2,0 -12.9,5.7 -12.9,12.8 0,7.1 5.7,12.9 12.9,12.9 h 74.1 c 7,0 12.8,-5.8 12.8,-12.9 0,-7.1 -5.8,-12.8 -12.8,-12.8" /></g><g
         transform="scale(1.194)"
         id="g44"><path
           id="path46"
           style="fill:#ffffff;fill-opacity:1;fill-rule:nonzero;stroke:none"
           d="m 16234.4,9751.16 c -3.2,0 -6.4,1.23 -8.9,3.71 -5,4.94 -5,12.94 0,17.89 l 51.6,51.7 c 5,4.94 13,4.94 18,0 4.9,-4.94 4.9,-12.95 0,-17.89 l -51.7,-51.7 c -2.5,-2.48 -5.7,-3.71 -9,-3.71" /></g><g
         transform="scale(1.23294)"
         id="g48"><path
           id="path50"
           style="fill:#ffffff;fill-opacity:1;fill-rule:nonzero;stroke:none"
           d="m 16287.8,9208.67 c -6.9,0 -12.3,5.48 -12.3,12.25 v 70.8 c 0,6.78 5.4,12.26 12.3,12.26 6.7,0 12.2,-5.48 12.2,-12.26 v -70.8 c 0,-6.77 -5.5,-12.25 -12.2,-12.25" /></g><g
         transform="scale(1.27585)"
         id="g52"><path
           id="path54"
           style="fill:#ffffff;fill-opacity:1;fill-rule:nonzero;stroke:none"
           d="m 16287,9125.58 c -3,0 -6,1.15 -8.4,3.46 l -48.4,48.38 c -4.6,4.63 -4.6,12.13 0,16.75 4.7,4.62 12.2,4.62 16.8,0 l 48.4,-48.39 c 4.6,-4.62 4.6,-12.12 0,-16.74 -2.3,-2.31 -5.4,-3.46 -8.4,-3.46" /></g><g
         transform="scale(1.2935)"
         id="g56"><path
           id="path58"
           style="fill:#ffffff;fill-opacity:1;fill-rule:nonzero;stroke:none"
           d="m 16288.3,9540.65 h -67.5 c -6.5,0 -11.7,5.23 -11.7,11.67 0,6.46 5.2,11.68 11.7,11.68 h 67.5 c 6.4,0 11.7,-5.22 11.7,-11.68 0,-6.44 -5.3,-11.67 -11.7,-11.67" /></g><g
         transform="scale(1.27585)"
         id="g60"><path
           id="path62"
           style="fill:#ffffff;fill-opacity:1;fill-rule:nonzero;stroke:none"
           d="m 16238.6,10171.3 c -2.9,0 -6,1.2 -8.4,3.5 -4.6,4.6 -4.6,12.1 0,16.7 l 48.4,48.4 c 4.6,4.6 12.2,4.6 16.8,0 4.6,-4.6 4.6,-12.1 0,-16.7 l -48.4,-48.4 c -2.3,-2.3 -5.3,-3.5 -8.4,-3.5" /></g><path
         id="path64"
         style="fill:#acc3e3;fill-opacity:1;fill-rule:nonzero;stroke:none"
         d="m 15221.3,9741.64 h -5157.6 v 273.86 h 5157.6 v -273.86" /><path
         id="path66"
         style="fill:#acc3e3;fill-opacity:1;fill-rule:nonzero;stroke:none"
         d="m 13542.6,9964.78 h -263.7 V 11121 h 263.7 V 9964.78" /><path
         id="path68"
         style="fill:#a2badb;fill-opacity:1;fill-rule:nonzero;stroke:none"
         d="m 10801.6,10007.9 v 263.7 h 1156.3 v -263.7 h -1156.3" /><path
         id="path70"
         style="fill:#acc3e3;fill-opacity:1;fill-rule:nonzero;stroke:none"
         d="m 10801.6,10271.6 v 263.7 h 1156.3 v -263.7 h -1156.3" /><path
         id="path72"
         style="fill:#acc3e3;fill-opacity:1;fill-rule:nonzero;stroke:none"
         d="m 12739.1,9970.4 -233,123.6 541.9,1021.4 232.9,-123.6 -541.8,-1021.4" /><path
         id="path74"
         style="fill:#acc3e3;fill-opacity:1;fill-rule:nonzero;stroke:none"
         d="m 14070.1,9964.78 h -263.7 V 11121 h 263.7 V 9964.78" /><path
         id="path76"
         style="fill:#a2badb;fill-opacity:1;fill-rule:nonzero;stroke:none"
         d="m 13806.4,9964.78 h -263.8 V 11121 h 263.8 V 9964.78" /><path
         id="path78"
         style="fill:#a2badb;fill-opacity:1;fill-rule:nonzero;stroke:none"
         d="m 14333.8,9964.78 h -263.7 V 11121 h 263.7 V 9964.78" /><path
         id="path80"
         style="fill:#acc3e3;fill-opacity:1;fill-rule:nonzero;stroke:none"
         d="m 11494.4,5609.9 c 0,0 -486.9,1188.21 711.7,2015.1 0,0 62.7,-1436.8 -433.1,-2434.7 -495.7,-997.9 -278.6,419.6 -278.6,419.6" /><path
         id="path82"
         style="fill:#acc3e3;fill-opacity:1;fill-rule:nonzero;stroke:none"
         d="m 11117.3,3994.6 c 0,0 844.4,2008.2 1871.3,2373.3 136.9,-1734.4 -1643.1,-3605.7 -1643.1,-3605.7 0,0 -456.4,684.7 -228.2,1232.4" /><path
         id="path84"
         style="fill:#383e4d;fill-opacity:1;fill-rule:nonzero;stroke:none"
         d="m 3493.73,1900 h -457.44 c -37.32,0 -67.57,30.3 -67.57,67.6 v 525 h 592.59 v -525 c 0,-37.3 -30.25,-67.6 -67.58,-67.6" /><path
         id="path86"
         style="fill:#383e4d;fill-opacity:1;fill-rule:nonzero;stroke:none"
         d="m 7111.68,1900 h -457.44 c -37.32,0 -67.58,30.3 -67.58,67.6 v 525 h 592.6 v -525 c 0,-37.3 -30.26,-67.6 -67.58,-67.6" /><path
         id="path88"
         style="fill:#383e4d;fill-opacity:1;fill-rule:nonzero;stroke:none"
         d="m 11972,1900 h -457.4 c -37.4,0 -67.6,30.3 -67.6,67.6 v 525 h 592.6 v -525 c 0,-37.3 -30.3,-67.6 -67.6,-67.6" /><path
         id="path90"
         style="fill:#6486dd;fill-opacity:1;fill-rule:nonzero;stroke:none"
         d="m 11187.6,7277.69 c -185,69.37 -728.4,46.25 -1271.84,23.13 -543.45,-23.13 -1086.9,-46.25 -1271.9,23.12 -370.01,138.75 -704.53,2653.08 -1202.52,3006.26 -338.21,239.9 -2503.77,170 -3862.32,100 -723.56,-37.2 -1218.21,-74.5 -1085.94,-64.9 0,0 1918.84,-6348.3 2890.11,-7412 971.26,-1063.8 6405.71,3168.1 6405.71,3168.1 0,0 -231.3,1017.53 -601.3,1156.29" /><path
         id="path92"
         style="fill:#333845;fill-opacity:1;fill-rule:nonzero;stroke:none"
         d="m 5671.94,9457.65 c 0,-190.46 -154.39,-344.85 -344.85,-344.85 -190.45,0 -344.85,154.39 -344.85,344.85 0,190.45 154.4,344.85 344.85,344.85 190.46,0 344.85,-154.4 344.85,-344.85" /><path
         id="path94"
         style="fill:#333845;fill-opacity:1;fill-rule:nonzero;stroke:none"
         d="m 4894.75,10711 c 0,0 -126.43,-455.1 244.41,-1104.05 265.54,-464.71 574.58,-216.72 574.58,-216.72 0,0 175.5,469.55 -68.91,798.27 -244.41,328.7 -750.08,522.5 -750.08,522.5" /><path
         id="path96"
         style="fill:#6486dd;fill-opacity:1;fill-rule:nonzero;stroke:none"
         d="m 12384.7,2419.8 c -117.9,1103 -503.7,3701.6 -595.8,3701.6 -115.6,0 -3700.05,0 -3700.05,0 -71.93,-305.7 401.37,-2666.3 615.51,-3701.6 h 3680.34" /><path
         id="path98"
         style="fill:#ffb581;fill-opacity:1;fill-rule:nonzero;stroke:none"
         d="m 6446.39,9031.92 c -293.69,-142.11 -919.66,99.64 -1021.41,241.75 -22.46,31.23 282.11,189.47 282.11,189.47 L 5510.25,10041 6132,9948.76 c 0,0 18.6,-78.25 50.53,-167.02 8.42,-24.21 18.24,-49.12 28.42,-73.33 30.52,-70.88 68.42,-137.2 111.58,-167.37 0,0 482.1,-335.79 123.86,-509.12" /><path
         id="path100"
         style="fill:#ffb581;fill-opacity:1;fill-rule:nonzero;stroke:none"
         d="m 6322.65,9541.08 c 0,0 552.12,37.57 748.69,-54.93 196.56,-92.5 864.31,-740.45 981.65,-762.44 138.26,-25.93 417.42,866.51 417.42,866.51 l 346.27,57.72 c 0,0 -138.14,-1341.18 -415.64,-1595.55 -277.5,-254.38 -1179.39,485.63 -1179.39,485.63 0,0 -896.11,549.22 -899,1003.06" /><path
         id="path102"
         style="fill:#ef873a;fill-opacity:1;fill-rule:nonzero;stroke:none"
         d="m 6407.33,9554.37 c 0,0 205.32,23.39 454.84,2.6 249.51,-20.79 483.43,-259.91 483.43,-259.91 l -135.15,-478.23 -729.05,677.06 -74.07,58.48" /><path
         id="path104"
         style="fill:#ef873a;fill-opacity:1;fill-rule:nonzero;stroke:none"
         d="m 6407.33,9566.07 c 0,0 739.16,-467.26 895.25,-658.05 156.1,-190.78 150.67,-387.85 261.34,-702.58 254.14,-722.72 952.75,-1066.51 952.75,-1066.51 0,0 -312.2,-242.81 -867.2,-329.53 -555.01,-86.72 -971.26,17.34 -1162.05,86.72 -190.78,69.38 -849.85,867.2 -1196.74,1439.55 -346.88,572.35 -341.5,682.99 -245.05,815.16 68.46,93.82 540.1,256.11 540.1,256.11 0,0 322.57,-312.61 715.03,-198.25 193.87,56.5 106.57,357.38 106.57,357.38" /><path
         id="path106"
         style="fill:#ffb581;fill-opacity:1;fill-rule:nonzero;stroke:none"
         d="m 11833,2962.4 c 0,0 85.3,-204.7 375.3,-341.2 290,-136.5 426.5,-110.9 537.4,-247.4 110.9,-136.4 25.6,-145 25.6,-145 0,0 -1057.7,0 -1168.6,0 -110.9,0 -68.2,324.2 -93.8,426.5 -25.6,102.4 -110.9,238.9 -110.9,238.9 l 435,68.2" /><path
         id="path108"
         style="fill:#23376b;fill-opacity:1;fill-rule:nonzero;stroke:none"
         d="m 8516.67,7138.93 c 0,0 1599.53,-4.32 1968.63,-243.44 344.2,-222.98 1437,-4055.89 1437,-4055.89 l -454.5,-162.4 c 0,0 -1003.3,2035 -1315.2,2534.1 -311.87,499 -2703.04,1476.27 -2703.04,1476.27 0,0 429.2,486.88 1067.11,451.36" /><path
         id="path110"
         style="fill:#c94d43;fill-opacity:1;fill-rule:nonzero;stroke:none"
         d="m 11504.6,2544.4 c 0,0 149.3,17.1 260.2,-34.1 110.9,-51.2 221.7,-93.8 349.7,-102.3 127.9,-8.6 454.9,-8.6 489,25.5 34.2,34.2 -36.9,51.2 -36.9,51.2 0,0 367.9,-60.3 255.9,-238.8 -34,-54.1 -1279.5,-51.2 -1305.1,-8.5 -25.6,42.6 -12.8,307 -12.8,307" /><path
         id="path112"
         style="fill:#ffb581;fill-opacity:1;fill-rule:nonzero;stroke:none"
         d="m 10906.9,2736.3 c 0,0 11.8,-271.5 206.5,-371.8 295.7,-152.3 628.5,-183 743.6,-324.6 115.1,-141.6 5.9,-118 5.9,-118 0,0 -1153.7,0 -1268.8,0 -115.1,0 -70.8,336.4 -97.4,442.6 -26.5,106.2 -59,247.9 -59,247.9 l 469.2,123.9" /><path
         id="path114"
         style="fill:#2c4485;fill-opacity:1;fill-rule:nonzero;stroke:none"
         d="m 8158.22,6919.24 c 0,0 1484.98,-23.75 1848.88,-273.26 256.7,-176.08 972,-4153.38 972,-4153.38 l -530,-15.6 c 0,0 -564.83,1336.2 -790.31,1977.9 -225.46,641.8 -257.31,1091.7 -396.34,1105.7 -280.9,28.5 -815.16,17.4 -1092.67,138.8 -277.5,121.4 -468.28,953.9 -416.25,1110 52.03,156.1 404.69,109.84 404.69,109.84" /><path
         id="path116"
         style="fill:#ffb581;fill-opacity:1;fill-rule:nonzero;stroke:none"
         d="m 6213.65,10708.7 c 0,-348.5 -282.57,-631.1 -631.14,-631.1 -348.57,0 -631.14,282.6 -631.14,631.1 0,348.6 282.57,631.2 631.14,631.2 348.57,0 631.14,-282.6 631.14,-631.2" /><path
         id="path118"
         style="fill:#ffb581;fill-opacity:1;fill-rule:nonzero;stroke:none"
         d="m 6210.53,10786.9 c 0,0 116.96,-334.4 156.29,-654.6 29.66,-241.54 -76.66,-344.61 -207.89,-353.99 -131.23,-9.37 -201.49,-22.53 -454.57,52.46 -253.07,74.99 -388.22,543.13 -388.22,543.13 0,0 566.32,469.2 894.39,413" /><path
         id="path120"
         style="fill:#ffb581;fill-opacity:1;fill-rule:nonzero;stroke:none"
         d="m 5484.64,8548.52 c 46.79,-15.59 899.29,-1372.32 899.29,-1372.32 l -608.19,-187.14 c 0,0 -748.54,1050.04 -852.5,1486.69 -39.73,166.87 561.4,72.77 561.4,72.77" /><path
         id="path122"
         style="fill:#ffb581;fill-opacity:1;fill-rule:nonzero;stroke:none"
         d="m 6011.36,7480.65 c 0,0 1403.52,-358.68 1512.69,-358.68 109.15,0 473.21,140.3 629.16,93.51 37.2,-11.16 114.8,-16.8 134.44,-36.67 19.65,-19.86 80.06,-43.99 82.5,-65.99 26.75,-8.13 33.16,-7.82 34.66,-7.53 1.39,0.28 -1.45,0.55 3.84,-5.92 57.58,-70.37 -26.91,-320.48 -151.66,-336.07 -124.75,-15.6 -608.19,62.38 -1060.44,62.38 -452.23,0 -1122.8,-31.19 -1263.15,155.94 -140.35,187.14 77.96,499.03 77.96,499.03" /><path
         id="path124"
         style="fill:#4a6aba;fill-opacity:1;fill-rule:nonzero;stroke:none"
         d="m 2750.39,2419.8 h 6002.77 c -142.25,1227.7 -568.66,4393.58 -1219.32,4765.39 -809.39,462.5 -3260.67,-462.51 -3260.67,-462.51 0,0 -1212.57,3307.62 -1456.89,3561.32 -198.44,206.1 -486.94,128.1 -689.67,42.3 C 1579.05,10094.6 1948.6,8564.78 2064.23,7269.77 2155.12,6251.8 2414.4,3524.2 2750.39,2419.8" /><path
         id="path126"
         style="fill:#6486dd;fill-opacity:1;fill-rule:nonzero;stroke:none"
         d="M 8753.13,2419.8 C 8610.9,3647.5 8184.5,6813.47 7533.76,7185.24 c -188.07,107.37 -464.91,140 -778.95,126.32 -38.95,-83.86 -75.44,-180.35 -105.61,-291.23 C 6529.73,6582.7 7096.72,3827.9 7347.47,2419.8 h 1405.66" /><path
         id="path128"
         style="fill:#ef873a;fill-opacity:1;fill-rule:nonzero;stroke:none"
         d="m 4998.32,8068.28 621.48,293.11 c 0,0 132.55,179.33 15.59,436.64 -116.96,257.31 -421.05,413.26 -545.81,374.27 -124.75,-38.98 -382.86,-399.73 -91.26,-1104.02" /><path
         id="path130"
         style="fill:#333845;fill-opacity:1;fill-rule:nonzero;stroke:none"
         d="m 5900.48,10997.6 c 0,0 44.95,-382.1 -168.56,-618.1 -213.51,-236 -365.21,-351.2 -365.21,-351.2 0,0 -574.99,148.9 -597.46,519.7 -22.48,370.8 434.52,786.7 692.98,842.9 258.45,56.1 573.09,-101.2 674.23,-314.7 101.13,-213.5 74.07,-289.3 74.07,-289.3 0,0 -40.36,165.7 -310.05,210.7" /><path
         id="path132"
         style="fill:#de7a4a;fill-opacity:1;fill-rule:nonzero;stroke:none"
         d="m 6187.44,10256 c -3.08,0 -5.95,0.4 -8.48,1.5 -6.69,2.8 -10.86,9.7 -6.81,16.7 6.45,11.2 24.43,17 35.51,23.2 12.39,7 25.85,14.4 33.95,26.5 19.6,29.2 -4.96,64.2 -27.91,82.8 -26.17,21.2 -57.46,35.9 -79.02,62.5 -20.29,25.1 -29.49,57.4 -27.05,89.4 0.5,6.5 5.75,9.8 10.81,9.8 5,0 9.8,-3.2 9.63,-9.8 -1.06,-41.3 19.69,-74.8 52.61,-98.2 29.64,-21.2 63.01,-38 83.51,-69.4 19.05,-29.1 18.17,-64.2 -2.56,-92 -9.58,-12.9 -22.53,-23.6 -36.8,-30.9 -9.25,-4.8 -24.97,-12.1 -37.39,-12.1" /><path
         id="path134"
         style="fill:#333845;fill-opacity:1;fill-rule:nonzero;stroke:none"
         d="m 6114.36,10689 c 0,0 91.48,-10 126.74,8.8 35.26,18.9 -137.27,27.9 -147.61,13.3 -10.34,-14.6 20.87,-22.1 20.87,-22.1" /><path
         id="path136"
         style="fill:#333845;fill-opacity:1;fill-rule:nonzero;stroke:none"
         d="m 5919.32,10604.6 c 0,0 -94.68,-104.8 -154.32,-119.2 -59.65,-14.3 129,172 155.73,165.8 26.73,-6.2 -1.41,-46.6 -1.41,-46.6" /><path
         id="path138"
         style="fill:#333845;fill-opacity:1;fill-rule:nonzero;stroke:none"
         d="m 6216.9,10567 c 6.84,-25.2 -0.37,-49.1 -16.09,-53.4 -15.73,-4.2 -34.01,12.8 -40.85,38 -6.84,25.2 0.37,49.1 16.09,53.4 15.73,4.3 34.02,-12.7 40.85,-38" /><path
         id="path140"
         style="fill:#333845;fill-opacity:1;fill-rule:nonzero;stroke:none"
         d="m 5939.81,10483.4 c 6.83,-25.2 -0.37,-49.1 -16.1,-53.4 -15.72,-4.2 -34.01,12.8 -40.85,38 -6.83,25.3 0.37,49.2 16.1,53.4 15.72,4.3 34.01,-12.7 40.85,-38" /><path
         id="path142"
         style="fill:#ffffff;fill-opacity:1;fill-rule:nonzero;stroke:none"
         d="m 6239,10137.9 c 0,0 -80.07,12.7 -84.28,-42.1 -4.21,-54.8 88.49,-46.4 122.2,-8.5 33.72,38 -8.42,59 -37.92,50.6" /><path
         id="path144"
         style="fill:#de7a4a;fill-opacity:1;fill-rule:nonzero;stroke:none"
         d="m 6118.18,9701.5 c -175.71,0 -303.59,62.33 -385.03,120.9 143.03,-40.82 224.07,-51.39 295.28,-51.39 5.07,0 10.1,0.05 15.1,0.15 4.63,-0.08 9.31,-0.12 14.02,-0.12 39.1,0 80.74,2.87 124.98,9.4 8.42,-24.2 18.24,-49.12 28.42,-73.33 -32.27,-3.85 -63.21,-5.61 -92.77,-5.61" /><path
         id="path146"
         style="fill:#de7a4a;fill-opacity:1;fill-rule:nonzero;stroke:none"
         d="m 6028.43,9771.01 c -71.21,0 -152.25,10.57 -295.28,51.39 -67.39,48.45 -102.96,94.33 -107.47,100.15 8.77,-8.46 151.19,-146.66 417.85,-151.39 -5,-0.1 -10.03,-0.15 -15.1,-0.15" /><path
         id="path148"
         style="fill:#c94d43;fill-opacity:1;fill-rule:nonzero;stroke:none"
         d="m 10499.7,2228.8 c 0,0 97.3,2.9 274.4,-14.8 177,-17.7 212.4,-97.4 398.3,-115.1 185.9,-17.7 336.4,-23.6 436.8,5.9 100.3,29.5 135.7,41.3 135.7,41.3 0,0 168.2,-129.8 180,-230.1 l -1410.5,-3 c 0,0 -97.4,221.3 -14.7,315.8" /><path
         id="path150"
         style="fill:#ffb581;fill-opacity:1;fill-rule:nonzero;stroke:none"
         d="m 8470.4,9590.22 c 0,0 -11.41,303.99 146.32,404.36 157.72,100.32 155.52,301.92 241.55,258.92 86.03,-43 30.88,-158.6 -26.47,-258.92 -57.36,-100.37 158.77,5.32 244.8,77.02 86.03,71.7 119.39,291.1 176.73,291.1 57.36,0 7.89,-149 -20.79,-306.7 -28.67,-157.72 -421.94,-455.15 -421.94,-455.15 l -340.2,-10.63" /><path
         id="path152"
         style="fill:#bc4c17;fill-opacity:1;fill-rule:nonzero;stroke:none"
         d="m 5632.64,8382.1 c 0.93,1.66 1.89,3.41 2.88,5.26 l 1.47,-3.36 -4.35,-1.9" /><path
         id="path154"
         style="fill:#bc4c17;fill-opacity:1;fill-rule:nonzero;stroke:none"
         d="m 5614.32,8374.07 -68.44,156.45 22.67,9.92 66.97,-153.08 c -0.99,-1.85 -1.95,-3.6 -2.88,-5.26 l -18.32,-8.03" /><path
         id="path156"
         style="fill:#c96632;fill-opacity:1;fill-rule:nonzero;stroke:none"
         d="m 7259.68,8953.85 c -2.83,2.75 -5.75,5.54 -8.72,8.35 l 0.38,1.33 c 3.29,-2.48 6.61,-5.03 9.94,-7.63 l -1.6,-2.05" /><path
         id="path158"
         style="fill:#bc4c17;fill-opacity:1;fill-rule:nonzero;stroke:none"
         d="m 7250.96,8962.2 c -2.71,2.57 -5.44,5.12 -8.27,7.74 2.87,-2.09 5.75,-4.22 8.65,-6.41 l -0.38,-1.33" /><path
         id="path160"
         style="fill:#bc4c17;fill-opacity:1;fill-rule:nonzero;stroke:none"
         d="m 7246.02,8936.4 c -108.21,84.7 -198.75,100.05 -199.65,100.19 l 3.87,24.45 c 3.71,-0.59 87.36,-14.52 192.45,-91.1 2.83,-2.62 5.56,-5.17 8.27,-7.74 2.97,-2.81 5.89,-5.6 8.72,-8.35 l -13.66,-17.45" /><path
         id="path162"
         style="fill:#1e253e;fill-opacity:1;fill-rule:nonzero;stroke:none"
         d="m 8414.46,7090.84 c -1.74,3.08 -3.68,5.93 -5.81,8.53 -4.22,5.16 -3.27,6.04 -3.42,6.04 -0.03,0 -0.14,-0.06 -0.42,-0.12 -0.29,-0.05 -0.74,-0.11 -1.48,-0.11 -2.49,0 -8.15,0.65 -20.99,4.12 3.06,-0.06 6.05,-0.1 8.95,-0.1 6.01,0 11.63,0.15 16.72,0.46 0.26,0.02 0.52,0.03 0.77,0.03 5.19,0 9.82,-4.26 10.16,-9.68 0.24,-3.77 -1.57,-7.18 -4.48,-9.17" /><path
         id="path164"
         style="fill:#de7a4a;fill-opacity:1;fill-rule:nonzero;stroke:none"
         d="m 8391.12,7088.57 c -62.67,0 -162.65,14.59 -167.3,15.27 -5.64,0.83 -9.53,6.06 -8.7,11.7 0.75,5.12 5.14,8.83 10.14,8.83 0.52,0 1.04,-0.04 1.56,-0.12 1.08,-0.16 93.82,-13.67 155.52,-14.95 12.84,-3.47 18.5,-4.12 20.99,-4.12 0.74,0 1.19,0.06 1.48,0.11 0.28,0.06 0.39,0.12 0.42,0.12 0.15,0 -0.8,-0.88 3.42,-6.04 2.13,-2.6 4.07,-5.45 5.81,-8.53 -1.48,-1.01 -3.24,-1.65 -5.16,-1.77 -5.55,-0.34 -11.67,-0.5 -18.18,-0.5" /><path
         id="path166"
         style="fill:#de7a4a;fill-opacity:1;fill-rule:nonzero;stroke:none"
         d="m 8406.83,6990.06 -2.09,0.21 c -52.13,10.79 -175.71,25.38 -176.96,25.52 -5.65,0.67 -9.7,5.8 -9.03,11.45 0.61,5.23 5.05,9.12 10.22,9.12 0.41,0 0.82,-0.03 1.23,-0.08 5.1,-0.61 125.72,-14.84 178.71,-25.81 5.58,-1.16 9.17,-6.62 8.01,-12.2 -1.01,-4.86 -5.31,-8.21 -10.09,-8.21" /><path
         id="path168"
         style="fill:#de7a4a;fill-opacity:1;fill-rule:nonzero;stroke:none"
         d="m 8370.81,6906.06 c -62.12,0 -139.86,12.07 -143.42,12.63 -5.63,0.87 -9.47,6.15 -8.59,11.78 0.79,5.04 5.12,8.75 10.03,8.75 0.57,0 1.16,-0.05 1.75,-0.16 0.86,-0.14 78.77,-12.41 139.39,-12.41 5.38,0 10.63,0.1 15.68,0.31 0.05,0 0.1,0 0.15,0 5.41,0 10.33,-4.28 10.55,-9.93 0.21,-5.69 -4.22,-10.48 -9.91,-10.7 -5.06,-0.19 -10.28,-0.27 -15.63,-0.27" /><path
         id="path170"
         style="fill:#262e4d;fill-opacity:1;fill-rule:nonzero;stroke:none"
         d="m 8355.97,6829.89 c 1.82,2.38 3.62,4.8 5.38,7.27 -0.58,-3.14 -2.6,-5.82 -5.38,-7.27" /><path
         id="path172"
         style="fill:#de7a4a;fill-opacity:1;fill-rule:nonzero;stroke:none"
         d="m 8330.62,6828.13 c -56.18,0 -122.24,11.22 -125.38,11.75 -5.61,0.97 -9.38,6.3 -8.42,11.91 0.85,5.01 5.17,8.58 10.12,8.58 0.59,0 1.18,-0.05 1.78,-0.16 0.76,-0.13 67.21,-11.46 121.84,-11.46 6.91,0 13.63,0.18 20,0.58 0.25,0.02 0.5,0.03 0.75,0.03 5.17,0 9.85,-4.25 10.19,-9.67 0.06,-0.87 0,-1.72 -0.15,-2.53 -1.76,-2.47 -3.56,-4.89 -5.38,-7.27 -1.24,-0.65 -2.63,-1.05 -4.12,-1.14 -6.8,-0.43 -13.94,-0.62 -21.23,-0.62" /><path
         id="path174"
         style="fill:#de7a4a;fill-opacity:1;fill-rule:nonzero;stroke:none"
         d="m 8925.66,9846.39 c -3.52,0 -6.96,1.81 -8.89,5.06 -2.9,4.91 -1.27,11.23 3.63,14.13 1.44,0.86 144.75,86.09 177.23,141.82 33.57,57.5 82.15,164.2 82.64,165.2 1.72,3.8 5.47,6.1 9.4,6.1 1.42,0 2.87,-0.3 4.25,-0.9 5.18,-2.4 7.48,-8.5 5.12,-13.7 -0.49,-1.1 -49.5,-108.7 -83.59,-167.15 -35.17,-60.28 -178.46,-145.52 -184.54,-149.13 -1.66,-0.97 -3.46,-1.43 -5.25,-1.43" /><path
         id="path176"
         style="fill:#af938a;fill-opacity:1;fill-rule:nonzero;stroke:none"
         d="m 8983.2,10009 c 13.21,8.9 26.35,18.4 38.73,28.1 1.89,1.5 4.15,2.2 6.38,2.2 1.19,0 2.37,-0.2 3.49,-0.6 -15.27,-10.1 -31.77,-20.2 -48.6,-29.7" /><path
         id="path178"
         style="fill:#de7a4a;fill-opacity:1;fill-rule:nonzero;stroke:none"
         d="m 8867,9919.72 c -3.85,0 -7.54,2.16 -9.31,5.85 -2.47,5.14 -0.3,11.3 4.83,13.76 0.75,0.36 61.44,29.67 120.68,69.67 16.83,9.5 33.33,19.6 48.6,29.7 1.77,-0.6 3.38,-1.7 4.62,-3.3 3.53,-4.4 2.76,-10.9 -1.71,-14.5 -69.76,-55.03 -159.47,-98.34 -163.26,-100.16 -1.44,-0.7 -2.96,-1.02 -4.45,-1.02" /><path
         id="path180"
         style="fill:#de7a4a;fill-opacity:1;fill-rule:nonzero;stroke:none"
         d="m 8687.31,9692.4 c -1.99,0 -4.02,0.58 -5.8,1.78 -4.7,3.21 -5.92,9.63 -2.71,14.34 54.84,80.51 50.83,165.1 50.78,165.95 -0.31,5.68 4.04,10.55 9.72,10.87 0.18,0.01 0.35,0.01 0.52,0.01 5.56,0 10.04,-4.22 10.35,-9.74 0.21,-3.73 4.41,-92.48 -54.32,-178.71 -2.01,-2.93 -5.24,-4.5 -8.54,-4.5" /><path
         id="path182"
         style="fill:#ffffff;fill-opacity:1;fill-rule:nonzero;stroke:none"
         d="m 5176.48,5536.9 h -823.85 c -12.37,-320.3 232.33,-512.8 232.33,-512.8 h 169.48 20.23 169.49 c 0,0 244.69,192.5 232.32,512.8" /><path
         id="path184"
         style="fill:#ffffff;fill-opacity:1;fill-rule:nonzero;stroke:none"
         d="m 5070.55,5171.2 -0.63,49.5 c 94.53,1.2 165.92,35.3 195.86,93.5 19.01,36.9 17.94,78.4 -2.79,108.2 -13,18.7 -28.06,29.7 -44.75,32.5 -27.82,4.6 -53.4,-13.4 -53.65,-13.6 l -29.25,40 c 1.71,1.2 42.45,30.5 91.07,22.4 30.34,-5.1 56.33,-22.9 77.24,-53 31.2,-44.9 33.56,-105.9 6.14,-159.2 -38.59,-75 -125.79,-118.8 -239.24,-120.3" /><path
         id="path186"
         style="fill:#ffffff;fill-opacity:1;fill-rule:nonzero;stroke:none"
         d="m 5087.08,4993.2 h -627 c -29.68,0 -53.73,24 -53.73,53.7 h 734.46 c 0,-29.7 -24.06,-53.7 -53.73,-53.7" /><path
         id="path188"
         style="fill:#383e4d;fill-opacity:1;fill-rule:nonzero;stroke:none"
         d="M 4921.44,1917.8 H 4698.05 V 4964 h 223.39 V 1917.8" /><path
         id="path190"
         style="fill:#ef873a;fill-opacity:1;fill-rule:nonzero;stroke:none"
         d="M 5845.44,4713.5 H 3774.06 c -78.51,0 -142.16,63.6 -142.16,142.2 0,78.5 63.65,142.1 142.16,142.1 h 2071.38 c 78.51,0 142.15,-63.6 142.15,-142.1 0,-78.6 -63.64,-142.2 -142.15,-142.2" /><path
         id="path192"
         style="fill:#383e4d;fill-opacity:1;fill-rule:nonzero;stroke:none"
         d="m 5250.83,1892.4 c -34.06,213 -218.54,375.7 -441.08,375.7 -222.55,0 -407.03,-162.7 -441.08,-375.7 h 882.16" /><path
         id="path194"
         style="fill:#ffb581;fill-opacity:1;fill-rule:nonzero;stroke:none"
         d="m 14659.5,6719.01 380.4,56.35 77.4,-493.06 -500,-49.3 c 0,0 -401.5,-7 -436.7,155 -35.2,161.97 295.8,295.8 478.9,331.01" /><g
         transform="scale(1.16279)"
         id="g196"><path
           id="path198"
           style="fill:#383e4d;fill-opacity:1;fill-rule:nonzero;stroke:none"
           d="m 15318.7,4504.33 856.2,-2871.1 h 125.1 l -726.8,2907.4 -254.5,-36.3" /></g><g
         transform="scale(1.22271)"
         id="g200"><path
           id="path202"
           style="fill:#383e4d;fill-opacity:1;fill-rule:nonzero;stroke:none"
           d="m 15255.4,4283.6 925.5,-2730.41 h 119.1 l -802.6,2764.92 -242,-34.51" /></g><g
         transform="scale(1.04123)"
         id="g204"><path
           id="path206"
           style="fill:#383e4d;fill-opacity:1;fill-rule:nonzero;stroke:none"
           d="M 16300,5030.19 15343.9,1823.9 h -139.8 l 811.7,3246.82 284.2,-40.53" /></g><g
         transform="scale(1.00104)"
         id="g208"><path
           id="path210"
           style="fill:#ffb581;fill-opacity:1;fill-rule:nonzero;stroke:none"
           d="m 15709,2678.11 63.4,-408.08 c 0,0 471.4,-49.24 499.5,28.17 28.1,77.32 -7.1,443.24 -7.1,443.24 0,0 -534.7,133.66 -555.8,-63.33" /></g><g
         transform="scale(1.08271)"
         id="g212"><path
           id="path214"
           style="fill:#913830;fill-opacity:1;fill-rule:nonzero;stroke:none"
           d="m 14925.2,5045.67 c 26.1,-78.05 190.8,-2628.13 190.8,-2628.13 h -598.4 c 0,0 -494.4,2706.17 -416.3,3070.44 78,364.27 2198.7,455.34 2198.7,455.34 l -17.9,-866.99 -1356.9,-30.66" /></g><g
         transform="scale(1.26812)"
         id="g216"><path
           id="path218"
           style="fill:#4a6aba;fill-opacity:1;fill-rule:nonzero;stroke:none"
           d="m 15803.8,5632.54 c 0,0 496.2,1586.82 145.8,1774.54 -350.5,187.73 -1434.8,93.27 -1434.8,93.27 l -613.3,-3166.23 c 0,0 1777.1,922.97 1902.3,1298.42" /></g><g
         transform="scale(1.22425)"
         id="g220"><path
           id="path222"
           style="fill:#6486dd;fill-opacity:1;fill-rule:nonzero;stroke:none"
           d="m 14452.8,4763.51 c 550.2,268.16 1296,674.08 1376.9,937.45 0,0 470.3,1512.24 354.6,2045.99 -495.3,56.64 -1149.3,22.25 -1149.3,22.25 l -582.2,-3005.69" /></g><g
         transform="scale(1.12333)"
         id="g224"><path
           id="path226"
           style="fill:#333845;fill-opacity:1;fill-rule:nonzero;stroke:none"
           d="m 16186.2,9637.77 c 42.6,7.77 113.8,275.03 113.8,275.03 l -88.3,-69.76 c 0,0 -25,-98.19 -32.4,-160.58 -7.3,-62.38 -11.9,-48.15 6.9,-44.69" /></g><g
         transform="scale(1.12569)"
         id="g228"><path
           id="path230"
           style="fill:#ffb581;fill-opacity:1;fill-rule:nonzero;stroke:none"
           d="m 16168.3,9900.93 c -4.2,-744.41 131.7,-1041.55 131.7,-1041.55 0,0 -131.9,-194.64 -308,-211.57 -176.1,-16.92 -320,112.71 -320,112.71 l -65.4,681.23 561.7,459.18" /></g><g
         transform="scale(1.05873)"
         id="g232"><path
           id="path234"
           style="fill:#333845;fill-opacity:1;fill-rule:nonzero;stroke:none"
           d="m 16170.3,11190.4 c 0,0 -36.6,-316 36.6,-445.7 73.2,-129.7 93.1,419.1 93.1,419.1 l -129.7,26.6" /></g><g
         transform="scale(1.11869)"
         id="g236"><path
           id="path238"
           style="fill:#ffb581;fill-opacity:1;fill-rule:nonzero;stroke:none"
           d="m 15858.8,9307.47 c 281.3,22.23 441.2,309.67 420.2,576.44 l -33.4,423.09 c -21.1,266.7 -245.4,466.6 -501.1,446.4 -255.6,-20.2 -445.7,-252.8 -424.7,-519.6 l 44.7,-420.77 c 21.1,-266.78 213,-527.79 494.3,-505.56" /></g><g
         transform="scale(1.10469)"
         id="g240"><path
           id="path242"
           style="fill:#de7a4a;fill-opacity:1;fill-rule:nonzero;stroke:none"
           d="m 15947,9378.03 c -6.6,0 -13.3,0.09 -20.2,0.27 l -5.2,59.44 c 33.1,-8.89 67.9,-13.66 104.4,-13.66 11.1,0 22.3,0.45 33.7,1.35 94.4,7.45 175.1,44.28 240.3,100.05 -59.5,-74.17 -165.5,-147.44 -353,-147.45" /></g><g
         transform="scale(1.10971)"
         id="g244"><path
           id="path246"
           style="fill:#de7a4a;fill-opacity:1;fill-rule:nonzero;stroke:none"
           d="m 15953.4,9381.41 c -36.3,0 -71,4.75 -103.9,13.6 v 0.07 c 1.4,-0.36 10.8,-2.04 27.5,-2.04 31,0 87.3,5.85 164.3,37.11 130,52.84 197.8,110.92 258.7,204.37 -1.5,-3.18 -14.4,-78.13 -73.8,-152.17 -64.9,-55.51 -145.3,-92.18 -239.2,-99.6 -11.3,-0.9 -22.5,-1.34 -33.6,-1.34" /></g><g
         transform="scale(1.06353)"
         id="g248"><path
           id="path250"
           style="fill:#36251c;fill-opacity:1;fill-rule:nonzero;stroke:none"
           d="m 16228,10574.3 c 2.1,-27.7 19.5,-48.8 38.8,-47.3 19.4,1.5 33.2,25.1 31,52.8 -2.1,27.7 -19.5,48.8 -38.9,47.3 -19.3,-1.5 -33.1,-25.2 -30.9,-52.8" /></g><g
         transform="scale(1.08848)"
         id="g252"><path
           id="path254"
           style="fill:#36251c;fill-opacity:1;fill-rule:nonzero;stroke:none"
           d="m 16229.5,10352.9 c 2.2,-27 19.2,-47.7 38.1,-46.3 18.8,1.5 32.4,24.6 30.2,51.7 -2.1,27 -19.1,47.7 -37.9,46.2 -18.9,-1.5 -32.5,-24.6 -30.4,-51.6" /></g><g
         transform="scale(1.12857)"
         id="g256"><path
           id="path258"
           style="fill:#ffb581;fill-opacity:1;fill-rule:nonzero;stroke:none"
           d="m 16270.9,9907.15 c -29,-78.4 -100.5,-124.17 -159.7,-102.23 -110,40.77 -75.7,126.9 -46.6,205.28 29,78.4 79.2,119.2 153.4,89.9 58.8,-23.2 82,-114.54 52.9,-192.95" /></g><g
         transform="scale(1.12447)"
         id="g260"><path
           id="path262"
           style="fill:#de7a4a;fill-opacity:1;fill-rule:nonzero;stroke:none"
           d="m 16218,9897.64 c -1.8,0 -3.5,0.11 -5.2,0.33 -9.4,1.22 -16,7.48 -20.6,15.62 -1.7,2.97 1.1,5.36 3.8,5.36 0.8,0 1.5,-0.19 2.2,-0.59 5,-3.04 11.8,-4.35 18.3,-4.35 3,0 6,0.29 8.7,0.82 9.7,1.93 18.9,7.17 26.2,13.84 15.7,14.41 25.9,35.39 29.7,56.23 3.6,20.5 1.8,44 -8.7,62.4 -4.9,8.6 -13.1,16.9 -23.4,18.1 -0.9,0.1 -1.8,0.2 -2.7,0.2 -8.8,0 -16.8,-5.1 -19.1,-13.9 -0.5,-1.6 -1.7,-2.3 -3.1,-2.3 -2.1,0 -4.3,1.6 -4,4 2.3,15 16.8,23.7 31.2,23.7 5,0 10.1,-1.1 14.6,-3.4 19.8,-10.1 28.6,-34.9 31.3,-55.5 2.8,-22.41 -0.8,-45.75 -10.3,-66.25 -9.2,-20.02 -24,-38.8 -44.4,-48.31 -7.4,-3.49 -16,-6 -24.5,-6" /></g><g
         transform="scale(1.09608)"
         id="g264"><path
           id="path266"
           style="fill:#2c4485;fill-opacity:1;fill-rule:nonzero;stroke:none"
           d="m 16069.7,9269.33 c -56.6,-15.14 -529.4,-204.28 -610.2,-383.59 -293.4,-651.05 -272,-2354.14 -272,-2354.14 l 1112.5,-187.14 -230.3,2924.87" /></g><g
         transform="scale(1.18039)"
         id="g268"><path
           id="path270"
           style="fill:#2c4485;fill-opacity:1;fill-rule:nonzero;stroke:none"
           d="m 15487.5,8720.17 c 0,0 520.6,-46.01 696.4,-437.34 116.1,-258.78 -51.2,-922.84 -134.5,-1521.2 -72.8,-523.15 -56.5,-1004.95 -56.5,-1004.95 l -1443.4,-142.04 c 0,0 25.6,1396.8 15.8,1909.4 -15.5,817.93 356.7,1083.25 356.7,1083.25 0,0 79.9,-148.04 131.5,-138.8 182.5,32.57 434,251.68 434,251.68" /></g><g
         transform="scale(1.0532)"
         id="g272"><path
           id="path274"
           style="fill:#081245;fill-opacity:1;fill-rule:nonzero;stroke:none"
           d="m 16258.7,7352.45 c 18.4,538.28 18.7,1475.32 18.7,1485.95 0,6.24 5,11.28 11.3,11.28 6.2,0 11.3,-5.04 11.3,-11.28 0,-10.62 -0.3,-946.28 -18.7,-1485.38 l -22.6,-0.57" /></g><g
         transform="scale(1.18333)"
         id="g276"><path
           id="path278"
           style="fill:#2c4485;fill-opacity:1;fill-rule:nonzero;stroke:none"
           d="m 15500.9,8692.14 c -107.4,16.16 -397,-749.38 -427.4,-1221.38 -61.1,-954.02 -27,-1937.17 -27,-1937.17 l 938.5,157.94 c 0,0 315,2352.56 270.6,2626.75 -44.2,274.18 -647.2,357.71 -754.7,373.86" /></g><g
         transform="scale(1.04253)"
         id="g280"><path
           id="path282"
           style="fill:#333845;fill-opacity:1;fill-rule:nonzero;stroke:none"
           d="m 15516.6,8136.36 783.4,-1276.13 -983.3,-52.28 -780.4,1256.01 980.3,72.4" /></g><g
         transform="scale(1.09176)"
         id="g284"><path
           id="path286"
           style="fill:#1f2f69;fill-opacity:1;fill-rule:nonzero;stroke:none"
           d="m 16300,6409.73 c -2.8,0.12 -5.7,0.23 -8.4,0.35 -379.2,16.28 -491.7,84.36 -491.7,84.36 l 487.6,88.79 11,1.98 c 0.4,-62.47 0.9,-121.15 1.5,-175.48" /></g><g
         transform="scale(1.16377)"
         id="g288"><path
           id="path290"
           style="fill:#1f2f69;fill-opacity:1;fill-rule:nonzero;stroke:none"
           d="m 15402.4,6010.56 c -39.6,0.3 -76.6,1.19 -111,2.55 -0.6,50.97 -1,106.01 -1.4,164.62 l 5.6,0.98 c 272.1,-17.06 610.6,-34.04 879.6,-34.05 43.7,0 85.4,0.45 124.8,1.41 -0.3,-2.84 -0.6,-5.67 -0.9,-8.49 -327.3,0 -641.9,0 -751.1,0 -42.1,0 -91.9,-47.48 -145.6,-127.02" /></g><g
         transform="scale(1.06701)"
         id="g292"><path
           id="path294"
           style="fill:#ffb581;fill-opacity:1;fill-rule:nonzero;stroke:none"
           d="m 16300,7263.6 -415.2,-10.47 c 0,0 -80.2,49.13 -200,82.17 -125.7,34.69 -167.2,28.67 -167.2,28.67 l 112.1,-170.69 c 0,0 -97.5,-19.8 -183.1,-10.24 -89.1,9.93 -172.5,25.83 -202.4,18.54 -19.6,-4.77 -8.5,-34.43 10.1,-78.82 6.8,-16.33 2.7,-35.2 13.4,-53.96 8.4,-14.89 30.6,-31.17 41.1,-46.7 14.7,-21.8 10.1,-45.14 31.5,-65.71 11.8,-11.32 42.2,-21.26 52.7,-32.24 32.3,-33.7 55.7,-65.53 91.6,-85.88 155.7,-87.93 701.7,-31.93 701.7,-31.93 l 113.7,457.26" /></g><g
         transform="scale(1.01892)"
         id="g296"><path
           id="path298"
           style="fill:#de7a4a;fill-opacity:1;fill-rule:nonzero;stroke:none"
           d="m 16243.2,7418.02 c -65.4,0 -181.2,5.37 -263.3,39.11 -3.9,1.54 -5.6,5.86 -4.1,9.63 1.2,2.85 4,4.58 6.8,4.58 1,0 2,-0.18 2.9,-0.56 79.8,-32.83 196.2,-37.86 260.2,-37.86 27.8,0 45.7,0.95 46.2,0.98 0.1,0.01 0.3,0.01 0.4,0.01 4,0 7.2,-3.04 7.4,-6.95 0.3,-4.03 -2.7,-7.49 -6.8,-7.78 l -0.1,-0.01 c -2.4,-0.14 -21.3,-1.15 -49.6,-1.15" /></g><g
         transform="scale(1.00258)"
         id="g300"><path
           id="path302"
           style="fill:#2c2628;fill-opacity:1;fill-rule:nonzero;stroke:none"
           d="m 16300,7458.98 c -2.9,1.21 -5.4,2.46 -7.6,3.76 -3.6,2.12 -4.7,6.72 -2.6,10.28 0.4,0.77 1,1.42 1.7,1.95 0.3,-0.53 0.7,-1.08 1.1,-1.6 3.2,-4.74 5.5,-9.55 7.4,-14.39" /></g><g
         transform="scale(1.02039)"
         id="g304"><path
           id="path306"
           style="fill:#de7a4a;fill-opacity:1;fill-rule:nonzero;stroke:none"
           d="m 16292.3,7297.47 c -9.3,0.27 -217,6.52 -276.7,31.37 -1.9,4.75 -4.1,9.48 -7.3,14.13 -0.3,0.52 -0.7,1.05 -1,1.58 1.2,1.09 2.9,1.68 4.7,1.68 1.2,0 2.5,-0.34 3.7,-1.03 34.9,-20.81 196.5,-30.68 276.9,-32.99 4.2,-0.12 7.4,-3.51 7.3,-7.58 -0.2,-3.81 -3.1,-6.86 -6.9,-7.13 l -0.7,-0.03" /></g><g
         transform="scale(1.00827)"
         id="g308"><path
           id="path310"
           style="fill:#2c2628;fill-opacity:1;fill-rule:nonzero;stroke:none"
           d="m 16300,7316.68 c -0.9,0.63 -1.6,1.44 -2.2,2.36 0.7,-0.78 1.5,-1.58 2.2,-2.36" /></g><g
         transform="scale(1.02344)"
         id="g312"><path
           id="path314"
           style="fill:#de7a4a;fill-opacity:1;fill-rule:nonzero;stroke:none"
           d="m 16292.9,7165.77 -1.2,0.02 c -7,0.61 -173,15.33 -232.2,41.76 -0.4,0.19 -0.7,0.41 -1.1,0.67 -0.7,0.77 -1.5,1.55 -2.2,2.32 -1.2,1.98 -1.4,4.47 -0.4,6.72 1.3,2.73 3.9,4.34 6.8,4.34 0.9,0 2,-0.2 3,-0.63 56.9,-25.43 225.7,-40.39 227.4,-40.55 4.1,-0.35 7,-3.91 6.7,-7.95 -0.4,-3.64 -3.3,-6.44 -6.8,-6.7" /></g><g
         transform="scale(1.20456)"
         id="g316"><path
           id="path318"
           style="fill:#4a6aba;fill-opacity:1;fill-rule:nonzero;stroke:none"
           d="m 16253.2,6143.18 -725,-245.58 467.7,-181.26 c 0,0 304.1,222.19 257.3,426.84" /></g><g
         transform="scale(1.20546)"
         id="g320"><path
           id="path322"
           style="fill:#2c4485;fill-opacity:1;fill-rule:nonzero;stroke:none"
           d="m 15618.9,8363.3 c -393.1,-76.11 -41.8,-1638.54 -67.2,-1786.47 -25.4,-147.94 -1285.4,-140.23 -1285.4,-140.23 l 35,-438.21 c 0,0 1389,-116.05 1700.3,-40.9 169.4,40.9 211.6,121.09 231.3,269.87 67.1,509.05 -68.9,1575.3 -192.9,1849.61 -141.5,313.2 -289.8,311.75 -421.1,286.33" /></g><g
         transform="scale(1.16394)"
         id="g324"><path
           id="path326"
           style="fill:#c94d43;fill-opacity:1;fill-rule:nonzero;stroke:none"
           d="m 15755.4,5806.91 c -96.8,48.41 -1065,435.69 -1403.9,363.07 -338.8,-72.61 -1682.2,-375.17 -1682.2,-375.17 0,0 -15.1,-103.88 14.3,-280.29 29.4,-176.38 82.6,-252.24 82.6,-252.24 l 1621.7,121.05 c 0,0 556.6,-484.13 1234.4,-338.85 677.7,145.2 133.1,762.43 133.1,762.43" /></g><g
         transform="scale(1.0866)"
         id="g328"><path
           id="path330"
           style="fill:#6486dd;fill-opacity:1;fill-rule:nonzero;stroke:none"
           d="m 16300,4652.95 c 0,0 -1322.3,-85.59 -1393.6,98.1 -89.6,230.81 -34.6,276.55 -34.6,276.55 l 1246.8,221.43 181.4,-596.08" /></g><g
         transform="scale(1.22952)"
         id="g332"><path
           id="path334"
           style="fill:#4a6aba;fill-opacity:1;fill-rule:nonzero;stroke:none"
           d="m 16300,5809.4 c 0,0 -147.5,0 -353.7,0 -414.6,0 -1065.9,0 -1229.7,0 -245.3,0 -762.6,-1701.44 -762.6,-1701.44 0,0 1275.8,14.56 1546.9,14.56 271,0 799.1,1686.88 799.1,1686.88" /></g><g
         transform="scale(1.14292)"
         id="g336"><path
           id="path338"
           style="fill:#6486dd;fill-opacity:1;fill-rule:nonzero;stroke:none"
           d="m 15011.3,4419.21 c 0,0 180.3,1.92 485.5,4.46 286.6,441.59 731.8,1649.7 803.2,1825.89 h -468.4 c -263.8,0 -820.3,-1830.35 -820.3,-1830.35" /></g><path
         id="path340"
         style="fill:#c94d43;fill-opacity:1;fill-rule:nonzero;stroke:none"
         d="m 15951,8445.66 c 0,0 0.5,53.66 -44.3,54.82 -44.8,1.16 -106.7,-7.88 -106.7,-7.88 0,0 -48.3,50.05 -102.3,54.99 -54,4.95 -208.6,-19.87 -230.1,-30.39 -21.6,-10.53 -27.2,-55.63 -27.2,-55.63 0,0 -48.5,-8.05 -61.2,-17.93 -12.7,-9.87 3.9,-53.32 3.9,-53.32 l 567.9,55.34" /><g
         transform="scale(1.09579)"
         id="g342"><path
           id="path344"
           style="fill:#36251c;fill-opacity:1;fill-rule:nonzero;stroke:none"
           d="m 16057.9,10440 c 6.9,8.5 15.3,13 27.9,16.5 10.5,3 21.5,5.2 32.2,7.2 18.5,3.2 37.1,5.4 55.7,6.5 38.3,2.3 84.2,3.5 115.3,-13.1 11,-5.9 3.2,-17.7 -9,-19.6 -17.6,-2.7 -35.7,-2.2 -53.4,-1.7 -17,0.5 -34.2,-0.3 -51.3,-1.9 l -73.9,-12.8 c -12.7,-2.9 -21.7,-3.8 -34,-1 -10.1,2.3 -15,13.2 -9.5,19.9" /></g><g
         transform="scale(1.06504)"
         id="g346"><path
           id="path348"
           style="fill:#36251c;fill-opacity:1;fill-rule:nonzero;stroke:none"
           d="m 16155.4,10727.8 c 22,10.7 48.7,11.3 73,10.3 10.9,-0.4 21.7,-1.6 32.4,-3.5 13,-2.3 28.2,-4.8 35,-16.1 4.2,-7 2.2,-14.5 -6.3,-18.2 -11.9,-5.1 -23.6,-1.4 -35.7,0.2 -5.1,0.7 -10.1,1.3 -15.2,1.6 -2.2,0.2 -4.4,0.3 -6.6,0.4 -0.9,0 -1.3,0 -1.7,0 -1.3,0 -2.6,0.1 -3.9,0 -21.3,-0.1 -42,-4.5 -63.2,-5.7 -8.9,-0.4 -17.1,4.2 -18.9,12.2 -1.9,8.5 2.9,14.8 11.1,18.8" /></g><g
         transform="scale(1.12548)"
         id="g350"><path
           id="path352"
           style="fill:#ffffff;fill-opacity:1;fill-rule:nonzero;stroke:none"
           d="m 15883.8,8898.79 c 0,0 172,-40.9 209.9,-106.52 l 206.3,323.03 c 0,0 -56.6,164.59 -95.1,161.89 -38.5,-2.71 -421,-384.02 -421,-384.02 l -147.4,192.55 c 0,0 -67.3,-151.27 -33,-311.66 l 105.8,139.78 66,-87.12 108.5,72.07" /></g><g
         transform="scale(1.07377)"
         id="g354"><path
           id="path356"
           style="fill:#de7a4a;fill-opacity:1;fill-rule:nonzero;stroke:none"
           d="m 16250.2,10180.5 c -20,0 -40.2,6.8 -51,19.9 -20.8,25.6 -14.7,69 -10.7,99 11.1,82.3 53.2,156.8 65.6,238.8 0.5,3.4 3.2,4.9 6.1,4.9 3.8,0 7.7,-2.5 7.5,-6.8 -2.7,-66.3 -28.8,-126 -45.2,-189.5 -8.6,-33.7 -14.8,-69.2 -12.2,-104 1.3,-18.5 8,-33.9 28.7,-36 1.7,-0.1 3.3,-0.2 5,-0.2 6.8,0 13.4,1.2 20,2.4 6.7,1.2 13.2,2.4 19.9,2.4 1.2,0 2.5,0 3.8,-0.1 7.6,-0.6 12.3,-9.6 6.4,-15.6 -10.2,-10.2 -26.9,-15.2 -43.9,-15.2" /></g><g
         transform="scale(1.08304)"
         id="g358"><path
           id="path360"
           style="fill:#de7a4a;fill-opacity:1;fill-rule:nonzero;stroke:none"
           d="m 16140.3,9904.93 c -7.8,0 -15.6,0.64 -23.5,1.98 -11.7,2.01 -8.6,20.43 2.7,20.43 0.1,0 0.1,0 0.1,0 0.5,-0.01 1.1,-0.01 1.6,-0.01 34.6,0 67.9,10.56 96,30.72 24.4,17.46 41.3,41.93 52.7,69.35 3.5,8.3 4.5,19.5 15.6,20.7 0.5,0.1 1,0.1 1.5,0.1 9.9,0 13,-10.5 11.3,-18.8 -3.1,-15.9 -9.6,-30.85 -18.3,-44.42 -30.2,-46.9 -83.8,-80.05 -139.7,-80.05" /></g><g
         transform="scale(1.13744)"
         id="g362"><path
           id="path364"
           style="fill:#333845;fill-opacity:1;fill-rule:nonzero;stroke:none"
           d="m 16000.2,9987.25 c -29.9,-59.51 -30.4,-85.14 -30.4,-85.14 0,0 -55.8,-9.3 -67.1,43.34 -5.5,25.68 -65,229.15 -65,229.15 l -43.4,173.3 c 0,0 -286.9,-17.5 -505.6,-17.5 -218.8,0 -487.1,111.5 -412.9,247.7 74.3,136.2 317.9,189.9 317.9,189.9 0,0 77.9,34.5 322,33 170.3,-1 235.3,-93.9 235.3,-93.9 0,0 92.9,55.7 173.4,21.7 65.4,-27.7 120.7,-136.3 120.7,-136.3 0,0 78.5,62.6 147.6,-51.6 107.3,-177.5 -59.3,-552.11 -59.3,-552.11 0,0 -93.5,77.41 -133.2,-1.54" /></g><g
         transform="scale(1.00709)"
         id="g366"><path
           id="path368"
           style="fill:#333845;fill-opacity:1;fill-rule:nonzero;stroke:none"
           d="m 16202.1,2361.25 c 0,0 97.9,-181.8 56,-461.52 h -1657.5 c 0,0 -56,111.9 93.2,214.48 149.2,102.57 531.5,37.23 867.2,298.38 0,0 65.3,18.67 93.3,-9.33 28,-28 62.9,-111.91 233.1,-111.91 223.8,0 314.7,69.9 314.7,69.9" /></g><g
         transform="scale(1.09188)"
         id="g370"><path
           id="path372"
           style="fill:#081245;fill-opacity:1;fill-rule:nonzero;stroke:none"
           d="m 15847,7106.26 c 59.5,6.32 241.8,25.82 453,49.63 -0.2,-7.39 -0.3,-14.67 -0.4,-22.03 -79.7,-8.98 -155.2,-17.34 -221.5,-24.6 -92.8,-1.92 -173.2,-2.7 -231.1,-3" /></g><g
         transform="scale(1.1502)"
         id="g374"><path
           id="path376"
           style="fill:#081245;fill-opacity:1;fill-rule:nonzero;stroke:none"
           d="m 15473.1,6772.11 c 0.1,6.99 0.2,13.9 0.4,20.92 340,38.37 759,88.56 822.1,109.57 1.5,0.52 3,1.28 4.4,2.28 -0.2,-4.7 -0.6,-8.75 -1.2,-12.09 -0.7,-4.19 -2.4,-8.26 -4.9,-12.21 -86.8,-22.95 -491.5,-71.35 -820.8,-108.47" /></g><g
         transform="scale(1.15831)"
         id="g378"><path
           id="path380"
           style="fill:#081245;fill-opacity:1;fill-rule:nonzero;stroke:none"
           d="m 14919.9,6676.17 c -5.2,0 -9.6,3.92 -10.2,9.19 -0.5,5.63 3.5,10.68 9.2,11.29 0.8,0.08 7.5,0.78 19.2,2.02 54.6,0.29 130.4,1.02 217.8,2.84 -129.6,-14.18 -221.9,-23.93 -234.9,-25.29 l -1.1,-0.05 m 1259.9,156.23 c 2.5,3.92 4.2,7.97 4.9,12.12 0.6,3.33 1,7.34 1.2,12.01 66.4,46.89 -0.6,623.1 -59.9,983.54 -1,5.59 2.8,10.87 8.4,11.8 0.5,0.08 1.1,0.11 1.6,0.11 5,0 9.4,-3.52 10.2,-8.57 26.6,-161.88 153.8,-971.27 41.7,-1008.61 -2.2,-0.77 -5,-1.57 -8.1,-2.4" /></g><path
         id="path382"
         style="fill:#333845;fill-opacity:1;fill-rule:nonzero;stroke:none"
         d="m 14579.7,6721.36 c 0,0 -265.3,-79.82 -547,-93.91 -281.7,-14.09 -760.7,-14.09 -676.2,-323.95 84.5,-309.9 380.4,-324 662.1,-211.3 281.7,112.7 591.6,56.3 690.2,112.7 25.6,14.6 34.2,32 14.1,39.9 -57.3,22.5 -261,34.8 -288.8,206.6 -38.7,239.44 188.5,244.79 206.6,262.92 16.5,16.43 -61,7.04 -61,7.04" /><g
         transform="scale(1.28174)"
         id="g384"><path
           id="path386"
           style="fill:#719e68;fill-opacity:1;fill-rule:nonzero;stroke:none"
           d="m 16020.6,3011.62 -20,0.78 c 0.1,5.31 24.1,538.33 280.4,1291.45 l 19,-6.47 c -255.3,-750.16 -279.2,-1280.53 -279.4,-1285.76" /></g><g
         transform="scale(1.27352)"
         id="g388"><path
           id="path390"
           style="fill:#719e68;fill-opacity:1;fill-rule:nonzero;stroke:none"
           d="m 15512.7,4604.34 c 6.8,108.05 70.6,160.97 70.6,160.97 33.7,-27.4 79.9,-115.5 82.9,-203.06 3.7,-102.94 -42.4,-203.21 -92.1,-173.37 -34,20.41 -65.5,151.78 -61.4,215.46 m -460.9,-25.52 c 24.1,-169.14 -343,23.17 -431.1,71.54 8.7,-134.43 39.7,-287 90.1,-438 131,26.54 619.7,114.56 683,-34.24 47.6,-112.05 -479.8,-115.66 -667.6,-10.21 40.8,-113.31 92.5,-224.57 153.9,-325.16 84.1,20.81 242.8,56.85 389.4,72.08 117.1,12.1 298.6,30.47 314.5,-7.3 94,-224.34 -432.6,-179.9 -659.5,-133.17 231,-334.36 578,-513.78 991.1,-169.69 384.4,320.29 312.6,666.81 69.7,945.49 2.4,-216.33 -11,-593 -143.3,-487.15 -138.1,110.32 11.2,395.52 92.8,541.57 -159.8,162.7 -375.2,298.54 -583.4,386.41 22,-157.52 23.2,-403.22 -40,-361.13 -61.6,41.15 -58.3,266.12 -50.8,396.62 -235.1,84.54 -448.5,102.07 -545.3,21.44 -75.5,-62.82 -105.1,-205.89 -95.6,-382.56 80.6,18.21 408,81.74 432.1,-86.54" /></g><g
         transform="scale(1.38988)"
         id="g392"><path
           id="path394"
           style="fill:#719e68;fill-opacity:1;fill-rule:nonzero;stroke:none"
           d="m 15863,3808.23 c 0,0 -85.6,-241.31 -135.8,-135.76 -50.3,105.62 30.1,175.98 135.8,135.76 m -861.8,-593.14 c 123.9,-296.93 423.8,-257.14 701.1,-105.19 -53.6,5.4 -528.2,56.19 -442.7,165.41 86.2,110.01 414,-139.87 445.1,-164.04 109.4,60.08 215.3,137.64 305.2,218.87 -59,-2.96 -392.6,-14.9 -333,85.97 60.4,102.03 300.8,-57.34 337.2,-82.38 172.7,156.71 285.9,325.86 251.6,407.95 -45.7,109.44 -384.6,141.88 -704.8,79.5 -4.6,-29.93 -58.3,-361.03 -130.4,-279.37 -70.2,79.64 104,255.34 128.1,278.94 -94.3,-18.56 -186.8,-45.32 -269.7,-80.87 -6.5,-54.39 -46.8,-366.86 -124.8,-343.91 -76.4,22.45 83.7,285.35 119.1,341.39 -232.7,-101.23 -386.5,-271.82 -282,-522.27" /></g><g
         transform="scale(1.37897)"
         id="g396"><path
           id="path398"
           style="fill:#4c8343;fill-opacity:1;fill-rule:nonzero;stroke:none"
           d="m 15154.9,3236.55 -11.9,14.5 c 342.3,281.81 1144.2,492.91 1152.3,495.01 l 4.7,-18.06 c -8,-2.1 -806,-212.19 -1145.1,-491.45" /></g><g
         transform="scale(1.35293)"
         id="g400"><path
           id="path402"
           style="fill:#719e68;fill-opacity:1;fill-rule:nonzero;stroke:none"
           d="m 15837.8,4989.19 c 0,0 55.5,-257.02 -45.4,-191.91 -101,65.14 -68.6,170.06 45.4,191.91 m -433,-983.67 c 268.6,-192.62 509.2,4.07 669.5,286.56 -49.6,-24.17 -491.9,-235.93 -476.1,-94.46 15.9,142.73 437.3,101.34 477.6,96.98 63.1,111.61 113.8,236.6 148.6,356.11 -50.1,-34.44 -335.1,-225.06 -337.5,-104.66 -2.3,121.81 293.8,112.28 339.2,110.06 66.4,230.22 73.9,439.09 -0.4,492.37 -99,70.94 -412.7,-83.67 -658.9,-310.99 12.2,-28.71 144,-347.1 36.9,-314.65 -104.4,31.71 -47,279.32 -38.7,312.97 -72.4,-67.06 -138.7,-140.45 -192,-216.29 23.7,-51 157,-345.92 76.5,-367.94 -78.7,-21.66 -80.8,294.55 -80.1,362.69 -148.8,-214.12 -191.1,-446.29 35.4,-608.75" /></g><g
         transform="scale(1.3419)"
         id="g404"><path
           id="path406"
           style="fill:#4c8343;fill-opacity:1;fill-rule:nonzero;stroke:none"
           d="m 15564.2,4053.89 -18.1,6.26 c 147,431.18 734.1,1048.88 740,1055.06 l 13.9,-13.28 c -5.9,-6.16 -590.1,-620.81 -735.8,-1048.04" /></g><g
         transform="scale(1.28152)"
         id="g408"><path
           id="path410"
           style="fill:#719e68;fill-opacity:1;fill-rule:nonzero;stroke:none"
           d="m 16044.8,2976.24 -20.1,1.02 c 0,3.35 -3.4,339.28 -278.7,760.89 l 16.9,11.01 c 193.6,-296.61 254.3,-551.93 273.3,-681.38 62.1,383.84 251.5,423.16 260.1,424.73 l 3.7,-19.74 -1.9,9.83 1.9,-9.83 c -2.1,-0.47 -211.9,-45.81 -255.2,-496.53" /></g><g
         transform="scale(1.24452)"
         id="g412"><path
           id="path414"
           style="fill:#4c8343;fill-opacity:1;fill-rule:nonzero;stroke:none"
           d="m 16299.8,3705.54 c -5.5,9.72 -558.3,978.37 -1138.7,1332.09 l 10.8,17.75 c 448.4,-273.36 879.4,-908.95 1058.8,-1195.32 l -16.5,-10.77 c 32,-49.1 60.5,-97.15 85.8,-143.59 l -0.2,-0.16" /></g><g
         transform="scale(1.24588)"
         id="g416"><path
           id="path418"
           style="fill:#4c8343;fill-opacity:1;fill-rule:nonzero;stroke:none"
           d="m 16282.2,3701.65 c -25.3,46.39 -53.7,94.39 -85.7,143.43 l 16.4,10.76 c 54.6,-87.09 85.8,-141.91 87.1,-144.16 l -17.8,-10.03" /></g><g
         transform="scale(1.28774)"
         id="g420"><path
           id="path422"
           style="fill:#ef873a;fill-opacity:1;fill-rule:nonzero;stroke:none"
           d="m 15825.6,1489.35 h 213.9 c 92.3,0 170.8,67.17 184.9,158.34 l 28.6,183.89 c 31.3,201.82 47,405.82 47,610.14 V 3043 h -734.5 v -606.02 c 0,-207.03 16.2,-413.83 48.3,-618.37 l 27,-171.31 c 14.4,-90.93 92.7,-157.95 184.8,-157.95" /></g><path
         id="path424"
         style="fill:#ffffff;fill-opacity:1;fill-rule:nonzero;stroke:none"
         d="M 9074.8,13670.7 H 7568.62 c -378.11,0 -684.63,-306.6 -684.63,-684.7 v -867.2 c 0,-164.5 58.07,-315.4 154.77,-433.5 -164.23,-251.2 -474.26,-547.8 -474.26,-547.8 333.3,-27.7 641.24,164.2 831.27,318.8 55.22,-14.4 113.13,-22.1 172.85,-22.1 H 9074.8 c 378.11,0 684.63,306.5 684.63,684.6 v 867.2 c 0,378.1 -306.52,684.7 -684.63,684.7" /><path
         id="path426"
         style="fill:#333845;fill-opacity:1;fill-rule:nonzero;stroke:none"
         d="m 7989.79,13364 c -28.03,0 -50.39,-8.7 -66.67,-25.9 -32.67,-34.6 -43.47,-103.6 -32.23,-202.3 33.81,27 68.52,51.7 101.8,74.1 43.45,29.2 93.2,56.7 146.62,80.3 -43.95,39.4 -87.32,65.5 -122.64,71.4 -9.47,1.6 -18.43,2.4 -26.88,2.4 z m -117.45,-277.3 c -16.84,-14.8 -32.48,-29.5 -46.91,-44.3 17.69,1.5 35.84,2.7 54.37,3.7 -2.81,13.9 -5.3,27.5 -7.46,40.6 z m 313.73,194.8 c 62.63,-64.2 121.1,-150.8 158.84,-240.9 104.89,16.2 228.72,18.8 357.14,18.9 61.33,-0.1 118.36,-0.8 170.99,-4.6 -17.72,53.9 -41.82,104.2 -74.12,147.8 -133.63,180.5 -398.79,162.2 -612.85,78.8 z m -4.77,-231 c 49.07,0 95.19,-4.4 138.02,-12.9 -38.75,89.2 -98.57,173.1 -159.51,233.3 -56.47,-23.9 -108.66,-52 -153.05,-81.9 -41.49,-27.9 -78.78,-55.6 -111.92,-83.1 2.77,-18.6 6.25,-38.2 10.43,-58.6 60.19,2.3 124.2,2.5 190.32,2.8 25.97,0 52.25,0.1 78.75,0.3 2.31,0.1 4.66,0.1 6.96,0.1 z m 140.22,-39.2 c -111.76,-20.6 -196.43,-59.3 -232.14,-131.8 -64.66,-131.2 27.03,-182.7 178.92,-268 l 21.91,-12.3 c 39.65,78.4 70.34,160.5 72.56,242.7 1.46,54.2 -10.77,111.4 -31.92,167.4 -3.09,0.7 -6.2,1.4 -9.33,2 z m 586.16,15.5 c 53.08,-194.8 34.07,-424.3 18.05,-571.2 148.87,130.2 276.37,268.2 267.57,337.3 -20.82,163.5 -123.99,217 -285.62,233.9 z m -595.6,-440.2 c 85.27,-51 139.21,-107 200.9,-171.1 109.24,66.8 146.43,151.5 128.52,273.6 -23.07,157.4 -124.65,267.1 -281.72,312.6 18.95,-54.6 29.53,-109.5 28.16,-160.5 -2.36,-87.3 -34.55,-173.2 -75.86,-254.6 z m -401.45,435.7 c 0.25,-1.1 0.5,-2.2 0.74,-3.4 20.91,-92.2 101.98,-421.9 241.89,-660.1 15.96,29.8 34.93,61.6 55.1,95.4 23.42,39.3 47.88,80.4 70.26,122.6 l -22.65,12.8 c -153.49,86.1 -264.39,148.4 -189.19,301 32.55,66.1 99.54,106.5 188.16,131.1 -25.79,2.6 -52.65,3.8 -80.39,3.6 -26.54,-0.3 -52.87,-0.4 -78.87,-0.4 -64.34,-0.2 -126.58,-0.5 -185.05,-2.6 z m -111.07,-7.6 c -114.83,-130.5 -134.88,-258.9 -64.39,-394 88.26,-169.1 238.09,-276.5 399.49,-298.7 1.47,3.2 3,6.3 4.56,9.5 -140.22,230.2 -222.77,551 -252.4,681.9 -0.59,2.6 -1.17,5.2 -1.75,7.7 -29.65,-1.4 -58.25,-3.5 -85.51,-6.4 z m 378.8,-696.6 c 52.35,-2.1 105.44,4.8 157.61,21.4 61.19,19.5 112.44,40.2 154.52,63.1 -58.3,60.5 -110.3,113.6 -190.05,161.6 -22.49,-42.4 -46.98,-83.5 -70.45,-122.9 -23.09,-38.7 -44.56,-74.7 -61.52,-107.6 3.28,-5.3 6.56,-10.4 9.89,-15.6 z m 352.26,79.1 c 42.85,-44.3 91.72,-93.2 157.48,-145.5 28.01,28.8 56.92,56.6 87.31,80.2 40.29,31.3 81.8,64.9 122.28,99.5 16.36,144.9 41.69,393.7 -16.77,597.8 -53.98,4.2 -113.78,5 -178.85,5.1 -113.16,-0.1 -222.6,-2.1 -317.7,-13.5 156.91,-51 258.25,-165.7 282.05,-328 19.17,-130.7 -21.22,-223.6 -135.8,-295.6 z m 177.18,-161.3 c 10.8,-9.7 38.91,-36.5 65.43,-74.1 l 0.16,0.1 c 66.63,50.6 108.77,128.5 118.65,219.3 l 1.55,13.7 c -41.94,-35.1 -78.62,-64.2 -102.75,-82.9 -28.91,-22.4 -55.95,-48.3 -83.04,-76.1 z m -17.51,-18.2 c -8,-8.4 -16.04,-16.9 -24.18,-25.5 -31.52,-33.4 -63.38,-67.2 -97.45,-97.6 70.95,3.1 132.93,20.8 183.46,52.6 -25.56,36.4 -52.76,62.3 -61.83,70.5 z m -494.73,74.8 c 69.73,-100.1 151.91,-174.1 246.44,-189.6 30.25,-5 59.42,-7.8 87.39,-8.6 42.06,34.2 80.49,75 118.4,115.1 7.54,8 15.13,16.1 22.77,24.1 -68.16,54.4 -118.2,104.9 -162.2,150.5 -44.84,-25.1 -99.52,-47.7 -164.73,-68.5 -48.59,-15.5 -97.95,-23 -146.82,-23 z m -45.47,2.3 c -6.81,-16.1 -11.99,-31.4 -15.11,-45.6 -19.41,-88.4 -12.99,-150.4 19.63,-189.6 30.79,-37 87.09,-54.2 167.42,-51.6 67.9,2.4 125.02,27 176.22,62.7 -19.63,1.5 -39.75,4 -60.33,7.3 -107.43,17.7 -198.72,102.5 -274.54,215.7 -4.42,0.3 -8.87,0.7 -13.29,1.1 z m -388.85,714.9 c -116,-17.3 -203.43,-55 -241.19,-137.7 -82.4,-180.6 -77.38,-523.1 74.41,-761.6 135.21,-212.5 243.92,-342.4 612.6,-354.8 364.92,-12.2 517.49,35.8 583.2,183.2 30.04,67.4 7.33,135.2 -24.34,187.3 -61.75,-38.9 -139.03,-57.9 -227.68,-57.2 -60.75,-48.1 -129.48,-83.1 -215.34,-86 -88.54,-3 -151.62,17.3 -187.64,60.6 -37.94,45.5 -46.08,114.6 -24.88,211.1 3.03,13.8 7.74,28.3 13.82,43.4 -166.61,25.3 -320.42,136.8 -411.36,311.1 -82.43,158 -39.17,291.6 48.4,400.6 z m 546.79,-1281 c -32.05,0 -65.93,0.6 -101.81,1.8 -381.07,12.7 -493.36,146.9 -633.01,366.4 -156.32,245.6 -161.2,599 -76.07,785.5 45.43,99.6 150.88,139.7 288.6,156 25.25,27.9 53.12,54.1 82.08,78.5 -15.45,116 -3.11,196 36.98,238.5 27.31,28.9 66.36,39.3 116.01,31.1 44.52,-7.5 95.45,-38.8 144.93,-85 226.11,92.5 507.43,113.4 653.42,-83.8 36.01,-48.7 62.24,-104.9 81,-165.1 176.18,-17 294.85,-73.8 318.13,-256.5 11.78,-92.5 -160.22,-260.2 -296.69,-377.4 -0.23,-2 -0.46,-4.1 -0.69,-6.1 l -3.83,-34.1 c -10.64,-97.8 -56.26,-181.8 -128.45,-236.7 l -1.49,-1.1 c 35.32,-57.5 61.04,-133.8 26.13,-212.1 -64.07,-143.8 -200.28,-199.9 -505.24,-199.9" /><path
         id="path428"
         style="fill:#333845;fill-opacity:1;fill-rule:nonzero;stroke:none"
         d="m 8555.36,12837.2 c -273.76,0 -638.83,-87.1 -756.45,-165.5 -88.08,-58.8 -153.04,-175.1 -157.98,-282.9 -2.25,-48.9 7.36,-117.2 65.9,-164.5 8,-6.5 16.67,-13.6 26.03,-21.4 158.18,-131.1 487.46,-403.9 1085.4,-172.7 255.28,98.7 336.58,171.7 347.97,312.2 17.26,212.8 -150.54,403.4 -417.56,474.4 -53.62,14.2 -120.23,20.4 -193.31,20.4 z m -173.49,-920.7 c -343.01,0 -556.77,177.2 -665.08,267 -9.28,7.7 -17.86,14.8 -25.8,21.2 -52.81,42.7 -78.83,106.8 -75.23,185.3 5.3,115.3 74.86,239.7 169.18,302.6 152.31,101.6 710.36,217.5 970.19,148.5 279.18,-74.2 454.48,-275.4 436.21,-500.7 -13.65,-168.3 -133.28,-244.4 -363.99,-333.7 -167.78,-64.8 -315.87,-90.2 -445.48,-90.2" /><g
         transform="scale(1.00756)"
         id="g430"><path
           id="path432"
           style="fill:#ffffff;fill-opacity:1;fill-rule:nonzero;stroke:none"
           d="m 15642.1,11927.3 h -1447.5 c -363.3,0 -657.9,294.5 -657.9,657.9 v 833.3 c 0,363.4 294.6,658 657.9,658 h 1447.5 c 363.3,0 657.9,-294.6 657.9,-658 v -833.3 c 0,-363.4 -294.6,-657.9 -657.9,-657.9" /></g><g
         transform="scale(1.04056)"
         id="g434"><path
           id="path436"
           style="fill:#ffffff;fill-opacity:1;fill-rule:nonzero;stroke:none"
           d="m 16300,12339.9 c 0,-80 -64.9,-144.9 -144.9,-144.9 -80,0 -144.8,64.9 -144.8,144.9 0,80 64.8,144.8 144.8,144.8 80,0 144.9,-64.8 144.9,-144.8" /></g><g
         transform="scale(1.0522)"
         id="g438"><path
           id="path440"
           style="fill:#ffffff;fill-opacity:1;fill-rule:nonzero;stroke:none"
           d="m 16300,11863.7 c 0,-52.7 -42.8,-95.5 -95.5,-95.5 -52.8,0 -95.5,42.8 -95.5,95.5 0,52.8 42.7,95.5 95.5,95.5 52.7,0 95.5,-42.7 95.5,-95.5" /></g><path
         id="path442"
         style="fill:#333845;fill-opacity:1;fill-rule:nonzero;stroke:none"
         d="m 12104,12286.2 c -231.4,0 -363.6,-88.1 -376.1,-183.5 -12.3,-94.2 82.6,-221.5 363,-321.2 144,146 210.7,282.8 210.6,374.9 0,76.3 -45.9,121.6 -129,127.4 -23.7,1.6 -46.6,2.4 -68.5,2.4 z M 10007.8,11075 c -711.77,0 -1232.46,170.4 -1558.37,325 -406.33,192.8 -606.57,403.8 -608.55,405.9 l 18.39,17.3 c 1.95,-2.1 199.75,-210.3 602.26,-401.1 371.5,-176 998.47,-372.7 1875.17,-310 741.1,52.9 1216.3,274.7 1484.6,451.5 99.6,65.6 182.7,132.9 250.2,198.7 -285.7,105.2 -381.9,241.7 -368.6,343.7 18.1,137.5 211.8,221 471.4,202.9 96.8,-6.8 152.4,-62.3 152.4,-152.5 0.1,-103.9 -70.3,-241.8 -209.1,-384.2 79.4,-26.6 172.6,-51 281.3,-72.1 857.4,-165.9 1929.7,223.9 2282.1,352 34.9,12.8 63.5,23.1 84.8,30.5 17.4,5.9 38,12.6 61.3,20.1 290.7,94 1062.8,343.6 1025,1116 -14.8,301.5 -165.4,665.6 -799.3,687.9 -224.8,7.8 -421.1,-63.1 -568.3,-205.3 -158.9,-153.4 -230.1,-357.7 -230.1,-492.1 0,-275.8 147.1,-750.1 698.1,-778.6 204.9,-10.5 371.9,53.3 496.1,189.8 160.1,176.2 217.1,449 190.6,627.5 -48.5,327.6 -245.8,498 -586.3,506.5 -422.2,10.4 -562.8,-275.3 -606,-517 -25.9,-145.6 28.7,-310.6 142.7,-430.8 103.5,-109 235.2,-159.7 370.8,-142.8 341.9,42.7 497.6,112.7 516.4,414.3 8.9,141.2 -32.7,261.6 -120,348.2 -90.9,90.1 -227.1,135.8 -373.6,125.3 -108.1,-7.7 -191.1,-49.7 -246.8,-124.7 -65.8,-88.8 -86.9,-222.3 -56.3,-357 22,-96.6 97.5,-175.7 202.1,-211.4 108.6,-37.1 225.5,-19.5 305.1,46 94.6,77.9 144.4,183.2 129.8,274.6 -12.1,76.1 -66.4,135.1 -156.9,170.5 -100.1,39.2 -178.2,44.3 -232.1,15.3 -47.1,-25.3 -78.4,-77.1 -95.8,-158.4 -12.4,-58 -2.1,-108.4 30,-145.6 39.1,-45.4 106.7,-67.5 190.2,-62.3 63.6,4 104.7,22.8 118.9,54.3 14.7,32.5 1.3,79.3 -36.8,128.2 -24.8,32 -53.8,45.8 -83.9,39.9 -33.6,-6.5 -65.9,-38.5 -76.6,-76.1 -3.7,-12.9 0.1,-19.7 3.3,-23.8 18.6,-23.7 84.3,-26.9 105.8,-26.1 l 0.9,-25.2 c -9.8,-0.3 -96.7,-2.3 -126.6,35.8 -10,12.8 -12.6,28.8 -7.6,46.2 13.4,47 52.9,85.6 96,94 39.4,7.7 78,-9.8 108.6,-49.2 44,-56.6 58.5,-112.7 39.9,-154 -12.8,-28.4 -47.5,-63.3 -140.4,-69.2 -91.6,-5.6 -166.4,19.5 -210.8,71 -37.4,43.5 -49.7,101.3 -35.5,167.4 19,88.9 54.5,146.3 108.4,175.3 61.6,33.1 144.5,28.5 253.3,-14.1 97.9,-38.3 159.1,-105.7 172.6,-189.9 15.9,-100.2 -37.2,-214.5 -138.7,-298.1 -86.2,-71 -212.4,-90.3 -329.3,-50.3 -112.9,38.6 -194.5,124.4 -218.4,229.7 -32.3,141.7 -9.6,282.9 60.6,377.5 59.3,80 151,126.7 265.2,134.8 153.7,11 297.1,-37.3 393.1,-132.5 92.7,-91.8 136.8,-219 127.5,-367.7 -21.7,-346.5 -236.9,-400 -538.5,-437.7 -141.8,-17.7 -284.6,37.2 -392.1,150.5 -119.4,125.8 -176.6,299.2 -149.2,452.5 44.9,251.4 190.1,548.5 631.4,537.8 354.5,-8.9 559.9,-186.5 610.5,-528 27.3,-184.4 -31.5,-466.2 -196.9,-648.1 -129.5,-142.4 -303.2,-209.1 -516,-198.1 -569.9,29.5 -721.9,519.1 -721.9,803.8 0,139.7 73.5,351.7 237.7,510.2 152.3,147 355.5,220.2 586.7,212.3 509.5,-17.8 801.9,-270.6 823.6,-711.8 38.7,-791.7 -746.7,-1045.5 -1042.4,-1141.1 -23.2,-7.5 -43.7,-14.1 -60.9,-20 -21.2,-7.4 -49.6,-17.7 -84.4,-30.3 -354,-128.7 -1431.3,-520.3 -2295.5,-353.1 -114.7,22.2 -212.8,48.5 -295.9,77.3 -300,-295.1 -892.4,-603.8 -1759.7,-665.8 -114.4,-8.1 -224.8,-11.9 -330.7,-11.9" /><g
         transform="scale(1.32309)"
         id="g444"><path
           id="path446"
           style="fill:#383e4d;fill-opacity:1;fill-rule:nonzero;stroke:none"
           d="M 16280.1,1412.22 H 1522.4 c -10.99,0 -19.89,8.92 -19.89,19.88 0,11.03 8.9,19.88 19.89,19.88 h 14757.7 c 11.1,0 19.9,-8.85 19.9,-19.88 0,-10.96 -8.8,-19.88 -19.9,-19.88" /></g></g></g></svg>