<?xml version="1.0" encoding="UTF-8" standalone="no"?>
<svg
   viewBox="0 0 553.01818 553.00927"
   height="553.00928"
   width="553.01819"
   xml:space="preserve"
   id="svg2"
   version="1.1"
   sodipodi:docname="vecteezy-people-general-avatargb0421.svg"
   xmlns:inkscape="http://www.inkscape.org/namespaces/inkscape"
   xmlns:sodipodi="http://sodipodi.sourceforge.net/DTD/sodipodi-0.dtd"
   xmlns="http://www.w3.org/2000/svg"
   xmlns:svg="http://www.w3.org/2000/svg"
   xmlns:rdf="http://www.w3.org/1999/02/22-rdf-syntax-ns#"
   xmlns:cc="http://creativecommons.org/ns#"
   xmlns:dc="http://purl.org/dc/elements/1.1/"><sodipodi:namedview
     id="namedview1"
     pagecolor="#ffffff"
     bordercolor="#000000"
     borderopacity="0.25"
     inkscape:showpageshadow="2"
     inkscape:pageopacity="0.0"
     inkscape:pagecheckerboard="0"
     inkscape:deskcolor="#d1d1d1"
     inkscape:export-bgcolor="#ffffff00"><inkscape:page
       x="0"
       y="0"
       width="553.01819"
       height="553.00928"
       id="page2"
       margin="0"
       bleed="0" /></sodipodi:namedview><metadata
     id="metadata8"><rdf:RDF><cc:Work
         rdf:about=""><dc:format>image/svg+xml</dc:format><dc:type
           rdf:resource="http://purl.org/dc/dcmitype/StillImage" /></cc:Work></rdf:RDF></metadata><defs
     id="defs6"><clipPath
       id="clipPath60"
       clipPathUnits="userSpaceOnUse"><path
         id="path58"
         d="m 4743.09,16549.2 c 0,-126 -102.11,-228.1 -228.05,-228.1 -125.94,0 -228.05,102.1 -228.05,228.1 0,125.9 102.11,228 228.05,228 125.94,0 228.05,-102.1 228.05,-228 z" /></clipPath><radialGradient
       id="radialGradient68"
       spreadMethod="pad"
       gradientTransform="matrix(228.052,0,0,-228.052,4515.04,16549.2)"
       gradientUnits="userSpaceOnUse"
       r="1"
       cy="0"
       cx="0"
       fy="0"
       fx="0"><stop
         id="stop64"
         offset="0"
         style="stop-opacity:1;stop-color:#f35b7b" /><stop
         id="stop66"
         offset="1"
         style="stop-opacity:1;stop-color:#f79873" /></radialGradient><clipPath
       id="clipPath78"
       clipPathUnits="userSpaceOnUse"><path
         id="path76"
         d="m 3629.91,16549.2 c 0,-126 -102.09,-228.1 -228.05,-228.1 -125.94,0 -228.04,102.1 -228.04,228.1 0,125.9 102.1,228 228.04,228 125.96,0 228.05,-102.1 228.05,-228 z" /></clipPath><radialGradient
       id="radialGradient86"
       spreadMethod="pad"
       gradientTransform="matrix(228.049,0,0,-228.049,3401.87,16549.2)"
       gradientUnits="userSpaceOnUse"
       r="1"
       cy="0"
       cx="0"
       fy="0"
       fx="0"><stop
         id="stop82"
         offset="0"
         style="stop-opacity:1;stop-color:#f35b7b" /><stop
         id="stop84"
         offset="1"
         style="stop-opacity:1;stop-color:#f79873" /></radialGradient><clipPath
       id="clipPath188"
       clipPathUnits="userSpaceOnUse"><path
         id="path186"
         d="m 10657.3,16426.9 c 0,-126 -102.1,-228.1 -228,-228.1 -126,0 -228.1,102.1 -228.1,228.1 0,125.9 102.1,228 228.1,228 125.9,0 228,-102.1 228,-228 z" /></clipPath><radialGradient
       id="radialGradient196"
       spreadMethod="pad"
       gradientTransform="matrix(228.049,0,0,-228.049,10429.3,16426.9)"
       gradientUnits="userSpaceOnUse"
       r="1"
       cy="0"
       cx="0"
       fy="0"
       fx="0"><stop
         id="stop192"
         offset="0"
         style="stop-opacity:1;stop-color:#dc3952" /><stop
         id="stop194"
         offset="1"
         style="stop-opacity:1;stop-color:#b4594f" /></radialGradient><clipPath
       id="clipPath206"
       clipPathUnits="userSpaceOnUse"><path
         id="path204"
         d="m 9780.67,16368.9 c 0,-125.9 -102.1,-228 -228.04,-228 -125.96,0 -228.05,102.1 -228.05,228 0,125.9 102.09,228 228.05,228 125.94,0 228.04,-102.1 228.04,-228 z" /></clipPath><radialGradient
       id="radialGradient214"
       spreadMethod="pad"
       gradientTransform="matrix(228.047,0,0,-228.047,9552.63,16368.9)"
       gradientUnits="userSpaceOnUse"
       r="1"
       cy="0"
       cx="0"
       fy="0"
       fx="0"><stop
         id="stop210"
         offset="0"
         style="stop-opacity:1;stop-color:#dc3952" /><stop
         id="stop212"
         offset="1"
         style="stop-opacity:1;stop-color:#b4594f" /></radialGradient><clipPath
       id="clipPath322"
       clipPathUnits="userSpaceOnUse"><path
         id="path320"
         d="m 16863.8,16356.9 c 0,-125.9 -102.1,-228 -228,-228 -126,0 -228.1,102.1 -228.1,228 0,125.9 102.1,228 228.1,228 125.9,0 228,-102.1 228,-228 z" /></clipPath><radialGradient
       id="radialGradient330"
       spreadMethod="pad"
       gradientTransform="matrix(228.052,0,0,-228.052,16635.8,16356.9)"
       gradientUnits="userSpaceOnUse"
       r="1"
       cy="0"
       cx="0"
       fy="0"
       fx="0"><stop
         id="stop326"
         offset="0"
         style="stop-opacity:1;stop-color:#f57379" /><stop
         id="stop328"
         offset="1"
         style="stop-opacity:1;stop-color:#fab99e" /></radialGradient><clipPath
       id="clipPath340"
       clipPathUnits="userSpaceOnUse"><path
         id="path338"
         d="m 15750.6,16356.9 c 0,-125.9 -102,-228 -228,-228 -125.9,0 -228,102.1 -228,228 0,125.9 102.1,228 228,228 126,0 228,-102.1 228,-228 z" /></clipPath><radialGradient
       id="radialGradient348"
       spreadMethod="pad"
       gradientTransform="matrix(228.047,0,0,-228.047,15522.6,16356.9)"
       gradientUnits="userSpaceOnUse"
       r="1"
       cy="0"
       cx="0"
       fy="0"
       fx="0"><stop
         id="stop344"
         offset="0"
         style="stop-opacity:1;stop-color:#f57379" /><stop
         id="stop346"
         offset="1"
         style="stop-opacity:1;stop-color:#fab99e" /></radialGradient><clipPath
       id="clipPath422"
       clipPathUnits="userSpaceOnUse"><path
         id="path420"
         d="m 4494.92,10421.3 c -15.78,-125 -129.88,-213.5 -254.79,-197.7 -124.96,15.8 -213.49,129.8 -197.71,254.8 15.78,125 129.87,213.5 254.85,197.7 124.93,-15.8 213.42,-129.9 197.65,-254.8 z" /></clipPath><radialGradient
       id="radialGradient428"
       spreadMethod="pad"
       gradientTransform="matrix(226.255,-28.5739,-28.5739,-226.255,4268.67,10449.8)"
       gradientUnits="userSpaceOnUse"
       r="1"
       cy="0"
       cx="0"
       fy="0"
       fx="0"><stop
         id="stop424"
         offset="0"
         style="stop-opacity:1;stop-color:#f35b7b" /><stop
         id="stop426"
         offset="1"
         style="stop-opacity:1;stop-color:#f79873" /></radialGradient><clipPath
       id="clipPath442"
       clipPathUnits="userSpaceOnUse"><path
         id="path440"
         d="m 3582.07,10573.3 c -15.78,-125 -129.87,-213.5 -254.83,-197.7 -124.95,15.7 -213.45,129.8 -197.67,254.8 15.78,124.9 129.87,213.4 254.83,197.7 124.94,-15.8 213.45,-129.9 197.67,-254.8 z" /></clipPath><radialGradient
       id="radialGradient448"
       spreadMethod="pad"
       gradientTransform="matrix(226.247,-28.573,-28.573,-226.247,3355.82,10601.8)"
       gradientUnits="userSpaceOnUse"
       r="1"
       cy="0"
       cx="0"
       fy="0"
       fx="0"><stop
         id="stop444"
         offset="0"
         style="stop-opacity:1;stop-color:#f35b7b" /><stop
         id="stop446"
         offset="1"
         style="stop-opacity:1;stop-color:#f79873" /></radialGradient><clipPath
       id="clipPath516"
       clipPathUnits="userSpaceOnUse"><path
         id="path514"
         d="m 10706.7,10549.4 c 0.7,-131 -104.9,-237.7 -235.9,-238.4 -131,-0.7 -237.7,104.9 -238.4,235.9 -0.7,130.9 104.9,237.7 235.9,238.4 130.9,0.7 237.7,-104.9 238.4,-235.9 z" /></clipPath><radialGradient
       id="radialGradient522"
       spreadMethod="pad"
       gradientTransform="matrix(237.16,1.27628,1.27628,-237.16,10469.5,10548.1)"
       gradientUnits="userSpaceOnUse"
       r="1"
       cy="0"
       cx="0"
       fy="0"
       fx="0"><stop
         id="stop518"
         offset="0"
         style="stop-opacity:1;stop-color:#dc3952" /><stop
         id="stop520"
         offset="1"
         style="stop-opacity:1;stop-color:#b4594f" /></radialGradient><clipPath
       id="clipPath532"
       clipPathUnits="userSpaceOnUse"><path
         id="path530"
         d="m 9632.68,10488.2 c 0.7,-130.9 -104.91,-237.7 -235.89,-238.4 -130.98,-0.7 -237.73,104.9 -238.44,235.9 -0.7,131 104.91,237.7 235.88,238.4 130.98,0.7 237.73,-104.9 238.45,-235.9 z" /></clipPath><radialGradient
       id="radialGradient538"
       spreadMethod="pad"
       gradientTransform="matrix(237.165,1.27631,1.27631,-237.165,9395.52,10487)"
       gradientUnits="userSpaceOnUse"
       r="1"
       cy="0"
       cx="0"
       fy="0"
       fx="0"><stop
         id="stop534"
         offset="0"
         style="stop-opacity:1;stop-color:#dc3952" /><stop
         id="stop536"
         offset="1"
         style="stop-opacity:1;stop-color:#b4594f" /></radialGradient><clipPath
       id="clipPath620"
       clipPathUnits="userSpaceOnUse"><path
         id="path618"
         d="m 16992.9,10506.5 c 12.6,-129.1 -81.8,-244.1 -210.9,-256.8 -129.2,-12.6 -244.1,81.8 -256.8,210.9 -12.7,129.2 81.8,244.2 210.9,256.8 129.1,12.7 244.1,-81.7 256.8,-210.9 z" /></clipPath><radialGradient
       id="radialGradient628"
       spreadMethod="pad"
       gradientTransform="matrix(233.843,22.9459,22.9459,-233.843,16759,10483.6)"
       gradientUnits="userSpaceOnUse"
       r="1"
       cy="0"
       cx="0"
       fy="0"
       fx="0"><stop
         id="stop624"
         offset="0"
         style="stop-opacity:1;stop-color:#f57379" /><stop
         id="stop626"
         offset="1"
         style="stop-opacity:1;stop-color:#f9af90" /></radialGradient><clipPath
       id="clipPath646"
       clipPathUnits="userSpaceOnUse"><path
         id="path644"
         d="m 16172.8,10431.8 c 12.6,-129.1 -81.8,-244.1 -210.9,-256.8 -129.2,-12.7 -244.1,81.8 -256.8,210.9 -12.7,129.1 81.7,244.1 210.9,256.8 129.1,12.7 244.1,-81.8 256.8,-210.9 z" /></clipPath><radialGradient
       id="radialGradient652"
       spreadMethod="pad"
       gradientTransform="matrix(233.843,22.9459,22.9459,-233.843,15938.9,10408.8)"
       gradientUnits="userSpaceOnUse"
       r="1"
       cy="0"
       cx="0"
       fy="0"
       fx="0"><stop
         id="stop648"
         offset="0"
         style="stop-opacity:1;stop-color:#f57379" /><stop
         id="stop650"
         offset="1"
         style="stop-opacity:1;stop-color:#f9af90" /></radialGradient><clipPath
       id="clipPath716"
       clipPathUnits="userSpaceOnUse"><path
         id="path714"
         d="m 4841.4,4486 c 0,-129.4 -104.92,-234.3 -234.33,-234.3 -129.41,0 -234.32,104.9 -234.32,234.3 0,129.4 104.91,234.3 234.32,234.3 129.41,0 234.33,-104.9 234.33,-234.3 z" /></clipPath><radialGradient
       id="radialGradient722"
       spreadMethod="pad"
       gradientTransform="matrix(234.314,0,0,-234.314,4607.08,4486)"
       gradientUnits="userSpaceOnUse"
       r="1"
       cy="0"
       cx="0"
       fy="0"
       fx="0"><stop
         id="stop718"
         offset="0"
         style="stop-opacity:1;stop-color:#f68976" /><stop
         id="stop720"
         offset="1"
         style="stop-opacity:1;stop-color:#fab99e" /></radialGradient><clipPath
       id="clipPath732"
       clipPathUnits="userSpaceOnUse"><path
         id="path730"
         d="m 3657.52,4460.2 c 0,-129.4 -104.9,-234.3 -234.32,-234.3 -129.41,0 -234.31,104.9 -234.31,234.3 0,129.4 104.9,234.3 234.31,234.3 129.42,0 234.32,-104.9 234.32,-234.3 z" /></clipPath><radialGradient
       id="radialGradient738"
       spreadMethod="pad"
       gradientTransform="matrix(234.316,0,0,-234.316,3423.21,4460.2)"
       gradientUnits="userSpaceOnUse"
       r="1"
       cy="0"
       cx="0"
       fy="0"
       fx="0"><stop
         id="stop734"
         offset="0"
         style="stop-opacity:1;stop-color:#f68976" /><stop
         id="stop736"
         offset="1"
         style="stop-opacity:1;stop-color:#fab99e" /></radialGradient><clipPath
       id="clipPath794"
       clipPathUnits="userSpaceOnUse"><path
         id="path792"
         d="m 10638.9,4395.5 c 20.4,-130.6 -69,-253 -199.6,-273.3 -130.6,-20.3 -253,69 -273.3,199.6 -20.3,130.6 69,253 199.6,273.3 130.6,20.3 253,-69 273.3,-199.6 z" /></clipPath><radialGradient
       id="radialGradient800"
       spreadMethod="pad"
       gradientTransform="matrix(236.455,36.836,36.836,-236.455,10402.4,4358.7)"
       gradientUnits="userSpaceOnUse"
       r="1"
       cy="0"
       cx="0"
       fy="0"
       fx="0"><stop
         id="stop796"
         offset="0"
         style="stop-opacity:1;stop-color:#f35b7b" /><stop
         id="stop798"
         offset="1"
         style="stop-opacity:1;stop-color:#f79873" /></radialGradient><clipPath
       id="clipPath810"
       clipPathUnits="userSpaceOnUse"><path
         id="path808"
         d="m 9742.8,4283.9 c 20.34,-130.6 -69.03,-253 -199.63,-273.3 -130.56,-20.4 -252.92,69 -273.27,199.6 -20.35,130.6 69.03,253 199.61,273.3 130.58,20.3 252.94,-69 273.29,-199.6 z" /></clipPath><radialGradient
       id="radialGradient816"
       spreadMethod="pad"
       gradientTransform="matrix(236.459,36.8368,36.8368,-236.459,9506.35,4247.1)"
       gradientUnits="userSpaceOnUse"
       r="1"
       cy="0"
       cx="0"
       fy="0"
       fx="0"><stop
         id="stop812"
         offset="0"
         style="stop-opacity:1;stop-color:#f35b7b" /><stop
         id="stop814"
         offset="1"
         style="stop-opacity:1;stop-color:#f79873" /></radialGradient><clipPath
       id="clipPath880"
       clipPathUnits="userSpaceOnUse"><path
         id="path878"
         d="m 15151.3,4313.9 c -12.1,-125.4 79.7,-236.8 205.1,-248.9 125.4,-12.1 236.8,79.8 248.9,205.1 12.1,125.4 -79.8,236.8 -205.1,248.9 -125.4,12.1 -236.9,-79.8 -248.9,-205.1 z" /></clipPath><radialGradient
       id="radialGradient886"
       spreadMethod="pad"
       gradientTransform="matrix(-227.006,21.8691,-21.8691,-227.006,15378.3,4292)"
       gradientUnits="userSpaceOnUse"
       r="1"
       cy="0"
       cx="0"
       fy="0"
       fx="0"><stop
         id="stop882"
         offset="0"
         style="stop-opacity:1;stop-color:#dc3952" /><stop
         id="stop884"
         offset="1"
         style="stop-opacity:1;stop-color:#b4594f" /></radialGradient><clipPath
       id="clipPath896"
       clipPathUnits="userSpaceOnUse"><path
         id="path894"
         d="m 16264.9,4173.7 c -12.1,-125.4 79.7,-236.8 205.1,-248.9 125.4,-12.1 236.8,79.8 248.9,205.1 12.1,125.4 -79.7,236.8 -205.1,248.9 -125.4,12.1 -236.8,-79.8 -248.9,-205.1 z" /></clipPath><radialGradient
       id="radialGradient904"
       spreadMethod="pad"
       gradientTransform="matrix(-227.001,21.8686,-21.8686,-227.001,16491.9,4151.8)"
       gradientUnits="userSpaceOnUse"
       r="1"
       cy="0"
       cx="0"
       fy="0"
       fx="0"><stop
         id="stop900"
         offset="0"
         style="stop-opacity:1;stop-color:#dc3952" /><stop
         id="stop902"
         offset="1"
         style="stop-opacity:1;stop-color:#b4594f" /></radialGradient></defs><g
     transform="matrix(1.3333333,0,0,-1.3333333,-1866.5103,1602.1138)"
     id="g10"><g
       transform="scale(0.1)"
       id="g12"><g
         transform="matrix(1.22699,0,0,1.22699,0,0.06375)"
         id="g14"><path
           id="path16"
           style="fill:#ffffff;fill-opacity:1;fill-rule:nonzero;stroke:none"
           d="M 16300,0 H 0 V 16300 H 16300 V 0"
           sodipodi:nodetypes="ccccc" /></g><g
         transform="scale(1.10298)"
         id="g18"><path
           id="path20"
           style="fill:#f0356b;fill-opacity:1;fill-rule:nonzero;stroke:none"
           d="m 5440.8,14419.8 c 0,-1038.4 -841.78,-1880.2 -1880.17,-1880.2 -1038.4,0 -1880.18,841.8 -1880.18,1880.2 0,1038.4 922.5739,2113.886 1960.9739,2113.886 1038.39,0 1799.3761,-1075.486 1799.3761,-2113.886"
           sodipodi:nodetypes="csssc"
           inkscape:export-filename="male.svg"
           inkscape:export-xdpi="96"
           inkscape:export-ydpi="96" /></g><path
         id="path22"
         style="fill:#ffffff;fill-opacity:1;fill-rule:nonzero;stroke:none"
         d="m 3927.29,13830.9 c 756.08,0 1417.56,404.7 1779.91,1009.2 -7.69,26.2 -15.34,51.1 -22.91,74.2 -77.38,236.5 -279.02,320.9 -511.02,353.1 -334.5,46.5 -681.79,76.9 -681.79,76.9 l -488.93,34.6 -488.93,-34.6 c 0,0 -347.3,-30.4 -681.8,-76.9 -232,-32.2 -433.64,-116.6 -511.01,-353.1 -21.86,-66.7 -44.42,-147.8 -66.58,-234.9 377.4,-514.4 986.17,-848.5 1673.06,-848.5" /><path
         id="path24"
         style="fill:#e9eae9;fill-opacity:1;fill-rule:nonzero;stroke:none"
         d="m 4524.12,15341.3 c -20.96,2 -32.64,3 -32.64,3 l -488.93,34.6 -488.93,-34.6 c 0,0 -19.18,-1.7 -52.53,-4.9 -6,-11 -11.83,-22.3 -17.24,-34.3 0,0 115.95,-221.3 495.45,-210.8 344,9.5 549.4,209.6 584.82,247" /><path
         id="path26"
         style="fill:#f79872;fill-opacity:1;fill-rule:nonzero;stroke:none"
         d="m 4234.26,15308 -103.96,613.3 -381.25,-49.7 -122,-563.6 c 0,0 325.41,-182.4 607.21,0" /><path
         id="path28"
         style="fill:#d17b59;fill-opacity:1;fill-rule:nonzero;stroke:none"
         d="m 4172.84,15670.4 -42.54,250.9 -381.25,-49.7 -61.51,-284.2 c 111.65,-0.6 325.52,9.1 485.3,83" /><g
         transform="scale(1.10035)"
         id="g30"><path
           id="path32"
           style="fill:#f79872;fill-opacity:1;fill-rule:nonzero;stroke:none"
           d="m 2968.11,15777.1 c -51.44,-262.6 -112.05,-784.3 -112.05,-1064.5 0,-280.1 205.43,-448.2 616.29,-448.2 410.83,0 784.32,130.8 877.71,597.6 93.37,466.9 -18.68,1288.6 -466.88,1363.3 -448.2,74.7 -855.87,-145.9 -915.07,-448.2" /></g><g
         transform="scale(1.0013)"
         id="g34"><path
           id="path36"
           style="fill:#502f26;fill-opacity:1;fill-rule:nonzero;stroke:none"
           d="m 3501.7,16300 h 802.92 c 0,0 -23.18,-308.8 -409.18,-316.5 -358.09,-7.2 -393.74,316.5 -393.74,316.5" /></g><g
         transform="scale(1.0013)"
         id="g38"><path
           id="path40"
           style="fill:#ffffff;fill-opacity:1;fill-rule:nonzero;stroke:none"
           d="m 4190.94,16230.5 c 11.5,21.5 29.66,69.5 29.66,69.5 h -650.34 c 0,0 15.4,-48.7 28.94,-67.8 7.66,-10.8 16.84,-25.8 43.78,-29.8 68.3,-10.1 241.2,-17.5 507.29,1.9 28.89,2.1 33.22,12.2 40.67,26.2" /></g><g
         transform="scale(1.04)"
         id="g42"><path
           id="path44"
           style="fill:#d17b59;fill-opacity:1;fill-rule:nonzero;stroke:none"
           d="m 3717.68,16287.1 c 3.55,-49.9 6.1,-99.2 3.14,-149.2 -4.49,-75.5 -38.32,-122.5 -87.68,-176.2 -44.39,-48.3 -10.94,-79.8 33.76,-112.6 10.48,-7.7 20.48,9.8 10.14,17.4 -64.47,47.2 -25.93,84.1 13.64,128.3 19.72,22.1 30.15,48.9 39.09,76.5 22,67.9 12.99,146.1 8.02,215.8 -0.93,12.8 -21.05,12.9 -20.11,0 v 0" /></g><g
         transform="scale(1.03805)"
         id="g46"><path
           id="path48"
           style="fill:#502f26;fill-opacity:1;fill-rule:nonzero;stroke:none"
           d="m 3528.25,16221.8 c 0,-43.2 -35,-78.2 -78.19,-78.2 -43.19,0 -78.19,35 -78.19,78.2 0,43.2 35,78.2 78.19,78.2 43.19,0 78.19,-35 78.19,-78.2" /></g><g
         transform="scale(1.03805)"
         id="g50"><path
           id="path52"
           style="fill:#502f26;fill-opacity:1;fill-rule:nonzero;stroke:none"
           d="m 4299.02,16221.8 c 0,-43.2 -35.01,-78.2 -78.19,-78.2 -43.19,0 -78.2,35 -78.2,78.2 0,43.2 35.01,78.2 78.2,78.2 43.18,0 78.19,-35 78.19,-78.2" /></g><g
         id="g54"><g
           clip-path="url(#clipPath60)"
           id="g56"><g
             transform="scale(1.02928)"
             id="g62"><path
               id="path70"
               style="fill:url(#radialGradient68);fill-opacity:1;fill-rule:nonzero;stroke:none"
               d="m 4608.18,16078.4 c 0,-122.3 -99.21,-221.5 -221.57,-221.5 -122.35,0 -221.56,99.2 -221.56,221.5 0,122.4 99.21,221.6 221.56,221.6 122.36,0 221.57,-99.2 221.57,-221.6" /></g></g></g><g
         id="g72"><g
           clip-path="url(#clipPath78)"
           id="g74"><g
             transform="scale(1.02928)"
             id="g80"><path
               id="path88"
               style="fill:url(#radialGradient86);fill-opacity:1;fill-rule:nonzero;stroke:none"
               d="m 3526.66,16078.4 c 0,-122.3 -99.19,-221.5 -221.56,-221.5 -122.36,0 -221.56,99.2 -221.56,221.5 0,122.4 99.2,221.6 221.56,221.6 122.37,0 221.56,-99.2 221.56,-221.6" /></g></g></g><g
         transform="scale(1.1044)"
         id="g90"><path
           id="path92"
           style="fill:#000000;fill-opacity:1;fill-rule:nonzero;stroke:none"
           d="m 3306.03,15919.2 c 152.14,-5.4 311.12,-36.1 624.71,0 91,10.5 133,28 196,-97.9 62.99,-126 208.24,-568.8 208.24,-747.3 0,0 36.75,26.3 78.74,141.8 22.42,61.6 68.83,349.3 7.01,549.4 -54.04,175 -205.38,260 -335.99,371 -192.66,163.8 -899.45,112 -1098.95,-77 -199.49,-189 -188.99,-482.9 -181.99,-853.9 0,0 -5.24,-68.3 71.76,-110.3 0,0 54.24,463.8 199.48,712.2 97.18,166.3 161.03,114.5 230.99,112" /></g><g
         transform="scale(1.03307)"
         id="g94"><path
           id="path96"
           style="fill:#f79872;fill-opacity:1;fill-rule:nonzero;stroke:none"
           d="m 4628.66,16180.3 c 0,0 119.73,119.7 224.49,22.4 104.76,-97.3 -52.38,-359.2 -239.45,-284.3 l 14.96,261.9" /></g><g
         transform="scale(1.03307)"
         id="g98"><path
           id="path100"
           style="fill:#f79872;fill-opacity:1;fill-rule:nonzero;stroke:none"
           d="m 3092.05,16180.3 c 0,0 -135.93,119.7 -240.67,22.4 -104.76,-97.3 52.38,-359.2 239.44,-284.3 l 1.23,261.9" /></g><g
         transform="scale(1.02248)"
         id="g102"><path
           id="path104"
           style="fill:#d17b59;fill-opacity:1;fill-rule:nonzero;stroke:none"
           d="m 4708.1,16214.1 c 19.96,32.2 47.15,55.2 84.61,63.4 12.87,2.8 7.42,22.5 -5.42,19.7 -42.51,-9.3 -74.25,-36.3 -96.84,-72.8 -6.96,-11.2 10.73,-21.4 17.65,-10.3 v 0" /></g><g
         transform="scale(1.02419)"
         id="g106"><path
           id="path108"
           style="fill:#d17b59;fill-opacity:1;fill-rule:nonzero;stroke:none"
           d="m 3101.13,16217.5 c -26.51,63.9 -88.45,82.5 -153.24,75.5 -12.94,-1.4 -13.07,-21.9 0,-20.4 54.05,5.8 110.59,-5.2 133.57,-60.5 4.96,-12 24.72,-6.7 19.67,5.4 v 0" /></g><g
         transform="scale(1.13029)"
         id="g110"><path
           id="path112"
           style="fill:#502f26;fill-opacity:1;fill-rule:nonzero;stroke:none"
           d="m 4133.07,15544.3 c -297.51,97.4 -463.37,-65 -996.83,30.8 -533.45,95.7 -410.36,724.9 -246.21,629.2 164.14,-95.8 504.4,-183 504.4,-183 0,0 -77.16,201.4 159.01,112.9 205.14,-77 455.39,-149.7 576.1,-355.5 20.31,-34.5 74.1,-215.2 3.53,-234.4" /></g><g
         transform="scale(1.11164)"
         id="g114"><path
           id="path116"
           style="fill:#714025;fill-opacity:1;fill-rule:nonzero;stroke:none"
           d="m 3197.58,16217.8 28.45,-107.4 c 0,0 -142.24,47.4 -303.46,189.6 0,0 104.32,-379.3 587.94,-350.9 l -199.14,123.3 c 0,0 170.69,-75.8 265.52,-18.9 0,0 -284.47,69.5 -379.31,164.3" /></g><g
         transform="scale(1.09994)"
         id="g118"><path
           id="path120"
           style="fill:#502f26;fill-opacity:1;fill-rule:nonzero;stroke:none"
           d="m 2990.88,16187.6 c 0,0 -175.72,-14.1 -238.96,49.1 -63.27,63.3 -91.36,-267 182.73,-337.3 l 196.78,175.7 -140.55,112.5" /></g><g
         transform="scale(1.10065)"
         id="g122"><path
           id="path124"
           style="fill:#502f26;fill-opacity:1;fill-rule:nonzero;stroke:none"
           d="m 4281.25,15910.2 c 0,0 291.46,-212.5 263.38,-79 -28.09,133.4 -200.18,184.4 -200.18,184.4 0,0 89.56,168.5 10.54,226.5 -79,57.9 -142.22,-200.2 -142.22,-200.2 l 68.48,-131.7" /></g><g
         transform="scale(1.05572)"
         id="g126"><path
           id="path128"
           style="fill:#502f26;fill-opacity:1;fill-rule:nonzero;stroke:none"
           d="m 4026.13,16298 c 65.6,-5.7 244.66,-17.9 301.92,-153.1 0,0 -97.82,59 -299.25,65.3 -26.47,0.8 -27.02,16.6 -27.02,16.6 l -0.15,42.1 c 0,0 1.63,31.1 24.5,29.1" /></g><g
         transform="scale(1.05572)"
         id="g130"><path
           id="path132"
           style="fill:#502f26;fill-opacity:1;fill-rule:nonzero;stroke:none"
           d="m 3516.38,16298 c -65.56,-5.7 -244.64,-17.9 -301.92,-153.1 0,0 97.83,59 299.26,65.3 26.49,0.8 27.02,16.6 27.02,16.6 l 0.17,42.1 c 0,0 -1.63,31.1 -24.53,29.1" /></g><path
         id="path134"
         style="fill:#d17b59;fill-opacity:1;fill-rule:nonzero;stroke:none"
         d="m 3790.72,15936.5 c 58.57,-15.6 118.09,-17.1 178.38,-17.1 13.48,0 13.48,20.9 0,20.9 -58.43,0 -115.99,1.2 -172.83,16.3 -13.04,3.5 -18.57,-16.7 -5.55,-20.1 v 0" /><path
         id="path136"
         style="fill:#6998c0;fill-opacity:1;fill-rule:nonzero;stroke:none"
         d="m 3479.43,13879.6 c 111.74,839.4 146.02,1328.4 154.68,1473.2 l -120.49,-8.5 c 0,0 -347.3,-30.4 -681.8,-76.9 -232,-32.2 -433.64,-116.6 -511.01,-353.1 -21.86,-66.7 -44.42,-147.8 -66.58,-234.9 292.9,-399.3 725.18,-689.7 1225.2,-799.8" /><path
         id="path138"
         style="fill:#6998c0;fill-opacity:1;fill-rule:nonzero;stroke:none"
         d="m 5707.2,14840.1 c -7.69,26.2 -15.34,51.1 -22.91,74.2 -77.38,236.5 -279.02,320.9 -511.02,353.1 -334.5,46.5 -681.79,76.9 -681.79,76.9 l -254.39,16.2 c 62.97,-228.8 97.52,-558.4 250.87,-1452.8 515.65,144.5 950.01,483.3 1219.24,932.4" /><path
         id="path140"
         style="fill:#70c2ce;fill-opacity:1;fill-rule:nonzero;stroke:none"
         d="m 3668.73,15508.9 -73.79,-621.9 c 0,0 -23.65,157.3 -63.25,189.7 -38.64,31.6 -302.18,-80.8 -302.18,-80.8 0,0 193.94,264.8 242.45,354.9 36.9,68.5 196.77,158.1 196.77,158.1" /><path
         id="path142"
         style="fill:#70c2ce;fill-opacity:1;fill-rule:nonzero;stroke:none"
         d="m 4201.08,15508.9 33.37,-200.3 94.88,-421.6 c 0,0 21.02,164.4 60.62,196.8 38.64,31.6 250.35,-87.9 250.35,-87.9 0,0 -193.94,264.8 -242.45,354.9 -36.9,68.5 -196.77,158.1 -196.77,158.1" /><g
         transform="scale(1.10372)"
         id="g144"><path
           id="path146"
           style="fill:#47bfa0;fill-opacity:1;fill-rule:nonzero;stroke:none"
           d="m 10939.2,14421.1 c 0,-1037.7 -841.2,-1878.9 -1878.9,-1878.9 -1037.7,0 -1878.92,841.2 -1878.92,1878.9 0,1037.7 841.22,1878.9 1878.92,1878.9 1037.7,0 1878.9,-841.2 1878.9,-1878.9" /></g><g
         transform="scale(1.12485)"
         id="g148"><path
           id="path150"
           style="fill:#2b1c17;fill-opacity:1;fill-rule:nonzero;stroke:none"
           d="m 7869.18,15793.1 c -73.14,121.7 -230.45,-44.6 -136.07,-146.4 -115.21,12.3 -222.06,-43.7 -131.21,-162.9 -131.7,-22.6 -242.3,-60.2 -250.62,-243.3 -4.96,-109 98.51,-164 98.51,-164 0,0 -148.07,-123.5 84.86,-222.6 -237.89,5 -341.22,-348.7 -56.94,-386.2 -74.23,-67.2 -37.21,-180 63.24,-193.7 -54.25,-67.3 -66.32,-193.2 -17.76,-266.1 67.8,-101.8 133.76,-64.6 224.89,-29.1 -15.7,-90.6 30.27,-161 118.13,-119.4 30.15,-182.8 256.41,-238.1 331.16,-44.9 69.38,-144.8 171.74,-351.7 355.3,-196.6 107.4,-115.7 95.16,-9 178.85,-11.9 63.43,-2.3 176.62,-108.2 180.71,15.9 100.28,-99.1 380.41,-151.1 400.41,55.9 59.03,-33.8 163.76,-81.1 236.83,-53.8 43.48,16.2 55.21,0.6 81.52,20.7 72.99,55.4 114.24,121.9 80.64,242.7 291.07,-74.2 419.97,223.1 266.97,389.1 55.4,42.7 81.4,107.2 24.4,158.7 155.9,136.4 173.2,281.4 20.2,421.2 73.1,46.4 110.5,136 29.5,192.9 148.2,201.1 -45,349.8 -204.16,329.1 79.83,95 -8.18,228.3 -118.68,238.1 9.68,166.3 -144.91,382.6 -318.45,252 -3.38,179.8 -171.04,137.6 -171.04,137.6 0,0 -41.79,105.5 -77.44,141.6 -150.51,152.3 -362.52,105.4 -444.8,-75.7 -48.2,87.2 -127.12,100.9 -164.31,5.2 -47.8,85.1 -118.66,115.5 -225.93,117.9 -131.99,3.1 -235.73,-118.2 -268.74,-237.3 -230.86,58.3 -189.97,-164.7 -189.97,-164.7" /></g><path
         id="path152"
         style="fill:#b55950;fill-opacity:1;fill-rule:nonzero;stroke:none"
         d="m 10000,13843 c 585.9,0 1114.9,243 1492.1,633.7 -109.1,170.6 -355.5,560.6 -466.4,771.1 -167.2,317.8 -332.8,223.8 -558.5,173.6 -225.8,-50.2 -702.4,0 -702.4,0 0,0 -238.64,-145.7 -652.2,-125.4 -383.27,18.8 -504.25,-129.6 -551.88,-326.1 -38.01,-156.9 -49.15,-367.2 -65.12,-480.4 377.89,-398.2 912.13,-646.5 1504.4,-646.5" /><path
         id="path154"
         style="fill:#b55950;fill-opacity:1;fill-rule:nonzero;stroke:none"
         d="m 10303.8,15320 -209,613.4 -381.26,-49.8 -16.95,-563.6 c 0,0 325.41,-182.3 607.21,0" /><path
         id="path156"
         style="fill:#85423c;fill-opacity:1;fill-rule:nonzero;stroke:none"
         d="m 10155.6,15755 -60.8,178.4 -381.26,-49.8 -6.23,-206.8 c 0,0 280.51,-55.7 448.29,78.2" /><path
         id="path158"
         style="fill:#6d4881;fill-opacity:1;fill-rule:nonzero;stroke:none"
         d="m 10083.6,15097.3 c -270.86,-47.8 -511.08,178.1 -553.07,236.5 -78.25,-19.3 -175,-35.1 -288.39,-38.8 98.82,-850.4 -244.51,-1193.9 -244.51,-1193.9 0,0 372.44,-258.1 1002.37,-258.1 384.2,0 744.1,104.5 1052.6,286.7 247.8,427.3 -122.9,752 -210.8,884 -92,137.9 -202.6,402.2 -220.5,445.3 -48.4,-10.8 -99.5,-25.4 -154.1,-37.6 0,0 -4.5,-257.2 -383.6,-324.1" /><path
         id="path160"
         style="fill:#7f62aa;fill-opacity:1;fill-rule:nonzero;stroke:none"
         d="m 10924.7,14907.8 c -34.4,43 -64.7,78.6 -82.9,105.9 -4.1,6.1 -8.1,12.4 -12.3,19 -567.9,-318.7 -1383.06,-208.6 -1574.21,-176.9 -3.53,-53.7 -8.94,-104.4 -15.89,-151.9 1006.5,-169.9 1581,140.5 1685.3,203.9" /><path
         id="path162"
         style="fill:#7f62aa;fill-opacity:1;fill-rule:nonzero;stroke:none"
         d="m 11136,14441 c -2.7,75.2 -21.3,145.2 -48.3,209.1 -689.5,-454.2 -1582.6,-311.4 -1917.43,-234.5 -21.68,-62.1 -45.02,-114.3 -67.34,-157.3 1252.67,-300 1862.47,54.1 2033.07,182.7" /><g
         transform="scale(1.09659)"
         id="g164"><path
           id="path166"
           style="fill:#b55950;fill-opacity:1;fill-rule:nonzero;stroke:none"
           d="m 8913.17,16247.5 c -261.37,-59.7 -568.49,-274.4 -548.9,-921.3 19.61,-646.9 592.96,-1267.8 1095.47,-842 449.94,381.3 315.98,940 217.95,1253.7 -98.03,313.6 -535.2,562.1 -764.52,509.6" /></g><path
         id="path168"
         style="fill:#85423c;fill-opacity:1;fill-rule:nonzero;stroke:none"
         d="m 9978.04,15879.9 c 43.46,-20.7 84.06,-23.3 130.66,-12.2 13.1,3.1 7.6,23.3 -5.5,20.2 -40.9,-9.8 -76.3,-8.2 -114.61,10 -12.11,5.8 -22.72,-12.2 -10.55,-18 v 0" /><g
         transform="scale(1.02511)"
         id="g170"><path
           id="path172"
           style="fill:#b55950;fill-opacity:1;fill-rule:nonzero;stroke:none"
           d="m 10383.8,16167.8 c 0,0 107.8,132.2 222.7,45.3 115,-86.8 -15.9,-365.4 -211.1,-309.5 l -11.6,264.2" /></g><g
         transform="scale(1.01672)"
         id="g174"><path
           id="path176"
           style="fill:#b55950;fill-opacity:1;fill-rule:nonzero;stroke:none"
           d="m 9162.08,16191.2 c 0,0 -133.34,108.8 -229.23,-0.3 -95.92,-109.1 89.83,-357.7 271.23,-262.9 l -42,263.2" /></g><g
         transform="scale(1.02928)"
         id="g178"><path
           id="path180"
           style="fill:#85423c;fill-opacity:1;fill-rule:nonzero;stroke:none"
           d="m 9732.84,16287.3 c -18.12,-74.8 -13.79,-142.9 17.3,-213.8 32.15,-73.2 136.69,-220.1 0.68,-244.9 -12.93,-2.4 -7.48,-21.9 5.34,-19.6 68.98,12.6 97.54,49.3 79.96,118.4 -32.74,128.2 -118.43,211 -83.65,354.5 3.01,12.7 -16.52,18.1 -19.63,5.4 v 0" /></g><g
         id="g182"><g
           clip-path="url(#clipPath188)"
           id="g184"><g
             transform="scale(1.02177)"
             id="g190"><path
               id="path198"
               style="fill:url(#radialGradient196);fill-opacity:1;fill-rule:nonzero;stroke:none"
               d="m 10430.2,16076.8 c 0,-123.2 -99.9,-223.2 -223.2,-223.2 -123.3,0 -223.19,100 -223.19,223.2 0,123.3 99.89,223.2 223.19,223.2 123.3,0 223.2,-99.9 223.2,-223.2" /></g></g></g><g
         id="g200"><g
           clip-path="url(#clipPath206)"
           id="g202"><g
             transform="scale(1.01822)"
             id="g208"><path
               id="path216"
               style="fill:url(#radialGradient214);fill-opacity:1;fill-rule:nonzero;stroke:none"
               d="m 9605.68,16076 c 0,-123.7 -100.28,-223.9 -223.97,-223.9 -123.7,0 -223.96,100.2 -223.96,223.9 0,123.7 100.26,224 223.96,224 123.69,0 223.97,-100.3 223.97,-224" /></g></g></g><g
         transform="scale(1.00759)"
         id="g218"><path
           id="path220"
           style="fill:#85423c;fill-opacity:1;fill-rule:nonzero;stroke:none"
           d="m 9218.32,16244.1 c -26.92,26 -59.86,43 -95.87,52.5 -12.96,3.4 -18.44,-16.6 -5.52,-20 32.62,-8.6 62.32,-23.6 86.72,-47.2 9.63,-9.2 24.32,5.4 14.67,14.7 v 0" /></g><g
         transform="scale(1.01549)"
         id="g222"><path
           id="path224"
           style="fill:#85423c;fill-opacity:1;fill-rule:nonzero;stroke:none"
           d="m 10574.5,16216.8 c 25.2,17 46.6,37.9 68,59.3 9.4,9.3 -5.2,23.9 -14.5,14.5 -20.2,-20.1 -40.2,-40 -63.8,-56 -11,-7.4 -0.7,-25.3 10.3,-17.8 v 0" /></g><path
         id="path226"
         style="fill:#502f26;fill-opacity:1;fill-rule:nonzero;stroke:none"
         d="m 10289.1,16204 -500.09,-39.9 c 0,0 25.03,-250.5 275.09,-230.6 250.1,20 225,270.5 225,270.5" /><path
         id="path228"
         style="fill:#ffffff;fill-opacity:1;fill-rule:nonzero;stroke:none"
         d="m 10241.1,16200.2 -378.78,-30.3 c 9.75,-29.1 40.18,-53.5 55.46,-65 22.3,-16.7 253.62,-1.4 292.62,20.9 23,13.2 29.9,40.4 30.7,74.4" /><g
         transform="scale(1.04376)"
         id="g230"><path
           id="path232"
           style="fill:#2b1c17;fill-opacity:1;fill-rule:nonzero;stroke:none"
           d="m 9300.65,16299.1 c -54.33,-4.3 -219.42,-32.4 -270.27,-213.4 0,0 113.5,99.8 290.1,107.9 7.61,0.3 24.88,2.8 22.34,23.8 -2.23,18.4 -4.57,44 -9.99,62.2 -6.05,20.4 -21.14,20.4 -32.18,19.5" /></g><g
         transform="scale(1.04678)"
         id="g234"><path
           id="path236"
           style="fill:#2b1c17;fill-opacity:1;fill-rule:nonzero;stroke:none"
           d="m 9765.31,16293.5 c 54.07,5.2 220.96,6.5 302.59,-162.2 0,0 -128.91,78 -303.64,55.1 -7.55,-1 -24.93,-1.6 -26.08,19.5 -1.05,18.5 -3.25,44 -1.15,62.8 2.39,21 17.2,23.7 28.28,24.8" /></g><g
         transform="scale(1.025)"
         id="g238"><path
           id="path240"
           style="fill:#2b1c17;fill-opacity:1;fill-rule:nonzero;stroke:none"
           d="m 9499.56,16225.7 c 5.32,-43.4 -27.51,-36.6 -70.94,-42 -43.41,-5.3 -80.94,-20.6 -86.26,22.8 -5.3,43.4 25.58,82.9 68.99,88.2 43.41,5.3 82.9,-25.6 88.21,-69" /></g><g
         transform="scale(1.02934)"
         id="g242"><path
           id="path244"
           style="fill:#2b1c17;fill-opacity:1;fill-rule:nonzero;stroke:none"
           d="m 10123.3,16226 c 5.4,-43.2 -27.4,-36.5 -70.6,-41.8 -43.2,-5.3 -80.62,-20.6 -85.87,22.6 -5.34,43.3 25.45,82.6 68.67,87.9 43.2,5.3 82.6,-25.5 87.8,-68.7" /></g><g
         transform="scale(1.10139)"
         id="g246"><path
           id="path248"
           style="fill:#2b1c17;fill-opacity:1;fill-rule:nonzero;stroke:none"
           d="m 8215.17,15062.7 256.87,-165.8 c 0,0 -75.9,450.5 -55.66,632.7 20.23,182.2 274.64,315.9 523.86,341.7 220.17,22.8 508.71,-48.1 599.78,-200 91.15,-151.8 126.56,-678.2 126.56,-678.2 0,0 163.25,160.7 173.33,312.5 10.17,151.9 45.58,823.8 -826.27,922.5 -634.99,71.9 -1037.62,-425.2 -798.47,-1165.4" /></g><g
         transform="scale(1.09243)"
         id="g250"><path
           id="path252"
           style="fill:#6d4881;fill-opacity:1;fill-rule:nonzero;stroke:none"
           d="m 8929.39,16269.4 c -357.22,-30.6 -702.25,-286.7 -673.61,-745.1 12.4,-198.4 62.2,-343.6 110.09,-415.9 l 86.65,-31.8 c -34.16,120.4 -122.33,470.4 -53.86,662.1 127.58,357.2 576.65,515.4 1056.32,311.2 351.42,-149.5 374.21,-614 361.21,-851.7 8.24,10.9 16.66,22.7 24.99,35.1 30.3,176 53.09,445.2 -39.18,632.9 -148.02,301.1 -515.45,433.8 -872.61,403.2" /></g><g
         transform="scale(1.07206)"
         id="g254"><path
           id="path256"
           style="fill:#472a21;fill-opacity:1;fill-rule:nonzero;stroke:none"
           d="m 8277.4,15691.8 c -78.93,-74.7 -222.85,66.5 -119.48,144.9 -94.12,18.5 -205.45,16.2 -198.07,149.3 4.88,87.9 73.86,134.3 154.6,132.3 -84.05,107.8 113.71,181.7 134.35,115.6 0,0 -54.6,31.2 -93.59,-31.2 -39.01,-62.4 27.29,-117 27.29,-117 0,0 -132.92,22 -156,-74.1 -32.49,-135.1 217.11,-132.6 217.11,-132.6 0,0 -98.75,-66.7 -80.6,-119.6 28.59,-83.2 114.39,-67.6 114.39,-67.6" /></g><g
         transform="scale(1.10962)"
         id="g258"><path
           id="path260"
           style="fill:#472a21;fill-opacity:1;fill-rule:nonzero;stroke:none"
           d="m 9002.09,16163.1 c 0,0 60.23,95.5 155.76,50.2 95.44,-45.2 75.34,-130.6 75.34,-130.6 0,0 43.98,13.8 85.44,-1.2 41.46,-15.1 60.29,-90.5 60.29,-90.5 0,0 22.53,64.1 -11.36,98 -33.88,33.9 -105.53,22.6 -105.53,22.6 0,0 7.57,113 -105.44,150.7 -113.1,37.7 -154.5,-99.2 -154.5,-99.2" /></g><path
         id="path262"
         style="fill:#472a21;fill-opacity:1;fill-rule:nonzero;stroke:none"
         d="m 10896.1,16216.4 c 0,0 128.3,-27.8 100.4,-117 -27.9,-89.2 -100.4,-72.5 -100.4,-72.5 0,0 94.8,-78.1 33.5,-156.1 -61.3,-78.1 -234.2,-66.9 -256.5,39 0,0 14,-177 -170,-139.4 0,0 133.8,-83.6 196.5,29.3 0,0 154.7,-75.3 255.1,25.1 100.3,100.4 29.2,184 29.2,184 0,0 75.3,50.1 58.6,142.1 -16.8,92 -146.4,65.5 -146.4,65.5" /><path
         id="path264"
         style="fill:#f9c154;fill-opacity:1;fill-rule:nonzero;stroke:none"
         d="m 9222.33,16180.2 c 0,0 0.01,-111.5 25.1,-186.8 18.17,-54.5 86.4,-121.2 80.83,-32 -5.58,89.2 -34.85,175.6 -83.62,243.9 -24.52,34.3 26.48,58.5 48.08,31.3 28.65,-36 52.96,-82.9 75.26,-169.3 22.28,-86.4 18.81,-177.7 -25.78,-194.4 -44.6,-16.7 -103.14,9 -133.8,100.3 -27,80.4 -11.5,216 -11.5,216 0,0 14.29,-6.2 25.43,-9" /><g
         transform="scale(1.00599)"
         id="g266"><path
           id="path268"
           style="fill:#f9c154;fill-opacity:1;fill-rule:nonzero;stroke:none"
           d="m 10622.4,16200.3 c 1.1,-33.8 5.6,-111.9 24.6,-169.1 18.1,-54.2 85.9,-120.5 80.4,-31.8 -5.6,88.6 -34.6,174.5 -83.1,242.4 -24.4,34.1 26.3,58.2 47.8,31.2 28.4,-35.8 52.6,-82.4 74.7,-168.3 22.2,-85.9 18.7,-176.7 -25.6,-193.3 -44.4,-16.6 -102.5,9 -132.9,99.7 -18.9,56.2 -15.4,137 -12.5,181.5 l 4.1,12.5 22.5,-4.8" /></g><g
         transform="scale(1.11328)"
         id="g270"><path
           id="path272"
           style="fill:#a4bb1f;fill-opacity:1;fill-rule:nonzero;stroke:none"
           d="m 16300,14300.2 c 0,-1028.8 -834,-1862.8 -1862.8,-1862.8 -1028.7,0 -1862.8,834 -1862.8,1862.8 0,1028.8 834.1,1862.7 1862.8,1862.7 1028.8,0 1862.8,-833.9 1862.8,-1862.7" /></g><g
         transform="scale(1.09871)"
         id="g274"><path
           id="path276"
           style="fill:#f9f1e3;fill-opacity:1;fill-rule:nonzero;stroke:none"
           d="m 14628.7,12602.3 c 725.6,0 1355.4,409.5 1671.3,1009.9 -36.6,36.4 -228,208.4 -655.3,289.8 -479.5,91.3 -1528.4,14.5 -1940.7,-91.3 -253.4,-65.1 -591.2,-312.1 -652.3,-358 337.4,-512.2 917.7,-850.4 1577,-850.4" /></g><g
         transform="scale(1.01866)"
         id="g278"><path
           id="path280"
           style="fill:#f0356b;fill-opacity:1;fill-rule:nonzero;stroke:none"
           d="m 15778.3,13592.7 c 180.4,0 355.2,23.8 521.7,67.8 l -352,835.2 120.4,295.5 c 0,0 -295.6,98.5 -443.3,-65.6 l 180.6,-218.9 c 0,0 -106,-615.9 -114.3,-911.9 28.8,-1.2 57.8,-2.1 86.9,-2.1" /></g><g
         transform="scale(1.00683)"
         id="g282"><path
           id="path284"
           style="fill:#fab99e;fill-opacity:1;fill-rule:nonzero;stroke:none"
           d="m 15743.6,15693.9 -66.4,-573.1 364.1,-83.8 258.7,83.8 -174.4,622.9 -382,-49.8" /></g><g
         transform="scale(1.00004)"
         id="g286"><path
           id="path288"
           style="fill:#da7e57;fill-opacity:1;fill-rule:nonzero;stroke:none"
           d="m 16300,15618.8 -64.9,231.8 -384.6,-50.2 -11.3,-96.8 c 99.9,-31.6 300.6,-87.5 460.8,-84.8" /></g><g
         transform="scale(1.06001)"
         id="g290"><path
           id="path292"
           style="fill:#fab99e;fill-opacity:1;fill-rule:nonzero;stroke:none"
           d="m 15979.2,15855.8 c 0,0 116.7,116.7 218.7,21.9 102.1,-94.8 -51,-350 -233.4,-277.1 l 14.7,255.2" /></g><g
         transform="scale(1.03872)"
         id="g294"><path
           id="path296"
           style="fill:#fab99e;fill-opacity:1;fill-rule:nonzero;stroke:none"
           d="m 14730.2,16180.9 c 0,0 -135.3,119.1 -239.4,22.3 -104.2,-96.7 52.1,-357.2 238.1,-282.8 l 1.3,260.5" /></g><g
         transform="scale(1.0275)"
         id="g298"><path
           id="path300"
           style="fill:#da7e57;fill-opacity:1;fill-rule:nonzero;stroke:none"
           d="m 14846.8,16223.1 c -33.8,51.4 -99.9,73.5 -158.8,76.3 -13.1,0.6 -13.1,-19.8 0,-20.4 51.3,-2.4 111.6,-21.2 141.1,-66.1 7.2,-11 24.9,-0.8 17.7,10.2 v 0" /></g><g
         transform="scale(1.1013)"
         id="g302"><path
           id="path304"
           style="fill:#fab99e;fill-opacity:1;fill-rule:nonzero;stroke:none"
           d="m 13821.7,15777.6 c -51.3,-262.4 8.2,-638.5 60.7,-1063.6 34.3,-277.8 448.2,-435.4 858.7,-435.4 410.6,0 540.7,118.2 634,584.7 93.4,466.4 -191.2,1287.4 -639,1362.1 -447.9,74.6 -855.2,-145.9 -914.4,-447.8" /></g><path
         id="path306"
         style="fill:#da7e57;fill-opacity:1;fill-rule:nonzero;stroke:none"
         d="m 16006.1,15905.6 c 47.6,-22 98.7,-23.7 150.3,-23.8 13.4,0 13.4,20.9 0,20.9 -47.5,0.1 -95.8,0.6 -139.7,20.9 -12.1,5.6 -22.8,-12.4 -10.6,-18 v 0" /><g
         transform="scale(1.12273)"
         id="g308"><path
           id="path310"
           style="fill:#cf4121;fill-opacity:1;fill-rule:nonzero;stroke:none"
           d="m 13849,15669.4 c 172.7,-90.3 492.8,-139.4 749.8,-44.7 377.4,139 397.2,377.4 337.6,526.3 -59.6,149 -476.7,114.2 -789.5,39.8 -312.8,-74.5 -372.4,-268.2 -372.4,-268.2 0,0 -292.9,24.9 -382.3,-243.3 -89.4,-268.1 64.5,-635.5 64.5,-635.5 l 124.2,-129.1 c 0,0 12.1,500.5 69.5,635.5 84.4,198.6 147.3,146 198.6,119.2" /></g><g
         transform="scale(1.09366)"
         id="g312"><path
           id="path314"
           style="fill:#cf4121;fill-opacity:1;fill-rule:nonzero;stroke:none"
           d="m 15256.9,16284.7 c 0,0 244.7,15.3 351.8,-260 107,-275.2 -122.4,-734 -122.4,-734 0,0 -94.2,509.8 -252.3,734 -20.1,28.7 -44.6,56.1 -87.9,53.6 -33.2,-2 -220.5,-58.7 -266.4,-68.8 l 377.2,275.2" /></g><g
         id="g316"><g
           clip-path="url(#clipPath322)"
           id="g318"><g
             transform="scale(1.03459)"
             id="g324"><path
               id="path332"
               style="fill:url(#radialGradient330);fill-opacity:1;fill-rule:nonzero;stroke:none"
               d="m 16300,15810 c 0,-121.7 -98.7,-220.4 -220.4,-220.4 -121.8,0 -220.5,98.7 -220.5,220.4 0,121.8 98.7,220.5 220.5,220.5 121.7,0 220.4,-98.7 220.4,-220.5" /></g></g></g><g
         id="g334"><g
           clip-path="url(#clipPath340)"
           id="g336"><g
             transform="scale(1.01748)"
             id="g342"><path
               id="path350"
               style="fill:url(#radialGradient348);fill-opacity:1;fill-rule:nonzero;stroke:none"
               d="m 15480,16075.9 c 0,-123.8 -100.3,-224.2 -224.1,-224.2 -123.7,0 -224.1,100.4 -224.1,224.2 0,123.7 100.4,224.1 224.1,224.1 123.8,0 224.1,-100.4 224.1,-224.1" /></g></g></g><g
         transform="scale(1.0325)"
         id="g352"><path
           id="path354"
           style="fill:#da7e57;fill-opacity:1;fill-rule:nonzero;stroke:none"
           d="m 15591.8,16287 c 4.5,-73.4 -12.2,-145.5 3.9,-218.2 21.7,-97.6 143.4,-130.2 17.3,-226.6 -10.2,-7.9 -0.1,-25.5 10.3,-17.5 39.6,30.3 95.8,74.4 64.8,130.8 -31.4,56.8 -73,94.3 -80.2,163.4 -5.9,55.6 7.5,112.1 4.1,168.1 -0.7,12.9 -21,13 -20.2,0 v 0" /></g><g
         transform="scale(1.03446)"
         id="g356"><path
           id="path358"
           style="fill:#502f26;fill-opacity:1;fill-rule:nonzero;stroke:none"
           d="m 15268.5,16221.5 c 0,-43.3 -35.1,-78.4 -78.5,-78.4 -43.3,0 -78.4,35.1 -78.4,78.4 0,43.4 35.1,78.5 78.4,78.5 43.4,0 78.5,-35.1 78.5,-78.5" /></g><g
         transform="scale(1.03446)"
         id="g360"><path
           id="path362"
           style="fill:#502f26;fill-opacity:1;fill-rule:nonzero;stroke:none"
           d="m 16042,16221.5 c 0,-43.3 -35.1,-78.4 -78.5,-78.4 -43.4,0 -78.4,35.1 -78.4,78.4 0,43.4 35,78.5 78.4,78.5 43.4,0 78.5,-35.1 78.5,-78.5" /></g><g
         transform="scale(1.04585)"
         id="g364"><path
           id="path366"
           style="fill:#502f26;fill-opacity:1;fill-rule:nonzero;stroke:none"
           d="m 16139,16043.4 c 0,-69.3 -22.1,-138.5 -72.6,-172.2 -81.2,-54.1 -406.2,-78.2 -484,-6.5 -56.2,52 -41.1,105 -41.1,209 0,103.9 3.3,138.6 107.2,147.2 103.9,8.7 407.1,0 407.1,0 99.7,-8.6 83.4,-108.2 83.4,-177.5 z m -941.9,-178.7 c -77.8,-71.7 -402.8,-47.6 -484,6.5 -50.6,33.7 -72.6,102.9 -72.6,172.2 0,69.3 -16.3,168.9 83.4,177.5 0,0 303.2,8.7 407.1,0 103.9,-8.6 107.2,-43.3 107.2,-147.2 0,-104 15.1,-157 -41.1,-209 z m 1076.1,322.7 c -7.1,2.4 -36.3,8.6 -61.3,13.8 -4.1,41.5 -54.4,81.8 -129.2,90.1 -77.9,8.7 -407.2,0 -502.4,-8.7 -95.3,-8.6 -103.9,-69.2 -103.9,-69.2 h -173.3 c 0,0 -8.6,60.6 -103.9,69.2 -95.3,8.7 -424.5,17.4 -502.4,8.7 -74.8,-8.3 -125.1,-48.6 -129.2,-90.1 -24.9,-5.2 -54.2,-11.4 -61.3,-13.8 -13.1,-4.4 0,-78 0,-78 l 60.5,-17.8 c 1.6,-87.1 10,-200.3 43.4,-242 39,-48.8 177.5,-99.6 316.2,-99.6 138.5,0 290.1,12.9 342.1,82.2 51.9,69.3 43.3,285.9 43.3,285.9 h 155.9 c 0,0 -8.7,-216.6 43.3,-285.9 51.9,-69.3 203.6,-82.2 342.1,-82.2 138.7,0 277.2,50.8 316.2,99.6 33.4,41.7 41.7,154.9 43.4,242 l 60.5,17.8 c 0,0 13.1,73.6 0,78" /></g><g
         transform="scale(1.05084)"
         id="g368"><path
           id="path370"
           style="fill:#da7e57;fill-opacity:1;fill-rule:nonzero;stroke:none"
           d="m 16184.3,15903.5 c 22.3,36.4 61.3,52.6 102.9,53.4 12.7,0.3 12.8,20.2 0,19.9 -48.7,-1 -94.1,-20.8 -120,-63.3 -6.8,-10.9 10.4,-20.9 17.1,-10 v 0" /></g><g
         transform="scale(1.10974)"
         id="g372"><path
           id="path374"
           style="fill:#da5c38;fill-opacity:1;fill-rule:nonzero;stroke:none"
           d="m 15018.4,16234.7 c 0,0 -120.6,-472.2 -723.4,-351.6 0,0 296.4,20 394.4,97.9 0,0 -178.4,-7.5 -256.2,30.1 0,0 336.5,-5 457.1,288.9 0,0 -30.2,-180.8 -97.9,-248.7 0,0 165.7,80.4 226,183.4" /></g><g
         transform="scale(1.01307)"
         id="g376"><path
           id="path378"
           style="fill:#502f26;fill-opacity:1;fill-rule:nonzero;stroke:none"
           d="m 15529.7,16028.3 h 770.3 c 0,0 -66,-286.1 -385.2,-275.1 -319.1,11 -385.1,275.1 -385.1,275.1" /></g><g
         transform="scale(1.00769)"
         id="g380"><path
           id="path382"
           style="fill:#ffffff;fill-opacity:1;fill-rule:nonzero;stroke:none"
           d="m 15706.5,16114 c 4.7,-25.9 17.3,-75.6 47.2,-99.6 41.5,-33.1 340.3,-41.5 423.2,-33.1 61.6,6.1 104.8,89.9 123.1,132.7 h -593.5" /></g><g
         transform="scale(1.01923)"
         id="g384"><path
           id="path386"
           style="fill:#ffffff;fill-opacity:1;fill-rule:nonzero;stroke:none"
           d="m 15512.3,15187.6 306.4,-295.3 207.8,328.1 273.5,-196.9 -109.4,-437.5 -361,207.8 -279,-224.2 -257,410.2 218.7,207.8" /></g><path
         id="path388"
         style="fill:#6d4881;fill-opacity:1;fill-rule:nonzero;stroke:none"
         d="m 6001.08,9930.6 c 0,-1145.3 -928.47,-2073.8 -2073.79,-2073.8 -1145.33,0 -2073.79,928.5 -2073.79,2073.8 0,1145.3 928.46,2073.8 2073.79,2073.8 1145.32,0 2073.79,-928.5 2073.79,-2073.8" /><path
         id="path390"
         style="fill:#a85d42;fill-opacity:1;fill-rule:nonzero;stroke:none"
         d="m 3027.76,10755.6 c -113.84,-458.7 -73.78,-1078.2 216.54,-1459.1 144.9,-190.1 366.2,-390.8 631.03,-302.6 486.94,162.2 479.69,824.3 221.64,1162.1 -126.84,166 -317.66,350.6 -500.98,447.1 -95.44,50.3 -237.01,64.4 -317.37,135.8 l -250.86,16.7" /><path
         id="path392"
         style="fill:#47bfa0;fill-opacity:1;fill-rule:nonzero;stroke:none"
         d="m 3925.27,7856.8 c 643.86,0 1219.18,293.4 1599.55,753.9 -77.93,192.4 -185.79,449.1 -278.34,634.2 -49.78,99.6 -192.71,217.9 -351.16,216.9 -329.94,-2.1 -1443.89,-138.9 -1655.74,-183.4 -211.85,-44.7 -312.16,-111.5 -379.09,-384.7 -40.31,-164.6 -142.13,-490 -183.12,-619.4 347.23,-262.1 779.4,-417.5 1247.9,-417.5" /><path
         id="path394"
         style="fill:#5cc7ac;fill-opacity:1;fill-rule:nonzero;stroke:none"
         d="m 3932.87,8927.1 v 234.2 l -257.64,182.1 c -104.39,-13.6 -198.78,-26.6 -275.17,-38 24.96,-112.8 126.53,-373.9 532.81,-378.3" /><path
         id="path396"
         style="fill:#f79872;fill-opacity:1;fill-rule:nonzero;stroke:none"
         d="m 4220.76,9412.1 -44.61,507.4 -367.59,27.7 -109.83,-593.6 -167.25,-27.9 c 0,0 65.32,-309.9 393.81,-292.6 423.67,22.3 445.98,390.2 445.98,390.2 l -150.51,-11.2" /><path
         id="path398"
         style="fill:#d17b59;fill-opacity:1;fill-rule:nonzero;stroke:none"
         d="m 4176.15,9919.5 -264.99,19.9 -106.97,-15.8 -53.28,-286.8 c 219.32,11.2 360.92,76.7 438.89,127.3 l -13.65,155.4" /><path
         id="path400"
         style="fill:#a85d42;fill-opacity:1;fill-rule:nonzero;stroke:none"
         d="M 4142.69,9847 C 3844.64,9434.8 3748.67,8988.5 3942,8509 c 121.55,-301.4 353.46,-481.1 613.35,-554.6 537.98,171.4 980.6,556.3 1228.33,1055.2 -5.26,27.9 -11.27,56 -18.75,84.8 -85.11,327 -381.64,481.4 -451.55,819.5 -58.95,285 -44.02,606.5 -58.33,918.6 -17.9,390.7 -81.59,766.7 -393.21,1038.1 -202.68,176.5 -585.36,317.8 -836.22,66.9 418.36,-210.8 602.07,-618.8 602.07,-618.8 102.57,-200.7 79.83,-566.5 -0.55,-773 -101.2,-260 -324.82,-478 -484.45,-698.7" /><path
         id="path402"
         style="fill:#f79872;fill-opacity:1;fill-rule:nonzero;stroke:none"
         d="m 3240.63,10817.3 c 0,0 -102.69,141.6 -225.37,59.4 -122.69,-82.2 -4.97,-374.9 198.03,-329 l 27.34,269.6" /><path
         id="path404"
         style="fill:#ffffff;fill-opacity:1;fill-rule:nonzero;stroke:none"
         d="m 3217.29,10560.5 c 0,-52.3 -42.44,-94.7 -94.76,-94.7 -52.34,0 -94.77,42.4 -94.77,94.7 0,52.4 42.43,94.8 94.77,94.8 52.32,0 94.76,-42.4 94.76,-94.8" /><path
         id="path406"
         style="fill:#f79872;fill-opacity:1;fill-rule:nonzero;stroke:none"
         d="m 4218.38,11800.7 c 276.14,-100.9 580.78,-376.7 470.57,-1077.8 -110.21,-701.1 -819.3,-1297.8 -1307.5,-765.4 -437.08,476.6 -214.61,1066 -64.87,1393.8 149.69,327.7 659.52,538 901.8,449.4" /><path
         id="path408"
         style="fill:#ad664b;fill-opacity:1;fill-rule:nonzero;stroke:none"
         d="m 3827.41,10810.1 c 7.35,-138.9 -84.63,-241.3 -224.27,-246.5 -4.72,-0.2 -8.76,-3.1 -10.08,-7.7 -16.89,-58.9 15.49,-103.2 50.65,-149.1 8.08,-10.6 26.25,-0.2 18.05,10.5 -14,18.3 -26.87,36.6 -38.89,56.2 -47.1,77 6.76,69.5 41.97,76.3 31.49,6.1 65.78,22.2 90.68,42.1 69.07,55.3 97.41,130.8 92.8,218.2 -0.72,13.4 -21.63,13.5 -20.91,0 v 0" /><path
         id="path410"
         style="fill:#a85d42;fill-opacity:1;fill-rule:nonzero;stroke:none"
         d="m 3766.4,11603 c 0,0 393.01,58.5 543.53,-234.1 152.97,-297.5 -91.98,-827.9 275.95,-761 196.94,35.8 127.03,-506.8 -25.09,-677.3 0,0 597.79,228.8 451.55,1053.6 C 4733.62,12556.3 3766.4,11603 3766.4,11603" /><path
         id="path412"
         style="fill:#f79872;fill-opacity:1;fill-rule:nonzero;stroke:none"
         d="m 4570.65,10582.4 c 0,0 141.62,102.7 232.68,-13.6 91.06,-116.3 -111.87,-357.9 -290.52,-251.2 l 57.84,264.8" /><path
         id="path414"
         style="fill:#ad664b;fill-opacity:1;fill-rule:nonzero;stroke:none"
         d="m 4630.31,10493.7 c 31.66,22.7 68.52,23.7 99.36,-1.3 10.38,-8.3 25.28,6.4 14.78,14.8 -37.78,30.5 -84.84,33.2 -124.69,4.6 -10.84,-7.8 -0.42,-25.9 10.55,-18.1 v 0" /><g
         id="g416"><g
           clip-path="url(#clipPath422)"
           id="g418"><path
             id="path430"
             style="fill:url(#radialGradient428);fill-opacity:1;fill-rule:nonzero;stroke:none"
             d="m 4494.92,10421.3 c -15.78,-125 -129.88,-213.5 -254.79,-197.7 -124.96,15.8 -213.49,129.8 -197.71,254.8 15.78,125 129.87,213.5 254.85,197.7 124.93,-15.8 213.42,-129.9 197.65,-254.8" /></g></g><path
         id="path432"
         style="fill:#502f26;fill-opacity:1;fill-rule:nonzero;stroke:none"
         d="m 4290.38,10665.2 c -5.62,-44.5 -46.22,-76 -90.71,-70.3 -44.47,5.6 -75.98,46.2 -70.36,90.7 5.62,44.4 46.22,75.9 90.7,70.3 44.48,-5.6 75.98,-46.2 70.37,-90.7" /><path
         id="path434"
         style="fill:#a85d42;fill-opacity:1;fill-rule:nonzero;stroke:none"
         d="m 3975.45,11594.6 c 0,0 -334.48,75.3 -560.26,-225.7 -132.55,-176.8 -133.79,-451.6 -209.05,-526.8 -75.26,-75.3 -190.88,34.6 -190.88,34.6 0,0 40.36,659.4 324.67,935.4 284.31,275.9 719.14,275.9 970,108.7 0,0 -167.24,-83.7 -334.48,-326.2" /><g
         id="g436"><g
           clip-path="url(#clipPath442)"
           id="g438"><path
             id="path450"
             style="fill:url(#radialGradient448);fill-opacity:1;fill-rule:nonzero;stroke:none"
             d="m 3582.07,10573.3 c -15.78,-125 -129.87,-213.5 -254.83,-197.7 -124.95,15.7 -213.45,129.8 -197.67,254.8 15.78,124.9 129.87,213.4 254.83,197.7 124.94,-15.8 213.45,-129.9 197.67,-254.8" /></g></g><path
         id="path452"
         style="fill:#502f26;fill-opacity:1;fill-rule:nonzero;stroke:none"
         d="m 3546.37,10759.2 c -5.62,-44.5 -46.24,-76 -90.71,-70.4 -44.48,5.6 -75.97,46.2 -70.35,90.7 5.62,44.5 46.21,76 90.68,70.4 44.49,-5.6 76,-46.2 70.38,-90.7" /><path
         id="path454"
         style="fill:#a85d42;fill-opacity:1;fill-rule:nonzero;stroke:none"
         d="m 4187.74,11019.9 c 67.41,-16.9 252.13,-59.2 289.4,-209.7 0,0 -92.21,77.7 -301.19,117.7 -27.47,5.2 -25.41,21.8 -25.41,21.8 l 6.79,43.9 c 0,0 6.88,32.2 30.41,26.3" /><path
         id="path456"
         style="fill:#a85d42;fill-opacity:1;fill-rule:nonzero;stroke:none"
         d="m 3656.26,11104.4 c -69.32,4.9 -258.05,21.9 -340.17,-109.6 0,0 111.78,45.3 322.85,18.5 27.73,-3.6 30.91,12.8 30.91,12.8 l 7.15,43.9 c 0,0 3.45,32.7 -20.74,34.4" /><path
         id="path458"
         style="fill:#f79872;fill-opacity:1;fill-rule:nonzero;stroke:none"
         d="m 2916.22,8118.6 c -3.05,226.8 105.95,390.4 105.95,390.4 l -242.42,97 c -38.97,-130.3 -79.84,-260.6 -102.38,-331.7 75.75,-57.2 155.55,-109.2 238.85,-155.7" /><path
         id="path460"
         style="fill:#ffffff;fill-opacity:1;fill-rule:nonzero;stroke:none"
         d="m 4700.17,10298.5 c 0,-52.3 -42.43,-94.7 -94.76,-94.7 -52.35,0 -94.78,42.4 -94.78,94.7 0,52.4 42.43,94.8 94.78,94.8 52.33,0 94.76,-42.4 94.76,-94.8" /><path
         id="path462"
         style="fill:#c86e4d;fill-opacity:1;fill-rule:nonzero;stroke:none"
         d="m 4669.53,11825 c 0,0 101.36,-111.4 116.66,-183.1 0,0 -143.86,170.4 -396.87,200.5 0,0 274.85,-118.2 373.12,-369.4 0,0 -99.73,83.6 -282.35,151.3 0,0 296.06,-195.2 368.64,-581.8 0,0 35.93,247.7 5.65,385.6 0,0 165.03,-247.4 178.22,-475.5 0,0 116.19,598.6 -363.07,872.4" /><path
         id="path464"
         style="fill:#ad664b;fill-opacity:1;fill-rule:nonzero;stroke:none"
         d="m 3620.98,10178.9 c 152.53,-80.7 318.34,-17.3 366.55,150.8 3.72,13 -16.44,18.5 -20.15,5.6 -44.4,-154.9 -195.4,-212.7 -335.86,-138.4 -11.9,6.3 -22.47,-11.7 -10.54,-18 v 0" /><path
         id="path466"
         style="fill:#ad664b;fill-opacity:1;fill-rule:nonzero;stroke:none"
         d="m 3826.94,10070.7 c 14.65,0.4 28.75,2.9 42.94,6.5 13.31,3.4 26.86,9.4 40.69,10.2 13.4,0.7 13.46,21.6 0,20.9 -28.57,-1.5 -54.61,-15.9 -83.63,-16.7 -13.44,-0.4 -13.49,-21.3 0,-20.9 v 0" /><path
         id="path468"
         style="fill:#fbc23c;fill-opacity:1;fill-rule:nonzero;stroke:none"
         d="m 12073.8,9942.1 c 0,-1145.3 -928.5,-2073.8 -2073.8,-2073.8 -1145.32,0 -2073.79,928.5 -2073.79,2073.8 0,1145.3 928.47,2073.8 2073.79,2073.8 1145.3,0 2073.8,-928.5 2073.8,-2073.8" /><path
         id="path470"
         style="fill:#a4bb1f;fill-opacity:1;fill-rule:nonzero;stroke:none"
         d="m 10000,7868.3 c 718.4,0 1351.4,365.3 1723.6,920.3 -207.5,124.3 -978.6,546.5 -1835.08,518 0,0 -702.42,-50.2 -1103.79,-234.2 C 8545.72,8962.9 8389.75,8835.5 8302.67,8750.5 8677.9,8217 9298.2,7868.3 10000,7868.3" /><path
         id="path472"
         style="fill:#f9f1e3;fill-opacity:1;fill-rule:nonzero;stroke:none"
         d="m 10726,9205.5 c -255.8,66.9 -541.5,110.9 -837.48,101.1 0,0 -314.3,-22.5 -642.54,-92.4 88.48,-177.9 523.7,-865.6 692.71,-852.6 144.91,11.2 599.51,548.1 787.31,843.9" /><path
         id="path474"
         style="fill:#8fa324;fill-opacity:1;fill-rule:nonzero;stroke:none"
         d="M 9806.66,8431.4 9659.35,8256 c 68.49,-53.7 143.57,-103.7 225.76,-148 l 3.86,265.4 c -24.82,11.8 -52.57,31.7 -82.31,58" /><path
         id="path476"
         style="fill:#8fa324;fill-opacity:1;fill-rule:nonzero;stroke:none"
         d="M 9478.09,8835.4 9236.08,8729 c 36.05,-56.1 76.67,-114 122.63,-171.9 l 220.75,135.8 c -34.58,46.4 -68.73,94.6 -101.37,142.5" /><path
         id="path478"
         style="fill:#8fa324;fill-opacity:1;fill-rule:nonzero;stroke:none"
         d="m 9245.98,9214.2 c -78.57,-16.8 -157.93,-36.2 -233.99,-58.8 12.49,-25.9 29.25,-63.8 50.99,-110.1 l 232.95,77.7 c -21.48,37 -38.59,68.3 -49.95,91.2" /><path
         id="path480"
         style="fill:#8fa324;fill-opacity:1;fill-rule:nonzero;stroke:none"
         d="m 9342.2,9045.4 -236.82,-87.2 c 22.59,-44.7 48.94,-93.9 79.36,-145.7 l 243.12,97.9 c -31.1,47.4 -60.05,93.1 -85.66,135" /><path
         id="path482"
         style="fill:#8fa324;fill-opacity:1;fill-rule:nonzero;stroke:none"
         d="m 10323.9,8685.4 157.6,-124 c 48.1,48.7 96.8,100.3 144.8,154.4 l -177.5,115.4 c -41,-49.9 -83.1,-99.1 -124.9,-145.8" /><path
         id="path484"
         style="fill:#8fa324;fill-opacity:1;fill-rule:nonzero;stroke:none"
         d="m 10505,8900.5 184.2,-111.8 c 33.6,40 66.6,81.2 98.5,123.4 l -186.7,113.4 c -30.2,-40.7 -62.5,-82.7 -96,-125" /><path
         id="path486"
         style="fill:#8fa324;fill-opacity:1;fill-rule:nonzero;stroke:none"
         d="m 10726,9205.4 c -21.1,-33.2 -45.7,-69.5 -72.7,-107.7 l 191,-108 c 34.8,49.4 67.9,100.1 98.7,151.8 -69.4,22.8 -142,44.3 -217,63.9" /><path
         id="path488"
         style="fill:#8fa324;fill-opacity:1;fill-rule:nonzero;stroke:none"
         d="m 10139.2,8494.9 121.1,-142.2 c 48.7,43 100.5,90.6 153.6,141.9 l -149.7,125.5 c -43.3,-46.2 -85.5,-88.6 -125,-125.2" /><path
         id="path490"
         style="fill:#8fa324;fill-opacity:1;fill-rule:nonzero;stroke:none"
         d="m 9977.03,8373.3 4.16,-248.5 c 46.41,34.7 119.81,91.6 208.01,166.3 l -116.4,145.8 c -36.3,-29.5 -68.7,-51.2 -95.77,-63.6" /><path
         id="path492"
         style="fill:#8fa324;fill-opacity:1;fill-rule:nonzero;stroke:none"
         d="m 9633.61,8622.1 -212.36,-140 c 49.39,-56.3 103.88,-111.8 164.12,-164.9 l 157.79,176.4 c -35.41,37.7 -72.37,81.4 -109.55,128.5" /><path
         id="path494"
         style="fill:#b55950;fill-opacity:1;fill-rule:nonzero;stroke:none"
         d="m 10262.1,9284.2 -44,557.5 -491.2,-49.7 -72,-524.5 c 0,0 126.51,-294.3 294.93,-301 96.27,-3.9 273.17,195.2 312.27,317.7" /><path
         id="path496"
         style="fill:#85423c;fill-opacity:1;fill-rule:nonzero;stroke:none"
         d="m 10229,9703.7 -10.9,138 -491.2,-49.7 -21.55,-157 c 112.78,8.4 332.65,28.6 523.65,68.7" /><path
         id="path498"
         style="fill:#b55950;fill-opacity:1;fill-rule:nonzero;stroke:none"
         d="m 9040.22,11301.6 c 4.35,-306.1 59.55,-904.7 125.63,-1218.4 66.08,-313.6 580.14,-398.3 1040.15,-301.4 460.1,96.9 603.1,276.3 597.5,821.1 -5.5,544.9 -324.8,1438.5 -844.33,1416.5 -519.49,-22.1 -923.96,-365.3 -918.95,-717.8" /><path
         id="path500"
         style="fill:#85423c;fill-opacity:1;fill-rule:nonzero;stroke:none"
         d="m 9921.96,9881.1 c 55.63,-7 108.44,0 161.64,17.1 12.8,4.1 7.3,24.3 -5.5,20.1 -51.5,-16.5 -102.37,-23 -156.14,-16.3 -13.36,1.7 -13.19,-19.2 0,-20.9 v 0" /><path
         id="path502"
         style="fill:#b55950;fill-opacity:1;fill-rule:nonzero;stroke:none"
         d="m 10761.8,10837.5 c 0,0 122.5,134.5 239.8,35.3 117.3,-99.1 -38.3,-388.1 -242.7,-317.1 l 2.9,281.8" /><path
         id="path504"
         style="fill:#b55950;fill-opacity:1;fill-rule:nonzero;stroke:none"
         d="m 9112.7,10760.7 c 0,0 -151.87,121.7 -259.42,12.1 -107.57,-109.6 74.17,-382.9 271.17,-293.2 l -11.75,281.1" /><path
         id="path506"
         style="fill:#ffffff;fill-opacity:1;fill-rule:nonzero;stroke:none"
         d="m 9931.37,8968.9 -27.52,81.2 -240.45,384.7 -204.12,-178.4 203.46,-426.5 196.51,165.2 c 0,0 19.86,-22 72.12,-26.2" /><path
         id="path508"
         style="fill:#ffffff;fill-opacity:1;fill-rule:nonzero;stroke:none"
         d="m 10048.4,9007.6 244.3,-161 206.2,412.6 -232,192.3 -253,-373.5 c -5.5,-14 -43.85,-110.1 -43.85,-110.1 0,0 38.65,6.3 78.35,39.7" /><g
         id="g510"><g
           clip-path="url(#clipPath516)"
           id="g512"><path
             id="path524"
             style="fill:url(#radialGradient522);fill-opacity:1;fill-rule:nonzero;stroke:none"
             d="m 10706.7,10549.4 c 0.7,-131 -104.9,-237.7 -235.9,-238.4 -131,-0.7 -237.7,104.9 -238.4,235.9 -0.7,130.9 104.9,237.7 235.9,238.4 130.9,0.7 237.7,-104.9 238.4,-235.9" /></g></g><g
         id="g526"><g
           clip-path="url(#clipPath532)"
           id="g528"><path
             id="path540"
             style="fill:url(#radialGradient538);fill-opacity:1;fill-rule:nonzero;stroke:none"
             d="m 9632.68,10488.2 c 0.7,-130.9 -104.91,-237.7 -235.89,-238.4 -130.98,-0.7 -237.73,104.9 -238.44,235.9 -0.7,131 104.91,237.7 235.88,238.4 130.98,0.7 237.73,-104.9 238.45,-235.9" /></g></g><path
         id="path542"
         style="fill:#85423c;fill-opacity:1;fill-rule:nonzero;stroke:none"
         d="m 9930.51,10988.3 c 6.16,-106.3 26.54,-206.2 58.43,-307.7 12.36,-39.4 22.46,-79.2 35.56,-118.3 23.2,-69.7 34.9,-126.5 -59.34,-143.1 -13.27,-2.3 -7.62,-22.4 5.55,-20.1 92.19,16.2 105.69,68.9 79.49,152 -45.4,144.3 -89.99,285 -98.78,437.2 -0.78,13.4 -21.68,13.5 -20.91,0 v 0" /><path
         id="path544"
         style="fill:#85423c;fill-opacity:1;fill-rule:nonzero;stroke:none"
         d="m 9128.42,10655.7 c -38.84,34 -84.94,55.4 -135.27,66.2 -13.13,2.9 -18.72,-17.3 -5.55,-20.1 46.72,-10.1 89.9,-29.3 126.04,-60.9 10.1,-8.9 24.93,5.9 14.78,14.8 v 0" /><path
         id="path546"
         style="fill:#85423c;fill-opacity:1;fill-rule:nonzero;stroke:none"
         d="m 10829,10718.5 c 29.3,21 61,35.8 97.3,38.2 13.4,0.9 13.5,21.8 0,20.9 -40,-2.7 -75.4,-17.8 -107.9,-41 -10.9,-7.8 -0.4,-25.9 10.6,-18.1 v 0" /><path
         id="path548"
         style="fill:#2b1c17;fill-opacity:1;fill-rule:nonzero;stroke:none"
         d="m 9610.26,10740.7 c 2.17,-46.5 -33.81,-86 -80.4,-88.2 -46.58,-2.2 -86.07,33.8 -88.24,80.4 -2.17,46.5 33.81,86.1 80.39,88.3 46.57,2.1 86.09,-33.9 88.25,-80.5" /><path
         id="path550"
         style="fill:#2b1c17;fill-opacity:1;fill-rule:nonzero;stroke:none"
         d="m 10441.4,10779.4 c 2.2,-46.5 -33.8,-86 -80.3,-88.2 -46.6,-2.2 -86.1,33.8 -88.3,80.4 -2.2,46.6 33.8,86.1 80.4,88.2 46.6,2.2 86.1,-33.8 88.2,-80.4" /><path
         id="path552"
         style="fill:#2b1c17;fill-opacity:1;fill-rule:nonzero;stroke:none"
         d="m 10203.3,11150.4 c 72.2,-2.9 269.2,-7.1 338.9,-152.5 0,0 -110.2,59.8 -331.5,56.4 -29.1,-0.5 -30.5,16.8 -30.5,16.8 l -2.3,46.2 c 0,0 0.2,34.2 25.4,33.1" /><path
         id="path554"
         style="fill:#2b1c17;fill-opacity:1;fill-rule:nonzero;stroke:none"
         d="m 9644.25,11124.4 c -71.63,-9.6 -267.41,-32.1 -323.31,-183.4 0,0 104.27,69.8 324.88,86.9 28.97,2.3 28.78,19.6 28.78,19.6 l -1.97,46.2 c 0,0 -3.39,34.1 -28.38,30.7" /><path
         id="path556"
         style="fill:#2b1c17;fill-opacity:1;fill-rule:nonzero;stroke:none"
         d="m 9592.68,10240.8 787.62,36.6 c 0,0 -56.5,-281.2 -392.45,-296.8 -335.88,-15.6 -395.17,260.2 -395.17,260.2" /><path
         id="path558"
         style="fill:#ffffff;fill-opacity:1;fill-rule:nonzero;stroke:none"
         d="m 9710.82,10246.3 c 8.84,-21.5 22.56,-53.1 34,-72.7 2.97,-5.1 6.78,-11 30.91,-14.9 58.78,-9.6 231.57,-29.9 434.17,19.6 21,5.1 32.6,12.8 36.7,23.8 6.8,18.2 16.6,46.9 21,70.1 l -556.78,-25.9" /><path
         id="path560"
         style="fill:#2b1c17;fill-opacity:1;fill-rule:nonzero;stroke:none"
         d="m 9383.17,11514.3 c 187.62,33.6 574.3,99.7 953.73,105.3 34.9,0.5 121.8,-38.3 147.1,-98.5 43.9,-104.5 109.8,-244.8 150,-397.5 63.5,-240.8 80.8,-427.2 80.8,-427.2 0,0 41.9,160.1 153,204.5 0,0 -79.3,647.2 -237.9,874.9 -158.6,227.7 -398.8,334.6 -918.38,275.5 -519.6,-59 -764.85,-401.2 -799.78,-585.7 -34.93,-184.4 21.45,-647.6 21.45,-647.6 0,0 204.96,-7.8 273.85,-178.7 0,0 -23.76,416.7 31.36,716.2 10.32,56.2 41.94,140.4 144.77,158.8" /><path
         id="path562"
         style="fill:#40281f;fill-opacity:1;fill-rule:nonzero;stroke:none"
         d="m 10710.4,11298.8 c 0,0 0,735.8 -760.97,585.3 0,0 602.07,50.2 760.97,-585.3" /><g
         transform="scale(1.11328)"
         id="g564"><path
           id="path566"
           style="fill:#d39932;fill-opacity:1;fill-rule:nonzero;stroke:none"
           d="m 16300,8930.44 c 0,-1028.76 -834,-1862.78 -1862.8,-1862.78 -1028.7,0 -1862.8,834.02 -1862.8,1862.78 0,1028.8 834.1,1862.76 1862.8,1862.76 1028.8,0 1862.8,-833.96 1862.8,-1862.76"
           sodipodi:nodetypes="csssc" /></g><path
         id="path568"
         style="fill:#2b1c17;fill-opacity:1;fill-rule:nonzero;stroke:none"
         d="m 15537.7,8854.3 c 0,0 -130.4,1127.5 -177.3,1566.5 l -94.3,929.7 c 0,0 -373.1,242.2 -573,-165.8 -98.8,-201.8 143.7,-1986.1 287.6,-2674.2 0,0 353.1,14.6 557,343.8" /><g
         transform="scale(1.05852)"
         id="g570"><path
           id="path572"
           style="fill:#2b1c17;fill-opacity:1;fill-rule:nonzero;stroke:none"
           d="m 16205.8,10271.9 c 0,0 94.2,-834.87 -1043.8,-1018.43 0,0 -645.7,-5.67 -878.7,578.38 -232.9,584.05 167.9,1282.15 785.5,1390.65 617.7,108.4 1137,-950.6 1137,-950.6" /></g><g
         transform="scale(1.0765)"
         id="g574"><path
           id="path576"
           style="fill:#f9f1e3;fill-opacity:1;fill-rule:nonzero;stroke:none"
           d="m 14946.8,7308.99 c 529.9,4.64 1007.9,222.85 1353.2,572.13 -66,106.74 -281.5,451.28 -373.8,555.04 -109.9,123.36 -420,335.07 -1073.2,268.74 0,0 -728.4,-346.59 -867.5,-425.55 -137.6,-78.03 -350.5,-217.65 -292.5,-520.76 339,-284.16 776.9,-453.78 1253.8,-449.6" /></g><g
         transform="scale(1.0765)"
         id="g578"><path
           id="path580"
           style="fill:#f0356b;fill-opacity:1;fill-rule:nonzero;stroke:none"
           d="m 15926.2,8436.16 c -75.1,84.16 -243.5,209.57 -550.5,259.54 l 5.4,-76.35 c 0,0 324.7,-580.4 408.3,-1108.5 190.3,95.02 362.6,220.53 510.6,370.27 -66,106.74 -281.5,451.28 -373.8,555.04" /></g><g
         transform="scale(1.01514)"
         id="g582"><path
           id="path584"
           style="fill:#f9af90;fill-opacity:1;fill-rule:nonzero;stroke:none"
           d="m 16300,9094.46 -143.3,682.76 -443,-132.69 -18.8,-439.74 568.6,-341.04 c 0,0 20.4,175.93 36.5,230.71" /></g><g
         transform="scale(1.01051)"
         id="g586"><path
           id="path588"
           style="fill:#dd8762;fill-opacity:1;fill-rule:nonzero;stroke:none"
           d="m 15777.5,9498.97 c 111.5,-36.31 320.3,-82.04 522.5,-7.82 l -7.9,256.41 -508,-13.16 -6.6,-235.43" /></g><g
         transform="scale(1.05886)"
         id="g590"><path
           id="path592"
           style="fill:#f9af90;fill-opacity:1;fill-rule:nonzero;stroke:none"
           d="m 15969.2,10134.4 c 0,0 120.7,120.1 225.8,22 105,-98.1 -53.7,-360.91 -241.5,-285.21 l 15.7,263.21" /></g><g
         transform="scale(1.04996)"
         id="g594"><path
           id="path596"
           style="fill:#dd8762;fill-opacity:1;fill-rule:nonzero;stroke:none"
           d="m 16196.5,10122 c 9.9,40.7 44.5,62.8 85.7,54 12.5,-2.6 17.8,16.6 5.3,19.2 -51.5,11 -97.6,-16.3 -110.2,-68 -3,-12.4 16.2,-17.7 19.2,-5.2 v 0" /></g><g
         transform="scale(1.01566)"
         id="g598"><path
           id="path600"
           style="fill:#ffffff;fill-opacity:1;fill-rule:nonzero;stroke:none"
           d="m 16023.5,8966.86 276.5,-222.62 -45,114.9 -183,223.4 -381.4,293.11 -271.9,-282.28 376.6,-383.69 228.2,257.18" /></g><g
         transform="scale(1.02923)"
         id="g602"><path
           id="path604"
           style="fill:#ffffff;fill-opacity:1;fill-rule:nonzero;stroke:none"
           d="m 16040.7,8742.34 -32,563.04 155,-222.11 136.3,-252.04 -179.3,52.67 -80,-141.56" /></g><g
         transform="scale(1.05136)"
         id="g606"><path
           id="path608"
           style="fill:#f9af90;fill-opacity:1;fill-rule:nonzero;stroke:none"
           d="m 15319.8,11289.7 c -284.2,-47 -627.7,-257 -649.3,-952.2 -21.6,-695.23 601,-1377.73 1173.4,-961.32 456.1,331.83 347,973.52 262.5,1316.42 -84.5,342.9 -537.1,638.2 -786.6,597.1" /></g><g
         transform="scale(1.01241)"
         id="g610"><path
           id="path612"
           style="fill:#dd8762;fill-opacity:1;fill-rule:nonzero;stroke:none"
           d="m 16132,9762.54 c 59.2,-15.21 113.6,-6.32 158.4,36.94 9.6,9.28 -5,23.9 -14.6,14.62 -39.4,-38.03 -86.3,-44.95 -138.3,-31.71 -12.9,3.36 -18.4,-16.59 -5.5,-19.85 v 0" /></g><g
         id="g614"><g
           clip-path="url(#clipPath620)"
           id="g616"><g
             transform="scale(1.04264)"
             id="g622"><path
               id="path630"
               style="fill:url(#radialGradient628);fill-opacity:1;fill-rule:nonzero;stroke:none"
               d="m 16298,10076.9 c 12.1,-123.89 -78.5,-234.17 -202.3,-246.31 -123.9,-12.17 -234.1,78.39 -246.3,202.21 -12.2,123.9 78.5,234.2 202.3,246.3 123.8,12.2 234.1,-78.4 246.3,-202.2" /></g></g></g><g
         transform="scale(1.01514)"
         id="g632"><path
           id="path634"
           style="fill:#dd8762;fill-opacity:1;fill-rule:nonzero;stroke:none"
           d="m 16130,10704.9 c 10.6,-80 22.3,-158.9 49.1,-235.5 10.4,-29.8 25.2,-59.4 43.6,-84.9 9.1,-12.6 19.7,-23.6 28.7,-36.3 39,-54.3 -11,-90.4 -40.6,-116.3 -10.1,-8.7 4.5,-23.2 14.4,-14.5 45.4,39.6 74.8,83.3 44.1,141.2 -26.1,49.3 -59.6,85.7 -79.1,141.5 -22.9,65.4 -30.6,136.6 -39.6,204.8 -1.8,13 -22.4,13.2 -20.6,0 v 0" /></g><g
         transform="scale(1.02172)"
         id="g636"><path
           id="path638"
           style="fill:#2b1c17;fill-opacity:1;fill-rule:nonzero;stroke:none"
           d="m 16300,10053 -584.1,-61.37 c 0,0 44.9,-266.64 272.1,-256.26 303.5,13.9 312,317.63 312,317.63" /></g><g
         id="g640"><g
           clip-path="url(#clipPath646)"
           id="g642"><path
             id="path654"
             style="fill:url(#radialGradient652);fill-opacity:1;fill-rule:nonzero;stroke:none"
             d="m 16172.8,10431.8 c 12.6,-129.1 -81.8,-244.1 -210.9,-256.8 -129.2,-12.7 -244.1,81.8 -256.8,210.9 -12.7,129.1 81.7,244.1 210.9,256.8 129.1,12.7 244.1,-81.8 256.8,-210.9" /></g></g><g
         transform="scale(1.0171)"
         id="g656"><path
           id="path658"
           style="fill:#ffffff;fill-opacity:1;fill-rule:nonzero;stroke:none"
           d="m 15873,10046 c 13.8,-26.8 35.7,-66.84 50.3,-81.27 22.9,-22.39 310.5,14.01 344.3,25.6 24.9,8.57 31,69.27 32.4,100.47 l -427,-44.8" /></g><path
         id="path660"
         style="fill:#2b1c17;fill-opacity:1;fill-rule:nonzero;stroke:none"
         d="m 16019.1,11064.2 c -58.4,-5.1 -235.7,-36.9 -288.6,-232 0,0 121.1,108.4 310.9,118.8 8.2,0.4 26.7,3.2 23.8,25.8 -2.6,19.8 -5.3,47.3 -11.3,66.8 -6.7,21.8 -23,21.7 -34.8,20.6" /><path
         id="path662"
         style="fill:#2b1c17;fill-opacity:1;fill-rule:nonzero;stroke:none"
         d="m 16052.9,10660.5 c 6,-45.8 -28.7,-38.9 -74.5,-44.9 -45.8,-6.1 -85.3,-22.7 -91.3,23.1 -6,45.9 26.2,87.8 72.1,93.9 45.7,5.9 87.8,-26.3 93.7,-72.1" /><g
         transform="scale(1.02836)"
         id="g664"><path
           id="path666"
           style="fill:#2b1c17;fill-opacity:1;fill-rule:nonzero;stroke:none"
           d="m 16294.2,10443.3 c 5.8,-44.5 -27.9,-37.8 -72.5,-43.7 -44.5,-5.8 -82.9,-22 -88.8,22.6 -5.8,44.5 25.5,85.3 70.1,91.2 44.5,5.8 85.3,-25.5 91.2,-70.1" /></g><g
         transform="scale(1.05486)"
         id="g668"><path
           id="path670"
           style="fill:#2b1c17;fill-opacity:1;fill-rule:nonzero;stroke:none"
           d="m 15121.2,11261.4 c 0,0 192.6,-535.1 288.3,-742.7 29.2,-63.1 77.7,-50.6 129.4,-60 199.5,-35.9 455.4,-33.7 712.5,-167.6 0,0 48.6,670.2 -345.4,895.5 -394.1,225.3 -784.8,74.8 -784.8,74.8" /></g><path
         id="path672"
         style="fill:#2b1c17;fill-opacity:1;fill-rule:nonzero;stroke:none"
         d="m 16099.5,11613.4 c 0,0 -335.4,-74.7 -443.8,-486.4 -87.3,-331.4 -37.3,-658 -37.3,-658 l -311.7,169.6 c 0,0 -204.6,1066.6 644,1240.6 l 148.8,-265.8" /><path
         id="path674"
         style="fill:#f9af90;fill-opacity:1;fill-rule:nonzero;stroke:none"
         d="m 15575.1,10488.8 c 0,0 -171.9,164.1 -280.9,58 -109,-106.2 103.1,-383.4 300.3,-299.1 l -19.4,241.1" /><path
         id="path676"
         style="fill:#dd8762;fill-opacity:1;fill-rule:nonzero;stroke:none"
         d="m 15499.7,10446.6 c -51.6,47.5 -113.4,52 -173.7,17.5 -11.6,-6.7 -1.1,-24.8 10.6,-18.1 51.9,29.8 103.6,27 148.3,-14.2 9.9,-9.1 24.7,5.6 14.8,14.8 v 0" /><g
         transform="scale(1.04229)"
         id="g678"><path
           id="path680"
           style="fill:#472a22;fill-opacity:1;fill-rule:nonzero;stroke:none"
           d="m 15809.7,11342 c 0,0 447.5,-64.1 490.3,-546.3 0,0 -94.5,233.1 -227.8,326.5 0,0 72.1,-141.7 61.7,-229.2 0,0 -90.2,295.7 -509.8,396.8 0,0 251.5,7.2 331.2,-68.8 l -145.6,121" /></g><path
         id="path682"
         style="fill:#472a22;fill-opacity:1;fill-rule:nonzero;stroke:none"
         d="m 14963.3,9282.5 c 0,0 -154.1,1378.4 -182,1696 -27.9,317.5 247.8,353.4 247.8,353.4 0,0 -183.1,-102 -172.4,-369.5 10.7,-267.5 106.6,-1679.9 106.6,-1679.9" /><path
         id="path684"
         style="fill:#f0356b;fill-opacity:1;fill-rule:nonzero;stroke:none"
         d="m 15568,9176.2 c -214.5,-101.5 -446.3,-212.7 -521,-254.3 -148.9,-82.7 -379.4,-230.9 -319.7,-557.8 362.2,-309.1 832,-495.8 1345.4,-495.8 11.7,0 23.3,0.3 35,0.5 -57.7,786.6 -460.3,1227.6 -539.7,1307.4" /><path
         id="path686"
         style="fill:#6998c0;fill-opacity:1;fill-rule:nonzero;stroke:none"
         d="m 6001.08,3786.4 c 0,-1145.3 -928.47,-2073.8 -2073.79,-2073.8 -1145.33,0 -2073.79,928.5 -2073.79,2073.8 0,1145.3 928.46,2073.8 2073.79,2073.8 1145.32,0 2073.79,-928.5 2073.79,-2073.8" /><path
         id="path688"
         style="fill:#4b3458;fill-opacity:1;fill-rule:nonzero;stroke:none"
         d="m 4217.17,3457.5 c 0,0 156.1,5.6 206.27,-22.3 l -139.37,-89.2 -66.9,111.5" /><path
         id="path690"
         style="fill:#d39932;fill-opacity:1;fill-rule:nonzero;stroke:none"
         d="m 4836.97,5254.9 c 0,0 77.33,-369.5 60.13,-584.3 l -85.9,-120.2 -97.87,739.5 123.64,-35" /><path
         id="path692"
         style="fill:#fab99e;fill-opacity:1;fill-rule:nonzero;stroke:none"
         d="m 3177.56,4597 c 0,0 -123.68,123.7 -231.91,23.2 -108.23,-100.5 54.12,-371 247.36,-293.7 l -15.45,270.5" /><path
         id="path694"
         style="fill:#da7e57;fill-opacity:1;fill-rule:nonzero;stroke:none"
         d="m 3182.09,4524.1 c -48.5,46.6 -107.69,68.7 -174.63,69.9 -13.49,0.3 -13.47,-20.6 0,-20.9 61.5,-1.1 115.27,-21 159.85,-63.8 9.72,-9.3 24.52,5.4 14.78,14.8 v 0" /><path
         id="path696"
         style="fill:#fab99e;fill-opacity:1;fill-rule:nonzero;stroke:none"
         d="m 4786.96,4627.2 c 0,0 144.28,127.1 255.47,23.8 111.2,-103.2 -55.61,-381.2 -254.16,-301.8 l -1.31,278" /><path
         id="path698"
         style="fill:#e7e5eb;fill-opacity:1;fill-rule:nonzero;stroke:none"
         d="m 3927.29,1712.6 c 663.14,0 1253.56,311.3 1633.17,795.7 -147,170.7 -498.09,569.8 -635.28,648.2 -175.6,100.3 -803.51,101.8 -803.51,101.8 l -328.17,-23.8 c 0,0 -875.22,-301 -1142.81,-401.3 -101.95,-38.3 -225,-198 -328.48,-359.9 380.31,-464.3 958.06,-760.7 1605.08,-760.7" /><path
         id="path700"
         style="fill:#ffffff;fill-opacity:1;fill-rule:nonzero;stroke:none"
         d="m 4518.21,3240.1 c -192.02,25.4 -396.54,18.2 -396.54,18.2 l -328.17,-23.8 c 0,0 -98.99,-28.5 -262.02,-89.2 89.32,-91.4 276.56,-273.4 596.5,-211.8 264.66,50.9 359.39,201.8 390.23,306.6" /><path
         id="path702"
         style="fill:#4b3458;fill-opacity:1;fill-rule:nonzero;stroke:none"
         d="m 3659.7,3393.4 c 0,0 100.35,47.4 172.82,30.6 l -33.45,-133.8 c 0,0 -128.22,5.6 -139.37,103.2" /><path
         id="path704"
         style="fill:#fab99e;fill-opacity:1;fill-rule:nonzero;stroke:none"
         d="M 3725.04,3189.6 3829,3803 l 381.25,-49.8 122,-563.6 c 0,0 -243.29,-267.3 -607.21,0" /><path
         id="path706"
         style="fill:#da7e57;fill-opacity:1;fill-rule:nonzero;stroke:none"
         d="m 3761.16,3402.8 c 108.79,-11.5 344.36,-26.9 519.05,27.3 l -32.93,152 -448.56,42.3 -37.56,-221.6" /><path
         id="path708"
         style="fill:#fab99e;fill-opacity:1;fill-rule:nonzero;stroke:none"
         d="M 4713.33,5289.9 C 4771.47,4993 4840,4403.2 4840,4086.4 c 0,-316.7 -232.26,-506.7 -696.76,-506.7 -464.49,0 -886.77,147.8 -992.34,675.7 -105.57,527.8 21.1,1456.8 527.85,1541.3 506.73,84.4 967.65,-165 1034.58,-506.8" /><g
         id="g710"><g
           clip-path="url(#clipPath716)"
           id="g712"><path
             id="path724"
             style="fill:url(#radialGradient722);fill-opacity:1;fill-rule:nonzero;stroke:none"
             d="m 4841.4,4486 c 0,-129.4 -104.92,-234.3 -234.33,-234.3 -129.41,0 -234.32,104.9 -234.32,234.3 0,129.4 104.91,234.3 234.32,234.3 129.41,0 234.33,-104.9 234.33,-234.3" /></g></g><g
         id="g726"><g
           clip-path="url(#clipPath732)"
           id="g728"><path
             id="path740"
             style="fill:url(#radialGradient738);fill-opacity:1;fill-rule:nonzero;stroke:none"
             d="m 3657.52,4460.2 c 0,-129.4 -104.9,-234.3 -234.32,-234.3 -129.41,0 -234.31,104.9 -234.31,234.3 0,129.4 104.9,234.3 234.31,234.3 129.42,0 234.32,-104.9 234.32,-234.3" /></g></g><path
         id="path742"
         style="fill:#da7e57;fill-opacity:1;fill-rule:nonzero;stroke:none"
         d="m 4076.15,4805.3 c 1.29,-85.7 8.76,-170.8 52.98,-245.9 11.06,-18.8 30.75,-32.8 46.97,-46.6 64.78,-55.3 43.71,-111 -10.97,-169.8 -9.16,-9.9 5.58,-24.7 14.79,-14.8 45.55,49 87.57,106 41.88,168.5 -20.73,28.3 -53.35,45.2 -74.63,73.3 -48.02,63.3 -48.97,159.9 -50.11,235.3 -0.21,13.4 -21.11,13.4 -20.91,0 v 0" /><path
         id="path744"
         style="fill:#d39932;fill-opacity:1;fill-rule:nonzero;stroke:none"
         d="m 3084.22,4722.2 h 137.46 c 0,0 20.06,-309.3 77.34,-378.1 25.43,-30.5 69.07,-96.5 134.6,-80.2 82.13,20.5 124.11,84.8 148.93,114.6 28.65,34.4 95.19,46.5 131.75,45.8 303.58,-5.7 515.5,-17.2 830.54,-22.9 100.06,-1.8 121.27,-119.5 166.11,-114.5 38.67,4.3 69.31,63.5 74.47,100.2 22.9,163.2 8.59,317.9 8.59,317.9 0,0 80.33,183 105.97,34.3 16.85,-97.7 -17.19,-518.4 -17.19,-595.6 0,-194.8 -80.19,-584.3 -504.07,-630.1 -423.85,-45.8 -959.41,14.3 -1131.25,375.2 -222.51,467.2 -163.25,833.4 -163.25,833.4" /><path
         id="path746"
         style="fill:#fab99e;fill-opacity:1;fill-rule:nonzero;stroke:none"
         d="m 3691.39,4275.4 c 0,0 747.49,-14.3 807.63,-22.9 60.14,-8.6 -5.72,-372.3 -366.59,-406.7 -360.86,-34.4 -501.19,360.9 -441.04,429.6" /><path
         id="path748"
         style="fill:#da7e57;fill-opacity:1;fill-rule:nonzero;stroke:none"
         d="m 3868.15,4159.8 c 99.56,-132.5 241.29,-148 386.94,-81 12.23,5.6 1.61,23.6 -10.55,18.1 -133.76,-61.6 -265.93,-49.5 -358.33,73.5 -7.99,10.6 -26.17,0.2 -18.06,-10.6 v 0" /><path
         id="path750"
         style="fill:#da7e57;fill-opacity:1;fill-rule:nonzero;stroke:none"
         d="m 3957.82,3974.1 c 26.16,-8.7 52.32,-16.9 80.1,-17.5 13.5,-0.4 13.46,20.6 0,20.9 -25.87,0.6 -50.21,8.7 -74.55,16.8 -12.82,4.3 -18.28,-16 -5.55,-20.2 v 0" /><path
         id="path752"
         style="fill:#502f26;fill-opacity:1;fill-rule:nonzero;stroke:none"
         d="m 3731.7,4693.5 c 0,-46 -37.33,-83.4 -83.38,-83.4 -46.07,0 -83.41,37.4 -83.41,83.4 0,46.1 37.34,83.4 83.41,83.4 46.05,0 83.38,-37.3 83.38,-83.4" /><path
         id="path754"
         style="fill:#502f26;fill-opacity:1;fill-rule:nonzero;stroke:none"
         d="m 4553.8,4693.5 c 0,-46 -37.34,-83.4 -83.4,-83.4 -46.07,0 -83.41,37.4 -83.41,83.4 0,46.1 37.34,83.4 83.41,83.4 46.06,0 83.4,-37.3 83.4,-83.4" /><path
         id="path756"
         style="fill:#d39932;fill-opacity:1;fill-rule:nonzero;stroke:none"
         d="m 4335.82,5070.6 c 71.14,-6.2 265.38,-19.4 327.5,-166.1 0,0 -106.11,64 -324.61,70.8 -28.71,0.9 -29.3,18 -29.3,18 l -0.18,45.7 c 0,0 1.77,33.8 26.59,31.6" /><path
         id="path758"
         style="fill:#d39932;fill-opacity:1;fill-rule:nonzero;stroke:none"
         d="m 3782.88,5070.6 c -71.13,-6.2 -265.38,-19.4 -327.49,-166.1 0,0 106.1,64 324.61,70.8 28.71,0.9 29.3,18 29.3,18 l 0.18,45.7 c 0,0 -1.77,33.8 -26.6,31.6" /><path
         id="path760"
         style="fill:#d39932;fill-opacity:1;fill-rule:nonzero;stroke:none"
         d="m 3702.83,5598.6 c 0,0 670.17,-472.6 1237.24,-386.7 0,0 -120.28,455.4 -481.15,696 -360.85,240.5 -867.78,-60.2 -867.78,-60.2 0,0 -42.95,94.5 -111.69,111.7 -68.74,17.2 -34.37,-137.5 -34.37,-137.5 0,0 -223.4,34.4 -240.58,-68.7 -17.18,-103.1 120.29,-68.7 120.29,-68.7 0,0 -378.04,-232 -463.96,-489.8 -55.42,-166.2 231.98,-713.1 231.98,-713.1 l 171.84,-60.1 c 0,0 -137.46,601.4 85.92,859.2 0,0 369.45,-111.7 524.11,-43 154.65,68.7 -171.85,360.9 -171.85,360.9" /><path
         id="path762"
         style="fill:#6d4881;fill-opacity:1;fill-rule:nonzero;stroke:none"
         d="m 3877.12,2808 c -8.37,100.4 -22.3,231.4 -22.3,231.4 0,0 105.92,195.1 55.75,234.1 -21.42,16.6 -172.82,69.7 -250.87,119.9 l -25.08,-175.6 c 0,0 -716.34,-284.3 -983.93,-384.6 -101.95,-38.3 -225,-198 -328.48,-359.9 364.98,-445.6 911.86,-736.4 1527.25,-759.1 27.44,166.9 33.91,1018.9 27.66,1093.8" /><path
         id="path764"
         style="fill:#6d4881;fill-opacity:1;fill-rule:nonzero;stroke:none"
         d="m 4430.07,3246.9 c 185.37,-12.2 402.74,-37.7 495.11,-90.4 137.19,-78.4 488.28,-477.5 635.28,-648.2 -229.35,-292.7 -535.74,-522 -888.55,-657.8 l -404.56,1149.9 44.59,100.3 c 0,0 -42.8,156.2 -72.47,223 l 183.97,111.5 6.63,-188.3" /><path
         id="path766"
         style="fill:#a566b9;fill-opacity:1;fill-rule:nonzero;stroke:none"
         d="m 3647.76,3309.8 -8.26,-57.8 261.54,-111.4 c 8.12,21.4 15.25,43.7 19.34,64 l -272.62,105.2" /><path
         id="path768"
         style="fill:#a566b9;fill-opacity:1;fill-rule:nonzero;stroke:none"
         d="m 4275.6,3223.3 152.24,87 -1.62,45.7 -167.67,-81.6 c 5.74,-16.3 11.51,-33.7 17.05,-51.1" /><path
         id="path770"
         style="fill:#e1b665;fill-opacity:1;fill-rule:nonzero;stroke:none"
         d="m 3949.59,5885.3 c 0,0 459.91,158.9 735.86,-376.3 0,0 -158.88,117.1 -250.86,175.6 0,0 66.89,-83.6 83.62,-167.3 0,0 -167.24,267.6 -593.71,250.9 0,0 133.8,58.5 225.78,58.5 0,0 -75.26,25.1 -200.69,58.6" /><path
         id="path772"
         style="fill:#e1b665;fill-opacity:1;fill-rule:nonzero;stroke:none"
         d="m 3341.94,4003.8 c 0,0 55.75,-301 468.28,-323.3 0,0 -301.04,78 -468.28,323.3" /><path
         id="path774"
         style="fill:#f9f1e3;fill-opacity:1;fill-rule:nonzero;stroke:none"
         d="m 12073.8,3788.7 c 0,-1145.4 -928.5,-2073.8 -2073.8,-2073.8 -1145.32,0 -2073.79,928.4 -2073.79,2073.8 0,1145.3 928.47,2073.8 2073.79,2073.8 1145.3,0 2073.8,-928.5 2073.8,-2073.8" /><path
         id="path776"
         style="fill:#7b4637;fill-opacity:1;fill-rule:nonzero;stroke:none"
         d="m 9789.1,5911.9 c 0,0 416.4,227.2 814,-94.6 397.5,-321.8 530,-946.5 473.2,-1457.6 -56.8,-511.1 -439.5,-904.5 -439.5,-904.5 0,0 -148.6,77 -602.9,58.1 -454.32,-18.9 -646.45,-190.6 -646.45,-190.6 0,0 -644.99,151.2 -663.91,1173.4 -18.94,1022.2 1065.56,1415.8 1065.56,1415.8" /><path
         id="path778"
         style="fill:#f35b8d;fill-opacity:1;fill-rule:nonzero;stroke:none"
         d="m 10000,1714.9 c 567,0 1080.8,227.6 1455.2,596.4 -70.8,142.8 -292.1,593 -370.9,791.7 -96.2,242.5 -425.7,262 -618,211.8 -255.9,-66.7 -644.68,-52.9 -644.68,-52.9 0,0 -183.96,-92 -493.36,-16.8 -247.53,60.2 -393.02,-8.3 -459.92,-209 -47.89,-143.7 -164.38,-578.9 -226.67,-814.5 363.87,-315.6 838.78,-506.7 1358.33,-506.7" /><path
         id="path780"
         style="fill:#f79872;fill-opacity:1;fill-rule:nonzero;stroke:none"
         d="m 10315.8,3303.7 -44.6,507.3 -367.63,27.7 -109.82,-593.6 -167.25,-27.8 c 0,0 65.31,-310 393.8,-292.7 423.7,22.3 446,390.2 446,390.2 l -150.5,-11.1" /><path
         id="path782"
         style="fill:#d17b59;fill-opacity:1;fill-rule:nonzero;stroke:none"
         d="m 9840.34,3496.9 c 73.26,-0.9 290.66,15.8 442.96,175.9 l -12.1,138.2 -28.3,2.1 -362.06,-97.3 -40.5,-218.9" /><path
         id="path784"
         style="fill:#f79872;fill-opacity:1;fill-rule:nonzero;stroke:none"
         d="m 9822.49,5843.2 c 308.51,0.6 708.41,-160.6 854.01,-890.9 145.5,-730.4 -336.6,-1575 -1010.28,-1227.7 -603.16,311 -597.64,972.1 -568.96,1349.1 28.64,377.1 454.53,768.9 725.23,769.5" /><path
         id="path786"
         style="fill:#ad664b;fill-opacity:1;fill-rule:nonzero;stroke:none"
         d="m 10036.3,3728.4 c 60.8,-18.1 125.2,3.6 162.3,55 7.9,11 -10.3,21.4 -18.1,10.6 -31.6,-43.9 -87.5,-60.6 -138.7,-45.4 -12.9,3.8 -18.4,-16.4 -5.5,-20.2 v 0" /><g
         id="g788"><g
           clip-path="url(#clipPath794)"
           id="g790"><path
             id="path802"
             style="fill:url(#radialGradient800);fill-opacity:1;fill-rule:nonzero;stroke:none"
             d="m 10638.9,4395.5 c 20.4,-130.6 -69,-253 -199.6,-273.3 -130.6,-20.3 -253,69 -273.3,199.6 -20.3,130.6 69,253 199.6,273.3 130.6,20.3 253,-69 273.3,-199.6" /></g></g><g
         id="g804"><g
           clip-path="url(#clipPath810)"
           id="g806"><path
             id="path818"
             style="fill:url(#radialGradient816);fill-opacity:1;fill-rule:nonzero;stroke:none"
             d="m 9742.8,4283.9 c 20.34,-130.6 -69.03,-253 -199.63,-273.3 -130.56,-20.4 -252.92,69 -273.27,199.6 -20.35,130.6 69.03,253 199.61,273.3 130.58,20.3 252.94,-69 273.29,-199.6" /></g></g><path
         id="path820"
         style="fill:#f79872;fill-opacity:1;fill-rule:nonzero;stroke:none"
         d="m 10610.9,4771 c 0,0 102.2,152.4 234.1,70.9 131.8,-81.5 19.5,-393 -195.1,-352.6 l -39,281.7" /><path
         id="path822"
         style="fill:#502f26;fill-opacity:1;fill-rule:nonzero;stroke:none"
         d="m 9445.42,4531.8 c 7.19,-46.5 50.69,-78.4 97.19,-71.3 46.5,7.2 78.37,50.7 71.19,97.2 -7.18,46.5 -50.67,78.4 -97.18,71.2 -46.49,-7.1 -78.36,-50.6 -71.2,-97.1" /><path
         id="path824"
         style="fill:#502f26;fill-opacity:1;fill-rule:nonzero;stroke:none"
         d="m 10223.2,4651.8 c 7.1,-46.5 50.6,-78.4 97.1,-71.2 46.5,7.1 78.4,50.6 71.2,97.1 -7.2,46.5 -50.7,78.4 -97.2,71.2 -46.4,-7.2 -78.3,-50.7 -71.1,-97.1" /><path
         id="path826"
         style="fill:#ad664b;fill-opacity:1;fill-rule:nonzero;stroke:none"
         d="m 9941.54,4613.1 c -7.5,-62.3 5.94,-117.3 31.44,-174.1 22.9,-50.9 94.22,-132.8 32.22,-179.6 -10.59,-8 -0.2,-26.2 10.6,-18 37.3,28.1 44.6,63.3 26.1,106.5 -38.4,89.3 -91.82,162.4 -79.45,265.2 1.61,13.4 -19.32,13.2 -20.91,0 v 0" /><path
         id="path828"
         style="fill:#502f26;fill-opacity:1;fill-rule:nonzero;stroke:none"
         d="m 9704.16,4057.2 587.14,114.2 c 0,0 68.7,-344.7 -268.9,-363.5 -239.78,-13.4 -318.24,249.3 -318.24,249.3" /><path
         id="path830"
         style="fill:#ffffff;fill-opacity:1;fill-rule:nonzero;stroke:none"
         d="m 10230.7,4159.7 -455.43,-88.6 c 11.41,-25.5 32.04,-60.6 61.2,-67.9 19.03,-4.7 312.93,41 365.63,67.3 33.4,16.7 33.2,59.8 28.6,89.2" /><path
         id="path832"
         style="fill:#7b4637;fill-opacity:1;fill-rule:nonzero;stroke:none"
         d="m 10057.3,5759.6 c 61.4,-429.8 -421.44,-725.7 -688.47,-1006.4 -235.58,-247.5 -66.17,-666.6 56.68,-947.4 0,0 -708.41,289.8 -690.29,924.3 23.4,819 555.14,1177.5 976.93,1231.4 251.54,32.1 327.55,-79 345.15,-201.9" /><path
         id="path834"
         style="fill:#7b4637;fill-opacity:1;fill-rule:nonzero;stroke:none"
         d="m 9870.09,5806.5 c 0,0 397.81,-1123.2 1088.11,-1017.9 0,0 -468,1357.2 -1088.11,1017.9" /><path
         id="path836"
         style="fill:#502f26;fill-opacity:1;fill-rule:nonzero;stroke:none"
         d="m 10616.6,4722.3 c 9.5,-65.4 -1.7,-133.6 -44.8,-172.4 -69.2,-62.2 -372.6,-129.6 -455.8,-72.6 -60.2,41.3 -53.2,93.4 -67.5,191.4 -14.3,98.1 -16,131.3 80.9,153.7 96.9,22.5 384.1,56 384.1,56 95.2,5.5 93.6,-90.7 103.1,-156.1 z m -864.21,-298 c -63.42,-78.4 -373.47,-100.4 -457.54,-60.5 -52.3,24.8 -82.6,87.1 -92.13,152.5 -9.53,65.4 -38.55,157.1 54.23,178.9 0,0 284.87,49.9 384.13,56 99.27,6.2 107.1,-26.1 121.39,-124.1 14.29,-98.1 35.89,-146.1 -10.08,-202.8 z m 971.01,452.4 c -7,1.2 -35.5,3.2 -59.8,4.6 -9.4,38.6 -62.5,69.7 -134.2,67.2 -74.8,-2.5 -384.2,-55.9 -472.9,-77.2 -88.67,-21.3 -88.51,-79.7 -88.51,-79.7 l -163.42,-23.8 c 0,0 -16.52,56 -107.61,51 -91.12,-4.9 -402.83,-41.9 -475.21,-60.9 -69.46,-18.1 -111.46,-63 -109.49,-102.7 -22.88,-8.4 -49.6,-18.3 -56,-21.5 -11.66,-5.9 10.73,-73.6 10.73,-73.6 l 59.5,-8.5 c 13.59,-81.9 37.03,-187.6 74.27,-222.4 43.52,-40.6 181.26,-69.5 312.02,-50.5 130.76,19.1 272.01,52.2 311.52,124.7 39.5,72.5 1.53,275.7 1.53,275.7 l 147.1,21.4 c 0,0 21.59,-205.5 80.17,-263.7 58.6,-58.3 203.4,-49.7 334.1,-30.6 130.8,19 254.6,86 284.6,137.5 25.8,43.9 18.1,151.9 7.7,234.3 l 54.7,25.1 c 0,0 2.1,71.3 -10.8,73.6" /><path
         id="path838"
         style="fill:#9a5743;fill-opacity:1;fill-rule:nonzero;stroke:none"
         d="m 9694.59,5829.8 c 0,0 -377.3,-64.3 -587.89,-333.4 -210.59,-269.1 -231.09,-485.5 -231.09,-485.5 0,0 175.5,315.9 269.1,374.4 0,0 -99.43,-134.6 -55.56,-301.3 0,0 70.2,368.5 570.36,544 0,0 -234.03,-20.5 -362.72,-102.3 0,0 187.2,198.8 397.8,304.1" /><path
         id="path840"
         style="fill:#f79872;fill-opacity:1;fill-rule:nonzero;stroke:none"
         d="m 9095.1,1922.3 c -33.64,168.5 12.76,396 51.97,500.6 50.17,133.8 72.48,262 72.48,262 -42.83,42.8 -268.37,317.1 -333.47,396.4 -6.37,-14.3 -12.4,-29.2 -17.74,-45.2 -47.89,-143.7 -164.38,-578.9 -226.67,-814.5 136.65,-118.5 288.97,-219.4 453.43,-299.3" /><path
         id="path842"
         style="fill:#f79872;fill-opacity:1;fill-rule:nonzero;stroke:none"
         d="m 11113.8,2039.1 c 123.3,78.7 237.7,170 341.4,272.2 -70.8,142.8 -292.1,593 -370.9,791.7 l -242.5,-368 c 0,0 189.5,-234.1 272,-695.9" /><g
         transform="scale(1.11328)"
         id="g844"><path
           id="path846"
           style="fill:#f685bd;fill-opacity:1;fill-rule:nonzero;stroke:none"
           d="m 16300,3414.41 c 0,-1028.85 -834,-1862.78 -1862.8,-1862.78 -1028.7,0 -1862.8,833.93 -1862.8,1862.78 0,1028.76 834.1,1862.69 1862.8,1862.69 1028.8,0 1862.8,-833.93 1862.8,-1862.69" /></g><g
         transform="scale(1.09871)"
         id="g848"><path
           id="path850"
           style="fill:#fbc23c;fill-opacity:1;fill-rule:nonzero;stroke:none"
           d="m 14628.7,1522.97 c 725.6,0 1355.4,409.47 1671.3,1009.82 -36.6,36.4 -228,208.42 -655.3,289.79 -479.5,91.29 -1528.4,14.47 -1940.7,-91.29 -253.4,-65.08 -591.2,-312.09 -652.3,-357.96 337.4,-512.24 917.7,-850.36 1577,-850.36" /></g><g
         transform="scale(1.01829)"
         id="g852"><path
           id="path854"
           style="fill:#fcd063;fill-opacity:1;fill-rule:nonzero;stroke:none"
           d="m 16300,3089.11 c -301.2,2.06 -638.3,-17.19 -932.4,-48.52 21.3,-164.1 65.6,-453.6 133.1,-639.21 85,-233.72 646.6,485.72 799.3,687.73" /></g><g
         transform="scale(1.00683)"
         id="g856"><path
           id="path858"
           style="fill:#b55950;fill-opacity:1;fill-rule:nonzero;stroke:none"
           d="m 15940.2,2704.73 359.8,414.47 -37.2,539.92 -620.2,-44.3 16.6,-528.79 65.5,-340.67 c 0,0 23,-222.68 215.5,-40.63" /></g><path
         id="path860"
         style="fill:#b55950;fill-opacity:1;fill-rule:nonzero;stroke:none"
         d="m 15142.8,4568.7 c 0,0 -111.2,135 -228.6,45.3 -117.3,-89.6 18.3,-374.5 218.1,-316.1 l 10.5,270.8" /><g
         transform="scale(1.05035)"
         id="g862"><path
           id="path864"
           style="fill:#b55950;fill-opacity:1;fill-rule:nonzero;stroke:none"
           d="m 15968.9,4200.22 c 0,0 144.4,104.35 237.7,-0.76 93.4,-105.11 -85.1,-346.65 -261.2,-255.82 l 23.5,256.58" /></g><g
         transform="scale(1.04216)"
         id="g866"><path
           id="path868"
           style="fill:#85423c;fill-opacity:1;fill-rule:nonzero;stroke:none"
           d="m 16140.2,4084.21 c 34.3,42.32 94.8,55.27 146.8,52.78 13,-0.68 13,19.47 0,20.05 -56.8,2.78 -123.6,-12.47 -160.9,-58.63 -8,-9.98 6.1,-24.27 14.1,-14.2 v 0" /></g><g
         transform="scale(1.03891)"
         id="g870"><path
           id="path872"
           style="fill:#b55950;fill-opacity:1;fill-rule:nonzero;stroke:none"
           d="m 16272.5,4783.75 c 27.5,-282.03 -73.7,-672.73 -172.2,-1116.07 -64.3,-289.54 -517.2,-413.8 -950.3,-372.12 -433.2,41.77 -558.5,179.7 -609.5,681.38 -51.1,501.68 200.5,1323.79 812.7,1372.3 479.8,37.92 887.5,-240.83 919.3,-565.49" /></g><g
         id="g874"><g
           clip-path="url(#clipPath880)"
           id="g876"><path
             id="path888"
             style="fill:url(#radialGradient886);fill-opacity:1;fill-rule:nonzero;stroke:none"
             d="m 15151.3,4313.9 c -12.1,-125.4 79.7,-236.8 205.1,-248.9 125.4,-12.1 236.8,79.8 248.9,205.1 12.1,125.4 -79.8,236.8 -205.1,248.9 -125.4,12.1 -236.9,-79.8 -248.9,-205.1" /></g></g><g
         id="g890"><g
           clip-path="url(#clipPath896)"
           id="g892"><g
             transform="scale(1.02577)"
             id="g898"><path
               id="path906"
               style="fill:url(#radialGradient904);fill-opacity:1;fill-rule:nonzero;stroke:none"
               d="m 15856.3,4068.86 c -11.8,-122.25 77.7,-230.85 200,-242.65 122.2,-11.8 230.8,77.8 242.6,199.95 11.8,122.25 -77.7,230.85 -199.9,242.65 -122.3,11.79 -230.9,-77.8 -242.7,-199.95" /></g></g></g><path
         id="path908"
         style="fill:#85423c;fill-opacity:1;fill-rule:nonzero;stroke:none"
         d="m 15958.9,4500.8 c -7.4,-45.8 -6.8,-91.8 -8.8,-138.1 -3.4,-79.6 -44.9,-124 -92.2,-182.3 -48.5,-59.6 -4.9,-110.5 42.2,-154.3 9.8,-9.1 24.6,5.6 14.7,14.8 -54.1,50.3 -70.2,94 -18.1,153 21.3,24.2 39.9,45.1 54.8,74 34.5,67.2 15.9,155.3 27.6,227.3 2.1,13.2 -18,18.9 -20.2,5.6 v 0" /><path
         id="path910"
         style="fill:#85423c;fill-opacity:1;fill-rule:nonzero;stroke:none"
         d="m 15083.5,4490.1 c -22.9,47.2 -69.1,71.5 -119.7,77.4 -13.4,1.6 -13.2,-19.3 0,-20.9 43.5,-5.1 82.1,-26.8 101.6,-67.1 5.9,-12.1 23.9,-1.5 18.1,10.6 v 0" /><g
         transform="scale(1.01603)"
         id="g912"><path
           id="path914"
           style="fill:#2b1c17;fill-opacity:1;fill-rule:nonzero;stroke:none"
           d="m 16022.8,4682.73 c 55.9,-4.53 225.3,-33.76 277.2,-219.77 0,0 -116.3,102.75 -297.7,111.41 -7.9,0.4 -25.6,2.95 -23,24.51 2.4,18.99 4.9,45.17 10.4,63.87 6.3,20.87 21.8,20.97 33.1,19.98" /></g><path
         id="path916"
         style="fill:#2b1c17;fill-opacity:1;fill-rule:nonzero;stroke:none"
         d="m 15765.4,4802.1 c -56.6,5.6 -231.4,7.3 -317.1,-169.2 0,0 135,81.5 317.9,57.1 7.9,-1 26.1,-1.7 27.4,20.3 1.1,19.4 3.5,46.1 1.2,65.8 -2.4,22 -17.9,24.8 -29.4,26" /><g
         transform="scale(1.0076)"
         id="g918"
         style="fill:#000000;fill-opacity:1"><path
           id="path920"
           style="fill:#000000;fill-opacity:1;fill-rule:nonzero;stroke:none"
           d="m 16134.7,4404.35 c -5.5,-44.07 27.8,-37.32 72,-42.78 44.2,-5.46 82.4,-21.23 87.8,22.93 5.5,44.16 -25.8,84.36 -69.9,89.91 -44.2,5.47 -84.5,-25.9 -89.9,-70.06" /></g><path
         id="path922"
         style="fill:#2b1c17;fill-opacity:1;fill-rule:nonzero;stroke:none"
         d="m 15574,4510 c -5.5,-44.5 28.2,-37.7 72.7,-43.2 44.5,-5.6 82.9,-21.4 88.4,23.1 5.6,44.5 -26,85 -70.5,90.6 -44.5,5.5 -85,-26.1 -90.6,-70.5" /><path
         id="path924"
         style="fill:#85423c;fill-opacity:1;fill-rule:nonzero;stroke:none"
         d="m 15757.7,3858 c 163.8,-61.1 356.2,-18.5 381.2,177.3 1.7,13.3 -19.2,13.2 -20.9,0 -23.4,-183.4 -207,-212.2 -354.7,-157.2 -12.7,4.7 -18.1,-15.5 -5.6,-20.1 v 0" /><g
         transform="scale(1.03633)"
         id="g926"><path
           id="path928"
           style="fill:#85423c;fill-opacity:1;fill-rule:nonzero;stroke:none"
           d="m 15380.1,3646.42 c 0,0 5.4,-177.55 -123.7,-177.55 -129.1,0 -322.8,53.84 -462.6,172.15 -139.8,118.3 -164.5,387.03 -173.7,521.65 -9.1,134.6 23.1,317.46 23.1,317.46 0,0 -86.1,-139.82 -96.8,-408.75 -10.8,-269.02 78.1,-513.06 247.4,-656.25 209.8,-177.56 677.8,-107.6 903.8,-86.17 225.9,21.51 441.1,172.14 484.1,301.25 43,129.11 118.3,731.62 118.3,731.62 l -75.3,10.71 c 0,0 -69.9,-489.42 -188.2,-666.97 -68.2,-102.09 -306.7,-220.58 -425,-188.26 -118.4,32.23 -150.6,139.82 -150.6,139.82 l -80.8,-10.71" /></g><path
         id="path930"
         style="fill:#85423c;fill-opacity:1;fill-rule:nonzero;stroke:none"
         d="m 15888.8,3751.7 c 59.6,1 118,16.7 166.9,51.6 10.9,7.7 0.5,25.9 -10.6,18 -46,-32.8 -100.1,-47.7 -156.3,-48.7 -13.5,-0.3 -13.5,-21.2 0,-20.9 v 0" /><g
         transform="scale(1.05102)"
         id="g932"><path
           id="path934"
           style="fill:#2b1c17;fill-opacity:1;fill-rule:nonzero;stroke:none"
           d="m 16211.6,4882.31 c 0.7,633.58 -465.2,723.87 -728.1,792.28 -246.9,64.23 -705.5,-79.54 -705.5,-79.54 l 26.5,-196.29 -122,119.41 c -9.6,-82.2 12.7,-173.73 39.8,-249.09 -74,-50.71 -204.2,-69.08 -278.4,-172.59 -147.4,-205.61 -147.2,-684.2 -147.2,-684.2 l 110.1,-206.94 c 0,0 -20.4,253.09 92.8,493.33 25.5,54.14 165.5,94.96 206.8,143.2 95.5,111.41 -19.4,192 95.5,254.61 116.1,63.27 388.7,127.11 716,47.76 262.6,-63.65 163.6,-211.7 230.7,-302.37 65.3,-87.92 199,-88.87 222.9,-190.96 61,-260.42 -15.9,-525.11 -15.9,-525.11 l 190.8,111.41 c 0,0 143.3,175.07 151.2,429.59 2.4,76.49 -34,149.95 -86,215.5" /></g><g
         transform="scale(1.03958)"
         id="g936"><path
           id="path938"
           style="fill:#472a22;fill-opacity:1;fill-rule:nonzero;stroke:none"
           d="m 15632.3,5603.02 c 0,0 249.4,-75.13 324.5,-139.48 0,0 -195.8,63.01 -260.1,38.86 0,0 305.7,-24.05 410.2,-365.92 0,0 -29.5,160.84 -72.4,257.42 0,0 152.9,-120.73 244.1,-391.51 0,0 21.4,600.63 -646.3,600.63" /></g></g></g></svg>
