<?xml version="1.0" encoding="UTF-8" standalone="no"?>
<svg
   viewBox="0 0 553.01818 587.11333"
   height="587.11334"
   width="553.01819"
   xml:space="preserve"
   id="svg2"
   version="1.1"
   xmlns="http://www.w3.org/2000/svg"
   xmlns:svg="http://www.w3.org/2000/svg"
   xmlns:rdf="http://www.w3.org/1999/02/22-rdf-syntax-ns#"
   xmlns:cc="http://creativecommons.org/ns#"
   xmlns:dc="http://purl.org/dc/elements/1.1/"><metadata
     id="metadata8"><rdf:RDF><cc:Work
         rdf:about=""><dc:format>image/svg+xml</dc:format><dc:type
           rdf:resource="http://purl.org/dc/dcmitype/StillImage" /></cc:Work></rdf:RDF></metadata><defs
     id="defs6"><clipPath
       id="clipPath322"
       clipPathUnits="userSpaceOnUse"><path
         id="path320"
         d="m 16863.8,16356.9 c 0,-125.9 -102.1,-228 -228,-228 -126,0 -228.1,102.1 -228.1,228 0,125.9 102.1,228 228.1,228 125.9,0 228,-102.1 228,-228 z" /></clipPath><radialGradient
       id="radialGradient330"
       spreadMethod="pad"
       gradientTransform="matrix(228.052,0,0,-228.052,16635.8,16356.9)"
       gradientUnits="userSpaceOnUse"
       r="1"
       cy="0"
       cx="0"
       fy="0"
       fx="0"><stop
         id="stop326"
         offset="0"
         style="stop-opacity:1;stop-color:#f57379" /><stop
         id="stop328"
         offset="1"
         style="stop-opacity:1;stop-color:#fab99e" /></radialGradient><clipPath
       id="clipPath340"
       clipPathUnits="userSpaceOnUse"><path
         id="path338"
         d="m 15750.6,16356.9 c 0,-125.9 -102,-228 -228,-228 -125.9,0 -228,102.1 -228,228 0,125.9 102.1,228 228,228 126,0 228,-102.1 228,-228 z" /></clipPath><radialGradient
       id="radialGradient348"
       spreadMethod="pad"
       gradientTransform="matrix(228.047,0,0,-228.047,15522.6,16356.9)"
       gradientUnits="userSpaceOnUse"
       r="1"
       cy="0"
       cx="0"
       fy="0"
       fx="0"><stop
         id="stop344"
         offset="0"
         style="stop-opacity:1;stop-color:#f57379" /><stop
         id="stop346"
         offset="1"
         style="stop-opacity:1;stop-color:#fab99e" /></radialGradient></defs><g
     transform="matrix(1.3333333,0,0,-1.3333333,-1967.3507,2417.2766)"
     id="g10"><g
       transform="scale(0.1)"
       id="g12"><g
         transform="matrix(1.11328,0,0,1.11328,756.30256,-120.04803)"
         id="g270"><path
           id="path272"
           style="fill:#a4bb1f;fill-opacity:1;fill-rule:nonzero;stroke:none"
           d="m 16300,14300.2 c 0,-1028.8 -834,-1862.8 -1862.8,-1862.8 -1028.7,0 -1862.8,834 -1862.8,1862.8 0,1028.8 834.1,1862.7 1862.8,1862.7 1028.8,0 1862.8,-833.9 1862.8,-1862.7" /></g><g
         transform="matrix(1.09871,0,0,1.09871,756.30256,-120.04803)"
         id="g274"><path
           id="path276"
           style="fill:#f9f1e3;fill-opacity:1;fill-rule:nonzero;stroke:none"
           d="m 14628.7,12602.3 c 725.6,0 1355.4,409.5 1671.3,1009.9 -36.6,36.4 -228,208.4 -655.3,289.8 -479.5,91.3 -1528.4,14.5 -1940.7,-91.3 -253.4,-65.1 -591.2,-312.1 -652.3,-358 337.4,-512.2 917.7,-850.4 1577,-850.4" /></g><g
         transform="matrix(1.01866,0,0,1.01866,756.30256,-120.04803)"
         id="g278"><path
           id="path280"
           style="fill:#f0356b;fill-opacity:1;fill-rule:nonzero;stroke:none"
           d="m 15778.3,13592.7 c 180.4,0 355.2,23.8 521.7,67.8 l -352,835.2 120.4,295.5 c 0,0 -295.6,98.5 -443.3,-65.6 l 180.6,-218.9 c 0,0 -106,-615.9 -114.3,-911.9 28.8,-1.2 57.8,-2.1 86.9,-2.1" /></g><g
         transform="matrix(1.00683,0,0,1.00683,756.30256,-120.04803)"
         id="g282"><path
           id="path284"
           style="fill:#fab99e;fill-opacity:1;fill-rule:nonzero;stroke:none"
           d="m 15743.6,15693.9 -66.4,-573.1 364.1,-83.8 258.7,83.8 -174.4,622.9 -382,-49.8" /></g><g
         transform="matrix(1.00004,0,0,1.00004,756.30256,-120.04803)"
         id="g286"><path
           id="path288"
           style="fill:#da7e57;fill-opacity:1;fill-rule:nonzero;stroke:none"
           d="m 16300,15618.8 -64.9,231.8 -384.6,-50.2 -11.3,-96.8 c 99.9,-31.6 300.6,-87.5 460.8,-84.8" /></g><g
         transform="matrix(1.06001,0,0,1.06001,756.30256,-120.04803)"
         id="g290"><path
           id="path292"
           style="fill:#fab99e;fill-opacity:1;fill-rule:nonzero;stroke:none"
           d="m 15979.2,15855.8 c 0,0 116.7,116.7 218.7,21.9 102.1,-94.8 -51,-350 -233.4,-277.1 l 14.7,255.2" /></g><g
         transform="matrix(1.03872,0,0,1.03872,756.30256,-120.04803)"
         id="g294"><path
           id="path296"
           style="fill:#fab99e;fill-opacity:1;fill-rule:nonzero;stroke:none"
           d="m 14730.2,16180.9 c 0,0 -135.3,119.1 -239.4,22.3 -104.2,-96.7 52.1,-357.2 238.1,-282.8 l 1.3,260.5" /></g><g
         transform="matrix(1.0275,0,0,1.0275,756.30256,-120.04803)"
         id="g298"><path
           id="path300"
           style="fill:#da7e57;fill-opacity:1;fill-rule:nonzero;stroke:none"
           d="m 14846.8,16223.1 c -33.8,51.4 -99.9,73.5 -158.8,76.3 -13.1,0.6 -13.1,-19.8 0,-20.4 51.3,-2.4 111.6,-21.2 141.1,-66.1 7.2,-11 24.9,-0.8 17.7,10.2 v 0" /></g><g
         transform="matrix(1.1013,0,0,1.1013,756.30256,-120.04803)"
         id="g302"><path
           id="path304"
           style="fill:#fab99e;fill-opacity:1;fill-rule:nonzero;stroke:none"
           d="m 13821.7,15777.6 c -51.3,-262.4 8.2,-638.5 60.7,-1063.6 34.3,-277.8 448.2,-435.4 858.7,-435.4 410.6,0 540.7,118.2 634,584.7 93.4,466.4 -191.2,1287.4 -639,1362.1 -447.9,74.6 -855.2,-145.9 -914.4,-447.8" /></g><path
         id="path306"
         style="fill:#da7e57;fill-opacity:1;fill-rule:nonzero;stroke:none"
         d="m 16762.403,15785.552 c 47.6,-22 98.7,-23.7 150.3,-23.8 13.4,0 13.4,20.9 0,20.9 -47.5,0.1 -95.8,0.6 -139.7,20.9 -12.1,5.6 -22.8,-12.4 -10.6,-18 v 0" /><g
         transform="matrix(1.12273,0,0,1.12273,756.30256,-120.04803)"
         id="g308"><path
           id="path310"
           style="fill:#cf4121;fill-opacity:1;fill-rule:nonzero;stroke:none"
           d="m 13849,15669.4 c 172.7,-90.3 492.8,-139.4 749.8,-44.7 377.4,139 397.2,377.4 337.6,526.3 -59.6,149 -476.7,114.2 -789.5,39.8 -312.8,-74.5 -372.4,-268.2 -372.4,-268.2 0,0 -292.9,24.9 -382.3,-243.3 -89.4,-268.1 64.5,-635.5 64.5,-635.5 l 124.2,-129.1 c 0,0 12.1,500.5 69.5,635.5 84.4,198.6 147.3,146 198.6,119.2" /></g><g
         transform="matrix(1.09366,0,0,1.09366,756.30256,-120.04803)"
         id="g312"><path
           id="path314"
           style="fill:#cf4121;fill-opacity:1;fill-rule:nonzero;stroke:none"
           d="m 15256.9,16284.7 c 0,0 244.7,15.3 351.8,-260 107,-275.2 -122.4,-734 -122.4,-734 0,0 -94.2,509.8 -252.3,734 -20.1,28.7 -44.6,56.1 -87.9,53.6 -33.2,-2 -220.5,-58.7 -266.4,-68.8 l 377.2,275.2" /></g><g
         id="g316"
         transform="translate(756.30256,-120.04803)"><g
           clip-path="url(#clipPath322)"
           id="g318"><g
             transform="scale(1.03459)"
             id="g324"><path
               id="path332"
               style="fill:url(#radialGradient330);fill-opacity:1;fill-rule:nonzero;stroke:none"
               d="m 16300,15810 c 0,-121.7 -98.7,-220.4 -220.4,-220.4 -121.8,0 -220.5,98.7 -220.5,220.4 0,121.8 98.7,220.5 220.5,220.5 121.7,0 220.4,-98.7 220.4,-220.5" /></g></g></g><g
         id="g334"
         transform="translate(756.30256,-120.04803)"><g
           clip-path="url(#clipPath340)"
           id="g336"><g
             transform="scale(1.01748)"
             id="g342"><path
               id="path350"
               style="fill:url(#radialGradient348);fill-opacity:1;fill-rule:nonzero;stroke:none"
               d="m 15480,16075.9 c 0,-123.8 -100.3,-224.2 -224.1,-224.2 -123.7,0 -224.1,100.4 -224.1,224.2 0,123.7 100.4,224.1 224.1,224.1 123.8,0 224.1,-100.4 224.1,-224.1" /></g></g></g><g
         transform="matrix(1.0325,0,0,1.0325,756.30256,-120.04803)"
         id="g352"><path
           id="path354"
           style="fill:#da7e57;fill-opacity:1;fill-rule:nonzero;stroke:none"
           d="m 15591.8,16287 c 4.5,-73.4 -12.2,-145.5 3.9,-218.2 21.7,-97.6 143.4,-130.2 17.3,-226.6 -10.2,-7.9 -0.1,-25.5 10.3,-17.5 39.6,30.3 95.8,74.4 64.8,130.8 -31.4,56.8 -73,94.3 -80.2,163.4 -5.9,55.6 7.5,112.1 4.1,168.1 -0.7,12.9 -21,13 -20.2,0 v 0" /></g><g
         transform="matrix(1.03446,0,0,1.03446,756.30256,-120.04803)"
         id="g356"><path
           id="path358"
           style="fill:#502f26;fill-opacity:1;fill-rule:nonzero;stroke:none"
           d="m 15268.5,16221.5 c 0,-43.3 -35.1,-78.4 -78.5,-78.4 -43.3,0 -78.4,35.1 -78.4,78.4 0,43.4 35.1,78.5 78.4,78.5 43.4,0 78.5,-35.1 78.5,-78.5" /></g><g
         transform="matrix(1.03446,0,0,1.03446,756.30256,-120.04803)"
         id="g360"><path
           id="path362"
           style="fill:#502f26;fill-opacity:1;fill-rule:nonzero;stroke:none"
           d="m 16042,16221.5 c 0,-43.3 -35.1,-78.4 -78.5,-78.4 -43.4,0 -78.4,35.1 -78.4,78.4 0,43.4 35,78.5 78.4,78.5 43.4,0 78.5,-35.1 78.5,-78.5" /></g><g
         transform="matrix(1.04585,0,0,1.04585,756.30256,-120.04803)"
         id="g364"><path
           id="path366"
           style="fill:#502f26;fill-opacity:1;fill-rule:nonzero;stroke:none"
           d="m 16139,16043.4 c 0,-69.3 -22.1,-138.5 -72.6,-172.2 -81.2,-54.1 -406.2,-78.2 -484,-6.5 -56.2,52 -41.1,105 -41.1,209 0,103.9 3.3,138.6 107.2,147.2 103.9,8.7 407.1,0 407.1,0 99.7,-8.6 83.4,-108.2 83.4,-177.5 z m -941.9,-178.7 c -77.8,-71.7 -402.8,-47.6 -484,6.5 -50.6,33.7 -72.6,102.9 -72.6,172.2 0,69.3 -16.3,168.9 83.4,177.5 0,0 303.2,8.7 407.1,0 103.9,-8.6 107.2,-43.3 107.2,-147.2 0,-104 15.1,-157 -41.1,-209 z m 1076.1,322.7 c -7.1,2.4 -36.3,8.6 -61.3,13.8 -4.1,41.5 -54.4,81.8 -129.2,90.1 -77.9,8.7 -407.2,0 -502.4,-8.7 -95.3,-8.6 -103.9,-69.2 -103.9,-69.2 h -173.3 c 0,0 -8.6,60.6 -103.9,69.2 -95.3,8.7 -424.5,17.4 -502.4,8.7 -74.8,-8.3 -125.1,-48.6 -129.2,-90.1 -24.9,-5.2 -54.2,-11.4 -61.3,-13.8 -13.1,-4.4 0,-78 0,-78 l 60.5,-17.8 c 1.6,-87.1 10,-200.3 43.4,-242 39,-48.8 177.5,-99.6 316.2,-99.6 138.5,0 290.1,12.9 342.1,82.2 51.9,69.3 43.3,285.9 43.3,285.9 h 155.9 c 0,0 -8.7,-216.6 43.3,-285.9 51.9,-69.3 203.6,-82.2 342.1,-82.2 138.7,0 277.2,50.8 316.2,99.6 33.4,41.7 41.7,154.9 43.4,242 l 60.5,17.8 c 0,0 13.1,73.6 0,78" /></g><g
         transform="matrix(1.05084,0,0,1.05084,756.30256,-120.04803)"
         id="g368"><path
           id="path370"
           style="fill:#da7e57;fill-opacity:1;fill-rule:nonzero;stroke:none"
           d="m 16184.3,15903.5 c 22.3,36.4 61.3,52.6 102.9,53.4 12.7,0.3 12.8,20.2 0,19.9 -48.7,-1 -94.1,-20.8 -120,-63.3 -6.8,-10.9 10.4,-20.9 17.1,-10 v 0" /></g><g
         transform="matrix(1.10974,0,0,1.10974,756.30256,-120.04803)"
         id="g372"><path
           id="path374"
           style="fill:#da5c38;fill-opacity:1;fill-rule:nonzero;stroke:none"
           d="m 15018.4,16234.7 c 0,0 -120.6,-472.2 -723.4,-351.6 0,0 296.4,20 394.4,97.9 0,0 -178.4,-7.5 -256.2,30.1 0,0 336.5,-5 457.1,288.9 0,0 -30.2,-180.8 -97.9,-248.7 0,0 165.7,80.4 226,183.4" /></g><g
         transform="matrix(1.01307,0,0,1.01307,756.30256,-120.04803)"
         id="g376"><path
           id="path378"
           style="fill:#502f26;fill-opacity:1;fill-rule:nonzero;stroke:none"
           d="m 15529.7,16028.3 h 770.3 c 0,0 -66,-286.1 -385.2,-275.1 -319.1,11 -385.1,275.1 -385.1,275.1" /></g><g
         transform="matrix(1.00769,0,0,1.00769,756.30256,-120.04803)"
         id="g380"><path
           id="path382"
           style="fill:#ffffff;fill-opacity:1;fill-rule:nonzero;stroke:none"
           d="m 15706.5,16114 c 4.7,-25.9 17.3,-75.6 47.2,-99.6 41.5,-33.1 340.3,-41.5 423.2,-33.1 61.6,6.1 104.8,89.9 123.1,132.7 h -593.5" /></g><g
         transform="matrix(1.01923,0,0,1.01923,756.30256,-120.04803)"
         id="g384"><path
           id="path386"
           style="fill:#ffffff;fill-opacity:1;fill-rule:nonzero;stroke:none"
           d="m 15512.3,15187.6 306.4,-295.3 207.8,328.1 273.5,-196.9 -109.4,-437.5 -361,207.8 -279,-224.2 -257,410.2 218.7,207.8" /></g></g></g></svg>
