<?xml version="1.0" encoding="UTF-8" standalone="no"?>
<svg
   viewBox="0 0 553.01061 571.80529"
   height="571.8053"
   width="553.01062"
   xml:space="preserve"
   id="svg2"
   version="1.1"
   xmlns="http://www.w3.org/2000/svg"
   xmlns:svg="http://www.w3.org/2000/svg"
   xmlns:rdf="http://www.w3.org/1999/02/22-rdf-syntax-ns#"
   xmlns:cc="http://creativecommons.org/ns#"
   xmlns:dc="http://purl.org/dc/elements/1.1/"><metadata
     id="metadata8"><rdf:RDF><cc:Work
         rdf:about=""><dc:format>image/svg+xml</dc:format><dc:type
           rdf:resource="http://purl.org/dc/dcmitype/StillImage" /></cc:Work></rdf:RDF></metadata><defs
     id="defs6"><clipPath
       id="clipPath716"
       clipPathUnits="userSpaceOnUse"><path
         id="path714"
         d="m 4841.4,4486 c 0,-129.4 -104.92,-234.3 -234.33,-234.3 -129.41,0 -234.32,104.9 -234.32,234.3 0,129.4 104.91,234.3 234.32,234.3 129.41,0 234.33,-104.9 234.33,-234.3 z" /></clipPath><radialGradient
       id="radialGradient722"
       spreadMethod="pad"
       gradientTransform="matrix(234.314,0,0,-234.314,4607.08,4486)"
       gradientUnits="userSpaceOnUse"
       r="1"
       cy="0"
       cx="0"
       fy="0"
       fx="0"><stop
         id="stop718"
         offset="0"
         style="stop-opacity:1;stop-color:#f68976" /><stop
         id="stop720"
         offset="1"
         style="stop-opacity:1;stop-color:#fab99e" /></radialGradient><clipPath
       id="clipPath732"
       clipPathUnits="userSpaceOnUse"><path
         id="path730"
         d="m 3657.52,4460.2 c 0,-129.4 -104.9,-234.3 -234.32,-234.3 -129.41,0 -234.31,104.9 -234.31,234.3 0,129.4 104.9,234.3 234.31,234.3 129.42,0 234.32,-104.9 234.32,-234.3 z" /></clipPath><radialGradient
       id="radialGradient738"
       spreadMethod="pad"
       gradientTransform="matrix(234.316,0,0,-234.316,3423.21,4460.2)"
       gradientUnits="userSpaceOnUse"
       r="1"
       cy="0"
       cx="0"
       fy="0"
       fx="0"><stop
         id="stop734"
         offset="0"
         style="stop-opacity:1;stop-color:#f68976" /><stop
         id="stop736"
         offset="1"
         style="stop-opacity:1;stop-color:#fab99e" /></radialGradient></defs><g
     transform="matrix(1.3333333,0,0,-1.3333333,-347.97367,784.14556)"
     id="g10"><g
       transform="scale(0.1)"
       id="g12"><path
         id="path686"
         style="fill:#6998c0;fill-opacity:1;fill-rule:nonzero;stroke:none"
         d="m 6757.3826,3666.352 c 0,-1145.3 -928.47,-2073.8 -2073.79,-2073.8 -1145.33,0 -2073.79,928.5 -2073.79,2073.8 0,1145.3 928.46,2073.8 2073.79,2073.8 1145.32,0 2073.79,-928.5 2073.79,-2073.8" /><path
         id="path688"
         style="fill:#4b3458;fill-opacity:1;fill-rule:nonzero;stroke:none"
         d="m 4973.4726,3337.452 c 0,0 156.1,5.6 206.27,-22.3 l -139.37,-89.2 -66.9,111.5" /><path
         id="path690"
         style="fill:#d39932;fill-opacity:1;fill-rule:nonzero;stroke:none"
         d="m 5593.2726,5134.852 c 0,0 77.33,-369.5 60.13,-584.3 l -85.9,-120.2 -97.87,739.5 123.64,-35" /><path
         id="path692"
         style="fill:#fab99e;fill-opacity:1;fill-rule:nonzero;stroke:none"
         d="m 3933.8626,4476.952 c 0,0 -123.68,123.7 -231.91,23.2 -108.23,-100.5 54.12,-371 247.36,-293.7 l -15.45,270.5" /><path
         id="path694"
         style="fill:#da7e57;fill-opacity:1;fill-rule:nonzero;stroke:none"
         d="m 3938.3926,4404.052 c -48.5,46.6 -107.69,68.7 -174.63,69.9 -13.49,0.3 -13.47,-20.6 0,-20.9 61.5,-1.1 115.27,-21 159.85,-63.8 9.72,-9.3 24.52,5.4 14.78,14.8 v 0" /><path
         id="path696"
         style="fill:#fab99e;fill-opacity:1;fill-rule:nonzero;stroke:none"
         d="m 5543.2626,4507.152 c 0,0 144.28,127.1 255.47,23.8 111.2,-103.2 -55.61,-381.2 -254.16,-301.8 l -1.31,278" /><path
         id="path698"
         style="fill:#e7e5eb;fill-opacity:1;fill-rule:nonzero;stroke:none"
         d="m 4683.5926,1592.552 c 663.14,0 1253.56,311.3 1633.17,795.7 -147,170.7 -498.09,569.8 -635.28,648.2 -175.6,100.3 -803.51,101.8 -803.51,101.8 l -328.17,-23.8 c 0,0 -875.22,-301 -1142.81,-401.3 -101.95,-38.3 -225,-198 -328.48,-359.9 380.31,-464.3 958.06,-760.7 1605.08,-760.7" /><path
         id="path700"
         style="fill:#ffffff;fill-opacity:1;fill-rule:nonzero;stroke:none"
         d="m 5274.5126,3120.052 c -192.02,25.4 -396.54,18.2 -396.54,18.2 l -328.17,-23.8 c 0,0 -98.99,-28.5 -262.02,-89.2 89.32,-91.4 276.56,-273.4 596.5,-211.8 264.66,50.9 359.39,201.8 390.23,306.6" /><path
         id="path702"
         style="fill:#4b3458;fill-opacity:1;fill-rule:nonzero;stroke:none"
         d="m 4416.0026,3273.352 c 0,0 100.35,47.4 172.82,30.6 l -33.45,-133.8 c 0,0 -128.22,5.6 -139.37,103.2" /><path
         id="path704"
         style="fill:#fab99e;fill-opacity:1;fill-rule:nonzero;stroke:none"
         d="m 4481.3426,3069.552 103.96,613.4 381.25,-49.8 122,-563.6 c 0,0 -243.29,-267.3 -607.21,0" /><path
         id="path706"
         style="fill:#da7e57;fill-opacity:1;fill-rule:nonzero;stroke:none"
         d="m 4517.4626,3282.752 c 108.79,-11.5 344.36,-26.9 519.05,27.3 l -32.93,152 -448.56,42.3 -37.56,-221.6" /><path
         id="path708"
         style="fill:#fab99e;fill-opacity:1;fill-rule:nonzero;stroke:none"
         d="m 5469.6326,5169.852 c 58.14,-296.9 126.67,-886.7 126.67,-1203.5 0,-316.7 -232.26,-506.7 -696.76,-506.7 -464.49,0 -886.77,147.8 -992.34,675.7 -105.57,527.8 21.1,1456.8 527.85,1541.3 506.73,84.4 967.65,-165 1034.58,-506.8" /><g
         id="g710"
         transform="translate(756.30256,-120.04803)"><g
           clip-path="url(#clipPath716)"
           id="g712"><path
             id="path724"
             style="fill:url(#radialGradient722);fill-opacity:1;fill-rule:nonzero;stroke:none"
             d="m 4841.4,4486 c 0,-129.4 -104.92,-234.3 -234.33,-234.3 -129.41,0 -234.32,104.9 -234.32,234.3 0,129.4 104.91,234.3 234.32,234.3 129.41,0 234.33,-104.9 234.33,-234.3" /></g></g><g
         id="g726"
         transform="translate(756.30256,-120.04803)"><g
           clip-path="url(#clipPath732)"
           id="g728"><path
             id="path740"
             style="fill:url(#radialGradient738);fill-opacity:1;fill-rule:nonzero;stroke:none"
             d="m 3657.52,4460.2 c 0,-129.4 -104.9,-234.3 -234.32,-234.3 -129.41,0 -234.31,104.9 -234.31,234.3 0,129.4 104.9,234.3 234.31,234.3 129.42,0 234.32,-104.9 234.32,-234.3" /></g></g><path
         id="path742"
         style="fill:#da7e57;fill-opacity:1;fill-rule:nonzero;stroke:none"
         d="m 4832.4526,4685.252 c 1.29,-85.7 8.76,-170.8 52.98,-245.9 11.06,-18.8 30.75,-32.8 46.97,-46.6 64.78,-55.3 43.71,-111 -10.97,-169.8 -9.16,-9.9 5.58,-24.7 14.79,-14.8 45.55,49 87.57,106 41.88,168.5 -20.73,28.3 -53.35,45.2 -74.63,73.3 -48.02,63.3 -48.97,159.9 -50.11,235.3 -0.21,13.4 -21.11,13.4 -20.91,0 v 0" /><path
         id="path744"
         style="fill:#d39932;fill-opacity:1;fill-rule:nonzero;stroke:none"
         d="m 3840.5226,4602.152 h 137.46 c 0,0 20.06,-309.3 77.34,-378.1 25.43,-30.5 69.07,-96.5 134.6,-80.2 82.13,20.5 124.11,84.8 148.93,114.6 28.65,34.4 95.19,46.5 131.75,45.8 303.58,-5.7 515.5,-17.2 830.54,-22.9 100.06,-1.8 121.27,-119.5 166.11,-114.5 38.67,4.3 69.31,63.5 74.47,100.2 22.9,163.2 8.59,317.9 8.59,317.9 0,0 80.33,183 105.97,34.3 16.85,-97.7 -17.19,-518.4 -17.19,-595.6 0,-194.8 -80.19,-584.3 -504.07,-630.1 -423.85,-45.8 -959.41,14.3 -1131.25,375.2 -222.51,467.2 -163.25,833.4 -163.25,833.4" /><path
         id="path746"
         style="fill:#fab99e;fill-opacity:1;fill-rule:nonzero;stroke:none"
         d="m 4447.6926,4155.352 c 0,0 747.49,-14.3 807.63,-22.9 60.14,-8.6 -5.72,-372.3 -366.59,-406.7 -360.86,-34.4 -501.19,360.9 -441.04,429.6" /><path
         id="path748"
         style="fill:#da7e57;fill-opacity:1;fill-rule:nonzero;stroke:none"
         d="m 4624.4526,4039.752 c 99.56,-132.5 241.29,-148 386.94,-81 12.23,5.6 1.61,23.6 -10.55,18.1 -133.76,-61.6 -265.93,-49.5 -358.33,73.5 -7.99,10.6 -26.17,0.2 -18.06,-10.6 v 0" /><path
         id="path750"
         style="fill:#da7e57;fill-opacity:1;fill-rule:nonzero;stroke:none"
         d="m 4714.1226,3854.052 c 26.16,-8.7 52.32,-16.9 80.1,-17.5 13.5,-0.4 13.46,20.6 0,20.9 -25.87,0.6 -50.21,8.7 -74.55,16.8 -12.82,4.3 -18.28,-16 -5.55,-20.2 v 0" /><path
         id="path752"
         style="fill:#502f26;fill-opacity:1;fill-rule:nonzero;stroke:none"
         d="m 4488.0026,4573.452 c 0,-46 -37.33,-83.4 -83.38,-83.4 -46.07,0 -83.41,37.4 -83.41,83.4 0,46.1 37.34,83.4 83.41,83.4 46.05,0 83.38,-37.3 83.38,-83.4" /><path
         id="path754"
         style="fill:#502f26;fill-opacity:1;fill-rule:nonzero;stroke:none"
         d="m 5310.1026,4573.452 c 0,-46 -37.34,-83.4 -83.4,-83.4 -46.07,0 -83.41,37.4 -83.41,83.4 0,46.1 37.34,83.4 83.41,83.4 46.06,0 83.4,-37.3 83.4,-83.4" /><path
         id="path756"
         style="fill:#d39932;fill-opacity:1;fill-rule:nonzero;stroke:none"
         d="m 5092.1226,4950.552 c 71.14,-6.2 265.38,-19.4 327.5,-166.1 0,0 -106.11,64 -324.61,70.8 -28.71,0.9 -29.3,18 -29.3,18 l -0.18,45.7 c 0,0 1.77,33.8 26.59,31.6" /><path
         id="path758"
         style="fill:#d39932;fill-opacity:1;fill-rule:nonzero;stroke:none"
         d="m 4539.1826,4950.552 c -71.13,-6.2 -265.38,-19.4 -327.49,-166.1 0,0 106.1,64 324.61,70.8 28.71,0.9 29.3,18 29.3,18 l 0.18,45.7 c 0,0 -1.77,33.8 -26.6,31.6" /><path
         id="path760"
         style="fill:#d39932;fill-opacity:1;fill-rule:nonzero;stroke:none"
         d="m 4459.1326,5478.552 c 0,0 670.17,-472.6 1237.24,-386.7 0,0 -120.28,455.4 -481.15,696 -360.85,240.5 -867.78,-60.2 -867.78,-60.2 0,0 -42.95,94.5 -111.69,111.7 -68.74,17.2 -34.37,-137.5 -34.37,-137.5 0,0 -223.4,34.4 -240.58,-68.7 -17.18,-103.1 120.29,-68.7 120.29,-68.7 0,0 -378.04,-232 -463.96,-489.8 -55.42,-166.2 231.98,-713.1 231.98,-713.1 l 171.84,-60.1 c 0,0 -137.46,601.4 85.92,859.2 0,0 369.45,-111.7 524.11,-43 154.65,68.7 -171.85,360.9 -171.85,360.9" /><path
         id="path762"
         style="fill:#6d4881;fill-opacity:1;fill-rule:nonzero;stroke:none"
         d="m 4633.4226,2687.952 c -8.37,100.4 -22.3,231.4 -22.3,231.4 0,0 105.92,195.1 55.75,234.1 -21.42,16.6 -172.82,69.7 -250.87,119.9 l -25.08,-175.6 c 0,0 -716.34,-284.3 -983.93,-384.6 -101.95,-38.3 -225,-198 -328.48,-359.9 364.98,-445.6 911.86,-736.4 1527.25,-759.1 27.44,166.9 33.91,1018.9 27.66,1093.8" /><path
         id="path764"
         style="fill:#6d4881;fill-opacity:1;fill-rule:nonzero;stroke:none"
         d="m 5186.3726,3126.852 c 185.37,-12.2 402.74,-37.7 495.11,-90.4 137.19,-78.4 488.28,-477.5 635.28,-648.2 -229.35,-292.7 -535.74,-522 -888.55,-657.8 l -404.56,1149.9 44.59,100.3 c 0,0 -42.8,156.2 -72.47,223 l 183.97,111.5 6.63,-188.3" /><path
         id="path766"
         style="fill:#a566b9;fill-opacity:1;fill-rule:nonzero;stroke:none"
         d="m 4404.0626,3189.752 -8.26,-57.8 261.54,-111.4 c 8.12,21.4 15.25,43.7 19.34,64 l -272.62,105.2" /><path
         id="path768"
         style="fill:#a566b9;fill-opacity:1;fill-rule:nonzero;stroke:none"
         d="m 5031.9026,3103.252 152.24,87 -1.62,45.7 -167.67,-81.6 c 5.74,-16.3 11.51,-33.7 17.05,-51.1" /><path
         id="path770"
         style="fill:#e1b665;fill-opacity:1;fill-rule:nonzero;stroke:none"
         d="m 4705.8926,5765.252 c 0,0 459.91,158.9 735.86,-376.3 0,0 -158.88,117.1 -250.86,175.6 0,0 66.89,-83.6 83.62,-167.3 0,0 -167.24,267.6 -593.71,250.9 0,0 133.8,58.5 225.78,58.5 0,0 -75.26,25.1 -200.69,58.6" /><path
         id="path772"
         style="fill:#e1b665;fill-opacity:1;fill-rule:nonzero;stroke:none"
         d="m 4098.2426,3883.752 c 0,0 55.75,-301 468.28,-323.3 0,0 -301.04,78 -468.28,323.3" /></g></g></svg>
