<?xml version="1.0" encoding="UTF-8" standalone="no"?>
<svg
   viewBox="0 0 553.01207 587.38622"
   height="587.38623"
   width="553.01208"
   xml:space="preserve"
   id="svg2"
   version="1.1"
   sodipodi:docname="male.svg"
   inkscape:export-filename="male.svg"
   inkscape:export-xdpi="96"
   inkscape:export-ydpi="96"
   inkscape:version="1.4.2 (f4327f4, 2025-05-13)"
   xmlns:inkscape="http://www.inkscape.org/namespaces/inkscape"
   xmlns:sodipodi="http://sodipodi.sourceforge.net/DTD/sodipodi-0.dtd"
   xmlns="http://www.w3.org/2000/svg"
   xmlns:svg="http://www.w3.org/2000/svg"
   xmlns:rdf="http://www.w3.org/1999/02/22-rdf-syntax-ns#"
   xmlns:cc="http://creativecommons.org/ns#"
   xmlns:dc="http://purl.org/dc/elements/1.1/"><sodipodi:namedview
     id="namedview1"
     pagecolor="#ffffff"
     bordercolor="#000000"
     borderopacity="0.25"
     inkscape:showpageshadow="2"
     inkscape:pageopacity="0.0"
     inkscape:pagecheckerboard="0"
     inkscape:deskcolor="#d1d1d1"
     inkscape:export-bgcolor="#ffffff00"
     inkscape:zoom="1.4181469"
     inkscape:cx="246.0958"
     inkscape:cy="283.82108"
     inkscape:window-width="1920"
     inkscape:window-height="1051"
     inkscape:window-x="-9"
     inkscape:window-y="-9"
     inkscape:window-maximized="1"
     inkscape:current-layer="svg2"><inkscape:page
       x="0"
       y="0"
       width="553.01208"
       height="587.38623"
       id="page2"
       margin="0"
       bleed="0" /></sodipodi:namedview><metadata
     id="metadata8"><rdf:RDF><cc:Work
         rdf:about=""><dc:format>image/svg+xml</dc:format><dc:type
           rdf:resource="http://purl.org/dc/dcmitype/StillImage" /></cc:Work></rdf:RDF></metadata><defs
     id="defs6"><clipPath
       id="clipPath60"
       clipPathUnits="userSpaceOnUse"><path
         id="path58"
         d="m 4743.09,16549.2 c 0,-126 -102.11,-228.1 -228.05,-228.1 -125.94,0 -228.05,102.1 -228.05,228.1 0,125.9 102.11,228 228.05,228 125.94,0 228.05,-102.1 228.05,-228 z" /></clipPath><radialGradient
       id="radialGradient68"
       spreadMethod="pad"
       gradientTransform="matrix(228.052,0,0,-228.052,4515.04,16549.2)"
       gradientUnits="userSpaceOnUse"
       r="1"
       cy="0"
       cx="0"
       fy="0"
       fx="0"><stop
         id="stop64"
         offset="0"
         style="stop-opacity:1;stop-color:#f35b7b" /><stop
         id="stop66"
         offset="1"
         style="stop-opacity:1;stop-color:#f79873" /></radialGradient><clipPath
       id="clipPath78"
       clipPathUnits="userSpaceOnUse"><path
         id="path76"
         d="m 3629.91,16549.2 c 0,-126 -102.09,-228.1 -228.05,-228.1 -125.94,0 -228.04,102.1 -228.04,228.1 0,125.9 102.1,228 228.04,228 125.96,0 228.05,-102.1 228.05,-228 z" /></clipPath><radialGradient
       id="radialGradient86"
       spreadMethod="pad"
       gradientTransform="matrix(228.049,0,0,-228.049,3401.87,16549.2)"
       gradientUnits="userSpaceOnUse"
       r="1"
       cy="0"
       cx="0"
       fy="0"
       fx="0"><stop
         id="stop82"
         offset="0"
         style="stop-opacity:1;stop-color:#f35b7b" /><stop
         id="stop84"
         offset="1"
         style="stop-opacity:1;stop-color:#f79873" /></radialGradient><clipPath
       id="clipPath188"
       clipPathUnits="userSpaceOnUse"><path
         id="path186"
         d="m 10657.3,16426.9 c 0,-126 -102.1,-228.1 -228,-228.1 -126,0 -228.1,102.1 -228.1,228.1 0,125.9 102.1,228 228.1,228 125.9,0 228,-102.1 228,-228 z" /></clipPath><radialGradient
       id="radialGradient196"
       spreadMethod="pad"
       gradientTransform="matrix(228.049,0,0,-228.049,10429.3,16426.9)"
       gradientUnits="userSpaceOnUse"
       r="1"
       cy="0"
       cx="0"
       fy="0"
       fx="0"><stop
         id="stop192"
         offset="0"
         style="stop-opacity:1;stop-color:#dc3952" /><stop
         id="stop194"
         offset="1"
         style="stop-opacity:1;stop-color:#b4594f" /></radialGradient><clipPath
       id="clipPath206"
       clipPathUnits="userSpaceOnUse"><path
         id="path204"
         d="m 9780.67,16368.9 c 0,-125.9 -102.1,-228 -228.04,-228 -125.96,0 -228.05,102.1 -228.05,228 0,125.9 102.09,228 228.05,228 125.94,0 228.04,-102.1 228.04,-228 z" /></clipPath><radialGradient
       id="radialGradient214"
       spreadMethod="pad"
       gradientTransform="matrix(228.047,0,0,-228.047,9552.63,16368.9)"
       gradientUnits="userSpaceOnUse"
       r="1"
       cy="0"
       cx="0"
       fy="0"
       fx="0"><stop
         id="stop210"
         offset="0"
         style="stop-opacity:1;stop-color:#dc3952" /><stop
         id="stop212"
         offset="1"
         style="stop-opacity:1;stop-color:#b4594f" /></radialGradient><clipPath
       id="clipPath322"
       clipPathUnits="userSpaceOnUse"><path
         id="path320"
         d="m 16863.8,16356.9 c 0,-125.9 -102.1,-228 -228,-228 -126,0 -228.1,102.1 -228.1,228 0,125.9 102.1,228 228.1,228 125.9,0 228,-102.1 228,-228 z" /></clipPath><radialGradient
       id="radialGradient330"
       spreadMethod="pad"
       gradientTransform="matrix(228.052,0,0,-228.052,16635.8,16356.9)"
       gradientUnits="userSpaceOnUse"
       r="1"
       cy="0"
       cx="0"
       fy="0"
       fx="0"><stop
         id="stop326"
         offset="0"
         style="stop-opacity:1;stop-color:#f57379" /><stop
         id="stop328"
         offset="1"
         style="stop-opacity:1;stop-color:#fab99e" /></radialGradient><clipPath
       id="clipPath340"
       clipPathUnits="userSpaceOnUse"><path
         id="path338"
         d="m 15750.6,16356.9 c 0,-125.9 -102,-228 -228,-228 -125.9,0 -228,102.1 -228,228 0,125.9 102.1,228 228,228 126,0 228,-102.1 228,-228 z" /></clipPath><radialGradient
       id="radialGradient348"
       spreadMethod="pad"
       gradientTransform="matrix(228.047,0,0,-228.047,15522.6,16356.9)"
       gradientUnits="userSpaceOnUse"
       r="1"
       cy="0"
       cx="0"
       fy="0"
       fx="0"><stop
         id="stop344"
         offset="0"
         style="stop-opacity:1;stop-color:#f57379" /><stop
         id="stop346"
         offset="1"
         style="stop-opacity:1;stop-color:#fab99e" /></radialGradient><clipPath
       id="clipPath422"
       clipPathUnits="userSpaceOnUse"><path
         id="path420"
         d="m 4494.92,10421.3 c -15.78,-125 -129.88,-213.5 -254.79,-197.7 -124.96,15.8 -213.49,129.8 -197.71,254.8 15.78,125 129.87,213.5 254.85,197.7 124.93,-15.8 213.42,-129.9 197.65,-254.8 z" /></clipPath><radialGradient
       id="radialGradient428"
       spreadMethod="pad"
       gradientTransform="matrix(226.255,-28.5739,-28.5739,-226.255,4268.67,10449.8)"
       gradientUnits="userSpaceOnUse"
       r="1"
       cy="0"
       cx="0"
       fy="0"
       fx="0"><stop
         id="stop424"
         offset="0"
         style="stop-opacity:1;stop-color:#f35b7b" /><stop
         id="stop426"
         offset="1"
         style="stop-opacity:1;stop-color:#f79873" /></radialGradient><clipPath
       id="clipPath442"
       clipPathUnits="userSpaceOnUse"><path
         id="path440"
         d="m 3582.07,10573.3 c -15.78,-125 -129.87,-213.5 -254.83,-197.7 -124.95,15.7 -213.45,129.8 -197.67,254.8 15.78,124.9 129.87,213.4 254.83,197.7 124.94,-15.8 213.45,-129.9 197.67,-254.8 z" /></clipPath><radialGradient
       id="radialGradient448"
       spreadMethod="pad"
       gradientTransform="matrix(226.247,-28.573,-28.573,-226.247,3355.82,10601.8)"
       gradientUnits="userSpaceOnUse"
       r="1"
       cy="0"
       cx="0"
       fy="0"
       fx="0"><stop
         id="stop444"
         offset="0"
         style="stop-opacity:1;stop-color:#f35b7b" /><stop
         id="stop446"
         offset="1"
         style="stop-opacity:1;stop-color:#f79873" /></radialGradient><clipPath
       id="clipPath516"
       clipPathUnits="userSpaceOnUse"><path
         id="path514"
         d="m 10706.7,10549.4 c 0.7,-131 -104.9,-237.7 -235.9,-238.4 -131,-0.7 -237.7,104.9 -238.4,235.9 -0.7,130.9 104.9,237.7 235.9,238.4 130.9,0.7 237.7,-104.9 238.4,-235.9 z" /></clipPath><radialGradient
       id="radialGradient522"
       spreadMethod="pad"
       gradientTransform="matrix(237.16,1.27628,1.27628,-237.16,10469.5,10548.1)"
       gradientUnits="userSpaceOnUse"
       r="1"
       cy="0"
       cx="0"
       fy="0"
       fx="0"><stop
         id="stop518"
         offset="0"
         style="stop-opacity:1;stop-color:#dc3952" /><stop
         id="stop520"
         offset="1"
         style="stop-opacity:1;stop-color:#b4594f" /></radialGradient><clipPath
       id="clipPath532"
       clipPathUnits="userSpaceOnUse"><path
         id="path530"
         d="m 9632.68,10488.2 c 0.7,-130.9 -104.91,-237.7 -235.89,-238.4 -130.98,-0.7 -237.73,104.9 -238.44,235.9 -0.7,131 104.91,237.7 235.88,238.4 130.98,0.7 237.73,-104.9 238.45,-235.9 z" /></clipPath><radialGradient
       id="radialGradient538"
       spreadMethod="pad"
       gradientTransform="matrix(237.165,1.27631,1.27631,-237.165,9395.52,10487)"
       gradientUnits="userSpaceOnUse"
       r="1"
       cy="0"
       cx="0"
       fy="0"
       fx="0"><stop
         id="stop534"
         offset="0"
         style="stop-opacity:1;stop-color:#dc3952" /><stop
         id="stop536"
         offset="1"
         style="stop-opacity:1;stop-color:#b4594f" /></radialGradient><clipPath
       id="clipPath620"
       clipPathUnits="userSpaceOnUse"><path
         id="path618"
         d="m 16992.9,10506.5 c 12.6,-129.1 -81.8,-244.1 -210.9,-256.8 -129.2,-12.6 -244.1,81.8 -256.8,210.9 -12.7,129.2 81.8,244.2 210.9,256.8 129.1,12.7 244.1,-81.7 256.8,-210.9 z" /></clipPath><radialGradient
       id="radialGradient628"
       spreadMethod="pad"
       gradientTransform="matrix(233.843,22.9459,22.9459,-233.843,16759,10483.6)"
       gradientUnits="userSpaceOnUse"
       r="1"
       cy="0"
       cx="0"
       fy="0"
       fx="0"><stop
         id="stop624"
         offset="0"
         style="stop-opacity:1;stop-color:#f57379" /><stop
         id="stop626"
         offset="1"
         style="stop-opacity:1;stop-color:#f9af90" /></radialGradient><clipPath
       id="clipPath646"
       clipPathUnits="userSpaceOnUse"><path
         id="path644"
         d="m 16172.8,10431.8 c 12.6,-129.1 -81.8,-244.1 -210.9,-256.8 -129.2,-12.7 -244.1,81.8 -256.8,210.9 -12.7,129.1 81.7,244.1 210.9,256.8 129.1,12.7 244.1,-81.8 256.8,-210.9 z" /></clipPath><radialGradient
       id="radialGradient652"
       spreadMethod="pad"
       gradientTransform="matrix(233.843,22.9459,22.9459,-233.843,15938.9,10408.8)"
       gradientUnits="userSpaceOnUse"
       r="1"
       cy="0"
       cx="0"
       fy="0"
       fx="0"><stop
         id="stop648"
         offset="0"
         style="stop-opacity:1;stop-color:#f57379" /><stop
         id="stop650"
         offset="1"
         style="stop-opacity:1;stop-color:#f9af90" /></radialGradient><clipPath
       id="clipPath716"
       clipPathUnits="userSpaceOnUse"><path
         id="path714"
         d="m 4841.4,4486 c 0,-129.4 -104.92,-234.3 -234.33,-234.3 -129.41,0 -234.32,104.9 -234.32,234.3 0,129.4 104.91,234.3 234.32,234.3 129.41,0 234.33,-104.9 234.33,-234.3 z" /></clipPath><radialGradient
       id="radialGradient722"
       spreadMethod="pad"
       gradientTransform="matrix(234.314,0,0,-234.314,4607.08,4486)"
       gradientUnits="userSpaceOnUse"
       r="1"
       cy="0"
       cx="0"
       fy="0"
       fx="0"><stop
         id="stop718"
         offset="0"
         style="stop-opacity:1;stop-color:#f68976" /><stop
         id="stop720"
         offset="1"
         style="stop-opacity:1;stop-color:#fab99e" /></radialGradient><clipPath
       id="clipPath732"
       clipPathUnits="userSpaceOnUse"><path
         id="path730"
         d="m 3657.52,4460.2 c 0,-129.4 -104.9,-234.3 -234.32,-234.3 -129.41,0 -234.31,104.9 -234.31,234.3 0,129.4 104.9,234.3 234.31,234.3 129.42,0 234.32,-104.9 234.32,-234.3 z" /></clipPath><radialGradient
       id="radialGradient738"
       spreadMethod="pad"
       gradientTransform="matrix(234.316,0,0,-234.316,3423.21,4460.2)"
       gradientUnits="userSpaceOnUse"
       r="1"
       cy="0"
       cx="0"
       fy="0"
       fx="0"><stop
         id="stop734"
         offset="0"
         style="stop-opacity:1;stop-color:#f68976" /><stop
         id="stop736"
         offset="1"
         style="stop-opacity:1;stop-color:#fab99e" /></radialGradient><clipPath
       id="clipPath794"
       clipPathUnits="userSpaceOnUse"><path
         id="path792"
         d="m 10638.9,4395.5 c 20.4,-130.6 -69,-253 -199.6,-273.3 -130.6,-20.3 -253,69 -273.3,199.6 -20.3,130.6 69,253 199.6,273.3 130.6,20.3 253,-69 273.3,-199.6 z" /></clipPath><radialGradient
       id="radialGradient800"
       spreadMethod="pad"
       gradientTransform="matrix(236.455,36.836,36.836,-236.455,10402.4,4358.7)"
       gradientUnits="userSpaceOnUse"
       r="1"
       cy="0"
       cx="0"
       fy="0"
       fx="0"><stop
         id="stop796"
         offset="0"
         style="stop-opacity:1;stop-color:#f35b7b" /><stop
         id="stop798"
         offset="1"
         style="stop-opacity:1;stop-color:#f79873" /></radialGradient><clipPath
       id="clipPath810"
       clipPathUnits="userSpaceOnUse"><path
         id="path808"
         d="m 9742.8,4283.9 c 20.34,-130.6 -69.03,-253 -199.63,-273.3 -130.56,-20.4 -252.92,69 -273.27,199.6 -20.35,130.6 69.03,253 199.61,273.3 130.58,20.3 252.94,-69 273.29,-199.6 z" /></clipPath><radialGradient
       id="radialGradient816"
       spreadMethod="pad"
       gradientTransform="matrix(236.459,36.8368,36.8368,-236.459,9506.35,4247.1)"
       gradientUnits="userSpaceOnUse"
       r="1"
       cy="0"
       cx="0"
       fy="0"
       fx="0"><stop
         id="stop812"
         offset="0"
         style="stop-opacity:1;stop-color:#f35b7b" /><stop
         id="stop814"
         offset="1"
         style="stop-opacity:1;stop-color:#f79873" /></radialGradient><clipPath
       id="clipPath880"
       clipPathUnits="userSpaceOnUse"><path
         id="path878"
         d="m 15151.3,4313.9 c -12.1,-125.4 79.7,-236.8 205.1,-248.9 125.4,-12.1 236.8,79.8 248.9,205.1 12.1,125.4 -79.8,236.8 -205.1,248.9 -125.4,12.1 -236.9,-79.8 -248.9,-205.1 z" /></clipPath><radialGradient
       id="radialGradient886"
       spreadMethod="pad"
       gradientTransform="matrix(-227.006,21.8691,-21.8691,-227.006,15378.3,4292)"
       gradientUnits="userSpaceOnUse"
       r="1"
       cy="0"
       cx="0"
       fy="0"
       fx="0"><stop
         id="stop882"
         offset="0"
         style="stop-opacity:1;stop-color:#dc3952" /><stop
         id="stop884"
         offset="1"
         style="stop-opacity:1;stop-color:#b4594f" /></radialGradient><clipPath
       id="clipPath896"
       clipPathUnits="userSpaceOnUse"><path
         id="path894"
         d="m 16264.9,4173.7 c -12.1,-125.4 79.7,-236.8 205.1,-248.9 125.4,-12.1 236.8,79.8 248.9,205.1 12.1,125.4 -79.7,236.8 -205.1,248.9 -125.4,12.1 -236.8,-79.8 -248.9,-205.1 z" /></clipPath><radialGradient
       id="radialGradient904"
       spreadMethod="pad"
       gradientTransform="matrix(-227.001,21.8686,-21.8686,-227.001,16491.9,4151.8)"
       gradientUnits="userSpaceOnUse"
       r="1"
       cy="0"
       cx="0"
       fy="0"
       fx="0"><stop
         id="stop900"
         offset="0"
         style="stop-opacity:1;stop-color:#dc3952" /><stop
         id="stop902"
         offset="1"
         style="stop-opacity:1;stop-color:#b4594f" /></radialGradient></defs><g
     id="g2"
     transform="translate(31.264433,-25.968825)"><g
       transform="matrix(0.147064,0,0,-0.147064,-252.70725,2419.0664)"
       id="g18"><g
         id="g1"><path
           id="path20"
           style="fill:#f0356b;fill-opacity:1;fill-rule:nonzero;stroke:none;stroke-width:0.899754"
           d="m 5136.0637,14195.956 c -0.01,-914.777 -773.5735,-1656.359 -1727.8132,-1656.359 -954.2489,0 -1727.807,741.582 -1727.8012,1656.359 0.01,914.777 847.8211,1862.224 1802.0701,1862.224 954.2397,0 1653.55,-947.447 1653.5443,-1862.224"
           sodipodi:nodetypes="csssc" /></g></g><path
       id="path22"
       style="fill:#ffffff;fill-opacity:1;fill-rule:nonzero;stroke:none;stroke-width:0.119967"
       d="m 248.52371,574.94642 c 92.64099,0 173.69094,-47.53597 218.08887,-118.5404 -0.94221,-3.07742 -1.87955,-6.00216 -2.80705,-8.71549 -9.48128,-27.7792 -34.18773,-37.69286 -62.61431,-41.47504 -40.98565,-5.46188 -83.53841,-9.03263 -83.53841,-9.03263 l -59.9077,-4.06416 -59.90761,4.06416 c 0,0 -42.55404,3.57075 -83.53969,9.03263 -28.426495,3.78218 -53.133125,13.69584 -62.613125,41.47504 -2.678403,7.83454 -5.442637,17.36059 -8.157891,27.5913 46.242109,60.42134 120.833516,99.66459 204.996916,99.66459" /><path
       id="path24"
       style="fill:#e9eae9;fill-opacity:1;fill-rule:nonzero;stroke:none;stroke-width:0.119967"
       d="m 321.65213,397.53524 c -2.56822,-0.23495 -3.99932,-0.35238 -3.99932,-0.35238 l -59.9077,-4.06416 -59.90761,4.06416 c 0,0 -2.35015,0.19963 -6.4364,0.57553 -0.73517,1.29208 -1.44957,2.61932 -2.11241,4.02884 0,0 14.20713,25.99387 60.70655,24.76055 42.1497,-1.1159 67.31691,-24.6196 71.65689,-29.01254" /><path
       id="path26"
       style="fill:#f79872;fill-opacity:1;fill-rule:nonzero;stroke:none;stroke-width:0.119967"
       d="m 286.13613,401.44665 -12.73799,-72.03813 -46.71391,5.83778 -14.94836,66.20035 c 0,0 39.87187,21.42466 74.40026,0" /><path
       id="path28"
       style="fill:#d17b59;fill-opacity:1;fill-rule:nonzero;stroke:none;stroke-width:0.119967"
       d="m 278.61048,358.87923 -5.21234,-29.47071 -46.71391,5.83778 -7.53667,33.38203 c 13.68029,0.0705 39.88538,-1.06885 59.46292,-9.7491" /><g
       transform="matrix(0.1348238,0,0,-0.12924685,-232.67975,2199.5207)"
       id="g30"><path
         id="path32"
         style="fill:#f79872;fill-opacity:1;fill-rule:nonzero;stroke:none"
         d="m 2968.11,15777.1 c -51.44,-262.6 -112.05,-784.3 -112.05,-1064.5 0,-280.1 205.43,-448.2 616.29,-448.2 410.83,0 784.32,130.8 877.71,597.6 93.37,466.9 -18.68,1288.6 -466.88,1363.3 -448.2,74.7 -855.87,-145.9 -915.07,-448.2" /></g><g
       transform="matrix(0.12268739,0,0,-0.11761246,-232.67975,2199.5207)"
       id="g34"><path
         id="path36"
         style="fill:#502f26;fill-opacity:1;fill-rule:nonzero;stroke:none"
         d="m 3501.7,16300 h 802.92 c 0,0 -23.18,-308.8 -409.18,-316.5 -358.09,-7.2 -393.74,316.5 -393.74,316.5" /></g><g
       transform="matrix(0.12268739,0,0,-0.11761246,-232.67975,2199.5207)"
       id="g38"><path
         id="path40"
         style="fill:#ffffff;fill-opacity:1;fill-rule:nonzero;stroke:none"
         d="m 4190.94,16230.5 c 11.5,21.5 29.66,69.5 29.66,69.5 h -650.34 c 0,0 15.4,-48.7 28.94,-67.8 7.66,-10.8 16.84,-25.8 43.78,-29.8 68.3,-10.1 241.2,-17.5 507.29,1.9 28.89,2.1 33.22,12.2 40.67,26.2" /></g><g
       transform="matrix(0.12742923,0,0,-0.12215815,-232.67975,2199.5207)"
       id="g42"><path
         id="path44"
         style="fill:#d17b59;fill-opacity:1;fill-rule:nonzero;stroke:none"
         d="m 3717.68,16287.1 c 3.55,-49.9 6.1,-99.2 3.14,-149.2 -4.49,-75.5 -38.32,-122.5 -87.68,-176.2 -44.39,-48.3 -10.94,-79.8 33.76,-112.6 10.48,-7.7 20.48,9.8 10.14,17.4 -64.47,47.2 -25.93,84.1 13.64,128.3 19.72,22.1 30.15,48.9 39.09,76.5 22,67.9 12.99,146.1 8.02,215.8 -0.93,12.8 -21.05,12.9 -20.11,0 v 0" /></g><g
       transform="matrix(0.1271903,0,0,-0.12192911,-232.67975,2199.5207)"
       id="g46"><path
         id="path48"
         style="fill:#502f26;fill-opacity:1;fill-rule:nonzero;stroke:none"
         d="m 3528.25,16221.8 c 0,-43.2 -35,-78.2 -78.19,-78.2 -43.19,0 -78.19,35 -78.19,78.2 0,43.2 35,78.2 78.19,78.2 43.19,0 78.19,-35 78.19,-78.2" /></g><g
       transform="matrix(0.1271903,0,0,-0.12192911,-232.67975,2199.5207)"
       id="g50"><path
         id="path52"
         style="fill:#502f26;fill-opacity:1;fill-rule:nonzero;stroke:none"
         d="m 4299.02,16221.8 c 0,-43.2 -35.01,-78.2 -78.19,-78.2 -43.19,0 -78.2,35 -78.2,78.2 0,43.2 35.01,78.2 78.2,78.2 43.18,0 78.19,-35 78.19,-78.2" /></g><g
       id="g54"
       transform="matrix(0.12252811,0,0,-0.11745977,-232.67975,2199.5207)"><g
         clip-path="url(#clipPath60)"
         id="g56"><g
           transform="scale(1.02928)"
           id="g62"><path
             id="path70"
             style="fill:url(#radialGradient68);fill-opacity:1;fill-rule:nonzero;stroke:none"
             d="m 4608.18,16078.4 c 0,-122.3 -99.21,-221.5 -221.57,-221.5 -122.35,0 -221.56,99.2 -221.56,221.5 0,122.4 99.21,221.6 221.56,221.6 122.36,0 221.57,-99.2 221.57,-221.6" /></g></g></g><g
       id="g72"
       transform="matrix(0.12252811,0,0,-0.11745977,-232.67975,2199.5207)"><g
         clip-path="url(#clipPath78)"
         id="g74"><g
           transform="scale(1.02928)"
           id="g80"><path
             id="path88"
             style="fill:url(#radialGradient86);fill-opacity:1;fill-rule:nonzero;stroke:none"
             d="m 3526.66,16078.4 c 0,-122.3 -99.19,-221.5 -221.56,-221.5 -122.36,0 -221.56,99.2 -221.56,221.5 0,122.4 99.2,221.6 221.56,221.6 122.37,0 221.56,-99.2 221.56,-221.6" /></g></g></g><g
       transform="matrix(0.13532004,0,0,-0.12972257,-232.67975,2199.5207)"
       id="g90"><path
         id="path92"
         style="fill:#000000;fill-opacity:1;fill-rule:nonzero;stroke:none"
         d="m 3306.03,15919.2 c 152.14,-5.4 311.12,-36.1 624.71,0 91,10.5 133,28 196,-97.9 62.99,-126 208.24,-568.8 208.24,-747.3 0,0 36.75,26.3 78.74,141.8 22.42,61.6 68.83,349.3 7.01,549.4 -54.04,175 -205.38,260 -335.99,371 -192.66,163.8 -899.45,112 -1098.95,-77 -199.49,-189 -188.99,-482.9 -181.99,-853.9 0,0 -5.24,-68.3 71.76,-110.3 0,0 54.24,463.8 199.48,712.2 97.18,166.3 161.03,114.5 230.99,112" /></g><g
       transform="matrix(0.12658011,0,0,-0.12134416,-232.67975,2199.5207)"
       id="g94"><path
         id="path96"
         style="fill:#f79872;fill-opacity:1;fill-rule:nonzero;stroke:none"
         d="m 4628.66,16180.3 c 0,0 119.73,119.7 224.49,22.4 104.76,-97.3 -52.38,-359.2 -239.45,-284.3 l 14.96,261.9" /></g><g
       transform="matrix(0.12658011,0,0,-0.12134416,-232.67975,2199.5207)"
       id="g98"><path
         id="path100"
         style="fill:#f79872;fill-opacity:1;fill-rule:nonzero;stroke:none"
         d="m 3092.05,16180.3 c 0,0 -135.93,119.7 -240.67,22.4 -104.76,-97.3 52.38,-359.2 239.44,-284.3 l 1.23,261.9" /></g><g
       transform="matrix(0.12528254,0,0,-0.12010026,-232.67975,2199.5207)"
       id="g102"><path
         id="path104"
         style="fill:#d17b59;fill-opacity:1;fill-rule:nonzero;stroke:none"
         d="m 4708.1,16214.1 c 19.96,32.2 47.15,55.2 84.61,63.4 12.87,2.8 7.42,22.5 -5.42,19.7 -42.51,-9.3 -74.25,-36.3 -96.84,-72.8 -6.96,-11.2 10.73,-21.4 17.65,-10.3 v 0" /></g><g
       transform="matrix(0.12549206,0,0,-0.12030112,-232.67975,2199.5207)"
       id="g106"><path
         id="path108"
         style="fill:#d17b59;fill-opacity:1;fill-rule:nonzero;stroke:none"
         d="m 3101.13,16217.5 c -26.51,63.9 -88.45,82.5 -153.24,75.5 -12.94,-1.4 -13.07,-21.9 0,-20.4 54.05,5.8 110.59,-5.2 133.57,-60.5 4.96,-12 24.72,-6.7 19.67,5.4 v 0" /></g><g
       transform="matrix(0.1384923,0,0,-0.1327636,-232.67975,2199.5207)"
       id="g110"><path
         id="path112"
         style="fill:#502f26;fill-opacity:1;fill-rule:nonzero;stroke:none"
         d="m 4133.07,15544.3 c -297.51,97.4 -463.37,-65 -996.83,30.8 -533.45,95.7 -410.36,724.9 -246.21,629.2 164.14,-95.8 504.4,-183 504.4,-183 0,0 -77.16,201.4 159.01,112.9 205.14,-77 455.39,-149.7 576.1,-355.5 20.31,-34.5 74.1,-215.2 3.53,-234.4" /></g><g
       transform="matrix(0.13620714,0,0,-0.13057297,-232.67975,2199.5207)"
       id="g114"><path
         id="path116"
         style="fill:#714025;fill-opacity:1;fill-rule:nonzero;stroke:none"
         d="m 3197.58,16217.8 28.45,-107.4 c 0,0 -142.24,47.4 -303.46,189.6 0,0 104.32,-379.3 587.94,-350.9 l -199.14,123.3 c 0,0 170.69,-75.8 265.52,-18.9 0,0 -284.47,69.5 -379.31,164.3" /></g><g
       transform="matrix(0.13477356,0,0,-0.12919869,-232.67975,2199.5207)"
       id="g118"><path
         id="path120"
         style="fill:#502f26;fill-opacity:1;fill-rule:nonzero;stroke:none"
         d="m 2990.88,16187.6 c 0,0 -175.72,-14.1 -238.96,49.1 -63.27,63.3 -91.36,-267 182.73,-337.3 l 196.78,175.7 -140.55,112.5" /></g><g
       transform="matrix(0.13486056,0,0,-0.12928209,-232.67975,2199.5207)"
       id="g122"><path
         id="path124"
         style="fill:#502f26;fill-opacity:1;fill-rule:nonzero;stroke:none"
         d="m 4281.25,15910.2 c 0,0 291.46,-212.5 263.38,-79 -28.09,133.4 -200.18,184.4 -200.18,184.4 0,0 89.56,168.5 10.54,226.5 -79,57.9 -142.22,-200.2 -142.22,-200.2 l 68.48,-131.7" /></g><g
       transform="matrix(0.12935537,0,0,-0.12400462,-232.67975,2199.5207)"
       id="g126"><path
         id="path128"
         style="fill:#502f26;fill-opacity:1;fill-rule:nonzero;stroke:none"
         d="m 4026.13,16298 c 65.6,-5.7 244.66,-17.9 301.92,-153.1 0,0 -97.82,59 -299.25,65.3 -26.47,0.8 -27.02,16.6 -27.02,16.6 l -0.15,42.1 c 0,0 1.63,31.1 24.5,29.1" /></g><g
       transform="matrix(0.12935537,0,0,-0.12400462,-232.67975,2199.5207)"
       id="g130"><path
         id="path132"
         style="fill:#502f26;fill-opacity:1;fill-rule:nonzero;stroke:none"
         d="m 3516.38,16298 c -65.56,-5.7 -244.64,-17.9 -301.92,-153.1 0,0 97.83,59 299.26,65.3 26.49,0.8 27.02,16.6 27.02,16.6 l 0.17,42.1 c 0,0 -1.63,31.1 -24.53,29.1" /></g><path
       id="path134"
       style="fill:#d17b59;fill-opacity:1;fill-rule:nonzero;stroke:none;stroke-width:0.119967"
       d="m 231.78998,327.62319 c 7.17653,1.83237 14.46941,2.00856 21.85656,2.00856 1.65174,0 1.65174,-2.45494 0,-2.45494 -7.15925,0 -14.212,-0.14095 -21.17653,-1.91456 -1.5977,-0.41114 -2.27535,1.96152 -0.68003,2.36094 v 0" /><path
       id="path136"
       style="fill:#6998c0;fill-opacity:1;fill-rule:nonzero;stroke:none;stroke-width:0.119967"
       d="M 193.64824,569.22616 C 207.33956,470.63043 211.53976,413.1926 212.60088,396.1844 l -14.76338,0.99846 c 0,0 -42.55404,3.57075 -83.53969,9.03263 -28.426495,3.78218 -53.133125,13.69584 -62.613125,41.47504 -2.678403,7.83454 -5.442637,17.36059 -8.157891,27.5913 35.888453,46.90169 88.854966,81.01201 150.121446,93.94433" /><path
       id="path138"
       style="fill:#6998c0;fill-opacity:1;fill-rule:nonzero;stroke:none;stroke-width:0.119967"
       d="m 466.61258,456.40602 c -0.94221,-3.07742 -1.87955,-6.00216 -2.80705,-8.71549 -9.48128,-27.7792 -34.18773,-37.69286 -62.61431,-41.47504 -40.98565,-5.46188 -83.53841,-9.03263 -83.53841,-9.03263 l -31.16996,-1.90285 c 7.7156,26.87474 11.94898,65.58951 30.73869,170.6455 63.18159,-16.97288 116.40293,-56.76831 149.39104,-109.51949" /><path
       id="path140"
       style="fill:#70c2ce;fill-opacity:1;fill-rule:nonzero;stroke:none;stroke-width:0.119967"
       d="m 216.84281,377.84896 -9.04138,73.04823 c 0,0 -2.89776,-18.4764 -7.74988,-22.28209 -4.73448,-3.71179 -37.02557,9.49072 -37.02557,9.49072 0,0 23.76313,-31.10338 29.70697,-41.68647 4.52129,-8.04597 24.10986,-18.57039 24.10986,-18.57039" /><path
       id="path142"
       style="fill:#70c2ce;fill-opacity:1;fill-rule:nonzero;stroke:none;stroke-width:0.119967"
       d="m 282.07065,377.84896 4.08873,23.52722 11.6255,49.52101 c 0,0 2.57557,-19.31039 7.42768,-23.11609 4.73449,-3.7117 30.67491,10.32472 30.67491,10.32472 0,0 -23.76313,-31.10338 -29.70697,-41.68647 -4.52128,-8.04597 -24.10985,-18.57039 -24.10985,-18.57039" /></g></svg>
