<svg version="1.2" xmlns="http://www.w3.org/2000/svg" viewBox="0 0 4000 4000" width="512" height="512"><style>.a{fill:#000072}.b{fill:#60547b}.c{fill:#fff}.d{fill:#ff2c4b}.e{fill:#7a2938}</style><g style="opacity:.2"><path class="a" d="m3561 2846.7c0 111.2-674.1 201.3-1505.5 201.3-831.5 0-1505.5-90.1-1505.5-201.3 0-111.1 674-201.3 1505.5-201.3 831.4 0 1505.5 90.2 1505.5 201.3z"/></g><path class="b" d="m1510.6 2840.9h-558.7c-334 0-334-297.2 0-297.2h353.2"/><g style="opacity:.3"><path class="a" d="m1510.6 2840.9h-558.7c-158.2 0-241.5-66.7-249.8-136.8 41.4 31.7 107.4 53.5 197.8 53.5h553.1z"/></g><g style="opacity:.55"><path class="c" d="m1510.6 2840.9h-4.2l-182.4-263.8h-353.2c-193.2 0-274.7 99.5-244.4 183.3-69.5-88 5.7-216.6 225.5-216.6h353.2z"/></g><path class="c" d="m3128.2 2879.9c-7.6 0.2-15.4 0.3-23.3 0.3h-1182.5c-10.4-0.3-20.4-0.9-30-1.7-346.4-28.1-196.9-327.8 428.8-306.2l-570.8-388.3c37-38 75.7-72.9 115.7-104.5 140.6-111.1 296.6-181.9 449.1-212.6 191.7-38.6 377.9-13.6 520.8 74.9 166.8 103 274.8 292.3 264.7 567.7 25 3.3 48.8 8.1 71.2 14.3 18.8 5.1 36.6 11.2 53.3 18 228.7 93 262.4 328.4-97 338.1z"/><path fill-rule="evenodd" class="a" d="m3104.9 2882.7h-1182.5c-9.5-0.3-19.4-0.8-30.2-1.7-117.2-9.5-187.9-52-184.5-111.1 3-51.2 62.4-104.1 159.1-141.4 79.5-30.8 221.2-65.7 445.9-59l-566.2-385.1 2.1-2.1c36.5-37.6 75.5-72.8 115.9-104.7 136.2-107.6 291.9-181.3 450.2-213.1 195.2-39.3 380.8-12.6 522.6 75.2 180.4 111.4 274.7 312.9 265.9 567.6 23.7 3.2 47 8 69.4 14.1 18.5 5 36.5 11.1 53.6 18.1 115.5 47 186.4 133.5 172.4 210.3-14.5 80-113.1 128.4-270.4 132.6h0.1c-7.2 0.2-14.8 0.3-23.4 0.3zm-847.7-309c-192.1 0-316.2 31.5-388.6 59.4-94.8 36.6-153.1 87.9-155.9 137.1-3.3 56 65.7 96.6 179.9 105.8 10.7 0.9 20.5 1.4 29.9 1.7h1182.4c8.5 0 16.1-0.1 23.2-0.3 154.7-4.2 251.5-51 265.6-128.5 13.5-74.5-56.1-158.7-169.4-204.8-16.9-6.9-34.7-12.9-53.1-17.9-22.8-6.3-46.6-11-70.9-14.3l-2.2-0.2 0.1-2.3c9.3-253.9-84.2-454.7-263.5-565.5-140.7-87.1-325.1-113.6-519-74.5-157.5 31.6-312.5 105-448.1 212.1-39.5 31.2-77.6 65.6-113.4 102.1l575.6 391.5-8.6-0.3q-33.2-1.1-64-1.1z"/><path class="a" d="m1510.6 2857.1h-558.7c-183.3 0-266.8-85.4-266.8-164.8 0-79.4 83.5-164.8 266.8-164.8h353.2c9 0 16.2 7.3 16.2 16.2 0 9-7.2 16.3-16.2 16.3h-353.2c-153.8 0-234.3 66.6-234.3 132.3 0 65.8 80.5 132.3 234.3 132.3h558.7c9 0 16.3 7.3 16.3 16.3 0 8.9-7.3 16.2-16.3 16.2z"/><path class="b" d="m2569.7 2504.4c-22.3 85.6-78.7 221.3-165 300.1l-224.7-112.2c0 0-221-116-214.7-165.3 5.4-42.6-68.7-352.7-99.2-447.5q38.1-30.1 77.6-56.2c119.3-79.1 246.5-131.3 371.5-156.4 1.3-0.2 16.1 2.6 38.3 10.9 96.4 36.3 333.1 177.1 216.2 626.6z"/><g style="opacity:.55"><path class="c" d="m3072.3 2258.4c-108.6-302.2-418.9-420.9-745.3-355.2-152.5 30.7-308.5 101.5-449.1 212.6-34 26.9-67.1 56.1-99 87.7l-28.5-19.5c37-38 75.7-72.9 115.7-104.5 140.6-111.1 296.6-181.9 449.1-212.6 339.2-68.2 661 62.5 757.1 391.5z"/></g><g style="opacity:.3"><path class="a" d="m2233.8 1982.1c202.6 92.1 298.7 273.5 302.3 532.7 0.6 47.9-42.8 84.5-90 76.2-77.6-13.7-193.7-28.4-291.6-16.6-164 19.8 79.3-592.3 79.3-592.3z"/></g><path class="b" d="m3055.9 2209.8l-59.5-91.8-66.6-102.8c65-42.1 123.6-40.2 161.8-15.5 62.4 40.3 70.5 141.3-35.7 210.1z"/><g style="opacity:.55"><path class="c" d="m3096.6 2029.7c19.5 12.6 33.6 31.1 40.7 52.6-0.7-34.1-17.7-64.5-45.7-82.6-38.2-24.7-96.8-26.6-161.8 15.5l15.4 23.7c60.8-35.5 115.2-32.6 151.4-9.2z"/></g><path class="a" d="m3100.7 2525.7q-0.3 0-0.7 0c-8.9-0.3-15.9-7.9-15.6-16.8 8-217.4-58.8-392.7-193.2-507-141.6-120.4-350.4-163.8-572.8-119.1-155.4 31.3-308.3 103.7-442.2 209.5-39.8 31.4-78.2 66.1-114.2 103.1-6.3 6.4-16.5 6.5-23 0.3-6.4-6.3-6.5-16.6-0.3-23 36.9-38 76.4-73.6 117.3-105.9 137.9-109 295.6-183.6 456-215.8 232.2-46.7 451-0.8 600.3 126.1 142.2 121 213 305.3 204.6 533-0.3 8.7-7.5 15.6-16.2 15.6z"/><path class="b" d="m1772.3 1626.7c194.8-383.4 705.2-58.7 432.7 307.8"/><g style="opacity:.3"><path class="a" d="m2076.5 1843.1l128.5 91.4c100.6-135.4 94.5-265 36.9-355.4 5.7 103.3-47 211.9-165.4 264z"/></g><g style="opacity:.55"><path class="c" d="m1772.3 1626.6l23.4 16.7c137.6-238.1 406.3-166.8 480.3 16.2-51.4-215.3-361.5-312.6-503.7-32.9z"/></g><path class="b" d="m1200.9 1761.3c-325-201.2-683.9 257-247.4 490.4"/><g style="opacity:.55"><path class="c" d="m770.7 2071.3c-44.7-202.8 188.3-397.5 416.3-282.4l13.9-27.6c-252.3-156.2-525.1 85.1-430.2 310z"/></g><path class="c" d="m986.7 2520.4c118.7 370.9 454.8 420.3 813.4 305.6 358.5-114.7 603.5-350 484.9-721-118.7-370.9-505.5-578.6-864-463.9-358.5 114.7-553 508.4-434.3 879.3z"/><path fill-rule="evenodd" class="a" d="m1483.7 2883c-65.6 0-126.3-8.4-181-25.3-155.2-47.9-262.3-161.2-318.4-336.6-57.6-180-44-370.9 38.3-537.6 82.4-166.7 223.6-289.1 397.6-344.8 359.3-114.9 748.2 93.9 867.1 465.6 56.2 175.4 34.7 329.8-63.9 458.8-85.9 112.6-232 204.4-422.6 265.3-113.5 36.3-220.5 54.6-317.1 54.6zm-494.6-363.4c55.6 173.8 161.6 285.9 315.1 333.3 134.3 41.5 305.5 31.4 495.1-29.2 189.6-60.7 334.9-151.8 420.2-263.6 97.4-127.7 118.7-280.6 63.1-454.3-118.1-369-504.3-576.4-860.9-462.3-172.7 55.2-312.9 176.8-394.6 342.3-81.7 165.4-95.2 355-38 533.8z"/><g style="opacity:.3"><path class="a" d="m1096.4 2722.3c160.1 182.9 425.1 192.8 703.7 103.7 358.5-114.7 603.5-350 484.9-720.9-62-193.8-197.1-343-363.2-425 84.7 80.5 151.2 183.5 189.7 303.6 118.6 371-126.4 606.3-484.9 721-193.5 61.9-380.4 76-530.2 17.6z"/></g><path fill-rule="evenodd" class="a" d="m1483.6 2896.7c-66.9 0-129-8.6-185-25.9-159.7-49.3-269.8-165.5-327.4-345.5-58.7-183.4-44.8-378 39.1-547.8 84-170.1 228.1-295.1 405.7-351.9 366.5-117.2 763.2 95.6 884.4 474.5 57.6 179.9 35.4 338.5-66 471.4-87.7 114.8-236.2 208.2-429.4 270-114.8 36.8-223.3 55.2-321.4 55.2zm-481.4-381.3c54.1 169.3 157.1 278.4 306 324.4 131.7 40.7 300 30.5 486.9-29.2 186.9-59.8 329.8-149.3 413.4-258.8 94.6-124 115.1-272.6 61-441.8-115.8-361.8-494.2-565.2-843.6-453.4-169.1 54.1-306.4 173.1-386.4 335.2-80.2 162.3-93.4 348.3-37.3 523.6z"/><path class="a" d="m2205 1950.7c-3.4 0-6.8-1-9.7-3.2-7.2-5.3-8.7-15.5-3.4-22.7 107.4-144.4 76.8-259.1 49-314.6-42.3-84.6-129.2-139.4-221.3-139.7q-0.3 0-0.7 0c-96.1 0-178.5 58.1-232.1 163.5-4 8-13.8 11.2-21.8 7.1-8-4-11.2-13.8-7.2-21.8 58.6-115.2 153.7-181.3 261.1-181.3q0.4 0 0.8 0c104.3 0.4 202.5 62.2 250.2 157.6 53.1 105.9 34.1 232.9-51.9 348.6-3.2 4.3-8.1 6.5-13 6.5z"/><path class="a" d="m953.5 2267.9c-2.6 0-5.3-0.6-7.7-1.9-134.5-72-209.3-173.4-210.6-285.7-1.1-98.9 56-193 149-245.6 101.3-57.1 219.8-52.5 325.3 12.8 7.6 4.7 9.9 14.7 5.2 22.4-4.7 7.6-14.7 9.9-22.4 5.2-95-58.8-201.5-63.2-292.1-12.1-82.7 46.8-133.5 129.9-132.5 216.9 1.1 99.9 69.8 191.3 193.4 257.4 7.9 4.3 10.9 14.1 6.7 22-2.9 5.5-8.5 8.6-14.3 8.6z"/><path class="c" d="m1510.6 1668.2c-94-189.3-264.7-59-138.9 34.5"/><path class="a" d="m1370.2 1704.7c-36.1-26.8-51.9-59.6-43.4-90.1 6.9-24.9 29.7-42.8 58.1-45.5 47.4-4.4 95.3 32.1 127.9 98l-4.4 2.2c-31.8-63.9-77.7-99.5-123.1-95.2-26.2 2.5-47.3 18.9-53.7 41.9-7.9 28.3 7.2 59.2 41.6 84.7z"/><path class="c" d="m1345.3 1677.6c-120-56.6-158.9 95.6-14.2 80.2"/><path class="a" d="m1311.9 1761.4c-35.9 0-62.3-11.7-72.4-32.8-7.8-16.2-4.1-35.4 9.4-49 21.3-21.4 57.7-23 97.5-4.3l-2.2 4.6c-37.7-17.9-72-16.6-91.8 3.2-11.9 12.1-15.2 29.1-8.4 43.3 10.9 22.7 43.4 33.6 86.8 29l0.5 4.9q-10.1 1.1-19.4 1.1z"/><path class="c" d="m1289.6 1757.3c-93.4 67.2 7.7 145.2 49.8 49.9"/><path class="a" d="m1287 1854.1q-1.4 0-2.9-0.1c-16.1-1.2-29.4-11.9-33.8-27.3-6.6-23 7.6-49.7 37.8-71.5l2.9 4.1c-28.4 20.5-41.9 45.2-35.9 66 3.8 13.4 15.3 22.7 29.4 23.7 20.5 1.4 40.2-14.6 52.6-42.8l4.6 2c-12.8 29-33 45.9-54.7 45.9z"/><path class="a" d="m1371.7 1719c-3.4 0-6.8-1.1-9.7-3.3-40.3-29.9-58.4-69.1-48.5-104.8 8.5-30.5 36-52.2 70.1-55.5 53.3-5 106.2 34.4 141.6 105.5 4 8.1 0.7 17.8-7.4 21.8-8 4-17.8 0.7-21.7-7.3-29.1-58.6-70.1-91.3-109.5-87.6-20.5 1.9-36.9 14.4-41.8 31.9-6.3 22.5 7.1 48 36.6 70 7.2 5.3 8.7 15.5 3.3 22.7-3.2 4.3-8.1 6.6-13 6.6z"/><path class="a" d="m1311 1775.2c-57.6 0-77.7-27.7-83.9-40.7-10.3-21.5-5.6-46.8 12-64.6 25.6-25.7 67.9-28.3 113.1-7 8.1 3.8 11.6 13.5 7.8 21.6-3.8 8.1-13.5 11.6-21.6 7.8-38-17.9-64.3-11.5-76.2 0.5-7.9 8-10.2 18.6-5.8 27.7 6.4 13.3 28.9 25.9 73 21.2 8.9-0.9 16.9 5.5 17.8 14.4 1 9-5.5 17-14.4 17.9-7.8 0.8-15.1 1.2-21.8 1.2z"/><path class="a" d="m1287.1 1867.8q-2 0-3.9-0.1c-22-1.5-40.1-16.2-46.2-37.3-8.1-28.7 7.9-61 43.1-86.3 7.2-5.3 17.4-3.6 22.6 3.7 5.3 7.2 3.6 17.4-3.6 22.6-27.8 20-34.1 39.5-30.8 51.1 2.2 7.8 8.9 13.2 17.1 13.8 14.5 1 29.2-12 39.2-34.6 3.6-8.2 13.2-12 21.4-8.3 8.2 3.6 11.9 13.2 8.3 21.4-15.1 34.1-40 54-67.2 54z"/><path class="a" d="m1488.2 2363.5c10.6 33.2 58 67.6 98.7 54.6 40.6-13 59.2-68.6 48.6-101.8-10.6-33.1-46.4-31.5-87.1-18.5-40.7 13-70.8 32.5-60.2 65.7z"/><path class="a" d="m1750.4 2582.6c-7.1 28.1-36.8 52.4-76.3 67.4-32.8 12.5-64.7 15.5-88.3 6.9-15.4-5.6-27.2-16.2-33.3-32.4-15.6-41 15.6-90.9 69.7-111.3 54.1-20.5 110.5-3.9 126 37.2 4.2 11 4.7 21.8 2.2 32.2z"/><path class="d" d="m1750.4 2582.6c-7.1 28.1-36.8 52.4-76.3 67.4-32.8 12.5-64.7 15.5-88.3 6.9 6.3-30.9 33.4-60.9 72.3-75.7 33.2-12.6 67.3-11.1 92.3 1.4z"/><path class="a" d="m1595.4 2390.6l10.2 70.2c0.4 2.7-1.5 5.1-4.2 5.5-2.1 0.3-4.1-0.8-5-2.6l-32.5-63.1c-4.2-8.2-1-18.3 7.3-22.5 8.2-4.3 18.3-1 22.5 7.2 0.9 1.7 1.4 3.5 1.7 5.3z"/><path class="b" d="m1606.7 2178.8c82.5 32.7 146.1 101.7 195.4 198.1 13.8 27 43.1 42.3 73.3 39 151.7-16.8 212.4-206.2 87.2-356.4-163.6-193.9-391.1-93.9-401.1 47.1-2.2 31.2 16.1 60.7 45.2 72.2z"/><path class="b" d="m1447.8 2237.6c-48.3 74.6-60 167.7-44.2 274.8 4.4 30-10.5 59.5-37 74.3-133.3 74.4-292.7-44.6-277.9-239.6 20.6-252.8 263.9-303.4 354-194.5 19.9 24.2 22 58.8 5.1 85z"/><path class="a" d="m1788 2256.9c-19.5 0-40-7-58.3-24.5-6-5.7-6.3-15.2-0.6-21.2 5.8-6 15.3-6.2 21.2-0.5 24.6 23.4 52.6 17.9 69.1 6 15.2-10.9 28.7-33.1 16.3-59.8-3.5-7.5-0.2-16.4 7.3-19.9 7.5-3.5 16.4-0.2 19.9 7.3 18.8 40.5 0.5 77.8-26 96.8-13.5 9.7-30.7 15.8-48.9 15.8z"/><path class="a" d="m1283.1 2427.2c-27.3 0-53-12.3-69.2-34.7-4.8-6.7-3.3-16.1 3.4-21 6.7-4.8 16.1-3.3 20.9 3.4 17.1 23.6 46.4 26 67.9 18 19.6-7.3 39.7-25.7 37.1-55.5-0.7-8.3 5.4-15.5 13.7-16.2 8.2-0.8 15.5 5.4 16.2 13.6 3.3 38.4-18.9 72.2-56.6 86.3-11.1 4.1-22.4 6.1-33.4 6.1z"/><path fill-rule="evenodd" class="a" d="m1616.2 2678.1q-10.5 0-20.2-1.7c-28.5-5-49.4-21.4-58.7-46.1-9.4-24.7-5.8-52.3 10.2-77.8 15-24 39.5-43.4 68.9-54.5 29.5-11.2 60.7-12.9 87.9-4.9 28.8 8.5 49.8 26.8 59.1 51.5 9.4 24.8 4.6 50.8-13.4 73.5-15.4 19.3-39.7 35.6-70.2 47.1-22.4 8.5-44 12.9-63.6 12.9zm52.6-157.5c-13.4 0-27.3 2.6-40.8 7.7-22.9 8.7-41.7 23.4-53 41.5-10.4 16.6-13 34-7.3 49 5.3 14 16.7 22.6 33.9 25.6 18.4 3.2 42-0.2 66.7-9.6 24.7-9.3 44.7-22.5 56.3-37 10.9-13.7 13.7-27.7 8.4-41.6q0 0 0 0c-5.6-15-19.1-26.4-37.9-31.9-8.3-2.5-17.2-3.7-26.3-3.7z"/><path class="b" d="m2417.8 2626.3c65.8 147.2-11.9 231.8-233.1 253.9h-262.3c-385.2-12.9-243.6-331.5 403.3-307.7 39.1-3.8 76.1 18 92.1 53.8z"/><g style="opacity:.55"><path class="c" d="m2333 2575.3c0 18.2-14.9 32.8-33.1 32.5-385-6.5-579.3 111.3-578 203.4-62.8-92.7 125.1-244.8 556.3-239.9z"/></g><path class="b" d="m3104.9 2880.2h-71.3c0 0-225.5-181.6 0-370.7q2.9-2.4 5.6-4.8c385 10.2 536.1 375.5 65.7 375.5z"/><g style="opacity:.55"><path class="c" d="m3034.2 2509.7q-2.7 2.4-5.6 4.8c-6.2 5.2-12 10.3-17.5 15.5 274.7 8.2 429.5 197.2 322.7 303.9 152.3-101-5.3-316.4-299.6-324.2z"/></g><path class="a" d="m3104.9 2896.5h-1182.5q-0.3 0-0.5 0c-113.9-3.9-191.5-33.8-218.4-84.5-14.8-27.8-12.4-60 6.8-90.8 30.7-49 101.6-92.3 199.5-122 112.3-34 256.3-48.9 416.5-43 9 0.4 16 7.9 15.7 16.9-0.4 8.9-7.8 16-16.9 15.6-156.6-5.7-297 8.6-405.9 41.6-89.1 27-155.2 66.4-181.3 108.2-13.2 21-15.1 40.6-5.7 58.3 20.6 38.7 91.8 63.8 190.5 67.2h1182.2c135.5 0 232-32.5 264.7-89.1 17.7-30.5 15.6-67.8-5.8-104.8-42.9-74.4-165.1-149.5-341.3-149.5-9 0-16.2-7.2-16.2-16.2 0-9 7.2-16.2 16.2-16.2 189.1-0.1 321.8 83.2 369.4 165.7 27.5 47.5 29.5 96.3 5.8 137.3-39.1 67.9-143.2 105.3-292.8 105.3z"/><path class="a" d="m3055.9 2226c-5.3 0-10.5-2.6-13.6-7.4-4.9-7.5-2.7-17.6 4.8-22.5 78.8-51.1 86.7-117.7 60.5-158-13.8-21.4-36.6-35.2-63.9-38.8-32.3-4.3-68.7 6-105.1 29.5-7.5 4.9-17.5 2.8-22.4-4.8-4.9-7.5-2.8-17.6 4.8-22.4 93.2-60.5 178.2-36.3 213.9 18.8 19.2 29.6 23.8 65.5 13.2 101.2-11.6 38.8-40.4 74-83.3 101.8-2.8 1.8-5.8 2.6-8.9 2.6z"/><g style="opacity:.3"><path class="a" d="m2942 2493.7c-24.7-1.8-40.2-27.6-29.9-50 127.7-277.9-84.3-501.1-84.3-501.1l8.2-0.8c166.8 103 274.8 292.3 264.7 567.7 25 3.3 48.8 8.1 71.2 14.3-68.1-16.4-168.5-25.6-229.9-30.1z"/></g><g style="opacity:.3"><path class="a" d="m3104.9 2880.2h-28.1c224.3-25.1 222.3-299 148.9-338.1-0.2-0.1-0.3-0.2-0.5-0.3 233.5 95 263.7 338.4-120.3 338.4z"/></g><g style="opacity:.3"><path class="a" d="m3075.6 2880.2h-1153.2c-10.4-0.3-20.4-0.9-30-1.7h-0.1c0 0 123.3-189.8 595.5-89.1 0 0 233 29.1 318-17 80.3-43.4 110 99.6 269.8 107.8z"/></g><path class="e" d="m3128.2 2879.9c-7.6 0.2-15.4 0.3-23.3 0.3 8.9-0.4 16.6-0.5 23.3-0.3z"/><path class="a" d="m3104.9 2882.7l-0.2-5c8.7-0.4 16.7-0.5 23.6-0.3v5c-7.2 0.2-14.8 0.3-23.4 0.3z"/><g style="opacity:.3"><path class="a" d="m3055.9 2209.8l-59.5-91.8-7.1-33.1c50.8 37.5 116.9-34.2 102.3-85.2 62.4 40.3 70.5 141.3-35.7 210.1z"/></g><path class="c" d="m1415.2 1342c-0.1-0.3 0.3-1.5 0.2-1.8 3.3-9.8 6-15.8 9.4-25 2.8-7.4 4.5-16.1 7.5-23.6 0.9-1.8 5.7-12.5 7.2-15.4 5.5-10.4 10.3-21.4 16.3-31.6 0.3-0.1 0.4-1.2 0.3-1.5 0 0-0.3-0.5-0.6-0.5-0.3 0.1-1.7 0-2.1-0.2-15 3.1-30.9 5-46.3 6.4-1.7 0-8.8 0.9-9.4-2.7l-8-38.3c-1.1-5.3 6.2-6.2 9.2-7l100.2-19.7c6.6 0.1 7 3.8 10.3 8.1 0.1 0.3 2 1.7 2.1 2.2 4.5 7.4 4.9 16.6 6.2 24.4 0.7 4-1.2 6.3-3 9.8-4.6 12-8 21-14 33.3-12.4 18.3-18.2 40.4-27.9 60 0 0 0 0.2 0.1 0.5 0.2 1.4 2 1.4 2.9 1.6 1.4-0.3 7-1.2 8.4-1.5 5.2-0.9 10.3-2.3 15.3-3.8q3.9-1.2 7.7-2.3c1.3-0.4 2.6-0.9 3.9-1.1 0.9-0.1 2.1 0 3 0 2.7 0.2 5.4 1 7.7 2.4 1.8 1.1 3.4 2.6 4.7 4.3 0.7 0.9 1.4 1.8 1.8 2.8 0.2 0.8 0.3 1.6 0.5 2.4q1.3 5.4 2.6 10.7c1.5 6.1 3.5 12.3 4.5 18.5 0.7 4.4 0.8 9-3.3 11.9-3.8 2.6-9 2.4-13.4 2.9-5.3 0.5-10.5 0.9-15.7 1.8-2 0.3-8.2 1.4-8.7 1.5-2.3 0.4-4.5 1-6.6 1.5q-16.1 3.9-32.2 7.7-7.3 1.7-14.7 3.5-2.3 0.5-4.6 1.1c-3.3 0.8-7.4-0.8-10.1-2.6-5.4-3.3-6-8.9-7-14.6 0-0.3-1.6-9.6-2.2-12.9-0.3-2-1.9-11-2.2-13.2z"/><path class="c" d="m1615.9 1136.9c0.1-0.2 0.7-0.9 0.7-1.1 5.3-5.5 9-8.6 14.1-13.7 4.2-4 8-9.2 12.4-13.2 1.2-1 7.7-6.5 9.7-7.9 6.9-5.2 13.5-11 20.7-15.9 0.2 0.1 0.7-0.7 0.7-0.9 0 0-0.1-0.4-0.3-0.5-0.2-0.1-1.1-0.5-1.3-0.8-11-2.7-22.1-6.4-32.7-10.3-1.2-0.6-6.1-2.2-5.4-4.8l6.8-27.9c0.8-3.8 6-2.2 8.3-1.7l72.6 18.5c4.4 2.1 3.4 4.6 4.3 8.6-0.1 0.2 0.8 1.7 0.7 2.1 0.6 6.3-2 12.5-3.6 18.1-0.8 2.8-2.8 3.8-5 5.6-6.9 6.5-11.9 11.4-19.8 17.6-14 8.3-24.8 21.1-37.4 31 0 0-0.1 0.2-0.1 0.4-0.3 1 0.8 1.6 1.4 1.9 1 0.3 5 1.4 6 1.7 3.8 1.1 7.6 1.7 11.4 2.3q2.9 0.5 5.8 0.9c1 0.2 2 0.2 3 0.5 0.6 0.2 1.3 0.6 2 1 1.7 0.9 3.2 2.3 4.3 3.9 0.9 1.4 1.5 2.9 1.8 4.4 0.1 0.8 0.3 1.6 0.2 2.4 0 0.6-0.2 1.2-0.4 1.8q-0.8 4-1.6 7.9c-0.9 4.5-1.5 9.2-2.8 13.7-1 3.1-2.3 6.2-6 6.8-3.3 0.6-6.7-1.2-9.8-2.3-3.6-1.3-7.2-2.7-11-3.7-1.4-0.4-5.8-1.7-6.2-1.8-1.6-0.4-3.3-0.7-4.9-1q-11.8-2.6-23.7-5.1-5.4-1.1-10.8-2.3-1.8-0.4-3.5-0.7c-2.4-0.5-4.6-2.8-5.9-4.9-2.4-3.9-1.1-7.8 0-11.9 0.1-0.2 2-6.8 2.6-9.3 0.4-1.4 2.3-7.8 2.7-9.4z"/><path class="c" d="m1491.6 1020.6c-0.1-0.2 0-1 0-1.1 1-6.2 2-10.1 3.1-16 1-4.7 1.2-10.1 2.3-14.9 0.3-1.2 2.2-8.1 2.8-9.9 2.3-6.9 4.1-13.9 6.7-20.7 0.2 0 0.1-0.8 0.1-0.9 0 0-0.3-0.3-0.5-0.2-0.1 0-1 0.1-1.2 0-8.8 3.4-18.2 6.1-27.3 8.4-1 0.2-5.2 1.4-5.9-0.7l-8.5-22.2c-1.3-3.1 3.1-4.4 4.8-5.2l58.3-21.6c4-0.6 4.6 1.6 7 3.9 0.1 0.1 1.4 0.8 1.5 1.1 3.4 4 4.5 9.5 6.1 14.1 0.8 2.3-0.1 3.9-0.8 6.1-1.6 7.7-2.8 13.4-5.2 21.4-5.7 12.3-7 26.1-10.9 38.8 0 0 0.1 0.2 0.1 0.4 0.3 0.8 1.3 0.6 1.9 0.6 0.8-0.3 4.1-1.4 4.9-1.7 3.1-1 6-2.4 8.9-3.8q2.2-1.1 4.4-2.1c0.7-0.4 1.4-0.8 2.2-1.1 0.6-0.1 1.2-0.2 1.8-0.2 1.7-0.2 3.3 0 4.8 0.6 1.3 0.5 2.4 1.2 3.4 2.2 0.4 0.4 0.9 0.9 1.3 1.5 0.2 0.4 0.3 0.9 0.5 1.4q1.3 3.1 2.6 6.2c1.5 3.5 3.3 7 4.5 10.6 0.9 2.6 1.4 5.4-0.8 7.5-2 2-5.2 2.4-7.8 3.1-3.1 0.8-6.2 1.6-9.2 2.6-1.2 0.4-4.8 1.6-5.1 1.7-1.3 0.5-2.6 1.1-3.8 1.6q-9.3 3.9-18.6 7.8-4.3 1.8-8.5 3.5-1.4 0.6-2.7 1.1c-1.9 0.9-4.5 0.3-6.4-0.5-3.5-1.5-4.4-4.8-5.6-8.1 0-0.2-1.9-5.6-2.6-7.6-0.4-1.1-2.2-6.4-2.6-7.7z"/></svg>