<?xml version="1.0" encoding="UTF-8" standalone="no"?>
<!-- Generator: Adobe Illustrator 27.5.0, SVG Export Plug-In . SVG Version: 6.00 Build 0)  -->

<svg
   version="1.1"
   x="0px"
   y="0px"
   viewBox="0 0 500 500"
   xml:space="preserve"
   id="svg242"
   width="250"
   height="250"
   xmlns:xlink="http://www.w3.org/1999/xlink"
   xmlns="http://www.w3.org/2000/svg"
   xmlns:svg="http://www.w3.org/2000/svg"><defs
   id="defs242" />

<g
   id="OBJECTS">
	<g
   style="display:none;opacity:1"
   id="g25">
		<g
   style="display:inline"
   id="g12">
			<line
   style="fill:none;stroke:#ff5c5c;stroke-miterlimit:10"
   x1="39.110001"
   y1="0"
   x2="39.110001"
   y2="500"
   id="line1" />
			<line
   style="fill:none;stroke:#ff5c5c;stroke-miterlimit:10"
   x1="77.453003"
   y1="0"
   x2="77.453003"
   y2="500"
   id="line2" />
			<line
   style="fill:none;stroke:#ff5c5c;stroke-miterlimit:10"
   x1="115.797"
   y1="0"
   x2="115.797"
   y2="500"
   id="line3" />
			<line
   style="fill:none;stroke:#ff5c5c;stroke-miterlimit:10"
   x1="154.14101"
   y1="0"
   x2="154.14101"
   y2="500"
   id="line4" />
			<line
   style="fill:none;stroke:#ff5c5c;stroke-miterlimit:10"
   x1="192.48399"
   y1="0"
   x2="192.48399"
   y2="500"
   id="line5" />
			<line
   style="fill:none;stroke:#ff5c5c;stroke-miterlimit:10"
   x1="230.828"
   y1="0"
   x2="230.828"
   y2="500"
   id="line6" />
			<line
   style="fill:none;stroke:#ff5c5c;stroke-miterlimit:10"
   x1="269.172"
   y1="0"
   x2="269.172"
   y2="500"
   id="line7" />
			<line
   style="fill:none;stroke:#ff5c5c;stroke-miterlimit:10"
   x1="307.51599"
   y1="0"
   x2="307.51599"
   y2="500"
   id="line8" />
			<line
   style="fill:none;stroke:#ff5c5c;stroke-miterlimit:10"
   x1="345.85901"
   y1="0"
   x2="345.85901"
   y2="500"
   id="line9" />
			<line
   style="fill:none;stroke:#ff5c5c;stroke-miterlimit:10"
   x1="384.203"
   y1="0"
   x2="384.203"
   y2="500"
   id="line10" />
			<line
   style="fill:none;stroke:#ff5c5c;stroke-miterlimit:10"
   x1="422.547"
   y1="0"
   x2="422.547"
   y2="500"
   id="line11" />
			<line
   style="fill:none;stroke:#ff5c5c;stroke-miterlimit:10"
   x1="460.89001"
   y1="0"
   x2="460.89001"
   y2="500"
   id="line12" />
		</g>
		<g
   style="display:inline"
   id="g24">
			<line
   style="fill:none;stroke:#ff5c5c;stroke-miterlimit:10"
   x1="500"
   y1="39.110001"
   x2="0"
   y2="39.110001"
   id="line13" />
			<line
   style="fill:none;stroke:#ff5c5c;stroke-miterlimit:10"
   x1="500"
   y1="77.453003"
   x2="0"
   y2="77.453003"
   id="line14" />
			<line
   style="fill:none;stroke:#ff5c5c;stroke-miterlimit:10"
   x1="500"
   y1="115.797"
   x2="0"
   y2="115.797"
   id="line15" />
			<line
   style="fill:none;stroke:#ff5c5c;stroke-miterlimit:10"
   x1="500"
   y1="154.14101"
   x2="0"
   y2="154.14101"
   id="line16" />
			<line
   style="fill:none;stroke:#ff5c5c;stroke-miterlimit:10"
   x1="500"
   y1="192.48399"
   x2="0"
   y2="192.48399"
   id="line17" />
			<line
   style="fill:none;stroke:#ff5c5c;stroke-miterlimit:10"
   x1="500"
   y1="230.828"
   x2="0"
   y2="230.828"
   id="line18" />
			<line
   style="fill:none;stroke:#ff5c5c;stroke-miterlimit:10"
   x1="500"
   y1="269.172"
   x2="0"
   y2="269.172"
   id="line19" />
			<line
   style="fill:none;stroke:#ff5c5c;stroke-miterlimit:10"
   x1="500"
   y1="307.51599"
   x2="0"
   y2="307.51599"
   id="line20" />
			<line
   style="fill:none;stroke:#ff5c5c;stroke-miterlimit:10"
   x1="500"
   y1="345.85901"
   x2="0"
   y2="345.85901"
   id="line21" />
			<line
   style="fill:none;stroke:#ff5c5c;stroke-miterlimit:10"
   x1="500"
   y1="384.203"
   x2="0"
   y2="384.203"
   id="line22" />
			<line
   style="fill:none;stroke:#ff5c5c;stroke-miterlimit:10"
   x1="500"
   y1="422.547"
   x2="0"
   y2="422.547"
   id="line23" />
			<line
   style="fill:none;stroke:#ff5c5c;stroke-miterlimit:10"
   x1="500"
   y1="460.89001"
   x2="0"
   y2="460.89001"
   id="line24" />
		</g>
	</g>
	<g
   id="g242">
		<g
   id="g93">
			<defs
   id="defs25"><path
     id="SVGID_1_"
     d="M 334,133.067 346.447,100.399 312.291,87.386 C 294.847,64.974 269.228,48.835 238.984,43.923 175.411,33.597 115.504,76.762 105.178,140.335 c -10.326,63.573 32.839,123.48 96.412,133.806 63.573,10.326 123.48,-32.839 133.806,-96.412 2.487,-15.315 1.863,-30.415 -1.396,-44.662 z" /></defs>
			<clipPath
   id="SVGID_00000129196737205802910890000017688502266202416035_">
				<use
   xlink:href="#SVGID_1_"
   style="overflow:visible"
   id="use25" />
			</clipPath>
			
				<circle
   style="fill:#f5c365"
   cx="220.287"
   cy="159.03101"
   r="116.617"
   clip-path="url(#SVGID_00000129196737205802910890000017688502266202416035_)"
   id="circle25" />
			<g
   clip-path="url(#SVGID_00000129196737205802910890000017688502266202416035_)"
   id="g37">
				<g
   id="g36">
					
						<rect
   x="191.696"
   y="73.584999"
   transform="matrix(0.9345,0.356,-0.356,0.9345,73.4328,-80.6907)"
   style="fill:#ede5da"
   width="128.464"
   height="171.12801"
   id="rect25" />
					<g
   id="g35">
						<g
   id="g26">
							
								<path
   style="fill:none;stroke:#c9a362;stroke-width:1.7107;stroke-linecap:round;stroke-linejoin:round;stroke-miterlimit:10"
   d="m 233.341,84.42 c 4.921,1.875 4.954,1.79 9.875,3.665 4.923,1.876 4.823,2.138 9.746,4.014 4.922,1.875 5.04,1.565 9.961,3.44 4.925,1.876 4.756,2.32 9.681,4.196 4.925,1.876 5.092,1.439 10.017,3.315"
   id="path25" />
						</g>
						<g
   id="g27">
							
								<path
   style="fill:none;stroke:#c9a362;stroke-width:1.7107;stroke-linecap:round;stroke-linejoin:round;stroke-miterlimit:10"
   d="m 228.338,97.552 c 4.82,1.836 4.896,1.636 9.716,3.472 4.82,1.836 4.66,2.256 9.481,4.092 4.82,1.837 4.683,2.196 9.503,4.033 4.819,1.836 4.839,1.783 9.658,3.619 4.82,1.836 4.852,1.753 9.672,3.59 4.822,1.837 4.91,1.604 9.732,3.441 4.82,1.836 4.891,1.651 9.711,3.487 4.823,1.838 4.646,2.304 9.469,4.142 4.823,1.838 4.921,1.581 9.745,3.418"
   id="path26" />
						</g>
						<g
   id="g28">
							
								<path
   style="fill:none;stroke:#c9a362;stroke-width:1.7107;stroke-linecap:round;stroke-linejoin:round;stroke-miterlimit:10"
   d="m 223.215,110.997 c 4.82,1.836 4.78,1.941 9.599,3.777 4.82,1.836 4.766,1.979 9.586,3.815 4.82,1.837 4.941,1.521 9.761,3.357 4.819,1.836 4.763,1.981 9.582,3.817 4.82,1.836 4.68,2.204 9.5,4.04 4.822,1.837 4.867,1.717 9.689,3.555 4.82,1.836 4.946,1.507 9.766,3.344 4.823,1.838 4.914,1.6 9.737,3.438 4.823,1.838 4.672,2.235 9.495,4.073"
   id="path27" />
						</g>
						<g
   id="g29">
							
								<path
   style="fill:none;stroke:#c9a362;stroke-width:1.7107;stroke-linecap:round;stroke-linejoin:round;stroke-miterlimit:10"
   d="m 218.103,124.413 c 4.82,1.836 4.899,1.628 9.719,3.465 4.82,1.836 4.864,1.721 9.684,3.558 4.82,1.837 4.83,1.812 9.65,3.648 4.819,1.836 4.651,2.275 9.47,4.111 4.82,1.836 4.838,1.79 9.658,3.627 4.822,1.837 4.807,1.877 9.628,3.714 4.82,1.836 4.866,1.716 9.686,3.553 4.823,1.838 4.935,1.545 9.759,3.382 4.824,1.837 4.604,2.413 9.428,4.25"
   id="path28" />
						</g>
						<g
   id="g30">
							
								<path
   style="fill:none;stroke:#c9a362;stroke-width:1.7107;stroke-linecap:round;stroke-linejoin:round;stroke-miterlimit:10"
   d="m 213.04,137.702 c 4.82,1.836 4.876,1.687 9.696,3.524 4.82,1.836 4.856,1.743 9.676,3.579 4.82,1.837 4.809,1.867 9.629,3.704 4.819,1.836 4.862,1.721 9.681,3.557 4.82,1.836 4.726,2.082 9.546,3.918 4.822,1.837 4.939,1.528 9.761,3.365 4.82,1.836 4.78,1.942 9.6,3.779 4.823,1.838 4.717,2.118 9.54,3.955 4.823,1.838 4.785,1.938 9.609,3.776"
   id="path29" />
						</g>
						<g
   id="g31">
							
								<path
   style="fill:none;stroke:#c9a362;stroke-width:1.7107;stroke-linecap:round;stroke-linejoin:round;stroke-miterlimit:10"
   d="m 207.929,151.117 c 4.82,1.836 4.932,1.541 9.752,3.377 4.82,1.836 4.868,1.71 9.689,3.546 4.82,1.837 4.695,2.164 9.516,4.001 4.819,1.836 4.821,1.831 9.64,3.666 4.82,1.836 4.765,1.982 9.585,3.818 4.822,1.837 4.751,2.023 9.572,3.86 4.82,1.836 4.899,1.63 9.719,3.467 4.823,1.838 4.816,1.857 9.64,3.694 4.823,1.838 4.888,1.668 9.711,3.506"
   id="path30" />
						</g>
						<g
   id="g32">
							
								<path
   style="fill:none;stroke:#c9a362;stroke-width:1.7107;stroke-linecap:round;stroke-linejoin:round;stroke-miterlimit:10"
   d="m 202.808,164.559 c 4.82,1.836 4.818,1.842 9.637,3.678 4.82,1.836 4.798,1.895 9.618,3.731 4.82,1.837 5.039,1.263 9.859,3.099 4.819,1.836 4.691,2.172 9.509,4.008 4.82,1.836 4.711,2.122 9.531,3.959 4.822,1.837 4.98,1.422 9.802,3.259 4.82,1.836 4.756,2.006 9.576,3.842 4.823,1.838 4.97,1.453 9.794,3.29 4.823,1.838 4.651,2.29 9.475,4.127"
   id="path31" />
						</g>
						<g
   id="g33">
							
								<path
   style="fill:none;stroke:#c9a362;stroke-width:1.7107;stroke-linecap:round;stroke-linejoin:round;stroke-miterlimit:10"
   d="m 197.81,177.676 c 4.82,1.836 4.881,1.675 9.701,3.512 4.82,1.836 4.767,1.977 9.587,3.813 4.82,1.837 4.834,1.801 9.654,3.638 4.819,1.836 4.919,1.572 9.738,3.408 4.82,1.836 4.732,2.068 9.552,3.904 4.822,1.837 4.727,2.086 9.548,3.923 4.82,1.836 4.881,1.676 9.701,3.513 4.823,1.838 4.856,1.753 9.679,3.591 4.823,1.838 4.943,1.523 9.767,3.361"
   id="path32" />
						</g>
						<g
   id="g34">
							
								<path
   style="fill:none;stroke:#c9a362;stroke-width:1.7107;stroke-linecap:round;stroke-linejoin:round;stroke-miterlimit:10"
   d="m 192.823,190.766 c 4.82,1.836 4.698,2.157 9.517,3.993 4.82,1.836 4.971,1.441 9.791,3.278 4.82,1.837 4.719,2.102 9.539,3.938 4.819,1.836 4.867,1.711 9.685,3.546 4.82,1.836 4.638,2.314 9.458,4.151 4.822,1.837 4.954,1.49 9.775,3.327 4.82,1.836 4.822,1.83 9.643,3.667 4.823,1.838 4.851,1.765 9.675,3.602 4.823,1.838 4.869,1.717 9.693,3.555"
   id="path33" />
						</g>
					</g>
				</g>
				<polygon
   style="fill:#c9a362"
   points="251.444,262.613 165.473,214.576 207.044,105.465 "
   id="polygon36" />
			</g>
			<g
   clip-path="url(#SVGID_00000129196737205802910890000017688502266202416035_)"
   id="g48">
				
					<rect
   x="76.168999"
   y="130.062"
   transform="matrix(0.9472,-0.3205,0.3205,0.9472,-67.5462,62.4766)"
   style="fill:#ffffff"
   width="159.694"
   height="212.73"
   id="rect37" />
				<g
   id="g47">
					<g
   id="g38">
						
							<path
   style="fill:none;stroke:#c9a362;stroke-width:2.1266;stroke-linecap:round;stroke-linejoin:round;stroke-miterlimit:10"
   d="m 76.498,184.296 c 6.202,-2.098 6.165,-2.205 12.367,-4.304 6.204,-2.099 6.315,-1.769 12.519,-3.868 6.202,-2.098 6.069,-2.49 12.271,-4.588 6.206,-2.1 6.395,-1.541 12.601,-3.641 6.206,-2.1 6.019,-2.651 12.225,-4.751"
   id="path37" />
					</g>
					<g
   id="g39">
						
							<path
   style="fill:none;stroke:#c9a362;stroke-width:2.1266;stroke-linecap:round;stroke-linejoin:round;stroke-miterlimit:10"
   d="m 82.097,200.843 c 6.073,-2.055 5.988,-2.308 12.061,-4.363 6.074,-2.055 6.253,-1.527 12.327,-3.582 6.074,-2.055 6.228,-1.602 12.302,-3.657 6.072,-2.055 6.05,-2.121 12.122,-4.176 6.074,-2.055 6.038,-2.16 12.112,-4.215 6.076,-2.056 5.976,-2.349 12.052,-4.405 6.074,-2.055 5.995,-2.289 12.069,-4.344 6.078,-2.057 6.277,-1.469 12.355,-3.525 6.078,-2.056 5.968,-2.38 12.046,-4.437"
   id="path38" />
					</g>
					<g
   id="g40">
						
							<path
   style="fill:none;stroke:#c9a362;stroke-width:2.1266;stroke-linecap:round;stroke-linejoin:round;stroke-miterlimit:10"
   d="m 87.829,217.786 c 6.073,-2.055 6.118,-1.923 12.191,-3.978 6.074,-2.055 6.135,-1.876 12.208,-3.931 6.074,-2.055 5.939,-2.453 12.013,-4.508 6.072,-2.055 6.134,-1.871 12.206,-3.926 6.074,-2.055 6.23,-1.592 12.304,-3.647 6.076,-2.056 6.025,-2.206 12.1,-4.262 6.074,-2.055 5.933,-2.47 12.007,-4.525 6.078,-2.057 5.977,-2.356 12.055,-4.413 6.078,-2.057 6.247,-1.556 12.325,-3.612"
   id="path39" />
					</g>
					<g
   id="g41">
						
							<path
   style="fill:none;stroke:#c9a362;stroke-width:2.1266;stroke-linecap:round;stroke-linejoin:round;stroke-miterlimit:10"
   d="m 93.549,234.691 c 6.073,-2.055 5.985,-2.317 12.058,-4.372 6.074,-2.055 6.025,-2.2 12.099,-4.256 6.074,-2.055 6.063,-2.086 12.137,-4.142 6.072,-2.055 6.259,-1.501 12.331,-3.556 6.074,-2.055 6.054,-2.113 12.128,-4.168 6.076,-2.056 6.093,-2.006 12.168,-4.062 6.074,-2.055 6.023,-2.207 12.096,-4.262 6.078,-2.057 5.953,-2.426 12.031,-4.483 6.078,-2.057 6.323,-1.332 12.401,-3.389"
   id="path40" />
					</g>
					<g
   id="g42">
						
							<path
   style="fill:none;stroke:#c9a362;stroke-width:2.1266;stroke-linecap:round;stroke-linejoin:round;stroke-miterlimit:10"
   d="m 99.215,251.436 c 6.073,-2.055 6.01,-2.243 12.083,-4.298 6.074,-2.055 6.034,-2.173 12.108,-4.229 6.074,-2.055 6.087,-2.017 12.161,-4.072 6.072,-2.055 6.023,-2.199 12.095,-4.254 6.074,-2.055 6.178,-1.746 12.252,-3.801 6.076,-2.056 5.944,-2.445 12.02,-4.501 6.074,-2.055 6.119,-1.922 12.193,-3.977 6.078,-2.057 6.197,-1.704 12.275,-3.76 6.078,-2.056 6.121,-1.93 12.199,-3.986"
   id="path41" />
					</g>
					<g
   id="g43">
						
							<path
   style="fill:none;stroke:#c9a362;stroke-width:2.1266;stroke-linecap:round;stroke-linejoin:round;stroke-miterlimit:10"
   d="m 104.935,268.341 c 6.073,-2.055 5.947,-2.427 12.021,-4.482 6.074,-2.055 6.02,-2.215 12.094,-4.27 6.074,-2.055 6.214,-1.642 12.288,-3.698 6.072,-2.055 6.07,-2.061 12.142,-4.116 6.074,-2.055 6.136,-1.872 12.209,-3.927 6.076,-2.056 6.155,-1.821 12.231,-3.877 6.074,-2.055 5.986,-2.315 12.06,-4.37 6.078,-2.057 6.086,-2.033 12.164,-4.089 6.078,-2.057 6.006,-2.27 12.084,-4.327"
   id="path42" />
					</g>
					<g
   id="g44">
						
							<path
   style="fill:none;stroke:#c9a362;stroke-width:2.1266;stroke-linecap:round;stroke-linejoin:round;stroke-miterlimit:10"
   d="m 110.666,285.278 c 6.073,-2.055 6.076,-2.048 12.149,-4.103 6.074,-2.055 6.099,-1.982 12.173,-4.037 6.074,-2.055 5.829,-2.778 11.903,-4.833 6.072,-2.055 6.215,-1.631 12.288,-3.685 6.074,-2.055 6.195,-1.695 12.269,-3.75 6.076,-2.056 5.899,-2.579 11.974,-4.635 6.074,-2.055 6.146,-1.842 12.22,-3.897 6.078,-2.057 5.914,-2.542 11.992,-4.598 6.078,-2.056 6.271,-1.487 12.349,-3.544"
   id="path43" />
					</g>
					<g
   id="g45">
						
							<path
   style="fill:none;stroke:#c9a362;stroke-width:2.1266;stroke-linecap:round;stroke-linejoin:round;stroke-miterlimit:10"
   d="m 116.259,301.807 c 6.073,-2.055 6.005,-2.258 12.078,-4.313 6.074,-2.055 6.134,-1.878 12.208,-3.934 6.074,-2.055 6.059,-2.1 12.133,-4.155 6.072,-2.055 5.96,-2.387 12.032,-4.441 6.074,-2.055 6.172,-1.763 12.246,-3.818 6.076,-2.056 6.182,-1.742 12.258,-3.798 6.074,-2.055 6.006,-2.257 12.079,-4.312 6.078,-2.057 6.042,-2.163 12.12,-4.219 6.078,-2.057 5.944,-2.453 12.022,-4.509"
   id="path44" />
					</g>
					<g
   id="g46">
						
							<path
   style="fill:none;stroke:#c9a362;stroke-width:2.1266;stroke-linecap:round;stroke-linejoin:round;stroke-miterlimit:10"
   d="m 121.84,318.302 c 6.073,-2.055 6.21,-1.651 12.283,-3.706 6.074,-2.055 5.905,-2.553 11.979,-4.608 6.074,-2.055 6.187,-1.721 12.261,-3.776 6.072,-2.055 6.019,-2.213 12.091,-4.267 6.074,-2.055 6.277,-1.453 12.351,-3.508 6.076,-2.056 5.928,-2.493 12.004,-4.548 6.074,-2.055 6.071,-2.063 12.145,-4.118 6.078,-2.057 6.047,-2.149 12.125,-4.205 6.078,-2.057 6.027,-2.208 12.105,-4.265"
   id="path45" />
					</g>
				</g>
			</g>
			<polygon
   style="fill:#f2ede6"
   points="195.42,110.806 189.637,112.603 181.671,155.182 "
   clip-path="url(#SVGID_00000129196737205802910890000017688502266202416035_)"
   id="polygon48" />
			<path
   style="fill:#26314a"
   d="m 167.395,181.36 17.853,2.235 c 1.318,0.165 2.652,0.168 3.971,0.01 l 9.274,-1.115 c 3.478,-0.418 6.984,0.514 9.795,2.605 l 10.071,7.49 c 1.853,1.378 4.109,2.104 6.418,2.066 l 1.389,-0.023 -11.229,-33.186 z"
   clip-path="url(#SVGID_00000129196737205802910890000017688502266202416035_)"
   id="path48" />
			<g
   clip-path="url(#SVGID_00000129196737205802910890000017688502266202416035_)"
   id="g76">
				<path
   style="fill:#78423b"
   d="m 200.143,159.833 c 3.492,3.148 7.504,11.16 7.504,11.16 l 26.725,5.24 18.14,-9.581 1.781,-21.661 -10.819,-10.984 -19.913,-4.806 -17.373,14.902 z"
   id="path49" />
				<g
   id="g50">
					<path
   style="fill:#26314a"
   d="m 242.495,169.542 c -0.118,-0.023 -0.229,-0.083 -0.315,-0.179 -0.038,-0.042 -3.863,-4.238 -9.44,-5.196 -0.84,-0.176 -1.545,-0.727 -1.858,-1.522 -2.173,-5.525 -8.791,-7.173 -8.857,-7.189 -0.308,-0.074 -0.497,-0.383 -0.423,-0.69 0.073,-0.308 0.372,-0.527 0.69,-0.424 0.295,0.07 7.262,1.795 9.657,7.884 0.167,0.424 0.539,0.756 0.986,0.812 5.97,1.018 9.933,5.376 10.099,5.561 0.21,0.236 0.191,0.597 -0.044,0.808 -0.14,0.124 -0.323,0.169 -0.495,0.135 z"
   id="path50" />
				</g>
				<g
   id="g51">
					<path
   style="fill:#26314a"
   d="m 227.222,169.832 c -0.18,-0.035 -0.34,-0.156 -0.417,-0.338 -1.394,-3.28 -4.541,-7.691 -9.194,-10.234 -0.692,-0.378 -1.159,-1.04 -1.278,-1.816 -0.122,-0.785 0.126,-1.567 0.68,-2.146 1.282,-1.343 2.707,-3.244 4.442,-8.025 0.241,-0.665 0.735,-1.182 1.389,-1.453 0.659,-0.274 1.409,-0.256 2.057,0.047 8.635,4.031 19.374,3.204 19.483,3.195 0.312,-0.028 0.592,0.208 0.618,0.524 0.026,0.315 -0.208,0.592 -0.524,0.618 -0.452,0.038 -11.148,0.864 -20.062,-3.298 -0.359,-0.169 -0.773,-0.177 -1.134,-0.027 -0.354,0.147 -0.621,0.426 -0.75,0.785 -1.807,4.98 -3.322,6.993 -4.691,8.426 -0.306,0.32 -0.442,0.75 -0.376,1.179 0.066,0.421 0.319,0.78 0.696,0.987 6.181,3.378 8.987,9.114 9.7,10.792 0.123,0.291 -0.012,0.628 -0.304,0.751 -0.11,0.044 -0.226,0.054 -0.335,0.033 z"
   id="path51" />
				</g>
				<path
   style="fill:#5f7aba"
   d="m 369.691,139.488 c 0,0 -5.466,3.307 -11.597,-2.274 -6.131,-5.581 -9.807,-8.054 -15.07,-6.896 -5.263,1.158 -8.321,3.356 -12.919,3.354 -4.598,-0.001 -11.312,-3.726 -17.087,-4.421 -5.775,-0.695 -8.814,-1.947 -12.068,6.83 -3.254,8.777 -6.631,29.353 -10.555,39.313 -3.924,9.96 -9,15.752 1.885,19.419 10.885,3.667 22.313,3.061 27.886,7.22 5.573,4.158 5.66,12.803 14.672,14.701 9.462,1.992 12.92,-4.473 22.838,-0.339 9.918,4.134 11.945,7.199 11.945,7.199 z"
   id="path52" />
				<path
   style="fill:#f0887a"
   d="m 304.84,140.403 c -1.018,20.529 -7.708,34.868 -10.905,40.633 -0.959,1.729 -2.781,2.783 -4.758,2.749 -5.868,-0.101 -18.482,-0.125 -22.595,1.391 -5.428,2.001 -13.982,2.075 -19.592,0.537 -5.61,-1.538 -20.99,-1.269 -23.305,-0.628 -2.315,0.641 -7.252,-0.984 -11.94,-3.874 -3.588,-2.211 -8.78,-4.737 -11.852,-6.063 -1.264,-0.545 -1.858,-2.029 -1.275,-3.276 3.265,-6.989 12.076,-7.744 21.049,-2.026 8.322,-5.594 21.312,-2.609 21.312,-2.609 0,0 8.628,-13.854 8.694,-18.658 0.037,-2.663 -1.736,-5.361 -3.323,-7.237 -1.278,-1.51 -3.13,-2.396 -5.104,-2.519 -3.137,-0.195 -8.657,-1.006 -14.489,-4.048 -1.429,-0.745 -3.189,-0.284 -4.108,1.04 -2.286,3.294 -6.94,8.885 -13.183,10.682 0,0 -0.533,9.42 -4.748,14.724 -4.215,5.304 -10.586,3.179 -11.729,1.751 -1.143,-1.428 2.191,-5.592 2.191,-5.592 0,0 -0.095,-2.865 1.974,-7.276 2.069,-4.411 0.581,-7.987 2.95,-11.136 2.369,-3.149 10.783,-9.664 13.382,-13.424 2.598,-3.76 7.959,-8.995 12.644,-6.927 0,0 8.711,-6.728 12.358,-8.743 4.018,-2.22 6.024,-2.651 9.312,-2.115 3.288,0.536 13.415,6.122 17.946,6.463 4.531,0.341 13.268,6.806 18.053,10.942 4.718,4.078 9.213,5.664 18.116,10.198 1.877,0.957 3.029,2.937 2.925,5.041 z"
   id="path53" />
				<g
   id="g58">
					<path
   style="fill:#ede5da"
   d="m 180.219,179.52 -12.824,1.841 c -0.605,0.087 -0.927,-0.691 -0.437,-1.057 l 10.382,-7.749 c 0.84,-0.627 1.754,-1.146 2.722,-1.546 l 18.4,-7.604 3.176,7.685 -18.4,7.604 c -0.968,0.399 -1.982,0.677 -3.019,0.826 z"
   id="path54" />
					<path
   style="fill:#ede5da"
   d="m 265.43,135.731 -81.861,33.829 c -0.932,0.385 -0.977,2.418 -0.1,4.54 0.877,2.122 2.344,3.53 3.276,3.145 l 81.861,-33.829 z"
   id="path55" />
					<path
   style="fill:#ede5da"
   d="m 280.359,131.313 c -0.342,-0.827 -1.289,-1.22 -2.115,-0.878 l -19.765,8.168 c -0.932,0.385 -0.977,2.418 -0.1,4.54 0.877,2.122 2.344,3.53 3.276,3.145 l 19.765,-8.168 c 0.827,-0.342 1.22,-1.289 0.878,-2.115 z"
   id="path56" />
					<path
   style="fill:#f5c365"
   d="m 199.206,167.596 c -0.877,-2.122 -0.832,-4.155 0.1,-4.54 l -15.737,6.503 c -0.932,0.385 -0.977,2.418 -0.1,4.54 0.877,2.122 2.344,3.53 3.276,3.145 l 15.737,-6.503 c -0.933,0.385 -2.399,-1.023 -3.276,-3.145 z"
   id="path57" />
					<path
   style="fill:#f5c365"
   d="m 266.172,155.463 c 2.237,-1.35 4.435,-3.463 5.46,-6.348 0.376,-1.14 0.539,-2.303 0.542,-3.448 0.005,-1.626 1.066,-3.064 2.569,-3.685 l 0.656,-0.271 c 0.6,-0.248 0.739,-1.041 0.246,-1.464 -0.808,-0.693 -1.627,-1.873 -2.225,-3.32 -0.598,-1.447 -0.852,-2.861 -0.768,-3.922 0.051,-0.647 -0.607,-1.111 -1.207,-0.863 l -13.325,5.506 c -1.161,0.48 -1.217,3.011 -0.125,5.653 1.092,2.643 2.918,4.396 4.079,3.916 l 3.515,-1.453 c 0.864,-0.357 1.844,0.338 1.713,1.264 -0.031,0.22 -0.074,0.437 -0.129,0.65 -0.474,1.564 -1.677,3.001 -3.346,4.129 -1.664,1.133 -3.687,1.958 -5.777,2.611 -2.095,0.68 -4.301,1.081 -6.544,1.476 -4.647,0.76 -9.282,1.668 -13.845,3.012 -2.279,0.677 -4.542,1.457 -6.745,2.468 -2.189,1.013 -4.374,2.262 -6.14,4.234 -0.403,0.452 -0.388,1.148 0.048,1.578 0.45,0.444 1.175,0.44 1.619,-0.01 l 0.051,-0.051 c 1.427,-1.445 3.405,-2.513 5.472,-3.336 2.074,-0.832 4.257,-1.47 6.469,-2.011 4.432,-1.074 8.993,-1.741 13.563,-2.259 2.357,-0.296 4.764,-0.611 7.139,-1.252 2.375,-0.62 4.767,-1.429 7.035,-2.804 z"
   id="path58" />
				</g>
				<path
   style="fill:#f0887a"
   d="m 219.024,169.465 c 1.525,6.167 3.265,11.824 5.734,15.44 -0.472,0.055 -0.842,0.116 -1.074,0.18 -2.315,0.641 -7.252,-0.984 -11.94,-3.874 -3.584,-2.209 -8.77,-4.732 -11.843,-6.059 -1.268,-0.547 -1.866,-2.038 -1.28,-3.289 3.19,-6.814 11.659,-7.675 20.403,-2.398 z m -26.037,-6.492 c 1.143,1.428 7.514,3.553 11.729,-1.751 4.215,-5.304 4.748,-14.724 4.748,-14.724 0.067,-0.019 0.13,-0.045 0.197,-0.065 -4.562,-1.032 -8.229,-4.061 -10.318,-6.171 -1.27,2.831 -0.399,6.024 -2.191,9.843 -2.069,4.411 -1.974,7.276 -1.974,7.276 0,0 -3.334,4.164 -2.191,5.592 z"
   id="path59" />
				<g
   id="g60">
					<path
   style="fill:#78423b"
   d="m 253.495,125.891 c -0.07,-0.014 -0.14,-0.041 -0.204,-0.083 -0.024,-0.016 -2.482,-1.607 -5.585,-2.32 -1.266,-0.29 -4.386,-0.859 -7.687,-1.462 -5.256,-0.958 -11.218,-2.046 -12.813,-2.561 -0.301,-0.098 -0.466,-0.42 -0.368,-0.722 0.098,-0.301 0.429,-0.459 0.721,-0.369 1.524,0.494 7.701,1.621 12.666,2.525 3.462,0.631 6.448,1.178 7.738,1.473 3.309,0.76 5.849,2.408 5.955,2.478 0.265,0.173 0.339,0.528 0.165,0.792 -0.131,0.201 -0.366,0.293 -0.588,0.249 z"
   id="path60" />
				</g>
				<g
   id="g61">
					<path
   style="fill:#78423b"
   d="m 233.863,115.629 c -0.279,-0.055 -0.481,-0.311 -0.46,-0.602 0.022,-0.316 0.296,-0.554 0.612,-0.531 0.787,0.056 19.348,1.389 24.718,3.762 0.29,0.128 0.421,0.467 0.292,0.756 -0.126,0.289 -0.464,0.422 -0.755,0.293 -5.188,-2.296 -24.144,-3.654 -24.335,-3.667 -0.024,-0.003 -0.049,-0.007 -0.072,-0.011 z"
   id="path61" />
				</g>
				<g
   id="g62">
					<path
   style="fill:#78423b"
   d="m 240.855,112.183 c -0.264,-0.052 -0.462,-0.284 -0.462,-0.563 0,-0.316 0.257,-0.573 0.574,-0.572 0.414,0 10.197,0.019 15.264,0.727 0.324,0.036 0.532,0.334 0.488,0.646 -0.043,0.314 -0.333,0.532 -0.646,0.488 -4.988,-0.696 -15.006,-0.715 -15.107,-0.716 -0.038,0.001 -0.075,-0.003 -0.111,-0.01 z"
   id="path62" />
				</g>
				<path
   style="fill:#f2ede6"
   d="m 199.901,175.152 c 1.394,0.602 3.228,1.455 5.144,2.408 -0.346,-1.037 -0.167,-2.792 0.471,-4.186 0.345,-0.755 -0.043,-1.64 -0.838,-1.876 -2.282,-0.678 -5.143,-0.863 -5.899,0.074 -0.05,0.1 -0.111,0.188 -0.159,0.291 l -0.172,0.531 c -0.229,1.116 0.361,2.287 1.453,2.758 z"
   id="path63" />
				<path
   style="fill:#f2ede6"
   d="m 195.178,157.381 c 0.068,0.516 0.704,1.005 1.284,1.348 0.494,0.292 0.607,0.956 0.23,1.389 -0.812,0.934 -2.15,2.323 -3.282,2.796 -0.54,0.225 -1.084,-0.342 -0.884,-0.891 0.392,-1.075 1.203,-2.906 2.652,-4.642 z"
   id="path64" />
				<g
   id="g75">
					
						<path
   style="fill:none;stroke:#26314a;stroke-width:1.1459;stroke-linecap:round;stroke-linejoin:round;stroke-miterlimit:10"
   d="m 326.538,136.665 c 5.129,10.694 -0.815,46.031 -15.099,57.74"
   id="path65" />
					
						<path
   style="fill:none;stroke:#26314a;stroke-width:1.1459;stroke-linecap:round;stroke-linejoin:round;stroke-miterlimit:10"
   d="m 310.865,135.34 c 4.134,0.98 8.268,1.96 12.402,2.94"
   id="path66" />
					
						<path
   style="fill:none;stroke:#26314a;stroke-width:1.1459;stroke-linecap:round;stroke-linejoin:round;stroke-miterlimit:10"
   d="m 309.571,140.179 c 4.503,1.839 9.349,2.834 14.213,2.918"
   id="path67" />
					
						<path
   style="fill:none;stroke:#26314a;stroke-width:1.1459;stroke-linecap:round;stroke-linejoin:round;stroke-miterlimit:10"
   d="m 309.017,146.44 c 5.001,1.297 10.003,2.594 15.004,3.891"
   id="path68" />
					
						<path
   style="fill:none;stroke:#26314a;stroke-width:1.1459;stroke-linecap:round;stroke-linejoin:round;stroke-miterlimit:10"
   d="m 307.737,153.778 c 5.13,1.464 10.281,2.859 15.45,4.182"
   id="path69" />
					
						<path
   style="fill:none;stroke:#26314a;stroke-width:1.1459;stroke-linecap:round;stroke-linejoin:round;stroke-miterlimit:10"
   d="m 306.341,160.948 c 4.801,1.782 9.77,3.113 14.82,3.967"
   id="path70" />
					
						<path
   style="fill:none;stroke:#26314a;stroke-width:1.1459;stroke-linecap:round;stroke-linejoin:round;stroke-miterlimit:10"
   d="m 304.258,168.318 c 4.579,1.784 9.277,3.265 14.052,4.43"
   id="path71" />
					
						<path
   style="fill:none;stroke:#26314a;stroke-width:1.1459;stroke-linecap:round;stroke-linejoin:round;stroke-miterlimit:10"
   d="m 302.206,174.495 c 4.959,0.974 9.879,2.147 14.744,3.517"
   id="path72" />
					
						<path
   style="fill:none;stroke:#26314a;stroke-width:1.1459;stroke-linecap:round;stroke-linejoin:round;stroke-miterlimit:10"
   d="m 299.126,180.88 c 0.794,0.223 1.599,0.405 2.404,0.587 3.973,0.898 7.946,1.797 11.919,2.695"
   id="path73" />
					
						<path
   style="fill:none;stroke:#26314a;stroke-width:1.1459;stroke-linecap:round;stroke-linejoin:round;stroke-miterlimit:10"
   d="m 294.925,186.371 c 3.975,2.111 8.514,2.847 12.96,3.552"
   id="path74" />
					
						<path
   style="fill:none;stroke:#26314a;stroke-width:1.1459;stroke-linecap:round;stroke-linejoin:round;stroke-miterlimit:10"
   d="m 292.027,190.326 c 1.424,1.572 3.362,2.607 5.381,3.26 2.018,0.653 4.132,0.949 6.233,1.243"
   id="path75" />
				</g>
			</g>
			<g
   clip-path="url(#SVGID_00000129196737205802910890000017688502266202416035_)"
   id="g83">
				<path
   style="fill:#97b8aa"
   d="m 181.671,155.182 -21.191,-5.376 -24.71,-13.965 c -3.098,-1.751 -4.641,-5.359 -3.766,-8.809 l 9.092,-35.842 53.373,13.54 z"
   id="path76" />
				<g
   id="g82">
					<g
   id="g77">
						<path
   style="fill:none;stroke:#ffffff;stroke-width:1.1459;stroke-miterlimit:10"
   d="m 147.023,102.346 c 5.897,1.496 5.962,1.238 11.859,2.734 5.897,1.496 5.872,1.592 11.769,3.088"
   id="path77" />
					</g>
					<g
   id="g78">
						<path
   style="fill:none;stroke:#ffffff;stroke-width:1.1459;stroke-miterlimit:10"
   d="m 145.412,108.695 c 6.151,1.56 6.272,1.082 12.423,2.642 6.155,1.561 6.179,1.466 12.334,3.027 6.155,1.561 6.136,1.635 12.291,3.196"
   id="path78" />
					</g>
					<g
   id="g79">
						<path
   style="fill:none;stroke:#ffffff;stroke-width:1.1459;stroke-miterlimit:10"
   d="m 143.869,114.78 c 6.151,1.56 6.349,0.779 12.499,2.339 6.155,1.561 6.193,1.412 12.347,2.974 6.155,1.561 6.157,1.554 12.311,3.116"
   id="path79" />
					</g>
					<g
   id="g80">
						<path
   style="fill:none;stroke:#ffffff;stroke-width:1.1459;stroke-miterlimit:10"
   d="m 142.44,120.411 c 6.151,1.56 6.166,1.498 12.317,3.058 6.155,1.561 5.994,2.194 12.149,3.756 6.155,1.561 6.189,1.428 12.343,2.99"
   id="path80" />
					</g>
					<g
   id="g81">
						<path
   style="fill:none;stroke:#ffffff;stroke-width:1.1459;stroke-miterlimit:10"
   d="m 140.854,126.664 c 6.151,1.56 6.14,1.601 12.291,3.161 6.155,1.561 6.155,1.559 12.31,3.12 6.155,1.561 6.079,1.861 12.233,3.423"
   id="path81" />
					</g>
				</g>
				<path
   style="fill:#26314a"
   d="m 143.308,129.9 c -7.869,6.262 -11.734,1.215 -11.403,-2.27 -0.565,3.262 0.946,6.561 3.865,8.211 l 24.71,13.965 c -2.163,-1.304 -7.178,-9.933 -9.938,-11.852 -2.76,-1.919 -2.458,-3.727 -7.234,-8.054 z"
   id="path82" />
			</g>
			<g
   clip-path="url(#SVGID_00000129196737205802910890000017688502266202416035_)"
   id="g84">
				<path
   style="fill:#5f7aba"
   d="m 206.325,100.245 c -0.175,-0.028 -0.348,-0.066 -0.52,-0.112 -1.311,-0.354 -2.405,-1.197 -3.08,-2.374 -0.677,-1.177 -0.854,-2.547 -0.5,-3.858 0.071,-0.264 0.163,-0.519 0.273,-0.764 l -2.962,1.702 c -0.275,0.157 -0.625,0.063 -0.782,-0.211 -0.158,-0.275 -0.063,-0.625 0.211,-0.783 l 17.385,-9.989 c 1.198,-0.688 2.597,-0.87 3.927,-0.508 1.335,0.36 2.448,1.219 3.137,2.417 1.421,2.474 0.565,5.643 -1.908,7.064 l -11.842,6.805 c -1.024,0.587 -2.191,0.798 -3.339,0.611 z m 11.397,-14.984 c -0.58,-0.094 -1.169,0.013 -1.685,0.309 l -10.868,6.245 c -0.912,0.524 -1.565,1.371 -1.839,2.386 -0.275,1.014 -0.137,2.076 0.387,2.987 0.524,0.912 1.372,1.565 2.386,1.839 1.016,0.272 2.076,0.137 2.988,-0.387 l 11.842,-6.805 c 0.933,-0.536 1.601,-1.403 1.882,-2.441 0.281,-1.039 0.14,-2.125 -0.396,-3.057 -0.537,-0.933 -1.403,-1.601 -2.443,-1.882 -0.444,-0.119 -0.9,-0.163 -1.345,-0.131 0.802,0.302 1.47,0.869 1.902,1.622 0.494,0.86 0.624,1.86 0.365,2.818 -0.259,0.957 -0.875,1.756 -1.734,2.251 l -10.007,5.75 c -0.275,0.155 -0.626,0.063 -0.782,-0.211 -0.158,-0.275 -0.063,-0.625 0.211,-0.783 l 10.007,-5.75 c 0.594,-0.341 1.02,-0.894 1.199,-1.555 0.179,-0.662 0.088,-1.354 -0.253,-1.948 -0.342,-0.595 -0.894,-1.021 -1.556,-1.199 -0.085,-0.025 -0.172,-0.044 -0.261,-0.058 z"
   id="path83" />
			</g>
			<g
   clip-path="url(#SVGID_00000129196737205802910890000017688502266202416035_)"
   id="g85">
				<path
   style="fill:#5f7aba"
   d="m 213.857,45.039 c -0.044,-0.171 -0.08,-0.345 -0.107,-0.521 -0.205,-1.342 0.125,-2.684 0.929,-3.776 0.804,-1.095 1.986,-1.809 3.328,-2.014 0.27,-0.041 0.54,-0.061 0.809,-0.059 l -2.753,-2.024 c -0.254,-0.188 -0.31,-0.546 -0.122,-0.801 0.187,-0.256 0.546,-0.31 0.801,-0.123 l 16.154,11.878 c 1.112,0.819 1.843,2.025 2.049,3.388 0.209,1.367 -0.127,2.732 -0.946,3.845 -1.69,2.298 -4.935,2.794 -7.233,1.104 l -11.004,-8.09 c -0.949,-0.699 -1.613,-1.681 -1.905,-2.807 z m 18.308,4.384 c -0.148,-0.569 -0.483,-1.064 -0.963,-1.417 l -10.098,-7.425 c -0.847,-0.623 -1.886,-0.879 -2.925,-0.72 -1.039,0.158 -1.954,0.713 -2.577,1.559 -0.623,0.847 -0.878,1.886 -0.72,2.925 0.161,1.039 0.712,1.955 1.56,2.578 l 11.004,8.09 c 0.866,0.637 1.929,0.899 2.993,0.737 1.064,-0.162 2,-0.729 2.638,-1.595 0.637,-0.867 0.899,-1.93 0.737,-2.994 -0.071,-0.455 -0.214,-0.889 -0.423,-1.283 0.047,0.856 -0.202,1.695 -0.717,2.395 -0.587,0.799 -1.451,1.322 -2.431,1.471 -0.98,0.15 -1.96,-0.092 -2.759,-0.679 l -9.298,-6.837 c -0.253,-0.189 -0.31,-0.547 -0.122,-0.801 0.187,-0.256 0.546,-0.31 0.801,-0.123 l 9.298,6.837 c 0.552,0.406 1.229,0.573 1.907,0.47 0.678,-0.103 1.275,-0.465 1.681,-1.017 0.406,-0.553 0.573,-1.23 0.47,-1.907 -0.015,-0.089 -0.033,-0.177 -0.056,-0.264 z"
   id="path84" />
			</g>
			<g
   clip-path="url(#SVGID_00000129196737205802910890000017688502266202416035_)"
   id="g88">
				<path
   style="fill:#f2ede6"
   d="m 194.14,80.789 -6.274,2.58 3.517,8.555 6.274,-2.58 c 0.967,-0.398 1.858,-0.959 2.634,-1.659 l 8.174,-7.372 c 0.283,-0.255 0.09,-0.725 -0.291,-0.707 l -10.996,0.51 c -1.043,0.047 -2.071,0.275 -3.038,0.673 z"
   id="path85" />
				<path
   style="fill:#5f7aba"
   d="m 194.813,88.813 c -0.251,-0.611 0.065,-1.356 0.729,-1.95 -0.89,0.045 -1.639,-0.262 -1.89,-0.873 -0.251,-0.611 0.065,-1.356 0.729,-1.95 -0.89,0.045 -1.639,-0.262 -1.89,-0.873 -0.264,-0.643 0.096,-1.434 0.833,-2.042 l -88.043,36.201 3.517,8.555 88.043,-36.201 c -0.951,0.085 -1.764,-0.224 -2.028,-0.867 z"
   id="path86" />
				<g
   id="g87">
					
						<line
   style="fill:none;stroke:#26314a;stroke-width:0.6736;stroke-linecap:round;stroke-linejoin:round;stroke-miterlimit:10"
   x1="191.58701"
   y1="85.109001"
   x2="109.351"
   y2="118.922"
   id="line86" />
					
						<line
   style="fill:none;stroke:#26314a;stroke-width:0.6736;stroke-linecap:round;stroke-linejoin:round;stroke-miterlimit:10"
   x1="192.80299"
   y1="88.068001"
   x2="110.568"
   y2="121.881"
   id="line87" />
				</g>
				
					<rect
   x="106.906"
   y="116.305"
   transform="matrix(0.9249,-0.3803,0.3803,0.9249,-37.8225,50.4118)"
   style="fill:#26314a"
   width="3.536"
   height="9.2489996"
   id="rect87" />
				<path
   style="fill:#f0887a"
   d="m 101.578,128.848 7.22,-2.969 -3.517,-8.555 -7.22,2.969 c -1.429,0.588 -2.111,2.222 -1.524,3.651 l 1.39,3.38 c 0.587,1.43 2.222,2.112 3.651,1.524 z"
   id="path87" />
				<path
   style="fill:#26314a"
   d="m 208.175,79.605 -4.629,0.215 1.479,3.596 3.441,-3.104 c 0.283,-0.255 0.09,-0.725 -0.291,-0.707 z"
   id="path88" />
			</g>
			<g
   clip-path="url(#SVGID_00000129196737205802910890000017688502266202416035_)"
   id="g92">
				<path
   style="fill:#ede5da"
   d="m 196.808,73.76 -21.093,3.715 c -2.239,0.394 -4.374,-1.101 -4.768,-3.34 l -1.143,-6.491 c -0.394,-2.239 1.101,-4.374 3.34,-4.768 l 21.093,-3.715 c 2.239,-0.394 4.374,1.101 4.768,3.34 l 1.143,6.491 c 0.395,2.239 -1.1,4.374 -3.34,4.768 z"
   id="path89" />
				<path
   style="fill:#26314a"
   d="m 194.237,59.161 -6.209,1.093 2.571,14.599 6.209,-1.093 c 2.239,-0.394 3.735,-2.529 3.34,-4.768 l -1.143,-6.491 c -0.394,-2.239 -2.529,-3.734 -4.768,-3.34 z"
   id="path90" />
				<path
   style="fill:#ffffff"
   d="m 198.287,70.199 -21.971,3.87 c -1.111,0.196 -2.171,-0.546 -2.366,-1.658 l -1.299,-7.374 c -0.196,-1.111 0.546,-2.171 1.658,-2.366 l 21.971,-3.87 c 1.111,-0.196 2.171,0.546 2.366,1.658 l 1.299,7.374 c 0.195,1.111 -0.547,2.17 -1.658,2.366 z"
   id="path91" />
				<path
   style="fill:#5f7aba"
   d="m 196.318,58.795 -8.289,1.46 2.007,11.398 8.251,-1.453 c 1.111,-0.196 1.853,-1.255 1.658,-2.366 l -1.305,-7.412 c -0.193,-1.091 -1.232,-1.819 -2.322,-1.627 z"
   id="path92" />
			</g>
		</g>
		<path
   style="fill:#78423b"
   d="m 267.396,209.666 c -6.053,0.865 -14.03,-2.148 -16.776,-8.643 -2.854,-6.749 0.692,-13.494 6.399,-14.273 5.707,-0.778 8.475,3.632 13.231,3.2 4.756,-0.432 16.257,-11.847 21.273,-1.038 8.561,0.259 8.296,7.407 7.091,18.333 l -6.659,2.579 z"
   id="path93" />
		<g
   id="g95">
			<path
   style="fill:#709687"
   d="m 314.677,453.689 -10.629,-88.028 h -6.036 l 10.705,88.655 c 0.186,1.539 -0.73,2.999 -2.197,3.502 l -3.562,1.221 h 18.675 l -3.636,-1.246 c -1.802,-0.619 -3.092,-2.213 -3.32,-4.104 z"
   id="path94" />
			<path
   style="fill:#709687"
   d="m 250.858,453.959 22.641,-88.297 h 6.036 l -22.755,88.827 c -0.357,1.393 0.417,2.826 1.777,3.292 l 3.668,1.257 H 243.55 l 3.826,-1.311 c 1.721,-0.59 3.03,-2.006 3.482,-3.768 z"
   id="path95" />
		</g>
		<g
   id="g96">
			
				<rect
   x="326.263"
   y="307.20401"
   transform="matrix(0.1725,-0.985,0.985,0.1725,0.0762,619.3253)"
   style="fill:#709687"
   width="84.794998"
   height="4.8260002"
   id="rect95" />
		</g>
		<g
   id="g97">
			<path
   style="fill:#ede5da"
   d="m 372.365,301.902 c -17.355,2.711 -34.574,2.906 -51.093,0.585 -6.137,-0.862 -10.355,-6.614 -9.287,-12.718 l 4.069,-23.26 c 1.012,-5.787 6.426,-9.79 12.239,-8.943 14.62,2.131 29.797,2.285 45.138,0.463 7.231,-0.859 13.216,5.57 11.962,12.743 -1.294,7.4 -2.589,14.801 -3.884,22.201 -0.81,4.632 -4.498,8.203 -9.144,8.929 z"
   id="path96" />
			<path
   style="fill:#709687"
   d="m 384.41,264.004 c -3.443,-6.872 -13.886,-5.854 -15.856,1.575 -0.081,0.304 -0.149,0.614 -0.204,0.929 l -4.069,23.26 c -0.373,2.133 -0.1,4.222 0.675,6.074 2.433,5.812 10.487,6.935 14.386,1.985 0.019,-0.024 0.038,-0.049 0.057,-0.073 3.001,-3.881 3.038,-10.084 3.87,-14.841 0.974,-5.568 3.816,-13.432 1.191,-18.809 -0.016,-0.033 -0.033,-0.067 -0.05,-0.1 z"
   id="path97" />
		</g>
		<path
   style="fill:#709687"
   d="m 360.282,368.663 c -21.441,1.034 -42.92,1.034 -64.361,0 -5.382,-0.259 -9.513,-4.875 -9.175,-10.253 0.004,-0.065 0.008,-0.13 0.012,-0.195 0.331,-5.259 4.82,-9.277 10.084,-9.023 20.827,1.005 41.691,1.005 62.518,0 5.264,-0.254 9.753,3.764 10.084,9.024 0.004,0.065 0.008,0.13 0.012,0.195 0.339,5.377 -3.792,9.993 -9.174,10.252 z"
   id="path98" />
		<path
   style="fill:#26314a"
   d="M 316.761,440.992 H 299.87 v -31.475 h 9.794 c 3.92,0 7.097,3.178 7.097,7.097 z"
   id="path99" />
		<path
   style="fill:#f0887a"
   d="m 294.15,307.327 -37.136,0.76 c -10.258,0.21 -19.551,6.099 -24.121,15.285 v 0 c -4.937,9.924 -3.451,21.84 3.772,30.247 l 54.112,62.985 c 2.46,2.864 3.673,6.593 3.368,10.356 l -1.29,15.899 c -0.169,2.079 -0.974,4.053 -2.321,5.645 -2.151,2.543 -5.19,6.84 -4.882,10.534 h 13.325 c 4.863,0 9.318,-2.72 11.54,-7.046 l 0.952,-1.854 c 0.927,-1.804 1.41,-3.804 1.41,-5.832 v -19.891 l 0.63,-4.901 c 0.469,-3.644 -1.47,-7.173 -4.797,-8.733 l -3.007,-1.41 c -0.958,-0.449 -1.732,-1.216 -2.189,-2.171 l -24.63,-51.402 43.279,-46.741 z"
   id="path100" />
		<path
   style="fill:#26314a"
   d="m 294.831,432.924 c 4.274,-1.308 12.113,-2.577 19.518,2.193 v 14.802 c 0,5.037 -4.083,9.12 -9.12,9.12 H 288.15 c -3.206,0 -5.179,-3.533 -3.464,-6.242 1.109,-1.751 2.565,-3.773 4.449,-5.934 1.319,-1.512 2.076,-3.438 2.156,-5.443 l 0.162,-4.059 c 0.082,-2.042 1.424,-3.839 3.378,-4.437 z"
   id="path101" />
		<path
   style="fill:#26314a"
   d="m 289.433,377.813 -11.706,6.944 v 16.657 l 9.775,11.378 c 1.587,-4.508 5.68,-5.727 9.909,-6.187 2.697,-0.293 4.323,-3.119 3.151,-5.566 z"
   id="path102" />
		<path
   style="fill:#b08f56"
   d="m 322.163,309.058 -28.013,-1.731 -37.136,0.76 c -10.258,0.21 -19.551,6.099 -24.121,15.285 v 0 c -4.937,9.924 -3.451,21.84 3.772,30.247 l 28.577,33.263 18.51,-20.924 -4.868,-10.159 z"
   id="path103" />
		<g
   id="g105">
			<path
   style="fill:#709687"
   d="m 372.126,453.689 -10.629,-88.028 h -6.036 l 10.705,88.655 c 0.186,1.539 -0.73,2.999 -2.197,3.502 l -3.562,1.221 h 18.675 l -3.636,-1.246 c -1.802,-0.619 -3.092,-2.213 -3.32,-4.104 z"
   id="path104" />
			<path
   style="fill:#709687"
   d="m 308.307,453.959 22.641,-88.297 h 6.036 l -22.755,88.827 c -0.357,1.393 0.417,2.826 1.777,3.292 l 3.668,1.257 H 301 l 3.826,-1.311 c 1.721,-0.59 3.029,-2.006 3.481,-3.768 z"
   id="path105" />
		</g>
		<path
   style="fill:#f0887a"
   d="m 278.755,285.65 -6.498,-0.335 c -2.843,-0.147 -5.547,1.24 -7.087,3.635 l -4.041,6.284 c -1.122,1.745 0.131,4.041 2.206,4.041 h 17.23 z"
   id="path106" />
		<path
   style="fill:#26314a"
   d="m 280.565,299.275 -1.435,-10.801 -2.213,-2.918 c 0,0 -8.302,5.112 -8.728,13.719 z"
   id="path107" />
		<path
   style="fill:#f0887a"
   d="m 266.742,389.731 -4.201,43.433 c -0.521,5.384 -3.672,10.162 -8.417,12.76 v 0 l 14.898,6.505 h 6.572 c 3.263,0 5.562,-3.205 4.515,-6.296 l -2.274,-6.714 11.541,-49.688 z"
   id="path108" />
		<path
   style="fill:#78423b"
   d="m 266.742,389.731 -0.666,6.881 v 0 c 0,0 10.513,1.283 19.786,8.249 l 3.514,-15.13 z"
   id="path109" />
		<path
   style="fill:#c9a362"
   d="m 354.216,313.517 c 5.875,13.22 -0.839,38.61 -22.872,38.61 -22.033,0 -21.823,-2.308 -21.823,-2.308 0,0 -0.982,10.282 -5.456,17.207 2.308,9.862 -1.469,16.577 -1.469,16.577 0,0 1.469,7.764 -2.098,13.01 h -37.77 l 5.457,-56.414 c 1.317,-13.611 11.655,-24.687 25.173,-26.754 10.092,-1.544 21.93,-2.529 32.122,-1.151 18.357,2.479 28.736,1.223 28.736,1.223 z"
   id="path110" />
		
			<path
   style="fill:none;stroke:#26314a;stroke-width:1.1191;stroke-linecap:round;stroke-linejoin:round;stroke-miterlimit:10"
   d="m 345.929,319.76 c 0,0 -5.059,7.311 -14.269,3.892"
   id="path111" />
		
			<path
   style="fill:none;stroke:#26314a;stroke-width:1.1191;stroke-linecap:round;stroke-linejoin:round;stroke-miterlimit:10"
   d="m 341.47,316.631 c 0,0 -11.331,9.156 -21.875,9.841 -10.544,0.685 -17.99,1.944 -20.483,6.35 -2.493,4.406 1.126,10.544 -2.021,18.256 2.99,6.925 -1.731,14.584 -1.731,14.584 0,0 1.986,12.695 -1.525,15.895 0.581,3.2 -1.78,8.178 -1.78,8.178"
   id="path112" />
		<path
   style="fill:#26314a"
   d="m 320.444,311.824 c 4.064,1.477 7.93,4.736 15.173,6.1 7.227,1.361 10.957,5.285 16.513,5.717 2.242,0.174 4.12,-1.757 3.798,-3.982 -0.321,-2.216 -0.893,-4.297 -1.713,-6.141 0,0 -10.379,1.256 -28.736,-1.225 -1.637,-0.222 -3.327,-0.363 -5.035,-0.469 z"
   id="path113" />
		
			<path
   style="fill:none;stroke:#26314a;stroke-width:1.1191;stroke-linecap:round;stroke-linejoin:round;stroke-miterlimit:10"
   d="m 264.184,381.556 4.001,-41.358 c 1.317,-13.611 11.655,-24.687 25.173,-26.754 2.46,-0.376 5.024,-0.719 7.643,-1.003"
   id="path114" />
		<path
   style="fill:#5f7aba"
   d="m 296.706,223.445 c 6.257,-0.157 19.477,-5.823 31.437,0 11.961,5.823 17.941,16.525 21.088,36.197 3.148,19.672 3.777,37.613 8.026,42.492 4.249,4.879 3.521,15.117 -1.358,15.431 -4.879,0.315 -37.829,-8.192 -47.744,-6.618 -5.726,0.909 -11.452,-1.122 -15.268,-2.999 -2.198,-1.082 -2.433,-4.116 -0.408,-5.494 v 0 c 1.858,-1.265 2.496,-3.707 1.494,-5.719 l -16.665,-33.472 -18.78,19.992 c 0,0 -0.374,16.216 -13.751,16.216 -13.377,0 -22.656,-10.083 -13.473,-25.191 2.95,-16.997 14.53,-20.144 14.53,-20.144 0,0 5.666,-11.646 10.702,-14.164 3.148,-7.239 11.331,-15.58 20.931,-14.951 9.601,0.628 19.239,-1.576 19.239,-1.576 z"
   id="path115" />
		<g
   id="g123">
			<path
   style="fill:#26314a"
   d="m 238.912,271.997 c 0.865,-0.255 1.745,-0.496 2.638,-0.694 l 1.364,-0.176 c 0.456,-0.067 0.915,-0.114 1.379,-0.085 l 1.392,0.021 c 0.463,0.039 0.922,0.134 1.385,0.199 l 0.693,0.113 0.676,0.197 c 0.444,0.153 0.911,0.242 1.335,0.45 1.769,0.662 3.333,1.811 4.62,3.157 1.279,1.368 2.251,2.984 2.79,4.766 0.039,0.127 -0.034,0.262 -0.161,0.301 -0.108,0.033 -0.221,-0.014 -0.276,-0.106 l -0.013,-0.022 c -0.896,-1.491 -2.014,-2.856 -3.271,-4.003 -1.257,-1.151 -2.672,-2.116 -4.24,-2.759 -1.571,-0.61 -3.232,-1.065 -4.964,-1.145 -0.859,-0.12 -1.73,-0.009 -2.608,-0.046 -0.875,0.046 -1.747,0.182 -2.643,0.231 l -0.026,10e-4 c -0.113,0.006 -0.209,-0.08 -0.215,-0.193 -0.006,-0.096 0.056,-0.181 0.145,-0.207 z"
   id="path116" />
			<path
   style="fill:#26314a"
   d="m 261.886,243.283 c 1.376,0.988 2.698,2.014 3.977,3.114 1.271,1.104 2.519,2.252 3.549,3.644 0.116,0.157 0.083,0.379 -0.074,0.495 -0.153,0.113 -0.367,0.085 -0.486,-0.062 l -0.009,-0.011 c -1.008,-1.254 -2.275,-2.335 -3.562,-3.361 -1.293,-1.022 -2.649,-1.989 -4.02,-2.89 l -0.009,-0.006 c -0.258,-0.17 -0.33,-0.517 -0.16,-0.775 0.17,-0.258 0.517,-0.33 0.775,-0.16 0.005,0.002 0.013,0.008 0.019,0.012 z"
   id="path117" />
			<path
   style="fill:#26314a"
   d="m 258.639,257.257 c 1.827,0.445 3.554,1.062 5.239,1.84 1.668,0.793 3.278,1.774 4.596,3.114 0.115,0.117 0.114,0.306 -0.004,0.422 -0.114,0.112 -0.295,0.114 -0.411,0.007 l -0.006,-0.005 c -1.298,-1.199 -2.88,-2.066 -4.523,-2.753 -1.647,-0.67 -3.387,-1.194 -5.109,-1.527 l -0.021,-0.004 c -0.304,-0.059 -0.502,-0.352 -0.443,-0.656 0.059,-0.304 0.352,-0.502 0.656,-0.443 0.008,10e-4 0.018,0.003 0.026,0.005 z"
   id="path118" />
			<path
   style="fill:#26314a"
   d="m 288.686,282.77 c 1.717,-1.085 3.526,-1.992 5.387,-2.793 1.862,-0.797 3.772,-1.495 5.732,-2.04 1.956,-0.558 3.962,-0.954 5.989,-1.212 2.025,-0.304 4.086,-0.299 6.138,-0.229 0.402,0.014 0.717,0.351 0.703,0.753 -0.014,0.402 -0.351,0.717 -0.753,0.703 h -0.008 l -0.041,-0.002 c -1.96,-0.088 -3.933,-0.135 -5.9,0.074 -1.966,0.178 -3.929,0.492 -5.857,0.967 -1.931,0.46 -3.851,1.003 -5.725,1.688 -1.869,0.69 -3.72,1.469 -5.494,2.377 l -0.007,0.004 c -0.082,0.042 -0.183,0.009 -0.225,-0.073 -0.038,-0.077 -0.011,-0.171 0.061,-0.217 z"
   id="path119" />
			<path
   style="fill:#26314a"
   d="m 307.55,277.219 c -0.571,-4.165 -0.321,-8.314 0.268,-12.412 0.304,-2.047 0.739,-4.073 1.288,-6.064 0.474,-2.009 1.315,-3.938 1.707,-5.883 0.429,-1.963 0.525,-3.998 0.36,-6.007 -0.207,-1.975 -0.65,-4.06 -0.601,-6.157 0.009,-2.096 0.39,-4.209 1.168,-6.185 0.779,-1.982 1.908,-3.811 3.641,-5.244 0.238,-0.197 0.59,-0.163 0.787,0.074 0.197,0.238 0.163,0.59 -0.074,0.787 l -0.003,0.002 -0.046,0.038 c -0.691,0.564 -1.339,1.367 -1.88,2.162 -0.55,0.808 -1.015,1.682 -1.37,2.6 -0.731,1.831 -1.096,3.806 -1.19,5.797 -0.123,2.005 0.173,3.973 0.323,6.071 0.127,2.071 0.042,4.16 -0.311,6.217 -0.385,2.078 -1.027,3.993 -1.388,5.995 -0.395,1.99 -0.743,3.987 -0.986,5.996 -0.522,4.003 -0.745,8.083 -0.582,12.075 l 0.002,0.039 c 0.013,0.308 -0.227,0.569 -0.536,0.581 -0.29,0.012 -0.537,-0.201 -0.577,-0.482 z"
   id="path120" />
			<path
   style="fill:#26314a"
   d="m 313.574,299.371 8.289,-0.058 c 2.649,-0.056 5.262,-0.976 7.388,-2.562 2.137,-1.575 3.785,-3.788 4.735,-6.274 0.897,-2.515 1.499,-5.257 1.918,-7.948 0.204,-1.356 0.356,-2.72 0.434,-4.09 0.109,-1.368 0.008,-2.736 0.099,-4.155 0.18,-2.808 0.822,-5.567 1.81,-8.184 2.034,-5.118 2.032,-10.785 1.096,-16.157 -0.053,-0.305 0.151,-0.594 0.455,-0.648 0.305,-0.053 0.594,0.151 0.648,0.455 10e-4,0.007 0.003,0.019 0.004,0.026 0.724,5.522 0.566,11.334 -1.535,16.575 -0.966,2.559 -1.664,5.242 -1.778,7.971 -0.061,1.347 0.029,2.751 -0.022,4.15 -0.033,1.397 -0.134,2.793 -0.303,4.181 -0.358,2.786 -0.862,5.502 -1.745,8.231 -0.994,2.702 -2.795,5.101 -5.111,6.821 -2.309,1.73 -5.163,2.743 -8.056,2.81 -2.804,0.048 -5.548,-0.019 -8.325,-0.023 -0.309,0 -0.559,-0.251 -0.559,-0.56 0,-0.31 0.252,-0.559 0.558,-0.561 z"
   id="path121" />
			<path
   style="fill:#26314a"
   d="m 346.253,283.82 c -0.399,1.889 -1.065,3.663 -1.913,5.373 -0.843,1.707 -1.892,3.32 -3.128,4.783 -1.228,1.468 -2.625,2.816 -4.203,3.926 -1.54,1.172 -3.28,2.036 -5.043,2.828 -0.431,0.194 -0.938,10e-4 -1.132,-0.43 -0.194,-0.432 -10e-4,-0.938 0.43,-1.132 0.011,-0.005 0.021,-0.009 0.032,-0.014 l 0.056,-0.022 c 1.672,-0.663 3.341,-1.39 4.831,-2.421 1.529,-0.969 2.903,-2.177 4.134,-3.515 1.239,-1.334 2.316,-2.829 3.204,-4.433 0.89,-1.595 1.625,-3.32 2.081,-5.069 l 0.007,-0.025 c 0.046,-0.177 0.227,-0.282 0.403,-0.236 0.173,0.044 0.277,0.216 0.241,0.387 z"
   id="path122" />
			<path
   style="fill:#26314a"
   d="m 280.787,249.45 c 1.926,1.782 4.037,3.446 6.222,4.956 2.181,1.527 4.457,2.919 6.794,4.196 2.324,1.303 4.767,2.381 7.249,3.331 2.468,0.996 5.041,1.692 7.624,2.279 l 0.025,0.006 c 0.302,0.069 0.491,0.368 0.422,0.67 -0.069,0.302 -0.368,0.491 -0.67,0.422 -0.009,-0.002 -0.02,-0.005 -0.029,-0.008 -2.604,-0.742 -5.203,-1.497 -7.697,-2.534 -2.511,-0.989 -4.94,-2.167 -7.32,-3.429 -2.379,-1.265 -4.697,-2.648 -6.922,-4.169 -2.225,-1.53 -4.389,-3.115 -6.459,-4.902 -0.234,-0.202 -0.26,-0.555 -0.058,-0.789 0.202,-0.234 0.555,-0.26 0.789,-0.058 0.004,0.004 0.009,0.007 0.013,0.011 z"
   id="path123" />
		</g>
		<path
   style="fill:#26314a"
   d="m 277.311,263.262 c -1.731,-3.62 -7.48,-11.803 -8.776,-11.016 -1.296,0.787 2.481,4.249 2.323,6.925 -0.157,2.675 1.166,5.836 3.416,7.324 z"
   id="path124" />
		<path
   style="fill:#5f7aba"
   d="m 310.989,279.288 -26.393,4.564 c -6.656,-2.518 -14.763,7.082 -13.228,15.423 h 55.673 z"
   id="path125" />
		<path
   style="fill:#26314a"
   d="m 260.964,439.205 c 3.97,1.358 9.328,4.242 11.838,10.229 0.775,1.847 2.648,2.994 4.652,2.994 h 3.582 c 1.825,0 3.305,1.48 3.305,3.305 v 0 c 0,1.825 -1.48,3.305 -3.305,3.305 h -50.703 c -2.504,0 -3.832,-2.952 -2.174,-4.828 3.024,-3.422 7.956,-7.556 14.621,-8.433 1.737,-0.229 3.365,-0.986 4.754,-2.054 1.762,-1.355 3.487,-2.532 4.922,-3.457 2.532,-1.633 5.658,-2.036 8.508,-1.061 z"
   id="path126" />
		<g
   id="g136">
			<path
   style="fill:#f2ede6"
   d="m 251.427,294.903 0.235,4.577 -1.477,-2.082 -1.477,-2.082 1.847,-0.649 c 0.157,0.168 0.336,0.313 0.526,0.448 0.122,-0.066 0.234,-0.145 0.346,-0.212 z"
   id="path127" />
			<path
   style="fill:#f0887a"
   d="m 249.211,288.11 -3.492,-10.061 c 0.526,0.157 1.03,0.336 1.488,0.537 0.313,2.373 0.783,4.823 2.138,6.234 0.123,0.123 0.302,0.157 0.459,0.101 0.09,-0.022 0.157,-0.078 0.224,-0.157 0.123,-0.168 0.09,-0.414 -0.056,-0.571 -1.063,-1.108 -1.522,-3.111 -1.813,-5.148 1.735,0.906 2.966,2.093 3.917,3.324 1.522,1.992 3.559,9.714 -0.649,12.534 -0.112,0.067 -0.224,0.145 -0.347,0.213 -0.19,-0.134 -0.369,-0.28 -0.526,-0.448 -1.466,-1.511 -1.556,-4.32 -1.332,-6.558 z"
   id="path128" />
			<polygon
   style="fill:#ede5da"
   points="242.888,269.913 240.202,270.853 239.486,268.794 242.172,267.854 "
   id="polygon128" />
			<path
   style="fill:#f5c365"
   d="m 242.888,269.924 c 0.09,0.235 0.325,0.381 0.582,0.347 0.694,-0.09 1.276,-0.011 1.791,0.269 0.974,0.526 1.679,1.723 2.193,3.783 0.213,0.839 0.347,1.903 0.481,3.033 0.067,0.56 0.134,1.13 0.224,1.69 0.291,2.037 0.75,4.04 1.813,5.148 0.145,0.157 0.179,0.403 0.056,0.571 -0.067,0.078 -0.134,0.134 -0.224,0.157 -0.157,0.056 -0.336,0.022 -0.459,-0.101 -1.354,-1.41 -1.824,-3.861 -2.138,-6.234 -0.056,-0.38 -0.101,-0.761 -0.145,-1.13 -0.134,-1.097 -0.257,-2.138 -0.459,-2.921 -0.548,-2.149 -1.074,-3.458 -2.675,-3.425 -0.313,0.011 -0.515,0.325 -0.414,0.604 l 0.168,0.481 -2.697,0.929 -0.783,-2.272 z"
   id="path129" />
			<path
   style="fill:#ede5da"
   d="m 242.463,277.389 -1.477,-4.264 2.697,-0.929 2.037,5.853 3.492,10.061 h 0.011 c -0.224,2.238 -0.134,5.047 1.332,6.558 l -1.847,0.649 -2.428,-6.972 c 0.47,-0.347 0.806,-0.873 0.884,-1.511 0.112,-0.94 -0.381,-1.858 -1.242,-2.272 l -1.153,-0.56 z"
   id="path130" />
			<path
   style="fill:#f0887a"
   d="m 244.779,299.469 c -2.518,0 -7.185,0.235 -7.341,-3.592 -2.619,-1.679 -1.679,-4.32 -1.578,-4.846 -2.462,-1.735 -1.723,-5.036 -0.783,-5.674 -3.357,-2.406 -1.936,-8.393 5.349,-8.125 0.716,0.022 1.399,0.078 2.037,0.157 l 2.305,6.614 1.153,0.56 c 0.862,0.414 1.354,1.332 1.242,2.272 -0.078,0.638 -0.414,1.164 -0.884,1.511 l 2.428,6.972 1.477,2.082 c -1.253,1.7 -3.536,2.069 -5.405,2.069 z"
   id="path131" />
			<g
   id="g135">
				
					<path
   style="fill:none;stroke:#78423b;stroke-width:0.5596;stroke-linecap:round;stroke-linejoin:round;stroke-miterlimit:10"
   d="m 238.096,280.772 7.778,3.789 c 0.855,0.416 1.351,1.33 1.235,2.273 v 0 c -0.18,1.462 -1.703,2.35 -3.063,1.786 l -6.972,-2.891"
   id="path132" />
				
					<path
   style="fill:none;stroke:#78423b;stroke-width:0.5596;stroke-linecap:round;stroke-linejoin:round;stroke-miterlimit:10"
   d="m 251.027,295.12 c -2.797,-1.924 -1.891,-7.571 -1.458,-9.601"
   id="path133" />
				
					<path
   style="fill:none;stroke:#78423b;stroke-width:0.5596;stroke-linecap:round;stroke-linejoin:round;stroke-miterlimit:10"
   d="m 237.388,291.5 5.963,1.215 c 1.31,0.267 2.536,-0.734 2.536,-2.071 v 0 c 0,-0.913 -0.586,-1.723 -1.454,-2.008 l -1.69,-0.555"
   id="path134" />
				
					<path
   style="fill:none;stroke:#78423b;stroke-width:0.5596;stroke-linecap:round;stroke-linejoin:round;stroke-miterlimit:10"
   d="m 239.434,295.959 4.746,-0.316 c 1.164,-0.078 1.924,-1.256 1.515,-2.348 l -0.436,-1.163"
   id="path135" />
			</g>
		</g>
		<g
   id="g137">
			<path
   style="fill:#26314a"
   d="m 353.162,305.015 c -2.353,0.528 -4.71,0.867 -7.092,1.103 -2.38,0.227 -4.774,0.323 -7.17,0.266 -2.396,-0.086 -4.79,-0.341 -7.157,-0.804 -2.356,-0.522 -4.666,-1.286 -6.849,-2.374 -0.277,-0.138 -0.389,-0.474 -0.251,-0.75 0.138,-0.277 0.474,-0.389 0.75,-0.251 l 0.004,0.002 0.019,0.01 c 2.062,1.05 4.272,1.808 6.547,2.334 2.29,0.47 4.623,0.742 6.97,0.847 2.349,0.077 4.705,0.006 7.052,-0.197 2.342,-0.21 4.696,-0.527 6.979,-1.018 l 0.014,-0.003 c 0.231,-0.05 0.458,0.097 0.508,0.328 0.05,0.23 -0.096,0.456 -0.324,0.507 z"
   id="path136" />
		</g>
		<path
   style="fill:#f0887a"
   d="m 296.279,215.277 c 0,0 4.025,7.032 5.464,9.317 4.622,7.337 -10.826,16.068 -16.187,8.016 l -3.677,-6.63 z"
   id="path137" />
		<path
   style="fill:#26314a"
   d="m 292.822,226.731 c 2.982,-2.537 1.379,-7.84 1.379,-7.84 l -9.786,5.206 -2.536,1.885 3.677,6.63 c 0.129,0.193 0.268,0.368 0.408,0.542 2.146,-1.198 4.32,-4.264 6.858,-6.423 z"
   id="path138" />
		<g
   id="g139">
			<path
   style="fill:#26314a"
   d="m 282.852,232.582 c 0.28,1.396 0.954,2.697 1.958,3.693 1.002,0.999 2.283,1.693 3.633,2.136 2.718,0.875 5.715,0.831 8.452,0.083 2.717,-0.792 5.286,-2.343 7.085,-4.49 0.89,-1.079 1.548,-2.335 1.842,-3.677 0.301,-1.342 0.227,-2.745 -0.097,-4.095 l -0.004,-0.016 c -0.072,-0.301 0.113,-0.603 0.414,-0.675 0.301,-0.072 0.603,0.113 0.675,0.414 0,0.002 0.002,0.007 0.002,0.009 0.334,1.499 0.39,3.087 0.021,4.599 -0.36,1.512 -1.128,2.9 -2.119,4.056 -2.012,2.301 -4.715,3.85 -7.61,4.643 -2.906,0.734 -6.012,0.722 -8.863,-0.25 -1.415,-0.492 -2.767,-1.254 -3.825,-2.349 -1.06,-1.09 -1.76,-2.511 -2.027,-3.992 -0.023,-0.128 0.062,-0.251 0.19,-0.274 0.127,-0.024 0.248,0.059 0.273,0.185 z"
   id="path139" />
		</g>
		<path
   style="fill:#ffffff"
   d="m 410.51,334.654 c -9.046,1.241 -10.692,3.073 -11.71,13.955 -0.038,0.407 -0.636,0.407 -0.674,0 -1.018,-10.882 -2.665,-12.714 -11.71,-13.955 -0.39,-0.053 -0.39,-0.616 0,-0.67 9.046,-1.241 10.692,-3.073 11.71,-13.955 0.038,-0.407 0.636,-0.407 0.674,0 1.018,10.882 2.665,12.714 11.71,13.955 0.39,0.054 0.39,0.616 0,0.67 z"
   id="path140" />
		<path
   style="fill:#ffffff"
   d="m 116.818,330.356 c -6.926,0.95 -8.186,2.353 -8.966,10.684 -0.029,0.312 -0.487,0.312 -0.516,0 -0.78,-8.332 -2.04,-9.734 -8.966,-10.684 -0.298,-0.041 -0.298,-0.472 0,-0.513 6.926,-0.95 8.186,-2.353 8.966,-10.684 0.029,-0.312 0.487,-0.312 0.516,0 0.78,8.332 2.04,9.734 8.966,10.684 0.298,0.041 0.298,0.472 0,0.513 z"
   id="path141" />
		<path
   style="fill:#ffffff"
   d="m 365.462,140.441 c -6.926,0.95 -8.186,2.353 -8.966,10.684 -0.029,0.312 -0.487,0.312 -0.516,0 -0.78,-8.332 -2.04,-9.734 -8.966,-10.684 -0.298,-0.041 -0.298,-0.472 0,-0.513 6.926,-0.95 8.186,-2.353 8.966,-10.684 0.029,-0.312 0.487,-0.312 0.516,0 0.78,8.332 2.04,9.734 8.966,10.684 0.299,0.041 0.299,0.472 0,0.513 z"
   id="path142" />
		<g
   id="g193">
			<path
   style="fill:#ede5da"
   d="m 313.698,458.164 -4.467,0.874 h 21.718 l -4.467,-0.874 c -2.342,-0.458 -4.031,-2.51 -4.031,-4.896 V 304.075 h -4.721 v 41.842 c 0,2.329 -1.888,4.217 -4.217,4.217 h -58.054 c -2.329,0 -4.217,-1.888 -4.217,-4.217 v -41.842 h -4.721 v 149.193 c 0,2.386 -1.689,4.438 -4.031,4.896 l -4.467,0.874 h 21.718 l -4.467,-0.874 c -2.342,-0.458 -4.031,-2.51 -4.031,-4.896 v -94.511 c 0,-2.329 1.888,-4.217 4.217,-4.217 h 58.054 c 2.329,0 4.217,1.888 4.217,4.217 v 94.511 c -0.002,2.386 -1.692,4.438 -4.033,4.896 z"
   id="path143" />
			<path
   style="fill:#ede5da"
   d="m 196.505,458.164 -4.467,0.874 h 21.718 l -4.467,-0.874 c -2.342,-0.458 -4.031,-2.51 -4.031,-4.896 V 304.599 h -4.721 v 41.317 c 0,2.329 -1.888,4.217 -4.217,4.217 h -58.054 c -2.329,0 -4.217,-1.888 -4.217,-4.217 v -41.317 h -4.721 v 148.668 c 0,2.386 -1.689,4.438 -4.031,4.896 l -4.467,0.874 h 21.718 l -4.467,-0.874 c -2.342,-0.458 -4.031,-2.51 -4.031,-4.896 v -94.511 c 0,-2.329 1.888,-4.217 4.217,-4.217 h 58.054 c 2.329,0 4.217,1.888 4.217,4.217 v 94.511 c -0.002,2.387 -1.692,4.439 -4.033,4.897 z"
   id="path144" />
			<g
   id="g146">
				<path
   style="fill:#709687"
   d="m 199.32,355.799 c 0.75,0.761 1.215,1.805 1.215,2.958 v 67.625 l 4.721,1.834 v -72.418 h -5.936 z"
   id="path145" />
				<path
   style="fill:#709687"
   d="m 135.263,355.799 h -5.937 v 42.918 l 4.721,1.834 v -41.794 c 0,-1.153 0.465,-2.197 1.216,-2.958 z"
   id="path146" />
			</g>
			<rect
   x="129.326"
   y="304.599"
   style="fill:#ede5da"
   width="117.193"
   height="80.156998"
   id="rect146" />
			<g
   id="g192">
				<g
   id="g155">
					<path
   style="fill:#709687"
   d="m 138.174,314.191 c 0,-1.345 1.09,-2.436 2.436,-2.436 0.349,0 0.679,0.076 0.979,0.208 -0.467,-0.404 -1.068,-0.657 -1.734,-0.657 -1.47,0 -2.662,1.192 -2.662,2.662 0,1.47 1.192,2.662 2.662,2.662 0.138,0 0.27,-0.02 0.402,-0.04 -1.177,-0.172 -2.083,-1.175 -2.083,-2.399 z"
   id="path147" />
					<path
   style="fill:#709687"
   d="m 150.307,314.191 c 0,-1.345 1.09,-2.436 2.436,-2.436 0.349,0 0.679,0.076 0.979,0.208 -0.467,-0.404 -1.068,-0.657 -1.734,-0.657 -1.47,0 -2.662,1.192 -2.662,2.662 0,1.47 1.192,2.662 2.662,2.662 0.138,0 0.27,-0.02 0.402,-0.04 -1.177,-0.172 -2.083,-1.175 -2.083,-2.399 z"
   id="path148" />
					<path
   style="fill:#709687"
   d="m 162.44,314.191 c 0,-1.345 1.09,-2.436 2.436,-2.436 0.349,0 0.679,0.076 0.979,0.208 -0.467,-0.404 -1.068,-0.657 -1.734,-0.657 -1.47,0 -2.662,1.192 -2.662,2.662 0,1.47 1.192,2.662 2.662,2.662 0.138,0 0.27,-0.02 0.401,-0.04 -1.176,-0.172 -2.082,-1.175 -2.082,-2.399 z"
   id="path149" />
					<path
   style="fill:#709687"
   d="m 174.572,314.191 c 0,-1.345 1.09,-2.436 2.436,-2.436 0.349,0 0.679,0.076 0.979,0.208 -0.467,-0.404 -1.068,-0.657 -1.734,-0.657 -1.47,0 -2.662,1.192 -2.662,2.662 0,1.47 1.192,2.662 2.662,2.662 0.138,0 0.27,-0.02 0.402,-0.04 -1.176,-0.172 -2.083,-1.175 -2.083,-2.399 z"
   id="path150" />
					<path
   style="fill:#709687"
   d="m 186.705,314.191 c 0,-1.345 1.09,-2.436 2.436,-2.436 0.349,0 0.679,0.076 0.979,0.208 -0.467,-0.404 -1.068,-0.657 -1.734,-0.657 -1.47,0 -2.662,1.192 -2.662,2.662 0,1.47 1.192,2.662 2.662,2.662 0.138,0 0.27,-0.02 0.401,-0.04 -1.175,-0.172 -2.082,-1.175 -2.082,-2.399 z"
   id="path151" />
					<path
   style="fill:#709687"
   d="m 198.838,314.191 c 0,-1.345 1.09,-2.436 2.436,-2.436 0.349,0 0.679,0.076 0.979,0.208 -0.467,-0.404 -1.068,-0.657 -1.734,-0.657 -1.47,0 -2.662,1.192 -2.662,2.662 0,1.47 1.192,2.662 2.662,2.662 0.138,0 0.27,-0.02 0.402,-0.04 -1.176,-0.172 -2.083,-1.175 -2.083,-2.399 z"
   id="path152" />
					<path
   style="fill:#709687"
   d="m 210.971,314.191 c 0,-1.345 1.09,-2.436 2.436,-2.436 0.349,0 0.679,0.076 0.979,0.208 -0.467,-0.404 -1.068,-0.657 -1.734,-0.657 -1.47,0 -2.662,1.192 -2.662,2.662 0,1.47 1.192,2.662 2.662,2.662 0.138,0 0.27,-0.02 0.402,-0.04 -1.176,-0.172 -2.083,-1.175 -2.083,-2.399 z"
   id="path153" />
					<path
   style="fill:#709687"
   d="m 223.104,314.191 c 0,-1.345 1.09,-2.436 2.436,-2.436 0.349,0 0.679,0.076 0.979,0.208 -0.467,-0.404 -1.068,-0.657 -1.734,-0.657 -1.47,0 -2.662,1.192 -2.662,2.662 0,1.47 1.192,2.662 2.662,2.662 0.138,0 0.27,-0.02 0.402,-0.04 -1.176,-0.172 -2.083,-1.175 -2.083,-2.399 z"
   id="path154" />
					<path
   style="fill:#709687"
   d="m 235.237,314.191 c 0,-1.345 1.09,-2.436 2.436,-2.436 0.349,0 0.679,0.076 0.979,0.208 -0.467,-0.404 -1.068,-0.657 -1.734,-0.657 -1.47,0 -2.662,1.192 -2.662,2.662 0,1.47 1.192,2.662 2.662,2.662 0.138,0 0.27,-0.02 0.402,-0.04 -1.176,-0.172 -2.083,-1.175 -2.083,-2.399 z"
   id="path155" />
				</g>
				<g
   id="g164">
					<path
   style="fill:#709687"
   d="m 138.174,329.545 c 0,-1.345 1.09,-2.436 2.436,-2.436 0.349,0 0.679,0.076 0.979,0.208 -0.467,-0.404 -1.068,-0.657 -1.734,-0.657 -1.47,0 -2.662,1.192 -2.662,2.662 0,1.47 1.192,2.662 2.662,2.662 0.138,0 0.27,-0.02 0.402,-0.04 -1.177,-0.171 -2.083,-1.175 -2.083,-2.399 z"
   id="path156" />
					<path
   style="fill:#709687"
   d="m 150.307,329.545 c 0,-1.345 1.09,-2.436 2.436,-2.436 0.349,0 0.679,0.076 0.979,0.208 -0.467,-0.404 -1.068,-0.657 -1.734,-0.657 -1.47,0 -2.662,1.192 -2.662,2.662 0,1.47 1.192,2.662 2.662,2.662 0.138,0 0.27,-0.02 0.402,-0.04 -1.177,-0.171 -2.083,-1.175 -2.083,-2.399 z"
   id="path157" />
					<path
   style="fill:#709687"
   d="m 162.44,329.545 c 0,-1.345 1.09,-2.436 2.436,-2.436 0.349,0 0.679,0.076 0.979,0.208 -0.467,-0.404 -1.068,-0.657 -1.734,-0.657 -1.47,0 -2.662,1.192 -2.662,2.662 0,1.47 1.192,2.662 2.662,2.662 0.138,0 0.27,-0.02 0.401,-0.04 -1.176,-0.171 -2.082,-1.175 -2.082,-2.399 z"
   id="path158" />
					<path
   style="fill:#709687"
   d="m 174.572,329.545 c 0,-1.345 1.09,-2.436 2.436,-2.436 0.349,0 0.679,0.076 0.979,0.208 -0.467,-0.404 -1.068,-0.657 -1.734,-0.657 -1.47,0 -2.662,1.192 -2.662,2.662 0,1.47 1.192,2.662 2.662,2.662 0.138,0 0.27,-0.02 0.402,-0.04 -1.176,-0.171 -2.083,-1.175 -2.083,-2.399 z"
   id="path159" />
					<path
   style="fill:#709687"
   d="m 186.705,329.545 c 0,-1.345 1.09,-2.436 2.436,-2.436 0.349,0 0.679,0.076 0.979,0.208 -0.467,-0.404 -1.068,-0.657 -1.734,-0.657 -1.47,0 -2.662,1.192 -2.662,2.662 0,1.47 1.192,2.662 2.662,2.662 0.138,0 0.27,-0.02 0.401,-0.04 -1.175,-0.171 -2.082,-1.175 -2.082,-2.399 z"
   id="path160" />
					<path
   style="fill:#709687"
   d="m 198.838,329.545 c 0,-1.345 1.09,-2.436 2.436,-2.436 0.349,0 0.679,0.076 0.979,0.208 -0.467,-0.404 -1.068,-0.657 -1.734,-0.657 -1.47,0 -2.662,1.192 -2.662,2.662 0,1.47 1.192,2.662 2.662,2.662 0.138,0 0.27,-0.02 0.402,-0.04 -1.176,-0.171 -2.083,-1.175 -2.083,-2.399 z"
   id="path161" />
					<path
   style="fill:#709687"
   d="m 210.971,329.545 c 0,-1.345 1.09,-2.436 2.436,-2.436 0.349,0 0.679,0.076 0.979,0.208 -0.467,-0.404 -1.068,-0.657 -1.734,-0.657 -1.47,0 -2.662,1.192 -2.662,2.662 0,1.47 1.192,2.662 2.662,2.662 0.138,0 0.27,-0.02 0.402,-0.04 -1.176,-0.171 -2.083,-1.175 -2.083,-2.399 z"
   id="path162" />
					<path
   style="fill:#709687"
   d="m 223.104,329.545 c 0,-1.345 1.09,-2.436 2.436,-2.436 0.349,0 0.679,0.076 0.979,0.208 -0.467,-0.404 -1.068,-0.657 -1.734,-0.657 -1.47,0 -2.662,1.192 -2.662,2.662 0,1.47 1.192,2.662 2.662,2.662 0.138,0 0.27,-0.02 0.402,-0.04 -1.176,-0.171 -2.083,-1.175 -2.083,-2.399 z"
   id="path163" />
					<path
   style="fill:#709687"
   d="m 235.237,329.545 c 0,-1.345 1.09,-2.436 2.436,-2.436 0.349,0 0.679,0.076 0.979,0.208 -0.467,-0.404 -1.068,-0.657 -1.734,-0.657 -1.47,0 -2.662,1.192 -2.662,2.662 0,1.47 1.192,2.662 2.662,2.662 0.138,0 0.27,-0.02 0.402,-0.04 -1.176,-0.171 -2.083,-1.175 -2.083,-2.399 z"
   id="path164" />
				</g>
				<g
   id="g173">
					<path
   style="fill:#709687"
   d="m 138.174,344.9 c 0,-1.345 1.09,-2.436 2.436,-2.436 0.349,0 0.679,0.076 0.979,0.208 -0.467,-0.404 -1.068,-0.657 -1.734,-0.657 -1.47,0 -2.662,1.192 -2.662,2.662 0,1.47 1.192,2.662 2.662,2.662 0.138,0 0.27,-0.02 0.402,-0.04 -1.177,-0.172 -2.083,-1.175 -2.083,-2.399 z"
   id="path165" />
					<path
   style="fill:#709687"
   d="m 150.307,344.9 c 0,-1.345 1.09,-2.436 2.436,-2.436 0.349,0 0.679,0.076 0.979,0.208 -0.467,-0.404 -1.068,-0.657 -1.734,-0.657 -1.47,0 -2.662,1.192 -2.662,2.662 0,1.47 1.192,2.662 2.662,2.662 0.138,0 0.27,-0.02 0.402,-0.04 -1.177,-0.172 -2.083,-1.175 -2.083,-2.399 z"
   id="path166" />
					<path
   style="fill:#709687"
   d="m 162.44,344.9 c 0,-1.345 1.09,-2.436 2.436,-2.436 0.349,0 0.679,0.076 0.979,0.208 -0.467,-0.404 -1.068,-0.657 -1.734,-0.657 -1.47,0 -2.662,1.192 -2.662,2.662 0,1.47 1.192,2.662 2.662,2.662 0.138,0 0.27,-0.02 0.401,-0.04 -1.176,-0.172 -2.082,-1.175 -2.082,-2.399 z"
   id="path167" />
					<path
   style="fill:#709687"
   d="m 174.572,344.9 c 0,-1.345 1.09,-2.436 2.436,-2.436 0.349,0 0.679,0.076 0.979,0.208 -0.467,-0.404 -1.068,-0.657 -1.734,-0.657 -1.47,0 -2.662,1.192 -2.662,2.662 0,1.47 1.192,2.662 2.662,2.662 0.138,0 0.27,-0.02 0.402,-0.04 -1.176,-0.172 -2.083,-1.175 -2.083,-2.399 z"
   id="path168" />
					<path
   style="fill:#709687"
   d="m 186.705,344.9 c 0,-1.345 1.09,-2.436 2.436,-2.436 0.349,0 0.679,0.076 0.979,0.208 -0.467,-0.404 -1.068,-0.657 -1.734,-0.657 -1.47,0 -2.662,1.192 -2.662,2.662 0,1.47 1.192,2.662 2.662,2.662 0.138,0 0.27,-0.02 0.401,-0.04 -1.175,-0.172 -2.082,-1.175 -2.082,-2.399 z"
   id="path169" />
					<path
   style="fill:#709687"
   d="m 198.838,344.9 c 0,-1.345 1.09,-2.436 2.436,-2.436 0.349,0 0.679,0.076 0.979,0.208 -0.467,-0.404 -1.068,-0.657 -1.734,-0.657 -1.47,0 -2.662,1.192 -2.662,2.662 0,1.47 1.192,2.662 2.662,2.662 0.138,0 0.27,-0.02 0.402,-0.04 -1.176,-0.172 -2.083,-1.175 -2.083,-2.399 z"
   id="path170" />
					<path
   style="fill:#709687"
   d="m 210.971,344.9 c 0,-1.345 1.09,-2.436 2.436,-2.436 0.349,0 0.679,0.076 0.979,0.208 -0.467,-0.404 -1.068,-0.657 -1.734,-0.657 -1.47,0 -2.662,1.192 -2.662,2.662 0,1.47 1.192,2.662 2.662,2.662 0.138,0 0.27,-0.02 0.402,-0.04 -1.176,-0.172 -2.083,-1.175 -2.083,-2.399 z"
   id="path171" />
					<path
   style="fill:#709687"
   d="m 223.104,344.9 c 0,-1.345 1.09,-2.436 2.436,-2.436 0.349,0 0.679,0.076 0.979,0.208 -0.467,-0.404 -1.068,-0.657 -1.734,-0.657 -1.47,0 -2.662,1.192 -2.662,2.662 0,1.47 1.192,2.662 2.662,2.662 0.138,0 0.27,-0.02 0.402,-0.04 -1.176,-0.172 -2.083,-1.175 -2.083,-2.399 z"
   id="path172" />
					<path
   style="fill:#709687"
   d="m 235.237,344.9 c 0,-1.345 1.09,-2.436 2.436,-2.436 0.349,0 0.679,0.076 0.979,0.208 -0.467,-0.404 -1.068,-0.657 -1.734,-0.657 -1.47,0 -2.662,1.192 -2.662,2.662 0,1.47 1.192,2.662 2.662,2.662 0.138,0 0.27,-0.02 0.402,-0.04 -1.176,-0.172 -2.083,-1.175 -2.083,-2.399 z"
   id="path173" />
				</g>
				<g
   id="g182">
					<path
   style="fill:#709687"
   d="m 138.174,360.254 c 0,-1.345 1.09,-2.436 2.436,-2.436 0.349,0 0.679,0.076 0.979,0.208 -0.467,-0.404 -1.068,-0.657 -1.734,-0.657 -1.47,0 -2.662,1.192 -2.662,2.662 0,1.47 1.192,2.662 2.662,2.662 0.138,0 0.27,-0.02 0.402,-0.04 -1.177,-0.171 -2.083,-1.175 -2.083,-2.399 z"
   id="path174" />
					<path
   style="fill:#709687"
   d="m 150.307,360.254 c 0,-1.345 1.09,-2.436 2.436,-2.436 0.349,0 0.679,0.076 0.979,0.208 -0.467,-0.404 -1.068,-0.657 -1.734,-0.657 -1.47,0 -2.662,1.192 -2.662,2.662 0,1.47 1.192,2.662 2.662,2.662 0.138,0 0.27,-0.02 0.402,-0.04 -1.177,-0.171 -2.083,-1.175 -2.083,-2.399 z"
   id="path175" />
					<path
   style="fill:#709687"
   d="m 162.44,360.254 c 0,-1.345 1.09,-2.436 2.436,-2.436 0.349,0 0.679,0.076 0.979,0.208 -0.467,-0.404 -1.068,-0.657 -1.734,-0.657 -1.47,0 -2.662,1.192 -2.662,2.662 0,1.47 1.192,2.662 2.662,2.662 0.138,0 0.27,-0.02 0.401,-0.04 -1.176,-0.171 -2.082,-1.175 -2.082,-2.399 z"
   id="path176" />
					<path
   style="fill:#709687"
   d="m 174.572,360.254 c 0,-1.345 1.09,-2.436 2.436,-2.436 0.349,0 0.679,0.076 0.979,0.208 -0.467,-0.404 -1.068,-0.657 -1.734,-0.657 -1.47,0 -2.662,1.192 -2.662,2.662 0,1.47 1.192,2.662 2.662,2.662 0.138,0 0.27,-0.02 0.402,-0.04 -1.176,-0.171 -2.083,-1.175 -2.083,-2.399 z"
   id="path177" />
					<path
   style="fill:#709687"
   d="m 186.705,360.254 c 0,-1.345 1.09,-2.436 2.436,-2.436 0.349,0 0.679,0.076 0.979,0.208 -0.467,-0.404 -1.068,-0.657 -1.734,-0.657 -1.47,0 -2.662,1.192 -2.662,2.662 0,1.47 1.192,2.662 2.662,2.662 0.138,0 0.27,-0.02 0.401,-0.04 -1.175,-0.171 -2.082,-1.175 -2.082,-2.399 z"
   id="path178" />
					<path
   style="fill:#709687"
   d="m 198.838,360.254 c 0,-1.345 1.09,-2.436 2.436,-2.436 0.349,0 0.679,0.076 0.979,0.208 -0.467,-0.404 -1.068,-0.657 -1.734,-0.657 -1.47,0 -2.662,1.192 -2.662,2.662 0,1.47 1.192,2.662 2.662,2.662 0.138,0 0.27,-0.02 0.402,-0.04 -1.176,-0.171 -2.083,-1.175 -2.083,-2.399 z"
   id="path179" />
					<path
   style="fill:#709687"
   d="m 210.971,360.254 c 0,-1.345 1.09,-2.436 2.436,-2.436 0.349,0 0.679,0.076 0.979,0.208 -0.467,-0.404 -1.068,-0.657 -1.734,-0.657 -1.47,0 -2.662,1.192 -2.662,2.662 0,1.47 1.192,2.662 2.662,2.662 0.138,0 0.27,-0.02 0.402,-0.04 -1.176,-0.171 -2.083,-1.175 -2.083,-2.399 z"
   id="path180" />
					<path
   style="fill:#709687"
   d="m 223.104,360.254 c 0,-1.345 1.09,-2.436 2.436,-2.436 0.349,0 0.679,0.076 0.979,0.208 -0.467,-0.404 -1.068,-0.657 -1.734,-0.657 -1.47,0 -2.662,1.192 -2.662,2.662 0,1.47 1.192,2.662 2.662,2.662 0.138,0 0.27,-0.02 0.402,-0.04 -1.176,-0.171 -2.083,-1.175 -2.083,-2.399 z"
   id="path181" />
					<path
   style="fill:#709687"
   d="m 235.237,360.254 c 0,-1.345 1.09,-2.436 2.436,-2.436 0.349,0 0.679,0.076 0.979,0.208 -0.467,-0.404 -1.068,-0.657 -1.734,-0.657 -1.47,0 -2.662,1.192 -2.662,2.662 0,1.47 1.192,2.662 2.662,2.662 0.138,0 0.27,-0.02 0.402,-0.04 -1.176,-0.171 -2.083,-1.175 -2.083,-2.399 z"
   id="path182" />
				</g>
				<g
   id="g191">
					<path
   style="fill:#709687"
   d="m 138.174,375.609 c 0,-1.345 1.09,-2.436 2.436,-2.436 0.349,0 0.679,0.076 0.979,0.208 -0.467,-0.404 -1.068,-0.657 -1.734,-0.657 -1.47,0 -2.662,1.192 -2.662,2.662 0,1.47 1.192,2.662 2.662,2.662 0.138,0 0.27,-0.02 0.402,-0.04 -1.177,-0.172 -2.083,-1.175 -2.083,-2.399 z"
   id="path183" />
					<path
   style="fill:#709687"
   d="m 150.307,375.609 c 0,-1.345 1.09,-2.436 2.436,-2.436 0.349,0 0.679,0.076 0.979,0.208 -0.467,-0.404 -1.068,-0.657 -1.734,-0.657 -1.47,0 -2.662,1.192 -2.662,2.662 0,1.47 1.192,2.662 2.662,2.662 0.138,0 0.27,-0.02 0.402,-0.04 -1.177,-0.172 -2.083,-1.175 -2.083,-2.399 z"
   id="path184" />
					<path
   style="fill:#709687"
   d="m 162.44,375.609 c 0,-1.345 1.09,-2.436 2.436,-2.436 0.349,0 0.679,0.076 0.979,0.208 -0.467,-0.404 -1.068,-0.657 -1.734,-0.657 -1.47,0 -2.662,1.192 -2.662,2.662 0,1.47 1.192,2.662 2.662,2.662 0.138,0 0.27,-0.02 0.401,-0.04 -1.176,-0.172 -2.082,-1.175 -2.082,-2.399 z"
   id="path185" />
					<path
   style="fill:#709687"
   d="m 174.572,375.609 c 0,-1.345 1.09,-2.436 2.436,-2.436 0.349,0 0.679,0.076 0.979,0.208 -0.467,-0.404 -1.068,-0.657 -1.734,-0.657 -1.47,0 -2.662,1.192 -2.662,2.662 0,1.47 1.192,2.662 2.662,2.662 0.138,0 0.27,-0.02 0.402,-0.04 -1.176,-0.172 -2.083,-1.175 -2.083,-2.399 z"
   id="path186" />
					<path
   style="fill:#709687"
   d="m 186.705,375.609 c 0,-1.345 1.09,-2.436 2.436,-2.436 0.349,0 0.679,0.076 0.979,0.208 -0.467,-0.404 -1.068,-0.657 -1.734,-0.657 -1.47,0 -2.662,1.192 -2.662,2.662 0,1.47 1.192,2.662 2.662,2.662 0.138,0 0.27,-0.02 0.401,-0.04 -1.175,-0.172 -2.082,-1.175 -2.082,-2.399 z"
   id="path187" />
					<path
   style="fill:#709687"
   d="m 198.838,375.609 c 0,-1.345 1.09,-2.436 2.436,-2.436 0.349,0 0.679,0.076 0.979,0.208 -0.467,-0.404 -1.068,-0.657 -1.734,-0.657 -1.47,0 -2.662,1.192 -2.662,2.662 0,1.47 1.192,2.662 2.662,2.662 0.138,0 0.27,-0.02 0.402,-0.04 -1.176,-0.172 -2.083,-1.175 -2.083,-2.399 z"
   id="path188" />
					<path
   style="fill:#709687"
   d="m 210.971,375.609 c 0,-1.345 1.09,-2.436 2.436,-2.436 0.349,0 0.679,0.076 0.979,0.208 -0.467,-0.404 -1.068,-0.657 -1.734,-0.657 -1.47,0 -2.662,1.192 -2.662,2.662 0,1.47 1.192,2.662 2.662,2.662 0.138,0 0.27,-0.02 0.402,-0.04 -1.176,-0.172 -2.083,-1.175 -2.083,-2.399 z"
   id="path189" />
					<path
   style="fill:#709687"
   d="m 223.104,375.609 c 0,-1.345 1.09,-2.436 2.436,-2.436 0.349,0 0.679,0.076 0.979,0.208 -0.467,-0.404 -1.068,-0.657 -1.734,-0.657 -1.47,0 -2.662,1.192 -2.662,2.662 0,1.47 1.192,2.662 2.662,2.662 0.138,0 0.27,-0.02 0.402,-0.04 -1.176,-0.172 -2.083,-1.175 -2.083,-2.399 z"
   id="path190" />
					<path
   style="fill:#709687"
   d="m 235.237,375.609 c 0,-1.345 1.09,-2.436 2.436,-2.436 0.349,0 0.679,0.076 0.979,0.208 -0.467,-0.404 -1.068,-0.657 -1.734,-0.657 -1.47,0 -2.662,1.192 -2.662,2.662 0,1.47 1.192,2.662 2.662,2.662 0.138,0 0.27,-0.02 0.402,-0.04 -1.176,-0.172 -2.083,-1.175 -2.083,-2.399 z"
   id="path191" />
				</g>
			</g>
			<rect
   x="116.159"
   y="299.14301"
   style="fill:#ede5da"
   width="219.459"
   height="5.4559999"
   id="rect192" />
			<rect
   x="233.35201"
   y="299.14301"
   style="fill:#ede5da"
   width="102.266"
   height="5.4559999"
   id="rect193" />
			<polygon
   style="fill:#26314a"
   points="246.519,304.599 246.519,318.868 129.326,304.599 "
   id="polygon193" />
		</g>
		<path
   style="fill:#26314a"
   d="m 266.076,390.737 h 32.534 c 10e-4,0 -16.266,-4.512 -32.534,0 z"
   id="path193" />
		
			<line
   style="fill:none;stroke:#26314a;stroke-width:1.1191;stroke-linecap:round;stroke-linejoin:round;stroke-miterlimit:10"
   x1="258.84698"
   y1="324.32401"
   x2="271.75"
   y2="328.62"
   id="line193" />
		
			<path
   style="fill:none;stroke:#26314a;stroke-width:1.1191;stroke-linecap:round;stroke-linejoin:round;stroke-miterlimit:10"
   d="m 256.486,331.986 c 0,0 8.642,-2.568 13.685,0"
   id="path194" />
		
			<path
   style="fill:none;stroke:#26314a;stroke-width:1.1191;stroke-linecap:round;stroke-linejoin:round;stroke-miterlimit:10"
   d="m 306.27,339.642 c 0,0 -3.987,-10.492 -9.862,-11.961"
   id="path195" />
		
			<line
   style="fill:none;stroke:#26314a;stroke-width:1.1191;stroke-linecap:round;stroke-linejoin:round;stroke-miterlimit:10"
   x1="295.358"
   y1="336.914"
   x2="302.702"
   y2="339.642"
   id="line195" />
		
			<line
   style="fill:none;stroke:#b8e0d0;stroke-width:1.1191;stroke-miterlimit:10"
   x1="246.519"
   y1="304.599"
   x2="246.519"
   y2="381.819"
   id="line196" />
		<path
   style="fill:#f0887a"
   d="m 266.322,207.686 c -0.749,0.097 -1.167,0.925 -0.805,1.588 0.833,1.521 2.11,4.05 3.199,7.047 1.791,4.925 5.373,13.097 13.769,13.209 7.994,0.107 11.827,-7.703 12.948,-12.702 0.109,-0.485 0.12,-0.983 0.063,-1.476 l -0.922,-7.986 c 0,0 -8.124,1.816 -12.185,-5.592 -0.47,-0.857 -1.622,-1.005 -2.315,-0.316 -2.831,2.816 -6.404,3.25 -8.201,3.27 -0.663,0.007 -1.276,0.332 -1.679,0.859 -0.596,0.782 -1.769,1.826 -3.872,2.099 z"
   id="path196" />
		<circle
   style="fill:#e36f5f"
   cx="286.104"
   cy="217.017"
   r="2.8540001"
   id="circle196" />
		
			<ellipse
   transform="matrix(0.9081,-0.4187,0.4187,0.9081,-65.5836,133.9071)"
   style="fill:#26314a"
   cx="272.31799"
   cy="216.38699"
   rx="1.265"
   ry="1.845"
   id="ellipse196" />
		
			<ellipse
   transform="matrix(0.9081,-0.4187,0.4187,0.9081,-63.4332,136.9818)"
   style="fill:#26314a"
   cx="280.39899"
   cy="213.02499"
   rx="1.265"
   ry="1.845"
   id="ellipse197" />
		<path
   style="fill:#26314a"
   d="m 292.668,208.589 -0.3,-0.872 -7.318,2.516 c -0.457,0.157 -0.972,0.025 -1.275,-0.351 -0.665,-0.826 -1.48,-1.473 -2.378,-1.854 -1.27,-0.538 -2.538,-0.506 -3.574,0.092 -1.37,0.791 -2.012,2.431 -1.865,4.226 l -1.607,0.964 c -0.56,-0.552 -1.189,-1.001 -1.87,-1.29 -1.269,-0.539 -2.537,-0.506 -3.573,0.092 -1.035,0.598 -1.698,1.68 -1.866,3.049 -0.162,1.32 0.159,2.757 0.904,4.047 0.745,1.29 1.829,2.286 3.053,2.806 0.6,0.255 1.2,0.381 1.775,0.381 0.642,0 1.253,-0.158 1.799,-0.473 2.092,-1.208 2.524,-4.392 0.962,-7.096 -0.167,-0.29 -0.357,-0.559 -0.556,-0.817 l 1.136,-0.682 c 0.153,0.635 0.391,1.274 0.746,1.888 1.152,1.996 3.072,3.182 4.84,3.182 0.629,0 1.238,-0.15 1.787,-0.467 1.035,-0.598 1.698,-1.681 1.865,-3.049 0.098,-0.798 0.01,-1.636 -0.238,-2.459 -0.186,-0.619 0.119,-1.277 0.73,-1.487 z m -18.556,12.534 c -0.779,0.449 -1.755,0.463 -2.752,0.041 -1.041,-0.442 -1.97,-1.301 -2.615,-2.418 -0.645,-1.117 -0.925,-2.351 -0.787,-3.473 0.132,-1.074 0.633,-1.913 1.411,-2.362 0.402,-0.232 0.856,-0.348 1.339,-0.348 0.453,0 0.93,0.103 1.412,0.307 1.041,0.442 1.97,1.301 2.615,2.418 1.309,2.263 1.028,4.881 -0.623,5.835 z m 10.326,-6.355 c -0.132,1.074 -0.633,1.913 -1.411,2.363 -1.654,0.955 -4.06,-0.113 -5.367,-2.377 -1.307,-2.264 -1.027,-4.882 0.625,-5.836 0.402,-0.232 0.857,-0.348 1.34,-0.348 0.453,0 0.93,0.103 1.412,0.307 1.04,0.442 1.969,1.301 2.613,2.418 h 0.001 c 0.646,1.118 0.925,2.351 0.787,3.473 z"
   id="path197" />
		<path
   style="fill:#78423b"
   d="m 274.9,208.781 c 0.062,-0.539 0.285,-1.075 0.631,-1.519 0.356,-0.433 0.804,-0.791 1.304,-1.013 0.996,-0.458 2.105,-0.502 3.088,-0.246 0.252,0.066 0.404,0.323 0.338,0.576 -0.057,0.218 -0.257,0.361 -0.473,0.353 l -0.013,-10e-4 c -0.864,-0.03 -1.709,0.073 -2.417,0.42 -0.711,0.342 -1.235,0.899 -1.542,1.645 l -0.008,0.019 c -0.1,0.241 -0.376,0.357 -0.617,0.257 -0.201,-0.083 -0.314,-0.287 -0.291,-0.491 z"
   id="path198" />
		<path
   style="fill:#78423b"
   d="m 267.009,211.42 c 0.507,-0.753 1.357,-1.239 2.206,-1.404 0.856,-0.166 1.728,-0.118 2.52,0.141 0.278,0.091 0.43,0.39 0.339,0.668 -0.082,0.25 -0.333,0.398 -0.585,0.359 l -0.012,-0.002 c -0.682,-0.107 -1.368,-0.145 -2.001,0.016 -0.632,0.155 -1.194,0.439 -1.641,0.882 l -0.014,0.013 c -0.208,0.206 -0.543,0.204 -0.749,-0.004 -0.181,-0.183 -0.201,-0.464 -0.063,-0.669 z"
   id="path199" />
		<ellipse
   style="fill:#ffffff"
   cx="296.711"
   cy="210.834"
   rx="5.7940001"
   ry="7.3940001"
   id="ellipse199" />
		<path
   style="fill:#ffffff"
   d="m 288.318,186.416 c -1.429,-0.908 -2.979,-1.565 -4.577,-2.021 -3.944,-1.125 -8.219,-0.89 -11.944,0.823 -2.46,1.132 -4.18,2.611 -5.397,4.09 1.194,0.466 2.434,0.771 3.851,0.642 0.343,-0.031 0.725,-0.125 1.133,-0.258 1.096,-0.357 2.408,-1.032 3.842,-1.792 3.667,-1.017 7.842,-0.45 11.116,1.63 3.303,2.098 7.256,6.602 7.329,16.144 l 3.69,-0.029 c -0.07,-8.74 -3.28,-15.569 -9.043,-19.229 z"
   id="path200" />
		<path
   style="fill:#78423b"
   d="m 276.72,214.944 c 0.571,0.69 0.945,1.521 1.169,2.365 0.245,0.844 0.335,1.715 0.376,2.58 0.016,0.434 0.018,0.868 -0.012,1.303 -0.03,0.185 0.134,0.363 0.347,0.369 0.123,-0.012 0.14,-0.003 0.334,-0.154 l 0.509,-0.372 1.021,-0.74 c 0.138,-0.1 0.33,-0.069 0.43,0.069 0.094,0.13 0.071,0.31 -0.048,0.413 l -0.954,0.825 -0.478,0.411 c -0.119,0.121 -0.484,0.365 -0.789,0.351 -0.64,0.056 -1.281,-0.534 -1.234,-1.216 0.011,-0.404 0.01,-0.811 -0.014,-1.216 -0.107,-1.621 -0.452,-3.224 -1.165,-4.641 l -0.005,-0.011 c -0.077,-0.152 -0.015,-0.338 0.137,-0.415 0.13,-0.066 0.286,-0.029 0.376,0.079 z"
   id="path201" />
		<path
   style="fill:#78423b"
   d="m 280.432,222.068 c 0.874,-0.059 1.765,-0.385 2.48,-0.888 0.725,-0.505 1.236,-1.196 1.498,-2.053 l 0.005,-0.017 c 0.057,-0.188 0.256,-0.294 0.444,-0.236 0.154,0.047 0.252,0.189 0.252,0.342 -0.002,0.554 -0.164,1.119 -0.455,1.608 -0.303,0.478 -0.697,0.899 -1.16,1.202 -0.919,0.606 -2.019,0.937 -3.132,0.746 -0.193,-0.033 -0.322,-0.216 -0.289,-0.409 0.028,-0.164 0.165,-0.282 0.325,-0.293 z"
   id="path202" />
		<g
   id="g203">
			<path
   style="fill:#b8e0d0"
   d="m 296.712,217.133 c -0.034,0 -0.068,-0.003 -0.103,-0.009 -2.014,-0.371 -3.443,-1.78 -4.02,-3.968 -0.732,-2.771 0.037,-6.387 1.646,-7.737 0.236,-0.199 0.59,-0.169 0.788,0.069 0.199,0.237 0.168,0.59 -0.069,0.788 -1.144,0.961 -1.955,4.051 -1.283,6.595 0.326,1.235 1.136,2.784 3.141,3.153 0.304,0.056 0.505,0.348 0.449,0.651 -0.049,0.269 -0.284,0.458 -0.549,0.458 z"
   id="path203" />
		</g>
		<g
   id="g218">
			<path
   style="fill:#26314a"
   d="m 112.102,228.921 c -0.762,1.112 -1.096,2.472 -1.16,3.816 -0.046,0.969 0.034,1.973 -0.316,2.878 -0.314,0.812 -0.948,1.466 -1.286,2.268 -0.438,1.038 -0.34,2.222 -0.111,3.325 0.22,1.059 0.555,2.094 0.996,3.083 0.885,-0.744 1.045,-2.091 1.901,-2.867 0.842,-0.764 2.114,-0.776 3.142,-1.263 1.147,-0.543 1.912,-1.632 2.717,-2.61 1.874,-2.277 4.569,-4.272 7.509,-3.98 -0.38,-2.162 -1.646,-4.156 -3.444,-5.423 -2.838,-1.999 -7.759,-2.421 -9.948,0.773 z"
   id="path204" />
			<path
   style="fill:#5e9162"
   d="m 138.358,240.756 c -0.829,-0.693 -1.73,-1.329 -2.369,-2.199 -1.201,-1.635 -1.289,-3.795 -1.528,-5.807 -0.239,-2.012 -0.821,-4.223 -2.551,-5.288 -1.209,-0.744 -2.731,-0.755 -4.137,-0.55 -1.406,0.205 -2.793,0.602 -4.214,0.594 -1.555,-0.009 -3.06,-0.503 -4.59,-0.786 -1.529,-0.283 -3.206,-0.329 -4.536,0.474 1.435,-0.211 3.066,-0.371 4.177,0.558 0.689,0.576 1.028,1.471 1.182,2.354 0.506,2.894 -0.636,6.113 0.794,8.681 1.496,2.688 5.062,3.348 7.4,5.353 2.546,2.183 3.378,5.702 4.07,8.977 0.11,0.521 5.675,-0.988 6.188,-1.172 1.419,-0.508 3.116,-1.181 3.833,-2.616 1.495,-2.983 -1.598,-6.801 -3.719,-8.573 z"
   id="path205" />
			<path
   style="fill:#26314a"
   d="m 140.293,242.753 c -1.578,-1.862 -3.831,-3.013 -6.243,-3.38 -6.158,-0.937 -13.965,-1.097 -14.208,-3.916 0.019,1.173 0.174,2.305 0.746,3.332 1.496,2.688 5.062,3.348 7.4,5.353 2.546,2.183 3.378,5.702 4.07,8.977 0.11,0.521 5.675,-0.988 6.188,-1.172 1.419,-0.508 3.116,-1.181 3.833,-2.616 1.11,-2.218 -0.139,-4.635 -1.786,-6.578 z"
   id="path206" />
			<path
   style="fill:#5e9162"
   d="m 135.509,255.314 c 0.551,-1.272 1.103,-2.548 1.499,-3.879 0.896,-3.01 1.151,-6.558 3.571,-8.514 1.186,-0.959 2.737,-1.367 3.902,-2.353 1.761,-1.49 2.315,-3.986 3.69,-5.85 1.067,-1.447 2.65,-2.492 4.383,-2.894 1.524,-0.354 3.136,-0.225 4.634,-0.68 3.258,-0.988 5.141,-4.387 7.886,-6.429 1.973,-1.468 4.518,-2.226 6.916,-1.745 2.398,0.481 4.565,2.312 5.184,4.718 -0.859,-0.639 -2.124,-0.4 -2.961,0.27 -0.836,0.67 -1.339,1.673 -1.792,2.653 -0.95,2.053 -1.806,4.164 -3.02,6.069 -1.213,1.904 -2.833,3.62 -4.892,4.492 -2.536,1.074 -5.778,0.943 -7.5,3.121 -1.213,1.535 -1.199,3.681 -1.511,5.625 -0.244,1.522 -0.757,3.064 -1.836,4.148 -1.263,1.269 -3.083,1.719 -4.732,2.387 -1.649,0.668 -3.356,1.821 -3.658,3.6 -0.237,0 -0.591,-0.105 -0.828,-0.105 l -11.051,-0.005 c 0.497,-1.614 1.447,-3.084 2.116,-4.629 z"
   id="path207" />
			<path
   style="fill:#26314a"
   d="m 153.663,254.063 c 1.078,-1.084 1.592,-2.626 1.836,-4.148 0.03,-0.186 0.055,-0.375 0.08,-0.564 -2.21,0.549 -6.081,1.437 -9.663,1.889 -2.992,0.378 -4.217,-1.334 -5.177,-3.427 -0.599,-1.305 -2.505,-1.164 -2.866,0.226 -0.294,1.134 -0.538,2.299 -0.864,3.395 -0.396,1.331 -0.948,2.607 -1.499,3.879 -0.669,1.546 -1.619,3.016 -2.117,4.627 l 11.051,0.005 c 0.237,0 0.591,0.105 0.828,0.105 0.302,-1.78 2.009,-2.932 3.658,-3.6 1.65,-0.668 3.47,-1.118 4.733,-2.387 z"
   id="path208" />
			<path
   style="fill:#26314a"
   d="m 138.414,258.584 h -8.026 c 0,0 -0.774,-3.148 -1.934,-4.197 -1.16,-1.049 2.406,-8.288 2.406,-8.288 0,0 3.2,-0.105 3.41,0 0.21,0.105 2.413,3.357 2.413,3.357 0,0 2.308,4.25 1.731,9.128 z"
   id="path209" />
			<path
   style="fill:#626a7a"
   d="m 145.498,299.135 h -13.637 c -1.882,0 -3.407,-1.526 -3.407,-3.407 v -37.151 h 20.452 v 37.151 c 0,1.881 -1.526,3.407 -3.408,3.407 z"
   id="path210" />
			<path
   style="fill:#26314a"
   d="m 141.589,258.576 c 2.281,0 2.386,11.077 7.317,13.49 v -13.49 z"
   id="path211" />
			<path
   style="fill:#5e9162"
   d="m 143.943,254.259 c 1.841,-0.828 3.906,-1.232 5.904,-0.935 1.998,0.297 3.916,1.334 5.087,2.975 0.89,1.247 1.32,2.771 2.192,4.031 0.927,1.339 2.318,2.326 3.145,3.728 0.917,1.555 1.037,3.435 1.102,5.237 0.047,1.297 0.074,2.613 -0.249,3.87 -0.324,1.257 -1.046,2.465 -2.183,3.099 0.224,-1.314 -0.739,-2.568 -1.877,-3.268 -1.138,-0.7 -2.467,-1.027 -3.653,-1.643 -3.578,-1.858 -5.278,-5.941 -6.705,-9.702 -0.408,-1.075 -0.825,-2.166 -1.516,-3.087 -0.691,-0.92 -1.706,-1.663 -2.855,-1.762 -0.917,-0.079 -1.665,0.494 -2.529,0.462 0.843,-1.319 2.709,-2.362 4.137,-3.005 z"
   id="path212" />
			<path
   style="fill:#5e9162"
   d="m 135.045,248.514 c 1.651,1.359 1.783,3.789 1.783,5.923 0,1.4 0.028,2.769 0.054,4.139 h 2.923 c 0.017,-2.918 -0.438,-5.841 -1.264,-8.644 -0.568,-1.927 -1.33,-3.842 -2.632,-5.376 -1.302,-1.534 -3.219,-2.648 -5.234,-2.597 -1.482,0.038 -2.881,0.687 -4.146,1.458 -1.622,0.989 -3.16,2.269 -3.917,4.006 -0.465,1.069 -0.622,2.279 -1.282,3.241 -0.673,0.979 -1.772,1.561 -2.813,2.137 -1.845,1.019 -3.639,2.128 -5.374,3.323 -0.693,0.477 -1.382,0.973 -1.952,1.591 -1.288,1.399 -1.868,3.35 -1.844,5.248 0.024,1.898 0.611,3.753 1.415,5.473 0.421,0.901 0.258,1.912 -0.147,2.821 -0.405,0.909 -1.046,1.688 -1.632,2.493 -1.882,2.583 -3.289,5.719 -2.921,8.89 0.367,3.171 2.98,6.212 6.183,6.212 -0.042,-3.289 0.057,-6.95 2.356,-9.311 2.046,-2.102 5.222,-2.523 8.14,-2.866 1.044,-0.122 2.119,-0.26 3.029,-0.784 1.814,-1.046 2.495,-3.378 2.348,-5.461 -0.147,-2.083 -0.941,-4.061 -1.372,-6.105 -0.431,-2.044 -0.446,-4.344 0.797,-6.026 0.856,-1.159 2.217,-1.892 2.985,-3.11 1.031,-1.634 0.784,-3.768 1.511,-5.556 0.347,-0.853 1.101,-1.701 2.018,-1.593 0.368,0.043 0.702,0.239 0.988,0.474 z"
   id="path213" />
			<g
   id="g214">
				<path
   style="fill:#26314a"
   d="m 142.502,252.598 c -0.01,0 -0.02,-0.001 -0.03,-0.002 -0.154,-0.016 -0.266,-0.154 -0.249,-0.307 0.344,-3.297 2.005,-6.352 4.444,-8.172 0.311,-0.233 0.568,-0.413 0.79,-0.568 1.154,-0.808 1.331,-0.933 3.623,-4.73 1.601,-2.654 3.919,-3.01 6.16,-3.356 1.725,-0.266 3.354,-0.516 4.578,-1.807 0.749,-0.789 1.503,-1.726 2.301,-2.716 2.324,-2.886 4.727,-5.869 7.502,-5.869 0.155,0 0.28,0.125 0.28,0.28 0,0.155 -0.125,0.28 -0.28,0.28 -2.507,0 -4.825,2.878 -7.066,5.661 -0.805,1 -1.567,1.945 -2.331,2.75 -1.356,1.43 -3.157,1.707 -4.898,1.975 -2.211,0.341 -4.301,0.662 -5.767,3.092 -2.352,3.898 -2.57,4.051 -3.781,4.898 -0.218,0.153 -0.47,0.33 -0.777,0.558 -2.315,1.728 -3.893,4.638 -4.222,7.782 -0.015,0.144 -0.136,0.251 -0.277,0.251 z"
   id="path214" />
			</g>
			<path
   style="fill:#26314a"
   d="m 128.287,242.519 c -0.959,1.156 -1.751,2.596 -2.32,4.272 -0.16,0.472 -0.302,0.952 -0.445,1.433 -0.394,1.328 -0.801,2.702 -1.596,3.823 -0.834,1.178 -2.084,2.061 -3.293,2.914 -1.534,1.083 -3.12,2.203 -3.909,3.95 -0.804,1.781 -0.688,3.999 0.357,6.783 l 0.156,0.41 c 0.344,0.894 0.699,1.82 0.697,2.755 -0.006,2.275 -2.081,4.055 -3.822,5.145 -0.202,0.127 -0.405,0.25 -0.609,0.375 -0.863,0.525 -1.755,1.068 -2.493,1.798 -1.067,1.054 -1.601,2.39 -1.429,3.576 0.02,0.139 0.14,0.239 0.276,0.239 0.014,0 0.027,-0.001 0.041,-0.003 0.153,-0.022 0.258,-0.164 0.237,-0.317 -0.147,-1.01 0.327,-2.168 1.268,-3.097 0.692,-0.684 1.556,-1.21 2.391,-1.718 0.206,-0.126 0.412,-0.25 0.616,-0.378 2.667,-1.672 4.079,-3.615 4.084,-5.617 0.003,-1.042 -0.372,-2.015 -0.734,-2.958 l -0.155,-0.405 c -0.99,-2.638 -1.111,-4.717 -0.37,-6.356 0.727,-1.608 2.181,-2.636 3.722,-3.723 1.247,-0.881 2.537,-1.791 3.427,-3.048 0.848,-1.197 1.268,-2.616 1.675,-3.987 0.14,-0.474 0.28,-0.948 0.438,-1.412 0.434,-1.279 1.322,-3.276 2.892,-4.818 -0.375,0.091 -0.742,0.215 -1.102,0.364 z"
   id="path215" />
			<path
   style="fill:#26314a"
   d="m 158.364,268.966 c 0.014,0.144 0.136,0.252 0.278,0.252 0.009,0 0.019,0 0.028,-0.001 0.154,-0.015 0.266,-0.152 0.251,-0.306 -0.103,-1.042 -0.564,-2.025 -1.3,-2.773 -0.537,-0.543 -1.191,-0.936 -1.825,-1.314 -0.608,-0.364 -1.183,-0.708 -1.662,-1.175 -0.725,-0.707 -1.179,-1.654 -1.617,-2.569 l -1.681,-3.511 c -0.32,-0.667 -0.65,-1.356 -1.107,-1.97 -0.793,-1.065 -1.976,-1.804 -3.262,-2.155 -0.436,0.089 -0.868,0.202 -1.292,0.341 1.59,0.098 3.155,0.872 4.105,2.149 0.425,0.57 0.743,1.234 1.051,1.877 l 1.681,3.511 c 0.438,0.915 0.935,1.952 1.731,2.728 0.526,0.513 1.156,0.89 1.766,1.254 0.631,0.377 1.227,0.734 1.714,1.227 0.646,0.657 1.052,1.521 1.141,2.435 z"
   id="path216" />
			<path
   style="fill:#26314a"
   d="m 128.397,236.252 c 0.076,0 0.153,-0.032 0.208,-0.093 0.103,-0.115 0.093,-0.292 -0.021,-0.395 -0.579,-0.519 -0.957,-1.316 -1.189,-2.51 -0.054,-0.274 -0.098,-0.55 -0.143,-0.827 -0.116,-0.716 -0.235,-1.457 -0.509,-2.156 -0.479,-1.221 -1.431,-2.212 -2.589,-2.797 -0.198,0.013 -0.395,0.035 -0.594,0.034 -0.56,-0.003 -1.112,-0.08 -1.663,-0.177 0.046,0.073 0.113,0.13 0.206,0.136 1.775,0.115 3.469,1.352 4.119,3.008 0.252,0.643 0.362,1.322 0.478,2.04 0.045,0.283 0.091,0.566 0.145,0.845 0.162,0.831 0.479,2.026 1.364,2.82 0.055,0.049 0.122,0.072 0.188,0.072 z"
   id="path217" />
			
				<line
   style="fill:none;stroke:#26314a;stroke-width:0.5596;stroke-linecap:round;stroke-linejoin:round;stroke-miterlimit:10"
   x1="130.44"
   y1="261.332"
   x2="144.48599"
   y2="261.332"
   id="line217" />
			<path
   style="fill:#26314a"
   d="m 131.861,299.135 h 13.637 c 1.882,0 3.407,-1.526 3.407,-3.407 v -3.897 c 0,-4.78 -2.525,-9.233 -6.684,-11.591 -6.778,-3.843 -13.769,-10.161 -13.769,-14.355 v 29.843 c 0.001,1.881 1.527,3.407 3.409,3.407 z"
   id="path218" />
		</g>
		<g
   id="g231">
			<g
   id="g230">
				<path
   style="fill:#5f7aba"
   d="m 176.381,299.05 h -36.173 c -2.577,0 -4.666,-2.089 -4.666,-4.666 v -5.23 c 0,-2.577 2.089,-4.666 4.666,-4.666 h 36.173 z"
   id="path219" />
				<g
   id="g221">
					<path
   style="fill:#f5c365"
   d="m 138.666,294.384 v -5.23 c 0,-2.577 2.089,-4.666 4.666,-4.666 h -2.379 c -1.702,0.872 -2.882,2.625 -2.882,4.666 v 5.23 c 0,2.04 1.18,3.794 2.882,4.666 h 2.379 c -2.577,0 -4.666,-2.089 -4.666,-4.666 z"
   id="path220" />
					<path
   style="fill:#f5c365"
   d="m 140.982,294.384 v -5.23 c 0,-2.577 2.089,-4.666 4.666,-4.666 h -2.379 c -1.702,0.872 -2.882,2.625 -2.882,4.666 v 5.23 c 0,2.04 1.18,3.794 2.882,4.666 h 2.379 c -2.577,0 -4.666,-2.089 -4.666,-4.666 z"
   id="path221" />
				</g>
				<g
   id="g223">
					<path
   style="fill:#f5c365"
   d="m 165.279,294.384 v -5.23 c 0,-2.577 2.089,-4.666 4.666,-4.666 h -2.379 c -1.702,0.872 -2.882,2.625 -2.882,4.666 v 5.23 c 0,2.04 1.18,3.794 2.882,4.666 h 2.379 c -2.577,0 -4.666,-2.089 -4.666,-4.666 z"
   id="path222" />
					<path
   style="fill:#f5c365"
   d="m 167.596,294.384 v -5.23 c 0,-2.577 2.089,-4.666 4.666,-4.666 h -2.379 c -1.702,0.872 -2.882,2.625 -2.882,4.666 v 5.23 c 0,2.04 1.18,3.794 2.882,4.666 h 2.379 c -2.577,0 -4.666,-2.089 -4.666,-4.666 z"
   id="path223" />
				</g>
				<path
   style="fill:#26314a"
   d="m 211.64,299.05 h -36.173 c -2.577,0 -4.666,-2.089 -4.666,-4.666 v -5.23 c 0,-2.577 2.089,-4.666 4.666,-4.666 h 36.173 z"
   id="path224" />
				<path
   style="fill:#ede5da"
   d="m 211.64,297.669 h -35.762 c -1.997,0 -3.616,-1.619 -3.616,-3.616 v -4.567 c 0,-1.997 1.619,-3.616 3.616,-3.616 h 35.762 z"
   id="path225" />
				<g
   id="g229">
					<rect
   x="172.261"
   y="292.396"
   style="fill:#ffffff"
   width="38.514"
   height="0.45199999"
   id="rect225" />
					<path
   style="fill:#ffffff"
   d="m 210.776,296.26 v -0.452 h -38.041 c 0.089,0.159 0.187,0.309 0.298,0.452 z"
   id="path226" />
					<path
   style="fill:#ffffff"
   d="m 172.266,294.102 c 0.002,0.154 0.025,0.303 0.046,0.452 h 38.464 v -0.452 z"
   id="path227" />
					<path
   style="fill:#ffffff"
   d="m 172.312,288.984 c -0.021,0.149 -0.043,0.297 -0.046,0.452 h 38.509 v -0.452 z"
   id="path228" />
					<rect
   x="172.261"
   y="290.69"
   style="fill:#ffffff"
   width="38.514"
   height="0.45199999"
   id="rect228" />
					<path
   style="fill:#ffffff"
   d="m 173.032,287.278 c -0.111,0.143 -0.209,0.293 -0.298,0.452 h 38.041 v -0.452 z"
   id="path229" />
				</g>
			</g>
			<path
   style="fill:#f0887a"
   d="m 182.264,300.473 c -1.811,-0.84 -3.142,-1.681 -4.203,-2.521 -0.851,0.84 -1.433,1.681 -1.534,2.521 -3.897,-3.83 2.189,-7.659 -1.708,-11.489 1.912,0 3.825,0 5.737,0 3.896,3.83 -2.189,7.659 1.708,11.489 z"
   id="path230" />
		</g>
		<g
   id="g238">
			<path
   style="fill:#626a7a"
   d="m 196.563,411.143 c 2.326,0.315 4.557,1.132 6.592,2.167 2.04,1.042 3.878,2.324 5.645,3.581 3.525,2.515 6.776,5.099 10.446,6.258 1.814,0.576 3.706,0.895 5.547,0.801 1.839,-0.094 3.616,-0.631 5.15,-1.565 1.548,-0.907 2.86,-2.225 3.746,-3.783 0.883,-1.561 1.284,-3.35 1.153,-5.093 l -0.007,-0.087 c -0.069,-0.915 0.617,-1.712 1.532,-1.781 0.851,-0.064 1.603,0.534 1.758,1.353 0.467,2.512 0.007,5.124 -1.09,7.363 -1.141,2.225 -2.881,4.116 -4.98,5.461 -2.11,1.331 -4.566,2.07 -7.008,2.222 -2.448,0.159 -4.862,-0.239 -7.106,-1.019 -4.529,-1.58 -8.105,-4.493 -11.406,-7.095 -3.33,-2.603 -6.662,-4.912 -10.496,-5.77 l -0.015,-0.003 c -0.824,-0.184 -1.343,-1.002 -1.159,-1.826 0.174,-0.782 0.921,-1.287 1.698,-1.184 z"
   id="path231" />
			<path
   style="fill:#26314a"
   d="m 217.941,427.02 c 1.354,0.471 2.773,0.78 4.221,0.934 -3.444,-1.584 -6.154,-4.808 -9.192,-8.094 -1.376,-0.938 -2.751,-1.957 -4.17,-2.97 -1.767,-1.257 -3.605,-2.539 -5.645,-3.581 -2.035,-1.034 -4.266,-1.851 -6.592,-2.167 -0.777,-0.103 -1.524,0.402 -1.698,1.182 -0.184,0.824 0.334,1.642 1.159,1.826 l 0.015,0.003 c 3.834,0.858 7.166,3.167 10.496,5.77 3.301,2.603 6.877,5.516 11.406,7.097 z"
   id="path232" />
			<path
   style="fill:#26314a"
   d="m 198.615,437.533 -6.232,21.19 h -5.465 c 0,0 3.022,-8.263 3.452,-13.423 0.479,-5.753 -6.424,-12.369 -6.424,-12.369 0,0 10.258,-1.918 14.669,4.602 z"
   id="path233" />
			<polygon
   style="fill:#26314a"
   points="160.486,437.501 163.17,458.723 157.545,458.723 154.605,444.149 "
   id="polygon233" />
			<path
   style="fill:#626a7a"
   d="m 138.281,384.025 c -0.223,-0.667 0.409,-1.316 1.088,-1.137 1.278,0.337 3.288,0.559 5.264,-0.487 3.26,-1.726 7.383,-3.643 7.766,-5.082 0.215,-0.807 0.4,-1.825 0.521,-2.564 0.09,-0.548 0.694,-0.836 1.179,-0.566 0.901,0.503 2.077,1.552 2.135,3.609 0.959,1.918 4.315,1.918 5.465,6.424 1.151,4.506 -1.726,7.862 -1.342,10.451 0.288,1.942 5.268,4.153 9.074,7.281 3.242,2.664 7.25,4.215 11.423,4.65 8.497,0.885 18.378,1.712 22.266,7.437 5.273,7.766 6.903,15.149 9.588,18.601 2.685,3.452 5.657,3.548 6.808,4.986 1.151,1.438 0.671,21.094 0.671,21.094 h -4.219 c 0,0 0.671,-10.739 -2.876,-13.615 -3.37,-2.733 -10.288,-2.696 -18.042,-7.947 -0.936,-0.634 -2.002,-1.034 -3.113,-1.239 -4.777,-0.881 -17.634,-2.968 -26.729,-1.796 -1.635,0.211 -2.868,1.57 -2.92,3.218 -0.036,1.147 -0.139,2.377 -0.398,3.066 -0.575,1.534 -6.616,11.506 -7.671,18.313 h -4.794 c 0,0 -0.192,-5.369 0.863,-9.109 1.055,-3.739 2.876,-9.109 1.918,-12.944 -0.959,-3.835 -6.136,-9.205 -6.616,-16.588 0,0 -5.178,-9.396 -4.698,-32.025 0.002,0.002 -1.898,-1.897 -2.611,-4.031 z"
   id="path234" />
			<circle
   style="fill:#26314a"
   cx="148.68401"
   cy="384.63101"
   r="1.031"
   id="circle234" />
			<circle
   style="fill:#26314a"
   cx="154.677"
   cy="381.08301"
   r="1.031"
   id="circle235" />
			<path
   style="fill:#26314a"
   d="m 152.946,384.12 0.86,-0.582 c 0.375,-0.254 0.9,-0.026 0.946,0.424 0.04,0.396 0.022,0.89 -0.158,1.42 -0.771,0.115 -1.297,-0.04 -1.643,-0.249 -0.372,-0.224 -0.364,-0.769 -0.005,-1.013 z"
   id="path235" />
			
				<path
   style="fill:none;stroke:#26314a;stroke-width:0.6818;stroke-linecap:round;stroke-linejoin:round;stroke-miterlimit:10"
   d="m 154.184,388.293 c 1.348,-0.842 0.586,-2.356 0.586,-2.356 0.765,0.644 1.689,1.04 2.746,0.367"
   id="path236" />
			
				<line
   style="fill:none;stroke:#26314a;stroke-width:0.6818;stroke-linecap:round;stroke-linejoin:round;stroke-miterlimit:10"
   x1="148.08501"
   y1="388.293"
   x2="144.25"
   y2="390.20001"
   id="line236" />
			
				<line
   style="fill:none;stroke:#26314a;stroke-width:0.6818;stroke-linecap:round;stroke-linejoin:round;stroke-miterlimit:10"
   x1="149.715"
   y1="389.246"
   x2="146.16701"
   y2="392.69"
   id="line237" />
			
				<line
   style="fill:none;stroke:#26314a;stroke-width:0.6818;stroke-linecap:round;stroke-linejoin:round;stroke-miterlimit:10"
   x1="151.105"
   y1="390.20001"
   x2="149.358"
   y2="394.25699"
   id="line238" />
		</g>
		<g
   id="g241">
			<circle
   style="fill:#ffffff"
   cx="384.078"
   cy="197.147"
   r="37.438"
   id="circle238" />
			<g
   id="g240">
				<path
   style="fill:#f5c365"
   d="m 398.647,188.42 c 0,-8.593 -7.44,-15.449 -16.229,-14.477 -6.476,0.716 -11.803,5.834 -12.747,12.281 -0.611,4.173 0.554,8.064 2.846,11.046 1.717,2.234 2.989,4.777 3.528,7.542 l 0.689,3.532 c 0.161,0.827 0.886,1.424 1.729,1.424 h 11.229 c 0.843,0 1.567,-0.597 1.729,-1.424 l 0.689,-3.529 c 0.542,-2.779 1.833,-5.326 3.552,-7.575 1.872,-2.447 2.985,-5.502 2.985,-8.82 z"
   id="path238" />
				<g
   id="g239">
					<ellipse
   style="fill:#26314a"
   cx="383.93399"
   cy="217.87"
   rx="4.4499998"
   ry="2.572"
   id="ellipse238" />
					<path
   style="fill:#5f7aba"
   d="m 389.041,218.639 h -10.214 c -0.963,0 -1.745,-0.781 -1.745,-1.744 v -6.061 c 0,-0.589 0.477,-1.066 1.066,-1.066 h 11.572 c 0.589,0 1.066,0.477 1.066,1.066 v 6.061 c 0,0.963 -0.781,1.744 -1.745,1.744 z"
   id="path239" />
				</g>
				
					<path
   style="fill:none;stroke:#ffffff;stroke-width:0.8556;stroke-linecap:round;stroke-linejoin:round;stroke-miterlimit:10"
   d="m 392.542,193.438 c -1.735,0 -2.573,-1.919 -2.905,-3.808 -0.179,-1.016 0.222,-2.065 0.789,-2.065 v 0 c 0.567,0 0.967,1.049 0.789,2.065 -0.332,1.889 -1.17,3.808 -2.905,3.808 -1.735,0 -2.573,-1.919 -2.905,-3.808 -0.179,-1.016 0.222,-2.065 0.789,-2.065 v 0 c 0.567,0 0.967,1.049 0.789,2.065 -0.332,1.889 -1.17,3.808 -2.905,3.808 -1.735,0 -2.573,-1.919 -2.905,-3.808 -0.179,-1.016 0.222,-2.065 0.789,-2.065 v 0 c 0.567,0 0.967,1.049 0.789,2.065 -0.332,1.889 -1.17,3.808 -2.905,3.808 -1.735,0 -2.573,-1.919 -2.905,-3.808 -0.179,-1.016 0.222,-2.065 0.789,-2.065 v 0 c 0.567,0 0.967,1.049 0.789,2.065 -0.332,1.889 -1.17,3.808 -2.905,3.808"
   id="path240" />
			</g>
			<polygon
   style="fill:#ffffff"
   points="352.09,240.317 372.679,225.552 360.047,217.133 "
   id="polygon240" />
		</g>
		
			<line
   style="fill:none;stroke:#709687;stroke-width:1.0237;stroke-miterlimit:10"
   x1="77.406998"
   y1="459.03799"
   x2="424.64899"
   y2="459.03799"
   id="line241" />
	</g>
</g>
</svg>
